<svg width="1158" height="733" viewBox="0 0 1158 733" fill="none" xmlns="http://www.w3.org/2000/svg">
<path d="M0 167.148H324V256.839H0V167.148ZM127.045 1L173.533 17.9089C145.498 176.706 106.462 373.731 77.7174 500.915L34.4228 468.568C62.8127 348.735 101.849 151.71 127.045 1ZM226.41 211.258L273.253 233.314C244.863 539.144 179.211 645.744 25.5509 692.794C21.2924 665.593 11.7108 628.1 3.19387 605.309C145.498 571.492 202.988 482.536 226.41 211.258ZM57.8445 453.864L86.5893 384.758C162.177 436.955 265.801 533.263 317.967 611.926L285.319 695C237.766 615.602 136.981 512.678 57.8445 453.864Z" fill="#FF0000"/>
<path d="M15.5284 9.90909H23.1136L31.125 29.4545H31.4659L39.4773 9.90909H47.0625V39H41.0966V20.0653H40.8551L33.3267 38.858H29.2642L21.7358 19.9943H21.4943V39H15.5284V9.90909ZM58.2805 9.90909V39H52.13V9.90909H58.2805ZM79.1222 18.2756C79.0085 17.1297 78.5208 16.2396 77.6591 15.6051C76.7973 14.9706 75.6278 14.6534 74.1506 14.6534C73.1468 14.6534 72.2992 14.7955 71.608 15.0795C70.9167 15.3542 70.3864 15.7377 70.017 16.2301C69.6572 16.7225 69.4773 17.2812 69.4773 17.9062C69.4583 18.4271 69.5672 18.8816 69.804 19.2699C70.0502 19.6581 70.3864 19.9943 70.8125 20.2784C71.2386 20.553 71.7311 20.7945 72.2898 21.0028C72.8485 21.2017 73.4451 21.3722 74.0795 21.5142L76.6932 22.1392C77.9621 22.4233 79.1269 22.8021 80.1875 23.2756C81.2481 23.7491 82.1667 24.3314 82.9432 25.0227C83.7197 25.714 84.321 26.5284 84.7472 27.4659C85.1828 28.4034 85.4053 29.4782 85.4148 30.6903C85.4053 32.4706 84.9508 34.0142 84.0511 35.321C83.161 36.6184 81.8731 37.6269 80.1875 38.3466C78.5114 39.0568 76.4896 39.4119 74.1222 39.4119C71.7737 39.4119 69.7282 39.0521 67.9858 38.3324C66.2528 37.6127 64.8987 36.5473 63.9233 35.1364C62.9574 33.7159 62.4508 31.9593 62.4034 29.8665H68.3551C68.4214 30.8419 68.7008 31.6562 69.1932 32.3097C69.6951 32.9536 70.3627 33.4413 71.196 33.7727C72.0388 34.0947 72.9905 34.2557 74.0511 34.2557C75.0928 34.2557 75.9972 34.1042 76.7642 33.8011C77.5407 33.4981 78.142 33.0767 78.5682 32.5369C78.9943 31.9972 79.2074 31.3769 79.2074 30.6761C79.2074 30.0227 79.0133 29.4735 78.625 29.0284C78.2462 28.5833 77.6875 28.2045 76.9489 27.892C76.2197 27.5795 75.3248 27.2955 74.2642 27.0398L71.0966 26.2443C68.6439 25.6477 66.7074 24.715 65.2869 23.446C63.8665 22.1771 63.161 20.4678 63.1705 18.3182C63.161 16.5568 63.6297 15.018 64.5767 13.7017C65.5331 12.3854 66.8447 11.358 68.5114 10.6193C70.178 9.88068 72.072 9.51136 74.1932 9.51136C76.3523 9.51136 78.2367 9.88068 79.8466 10.6193C81.4659 11.358 82.7254 12.3854 83.625 13.7017C84.5246 15.018 84.9886 16.5426 85.017 18.2756H79.1222ZM116.285 24.4545C116.285 27.6269 115.683 30.3258 114.481 32.5511C113.288 34.7765 111.659 36.4763 109.594 37.6506C107.54 38.8153 105.229 39.3977 102.663 39.3977C100.077 39.3977 97.7573 38.8106 95.7024 37.6364C93.6475 36.4621 92.0234 34.7623 90.8303 32.5369C89.6371 30.3116 89.0405 27.6174 89.0405 24.4545C89.0405 21.2822 89.6371 18.5833 90.8303 16.358C92.0234 14.1326 93.6475 12.4375 95.7024 11.2727C97.7573 10.0985 100.077 9.51136 102.663 9.51136C105.229 9.51136 107.54 10.0985 109.594 11.2727C111.659 12.4375 113.288 14.1326 114.481 16.358C115.683 18.5833 116.285 21.2822 116.285 24.4545ZM110.049 24.4545C110.049 22.3996 109.741 20.6667 109.126 19.2557C108.52 17.8447 107.663 16.7746 106.555 16.0455C105.447 15.3163 104.149 14.9517 102.663 14.9517C101.176 14.9517 99.8786 15.3163 98.7706 16.0455C97.6626 16.7746 96.8009 17.8447 96.1854 19.2557C95.5793 20.6667 95.2763 22.3996 95.2763 24.4545C95.2763 26.5095 95.5793 28.2424 96.1854 29.6534C96.8009 31.0644 97.6626 32.1345 98.7706 32.8636C99.8786 33.5928 101.176 33.9574 102.663 33.9574C104.149 33.9574 105.447 33.5928 106.555 32.8636C107.663 32.1345 108.52 31.0644 109.126 29.6534C109.741 28.2424 110.049 26.5095 110.049 24.4545ZM140.131 19.3125C139.932 18.6212 139.652 18.0104 139.293 17.4801C138.933 16.9403 138.492 16.4858 137.972 16.1165C137.46 15.7377 136.873 15.4489 136.21 15.25C135.557 15.0511 134.832 14.9517 134.037 14.9517C132.55 14.9517 131.243 15.321 130.116 16.0597C128.999 16.7983 128.128 17.8731 127.503 19.2841C126.878 20.6856 126.565 22.3996 126.565 24.4261C126.565 26.4527 126.873 28.1761 127.489 29.5966C128.104 31.017 128.975 32.1013 130.102 32.8494C131.229 33.5881 132.56 33.9574 134.094 33.9574C135.486 33.9574 136.674 33.7112 137.659 33.2188C138.653 32.7169 139.411 32.0114 139.932 31.1023C140.462 30.1932 140.727 29.1184 140.727 27.8778L141.977 28.0625H134.477V23.4318H146.651V27.0966C146.651 29.6534 146.111 31.8504 145.031 33.6875C143.952 35.5152 142.465 36.9261 140.571 37.9205C138.677 38.9053 136.509 39.3977 134.065 39.3977C131.338 39.3977 128.942 38.7964 126.878 37.5938C124.813 36.3816 123.204 34.6629 122.048 32.4375C120.902 30.2027 120.33 27.5511 120.33 24.483C120.33 22.125 120.67 20.0227 121.352 18.1761C122.044 16.3201 123.009 14.7481 124.25 13.4602C125.491 12.1723 126.935 11.1922 128.582 10.5199C130.23 9.84754 132.015 9.51136 133.938 9.51136C135.585 9.51136 137.119 9.75284 138.54 10.2358C139.96 10.7093 141.22 11.3816 142.318 12.2528C143.426 13.1241 144.33 14.161 145.031 15.3636C145.732 16.5568 146.182 17.8731 146.381 19.3125H140.131ZM148.394 9.90909H155.283L161.917 22.4375H162.201L168.835 9.90909H175.724L165.113 28.7159V39H159.005V28.7159L148.394 9.90909ZM203.415 9.90909V39H198.103L185.447 20.6903H185.234V39H179.083V9.90909H184.481L197.038 28.2045H197.293V9.90909H203.415ZM206.793 9.90909H213.682L220.315 22.4375H220.599L227.233 9.90909H234.122L223.511 28.7159V39H217.403V28.7159L206.793 9.90909ZM252.89 9.90909V39H246.739V9.90909H252.89ZM282.283 9.90909V39H276.97L264.314 20.6903H264.101V39H257.95V9.90909H263.348L275.905 28.2045H276.161V9.90909H282.283ZM41.196 68.0938H34.9744C34.8608 67.2888 34.6288 66.5739 34.2784 65.9489C33.928 65.3144 33.4782 64.7746 32.929 64.3295C32.3797 63.8845 31.7453 63.5436 31.0256 63.3068C30.3153 63.0701 29.5436 62.9517 28.7102 62.9517C27.2045 62.9517 25.893 63.3258 24.7756 64.0739C23.6581 64.8125 22.7917 65.892 22.1761 67.3125C21.5606 68.7235 21.2528 70.4375 21.2528 72.4545C21.2528 74.5284 21.5606 76.2708 22.1761 77.6818C22.8011 79.0928 23.6723 80.1581 24.7898 80.8778C25.9072 81.5975 27.1998 81.9574 28.6676 81.9574C29.4915 81.9574 30.2538 81.8485 30.9545 81.6307C31.6648 81.4129 32.2945 81.0956 32.8438 80.679C33.393 80.2528 33.8475 79.7367 34.2074 79.1307C34.5767 78.5246 34.8324 77.8333 34.9744 77.0568L41.196 77.0852C41.035 78.4205 40.6326 79.7083 39.9886 80.9489C39.3542 82.1799 38.4972 83.2831 37.4176 84.2585C36.3475 85.2244 35.0691 85.9915 33.5824 86.5597C32.1051 87.1184 30.4337 87.3977 28.5682 87.3977C25.9735 87.3977 23.6534 86.8106 21.608 85.6364C19.572 84.4621 17.9621 82.7623 16.7784 80.5369C15.6042 78.3116 15.017 75.6174 15.017 72.4545C15.017 69.2822 15.6136 66.5833 16.8068 64.358C18 62.1326 19.6193 60.4375 21.6648 59.2727C23.7102 58.0985 26.0114 57.5114 28.5682 57.5114C30.2538 57.5114 31.8163 57.7481 33.2557 58.2216C34.7045 58.6951 35.9877 59.3864 37.1051 60.2955C38.2225 61.1951 39.1316 62.2983 39.8324 63.6051C40.5426 64.9119 40.9972 66.4081 41.196 68.0938ZM45.6065 87V57.9091H51.7571V69.9119H64.2429V57.9091H70.3793V87H64.2429V74.983H51.7571V87H45.6065ZM81.6009 57.9091V87H75.4503V57.9091H81.6009ZM110.994 57.9091V87H105.681L93.0249 68.6903H92.8118V87H86.6612V57.9091H92.0589L104.616 76.2045H104.871V57.9091H110.994ZM116.075 87V57.9091H135.678V62.9801H122.226V69.9119H134.669V74.983H122.226V81.929H135.734V87H116.075ZM156.349 66.2756C156.235 65.1297 155.747 64.2396 154.886 63.6051C154.024 62.9706 152.854 62.6534 151.377 62.6534C150.373 62.6534 149.526 62.7955 148.835 63.0795C148.143 63.3542 147.613 63.7377 147.244 64.2301C146.884 64.7225 146.704 65.2812 146.704 65.9062C146.685 66.4271 146.794 66.8816 147.031 67.2699C147.277 67.6581 147.613 67.9943 148.039 68.2784C148.465 68.553 148.958 68.7945 149.516 69.0028C150.075 69.2017 150.672 69.3722 151.306 69.5142L153.92 70.1392C155.189 70.4233 156.353 70.8021 157.414 71.2756C158.475 71.7491 159.393 72.3314 160.17 73.0227C160.946 73.714 161.548 74.5284 161.974 75.4659C162.409 76.4034 162.632 77.4782 162.641 78.6903C162.632 80.4706 162.177 82.0142 161.278 83.321C160.388 84.6184 159.1 85.6269 157.414 86.3466C155.738 87.0568 153.716 87.4119 151.349 87.4119C149 87.4119 146.955 87.0521 145.212 86.3324C143.479 85.6127 142.125 84.5473 141.15 83.1364C140.184 81.7159 139.677 79.9593 139.63 77.8665H145.582C145.648 78.8419 145.927 79.6562 146.42 80.3097C146.922 80.9536 147.589 81.4413 148.423 81.7727C149.265 82.0947 150.217 82.2557 151.278 82.2557C152.319 82.2557 153.224 82.1042 153.991 81.8011C154.767 81.4981 155.369 81.0767 155.795 80.5369C156.221 79.9972 156.434 79.3769 156.434 78.6761C156.434 78.0227 156.24 77.4735 155.852 77.0284C155.473 76.5833 154.914 76.2045 154.175 75.892C153.446 75.5795 152.551 75.2955 151.491 75.0398L148.323 74.2443C145.871 73.6477 143.934 72.715 142.513 71.446C141.093 70.1771 140.388 68.4678 140.397 66.3182C140.388 64.5568 140.856 63.018 141.803 61.7017C142.76 60.3854 144.071 59.358 145.738 58.6193C147.405 57.8807 149.299 57.5114 151.42 57.5114C153.579 57.5114 155.463 57.8807 157.073 58.6193C158.692 59.358 159.952 60.3854 160.852 61.7017C161.751 63.018 162.215 64.5426 162.244 66.2756H156.349ZM166.778 87V57.9091H186.381V62.9801H172.929V69.9119H185.372V74.983H172.929V81.929H186.438V87H166.778ZM41.196 116.094H34.9744C34.8608 115.289 34.6288 114.574 34.2784 113.949C33.928 113.314 33.4782 112.775 32.929 112.33C32.3797 111.884 31.7453 111.544 31.0256 111.307C30.3153 111.07 29.5436 110.952 28.7102 110.952C27.2045 110.952 25.893 111.326 24.7756 112.074C23.6581 112.812 22.7917 113.892 22.1761 115.312C21.5606 116.723 21.2528 118.437 21.2528 120.455C21.2528 122.528 21.5606 124.271 22.1761 125.682C22.8011 127.093 23.6723 128.158 24.7898 128.878C25.9072 129.598 27.1998 129.957 28.6676 129.957C29.4915 129.957 30.2538 129.848 30.9545 129.631C31.6648 129.413 32.2945 129.096 32.8438 128.679C33.393 128.253 33.8475 127.737 34.2074 127.131C34.5767 126.525 34.8324 125.833 34.9744 125.057L41.196 125.085C41.035 126.42 40.6326 127.708 39.9886 128.949C39.3542 130.18 38.4972 131.283 37.4176 132.259C36.3475 133.224 35.0691 133.991 33.5824 134.56C32.1051 135.118 30.4337 135.398 28.5682 135.398C25.9735 135.398 23.6534 134.811 21.608 133.636C19.572 132.462 17.9621 130.762 16.7784 128.537C15.6042 126.312 15.017 123.617 15.017 120.455C15.017 117.282 15.6136 114.583 16.8068 112.358C18 110.133 19.6193 108.437 21.6648 107.273C23.7102 106.098 26.0114 105.511 28.5682 105.511C30.2538 105.511 31.8163 105.748 33.2557 106.222C34.7045 106.695 35.9877 107.386 37.1051 108.295C38.2225 109.195 39.1316 110.298 39.8324 111.605C40.5426 112.912 40.9972 114.408 41.196 116.094ZM45.6065 135V105.909H51.7571V117.912H64.2429V105.909H70.3793V135H64.2429V122.983H51.7571V135H45.6065ZM80.4645 135H73.8736L83.9162 105.909H91.8423L101.871 135H95.2798L87.9929 112.557H87.7656L80.4645 135ZM80.0526 123.565H95.6207V128.366H80.0526V123.565ZM105.372 135V105.909H116.849C119.046 105.909 120.921 106.302 122.474 107.088C124.037 107.865 125.225 108.968 126.04 110.398C126.864 111.818 127.276 113.49 127.276 115.412C127.276 117.344 126.859 119.006 126.026 120.398C125.192 121.78 123.985 122.841 122.403 123.58C120.831 124.318 118.928 124.688 116.693 124.688H109.009V119.744H115.699C116.873 119.744 117.848 119.583 118.625 119.261C119.402 118.939 119.979 118.456 120.358 117.812C120.746 117.169 120.94 116.368 120.94 115.412C120.94 114.446 120.746 113.632 120.358 112.969C119.979 112.306 119.397 111.804 118.611 111.463C117.834 111.113 116.854 110.938 115.67 110.938H111.523V135H105.372ZM121.082 121.761L128.312 135H121.523L114.449 121.761H121.082ZM136.636 135H130.045L140.088 105.909H148.014L158.043 135H151.452L144.165 112.557H143.938L136.636 135ZM136.224 123.565H151.793V128.366H136.224V123.565ZM185.844 116.094H179.623C179.509 115.289 179.277 114.574 178.927 113.949C178.576 113.314 178.127 112.775 177.577 112.33C177.028 111.884 176.394 111.544 175.674 111.307C174.964 111.07 174.192 110.952 173.359 110.952C171.853 110.952 170.541 111.326 169.424 112.074C168.307 112.812 167.44 113.892 166.825 115.312C166.209 116.723 165.901 118.437 165.901 120.455C165.901 122.528 166.209 124.271 166.825 125.682C167.45 127.093 168.321 128.158 169.438 128.878C170.556 129.598 171.848 129.957 173.316 129.957C174.14 129.957 174.902 129.848 175.603 129.631C176.313 129.413 176.943 129.096 177.492 128.679C178.041 128.253 178.496 127.737 178.856 127.131C179.225 126.525 179.481 125.833 179.623 125.057L185.844 125.085C185.683 126.42 185.281 127.708 184.637 128.949C184.003 130.18 183.146 131.283 182.066 132.259C180.996 133.224 179.718 133.991 178.231 134.56C176.754 135.118 175.082 135.398 173.217 135.398C170.622 135.398 168.302 134.811 166.256 133.636C164.22 132.462 162.611 130.762 161.427 128.537C160.253 126.312 159.665 123.617 159.665 120.455C159.665 117.282 160.262 114.583 161.455 112.358C162.648 110.133 164.268 108.437 166.313 107.273C168.359 106.098 170.66 105.511 173.217 105.511C174.902 105.511 176.465 105.748 177.904 106.222C179.353 106.695 180.636 107.386 181.754 108.295C182.871 109.195 183.78 110.298 184.481 111.605C185.191 112.912 185.646 114.408 185.844 116.094ZM189.147 110.98V105.909H213.039V110.98H204.133V135H198.053V110.98H189.147ZM216.974 135V105.909H236.576V110.98H223.124V117.912H235.567V122.983H223.124V129.929H236.633V135H216.974ZM241.466 135V105.909H252.943C255.14 105.909 257.015 106.302 258.568 107.088C260.131 107.865 261.319 108.968 262.134 110.398C262.957 111.818 263.369 113.49 263.369 115.412C263.369 117.344 262.953 119.006 262.119 120.398C261.286 121.78 260.079 122.841 258.497 123.58C256.925 124.318 255.022 124.688 252.787 124.688H245.102V119.744H251.793C252.967 119.744 253.942 119.583 254.719 119.261C255.495 118.939 256.073 118.456 256.452 117.812C256.84 117.169 257.034 116.368 257.034 115.412C257.034 114.446 256.84 113.632 256.452 112.969C256.073 112.306 255.491 111.804 254.705 111.463C253.928 111.113 252.948 110.938 251.764 110.938H247.616V135H241.466ZM257.176 121.761L264.406 135H257.616L250.543 121.761H257.176ZM283.497 114.276C283.384 113.13 282.896 112.24 282.034 111.605C281.172 110.971 280.003 110.653 278.526 110.653C277.522 110.653 276.674 110.795 275.983 111.08C275.292 111.354 274.761 111.738 274.392 112.23C274.032 112.723 273.852 113.281 273.852 113.906C273.833 114.427 273.942 114.882 274.179 115.27C274.425 115.658 274.761 115.994 275.188 116.278C275.614 116.553 276.106 116.795 276.665 117.003C277.223 117.202 277.82 117.372 278.455 117.514L281.068 118.139C282.337 118.423 283.502 118.802 284.562 119.276C285.623 119.749 286.542 120.331 287.318 121.023C288.095 121.714 288.696 122.528 289.122 123.466C289.558 124.403 289.78 125.478 289.79 126.69C289.78 128.471 289.326 130.014 288.426 131.321C287.536 132.618 286.248 133.627 284.562 134.347C282.886 135.057 280.865 135.412 278.497 135.412C276.149 135.412 274.103 135.052 272.361 134.332C270.628 133.613 269.274 132.547 268.298 131.136C267.332 129.716 266.826 127.959 266.778 125.866H272.73C272.796 126.842 273.076 127.656 273.568 128.31C274.07 128.954 274.738 129.441 275.571 129.773C276.414 130.095 277.366 130.256 278.426 130.256C279.468 130.256 280.372 130.104 281.139 129.801C281.916 129.498 282.517 129.077 282.943 128.537C283.369 127.997 283.582 127.377 283.582 126.676C283.582 126.023 283.388 125.473 283 125.028C282.621 124.583 282.063 124.205 281.324 123.892C280.595 123.58 279.7 123.295 278.639 123.04L275.472 122.244C273.019 121.648 271.082 120.715 269.662 119.446C268.241 118.177 267.536 116.468 267.545 114.318C267.536 112.557 268.005 111.018 268.952 109.702C269.908 108.385 271.22 107.358 272.886 106.619C274.553 105.881 276.447 105.511 278.568 105.511C280.727 105.511 282.612 105.881 284.222 106.619C285.841 107.358 287.1 108.385 288 109.702C288.9 111.018 289.364 112.543 289.392 114.276H283.497Z" fill="white"/>
<path d="M21.6229 694L13.7152 666.364H20.098L24.6726 685.566H24.902L29.9489 666.364H35.4141L40.4474 685.607H40.6903L45.2649 666.364H51.6477L43.7401 694H38.0455L32.7827 675.931H32.5668L27.3175 694H21.6229ZM78.6127 680.182C78.6127 683.196 78.0415 685.759 76.899 687.874C75.7654 689.988 74.2181 691.603 72.2569 692.718C70.3047 693.825 68.1097 694.378 65.6717 694.378C63.2157 694.378 61.0117 693.82 59.0595 692.705C57.1073 691.589 55.5645 689.974 54.4309 687.86C53.2974 685.746 52.7306 683.187 52.7306 680.182C52.7306 677.168 53.2974 674.604 54.4309 672.49C55.5645 670.376 57.1073 668.766 59.0595 667.659C61.0117 666.544 63.2157 665.986 65.6717 665.986C68.1097 665.986 70.3047 666.544 72.2569 667.659C74.2181 668.766 75.7654 670.376 76.899 672.49C78.0415 674.604 78.6127 677.168 78.6127 680.182ZM72.6887 680.182C72.6887 678.23 72.3964 676.583 71.8116 675.243C71.2359 673.902 70.4217 672.886 69.3691 672.193C68.3166 671.5 67.0841 671.154 65.6717 671.154C64.2593 671.154 63.0268 671.5 61.9743 672.193C60.9217 672.886 60.103 673.902 59.5183 675.243C58.9425 676.583 58.6547 678.23 58.6547 680.182C58.6547 682.134 58.9425 683.78 59.5183 685.121C60.103 686.461 60.9217 687.478 61.9743 688.17C63.0268 688.863 64.2593 689.21 65.6717 689.21C67.0841 689.21 68.3166 688.863 69.3691 688.17C70.4217 687.478 71.2359 686.461 71.8116 685.121C72.3964 683.78 72.6887 682.134 72.6887 680.182ZM82.9411 666.364H90.147L97.7578 684.932H98.0817L105.692 666.364H112.898V694H107.231V676.012H107.001L99.8494 693.865H95.9901L88.8381 675.945H88.6087V694H82.9411V666.364ZM117.713 694V666.364H136.335V671.181H123.556V677.766H135.377V682.584H123.556V689.183H136.389V694H117.713ZM164.096 666.364V694H159.049L147.026 676.606H146.823V694H140.98V666.364H146.108L158.037 683.744H158.28V666.364H164.096Z" fill="white"/>
<path fill-rule="evenodd" clip-rule="evenodd" d="M745.016 16.4524H359.984V674.548H745.016V16.4524ZM324 0V691H781V0H324Z" fill="#FF0000"/>
<path d="M375.173 115.806H730.638V183.592H375.173V115.806ZM368.275 323.274H737.942V391.061H368.275V323.274ZM476.213 457.478L515.574 483.497C487.981 556.076 440.91 621.809 394.245 657.414C386.941 638.242 373.145 609.484 363 594.42C406.824 567.032 452.678 513.624 476.213 457.478ZM618.237 453.369C644.207 509.516 694.118 562.924 742 588.943C731.45 604.691 716.842 635.503 709.943 656.045C660.844 620.44 611.744 551.283 582.528 475.965L618.237 453.369ZM483.923 157.573H530.588V667H483.923V157.573ZM567.514 157.573H614.179V667H567.514V157.573ZM407.23 223.306H698.176V494.452H403.172V432.143H650.699V284.93H407.23V223.306ZM424.273 56.2357L468.909 22C485.14 45.2802 504.212 79.5159 513.545 104.166L465.663 141.14C458.764 117.175 440.504 81.5701 424.273 56.2357ZM633.251 23.3695L686.002 50.758C667.336 90.4714 647.047 127.446 631.222 152.78L587.803 126.076C603.628 98.6879 622.7 55.551 633.251 23.3695Z" fill="white"/>
<path d="M81.85 308.7C82.05 308.6 92.1 308.55 112 308.55C132.5 308.65 143.45 308.85 144.85 309.15C144.95 309.15 145.5 309.3 146.5 309.6C150.6 310.5 154.1 312 157 314.1C166.4 320.4 171.55 329.9 172.45 342.6C172.65 344.3 172.7 346.05 172.6 347.85C172.1 362.45 166.75 375.85 156.55 388.05C154.15 391.05 151.25 394 147.85 396.9C138.45 404.5 128.5 409.1 118 410.7C117 410.8 106.65 410.9 86.95 411C67.15 411 57 410.7 56.5 410.1C56.3 409.8 56.4 408.65 56.8 406.65C57.3 404.45 57.8 403.2 58.3 402.9C58.8 402.7 60.6 402.6 63.7 402.6C69.3 402.5 72.45 402.1 73.15 401.4C73.45 401.2 77.05 387.3 83.95 359.7C90.85 332.1 94.3 318.2 94.3 318C94.3 317.9 94.2 317.75 94 317.55C93.6 317.35 90.9 317.15 85.9 316.95H80.8L80.2 316.35C79.8 315.95 79.85 314.65 80.35 312.45C80.95 310.15 81.45 308.9 81.85 308.7ZM134.5 317.1H112.3C111.3 317.2 110.65 317.5 110.35 318L89.35 402C89.35 402.2 89.55 402.35 89.95 402.45L114.25 402.3C114.45 402.3 114.6 402.3 114.7 402.3C121.5 401.4 127.4 399.25 132.4 395.85C134.4 394.55 136.4 392.9 138.4 390.9C144 385.3 148.4 376.8 151.6 365.4C153.6 358.2 154.95 352.1 155.65 347.1C156.25 342.4 156.25 338.4 155.65 335.1C154.75 330.5 152.9 326.7 150.1 323.7C146.1 319.9 140.9 317.7 134.5 317.1ZM204.869 308.85C205.169 308.65 206.019 308.55 207.419 308.55C216.719 308.95 227.069 309.05 238.469 308.85L249.869 308.55H251.519L251.969 309C252.369 309.4 252.569 309.8 252.569 310.2C252.569 311.8 252.069 313.75 251.069 316.05C250.869 316.65 249.419 316.95 246.719 316.95C246.219 316.95 245.619 316.95 244.919 316.95C239.019 317.05 235.719 317.45 235.019 318.15L234.419 318.6L224.219 360C217.319 387.4 213.869 401.25 213.869 401.55C213.769 401.85 214.219 402.05 215.219 402.15C216.519 402.35 219.019 402.5 222.719 402.6C226.519 402.6 228.619 402.95 229.019 403.65C229.119 403.95 228.969 405.1 228.569 407.1C228.069 409 227.619 410.15 227.219 410.55L226.769 411H224.369C212.869 410.5 199.819 410.45 185.219 410.85C181.819 410.95 179.919 410.65 179.519 409.95C179.419 409.65 179.569 408.5 179.969 406.5C180.569 404.5 180.969 403.35 181.169 403.05L181.769 402.6H187.019C192.319 402.5 195.469 402.2 196.469 401.7C196.769 401.6 197.119 401.35 197.519 400.95L218.219 318C218.219 317.9 218.119 317.75 217.919 317.55C217.119 317.25 214.319 317.05 209.519 316.95C205.619 316.95 203.519 316.65 203.219 316.05C203.019 315.75 203.119 314.6 203.519 312.6C204.019 310.5 204.469 309.25 204.869 308.85ZM303.333 305.4L311.133 305.55C313.933 306.05 316.583 306.9 319.083 308.1C321.683 309.3 323.933 311.1 325.833 313.5C326.233 313.9 326.483 314.15 326.583 314.25L330.933 309.9C333.833 307 335.333 305.5 335.433 305.4C335.933 305 336.933 305 338.433 305.4C338.733 305.7 338.933 305.95 339.033 306.15C339.133 306.55 337.733 312.55 334.833 324.15C331.833 335.95 330.233 341.95 330.033 342.15L329.583 342.6H326.883C324.583 342.6 323.333 342.3 323.133 341.7C323.033 341.4 323.083 340.75 323.283 339.75C324.183 332.75 323.633 327 321.633 322.5C319.233 317.5 315.033 314.5 309.033 313.5C306.633 313.1 303.983 313.1 301.083 313.5C297.283 314.3 293.733 316.3 290.433 319.5C284.733 325.1 282.433 331.05 283.533 337.35C284.133 341.65 286.433 344.6 290.433 346.2L300.783 349.05C304.683 350.05 308.383 351.05 311.883 352.05C314.483 353.15 316.883 354.8 319.083 357C320.683 358.6 321.983 360.45 322.983 362.55C325.783 368.45 326.283 375 324.483 382.2C322.183 392 316.783 400.2 308.283 406.8C307.583 407.3 306.883 407.8 306.183 408.3C302.683 410.4 299.733 411.85 297.333 412.65C293.633 413.85 289.833 414.4 285.933 414.3C279.733 414 274.533 412.8 270.333 410.7C268.333 409.8 266.283 408.35 264.183 406.35L262.833 405C262.733 405 261.283 406.5 258.483 409.5L253.833 414.15L252.333 414.3H252.183C251.383 414.3 250.833 414.15 250.533 413.85C250.233 413.55 250.083 413.3 250.083 413.1C250.083 412.8 252.983 401.05 258.783 377.85C258.983 377.25 260.233 376.95 262.533 376.95H265.233L265.683 377.4C266.083 377.8 266.133 378.85 265.833 380.55C265.833 380.75 265.783 381 265.683 381.3C264.983 385 264.883 388.1 265.383 390.6C267.383 400.3 274.733 405.4 287.433 405.9C290.033 405.9 292.233 405.6 294.033 405C299.633 403.2 304.133 399.3 307.533 393.3C308.933 391 309.883 388.6 310.383 386.1C311.583 380.1 310.633 375.3 307.533 371.7C306.533 370.7 305.233 369.85 303.633 369.15L293.283 366.3C285.683 364.3 281.033 362.85 279.333 361.95C272.533 358.05 268.983 351.85 268.683 343.35C268.483 339.75 269.033 336.05 270.333 332.25C273.433 322.85 279.483 315.55 288.483 310.35C289.683 309.65 290.933 309 292.233 308.4C295.633 306.8 298.783 305.85 301.683 305.55C302.083 305.45 302.633 305.4 303.333 305.4ZM363.825 308.7C364.025 308.6 364.825 308.55 366.225 308.55C374.025 308.95 384.575 309.05 397.875 308.85C406.675 308.65 411.025 308.55 410.925 308.55H412.725L413.175 309C413.675 309.5 413.725 310.65 413.325 312.45C413.325 312.65 413.275 312.85 413.175 313.05C412.675 315.25 412.225 316.45 411.825 316.65C411.525 316.85 409.975 316.95 407.175 316.95C401.275 316.95 397.425 317.1 395.625 317.4C394.025 317.6 393.025 318 392.625 318.6L371.775 402C371.775 402.2 371.975 402.35 372.375 402.45H382.425C389.825 402.45 394.675 402.15 396.975 401.55C397.175 401.55 397.375 401.5 397.575 401.4C404.375 399.8 409.975 396.25 414.375 390.75C417.175 387.25 420.175 381.2 423.375 372.6C424.275 370.2 424.875 368.95 425.175 368.85C425.875 368.35 427.525 368.3 430.125 368.7C430.525 368.7 430.775 368.75 430.875 368.85C431.475 369.05 431.775 369.5 431.775 370.2L417.525 410.25C417.325 410.65 416.025 410.85 413.625 410.85C410.625 410.95 398.725 411 377.925 411C352.225 411 339.225 410.9 338.925 410.7C338.625 410.4 338.425 410.15 338.325 409.95C338.225 409.55 338.375 408.4 338.775 406.5C339.375 404.5 339.775 403.35 339.975 403.05L340.575 402.6H345.675C351.275 402.5 354.425 402.1 355.125 401.4C355.425 401.2 359.025 387.3 365.925 359.7C372.825 332.1 376.275 318.2 376.275 318C376.275 317.9 376.175 317.75 375.975 317.55C375.575 317.35 372.875 317.15 367.875 316.95H362.775L362.325 316.5C361.725 316.1 361.725 314.7 362.325 312.3C362.825 310.2 363.325 309 363.825 308.7ZM465.025 308.85C465.325 308.65 466.175 308.55 467.575 308.55C476.875 308.95 487.225 309.05 498.625 308.85L510.025 308.55H511.675L512.125 309C512.525 309.4 512.725 309.8 512.725 310.2C512.725 311.8 512.225 313.75 511.225 316.05C511.025 316.65 509.575 316.95 506.875 316.95C506.375 316.95 505.775 316.95 505.075 316.95C499.175 317.05 495.875 317.45 495.175 318.15L494.575 318.6L484.375 360C477.475 387.4 474.025 401.25 474.025 401.55C473.925 401.85 474.375 402.05 475.375 402.15C476.675 402.35 479.175 402.5 482.875 402.6C486.675 402.6 488.775 402.95 489.175 403.65C489.275 403.95 489.125 405.1 488.725 407.1C488.225 409 487.775 410.15 487.375 410.55L486.925 411H484.525C473.025 410.5 459.975 410.45 445.375 410.85C441.975 410.95 440.075 410.65 439.675 409.95C439.575 409.65 439.725 408.5 440.125 406.5C440.725 404.5 441.125 403.35 441.325 403.05L441.925 402.6H447.175C452.475 402.5 455.625 402.2 456.625 401.7C456.925 401.6 457.275 401.35 457.675 400.95L478.375 318C478.375 317.9 478.275 317.75 478.075 317.55C477.275 317.25 474.475 317.05 469.675 316.95C465.775 316.95 463.675 316.65 463.375 316.05C463.175 315.75 463.275 314.6 463.675 312.6C464.175 310.5 464.625 309.25 465.025 308.85ZM531.989 308.7C532.189 308.6 533.089 308.55 534.689 308.55C546.689 309.05 559.289 309.1 572.489 308.7C575.689 308.6 577.539 308.9 578.039 309.6L578.189 310.05L577.439 313.05C576.939 314.95 576.589 316.1 576.389 316.5L575.939 316.95H570.689C565.689 317.05 562.789 317.3 561.989 317.7C561.489 317.9 561.089 318.3 560.789 318.9C560.389 320.2 558.489 327.55 555.089 340.95L549.539 363.3C549.539 363.4 558.189 356.6 575.489 342.9C592.689 329.2 601.639 322 602.339 321.3C603.539 319.9 603.839 318.85 603.239 318.15C602.739 317.55 601.639 317.15 599.939 316.95C599.139 316.95 598.539 316.75 598.139 316.35C597.839 316.05 597.689 315.7 597.689 315.3C597.689 313.7 598.189 311.75 599.189 309.45C599.489 308.85 600.439 308.6 602.039 308.7C602.539 308.7 603.689 308.7 605.489 308.7C613.989 309.1 622.239 309.15 630.239 308.85C630.939 308.75 631.489 308.7 631.889 308.7C633.989 308.6 635.239 308.9 635.639 309.6C635.839 309.9 635.689 311.05 635.189 313.05C634.589 315.35 634.039 316.55 633.539 316.65C633.339 316.75 632.539 316.85 631.139 316.95C623.339 317.25 616.739 319.35 611.339 323.25C610.339 323.85 609.789 324.2 609.689 324.3C609.489 324.3 604.389 328.3 594.389 336.3L579.239 348.3L579.539 349.05C579.239 348.55 582.689 357 589.889 374.4C596.689 391 600.289 399.5 600.689 399.9C601.789 401.5 604.439 402.4 608.639 402.6C609.039 402.6 609.489 402.6 609.989 402.6C612.489 402.6 613.939 402.95 614.339 403.65C614.439 403.95 614.289 405.1 613.889 407.1C613.389 409 612.939 410.15 612.539 410.55L612.089 411H610.139C601.639 410.6 590.639 410.55 577.139 410.85C573.839 410.95 571.989 410.7 571.589 410.1C571.389 409.8 571.489 408.65 571.889 406.65C572.389 404.55 572.839 403.3 573.239 402.9C573.539 402.7 574.189 402.6 575.189 402.6C578.089 402.6 580.189 402.1 581.489 401.1C581.989 400.5 582.089 399.7 581.789 398.7C581.389 397.2 578.789 390.65 573.989 379.05L565.739 359.25C565.739 358.95 562.589 361.4 556.289 366.6L546.989 373.95L543.389 387.75C541.089 397.05 539.989 401.75 540.089 401.85C540.289 402.05 540.639 402.15 541.139 402.15C542.339 402.45 545.289 402.6 549.989 402.6C552.289 402.6 553.539 402.7 553.739 402.9C554.339 403.1 554.639 403.55 554.639 404.25L553.139 410.1C552.739 410.7 551.739 410.95 550.139 410.85C549.639 410.85 548.489 410.85 546.689 410.85C538.389 410.45 527.939 410.4 515.339 410.7C514.139 410.8 513.189 410.85 512.489 410.85C508.989 410.95 507.039 410.7 506.639 410.1C506.439 409.8 506.539 408.65 506.939 406.65C507.439 404.45 507.939 403.2 508.439 402.9C508.939 402.7 510.739 402.6 513.839 402.6C519.439 402.5 522.589 402.1 523.289 401.4C523.589 401.2 527.189 387.3 534.089 359.7C540.989 332.1 544.439 318.2 544.439 318C544.439 317.9 544.339 317.75 544.139 317.55C543.739 317.35 541.039 317.15 536.039 316.95H530.939L530.339 316.35C529.939 315.95 529.989 314.65 530.489 312.45C531.089 310.25 531.589 309 531.989 308.7ZM658.984 309.3L659.434 309H701.434H743.284L743.884 309.45C744.184 309.85 744.334 310.25 744.334 310.65L739.984 344.85C739.984 345.35 739.784 345.75 739.384 346.05L738.934 346.5H736.384C734.584 346.5 733.534 346.4 733.234 346.2C732.734 345.9 732.584 344.7 732.784 342.6C732.784 342.4 732.784 342.15 732.784 341.85C733.284 337.75 733.534 334.35 733.534 331.65C733.234 325.65 731.234 321.7 727.534 319.8C725.734 319 723.884 318.45 721.984 318.15C719.184 317.65 712.984 317.45 703.384 317.55C693.784 317.55 688.734 317.85 688.234 318.45L679.234 353.85H687.184C693.784 353.75 698.034 353.35 699.934 352.65C702.134 351.95 703.934 350.7 705.334 348.9C706.734 347.1 708.034 343.85 709.234 339.15C709.634 337.85 709.984 337.05 710.284 336.75L710.734 336.3H713.284C715.384 336.3 716.634 336.65 717.034 337.35C717.134 337.75 715.534 344.7 712.234 358.2C708.734 371.9 706.934 378.8 706.834 378.9C706.634 379.5 705.434 379.8 703.234 379.8H700.684L700.084 379.35C699.684 378.85 699.684 377.7 700.084 375.9C701.284 370.8 701.434 367.3 700.534 365.4C699.834 363.9 697.834 362.95 694.534 362.55C693.934 362.45 690.834 362.4 685.234 362.4L677.134 362.25L672.184 381.9C668.884 395.2 667.234 401.9 667.234 402C667.234 402.1 667.334 402.25 667.534 402.45H694.684C700.584 402.15 705.634 401.05 709.834 399.15C712.334 397.85 714.584 396.3 716.584 394.5C720.484 390.6 724.634 383.35 729.034 372.75C729.834 370.65 730.434 369.4 730.834 369L731.284 368.55H733.984H736.684L737.134 369C737.534 369.4 737.534 370.2 737.134 371.4C736.634 372.9 734.134 379.2 729.634 390.3C724.134 403.5 721.384 410.15 721.384 410.25C721.184 410.65 719.734 410.85 717.034 410.85C713.834 410.95 700.684 411 677.584 411C648.884 411 634.334 410.7 633.934 410.1C633.734 409.8 633.834 408.65 634.234 406.65C634.734 404.45 635.234 403.2 635.734 402.9C636.234 402.7 638.034 402.6 641.134 402.6C646.734 402.5 649.884 402.1 650.584 401.4C650.884 401.2 654.484 387.3 661.384 359.7C668.284 332.1 671.634 318.25 671.434 318.15C671.234 317.95 670.884 317.85 670.384 317.85C668.684 317.55 665.784 317.4 661.684 317.4C659.084 317.4 657.634 317.1 657.334 316.5C657.134 316.2 657.234 315.05 657.634 313.05C658.134 310.95 658.584 309.7 658.984 309.3Z" fill="#C40000"/>
<path d="M249.85 444.7C250.05 444.6 260.1 444.55 280 444.55C300.5 444.65 311.45 444.85 312.85 445.15C312.95 445.15 313.5 445.3 314.5 445.6C318.6 446.5 322.1 448 325 450.1C334.4 456.4 339.55 465.9 340.45 478.6C340.65 480.3 340.7 482.05 340.6 483.85C340.1 498.45 334.75 511.85 324.55 524.05C322.15 527.05 319.25 530 315.85 532.9C306.45 540.5 296.5 545.1 286 546.7C285 546.8 274.65 546.9 254.95 547C235.15 547 225 546.7 224.5 546.1C224.3 545.8 224.4 544.65 224.8 542.65C225.3 540.45 225.8 539.2 226.3 538.9C226.8 538.7 228.6 538.6 231.7 538.6C237.3 538.5 240.45 538.1 241.15 537.4C241.45 537.2 245.05 523.3 251.95 495.7C258.85 468.1 262.3 454.2 262.3 454C262.3 453.9 262.2 453.75 262 453.55C261.6 453.35 258.9 453.15 253.9 452.95H248.8L248.2 452.35C247.8 451.95 247.85 450.65 248.35 448.45C248.95 446.15 249.45 444.9 249.85 444.7ZM302.5 453.1H280.3C279.3 453.2 278.65 453.5 278.35 454L257.35 538C257.35 538.2 257.55 538.35 257.95 538.45L282.25 538.3C282.45 538.3 282.6 538.3 282.7 538.3C289.5 537.4 295.4 535.25 300.4 531.85C302.4 530.55 304.4 528.9 306.4 526.9C312 521.3 316.4 512.8 319.6 501.4C321.6 494.2 322.95 488.1 323.65 483.1C324.25 478.4 324.25 474.4 323.65 471.1C322.75 466.5 320.9 462.7 318.1 459.7C314.1 455.9 308.9 453.7 302.5 453.1ZM372.869 444.85C373.169 444.65 374.019 444.55 375.419 444.55C384.719 444.95 395.069 445.05 406.469 444.85L417.869 444.55H419.519L419.969 445C420.369 445.4 420.569 445.8 420.569 446.2C420.569 447.8 420.069 449.75 419.069 452.05C418.869 452.65 417.419 452.95 414.719 452.95C414.219 452.95 413.619 452.95 412.919 452.95C407.019 453.05 403.719 453.45 403.019 454.15L402.419 454.6L392.219 496C385.319 523.4 381.869 537.25 381.869 537.55C381.769 537.85 382.219 538.05 383.219 538.15C384.519 538.35 387.019 538.5 390.719 538.6C394.519 538.6 396.619 538.95 397.019 539.65C397.119 539.95 396.969 541.1 396.569 543.1C396.069 545 395.619 546.15 395.219 546.55L394.769 547H392.369C380.869 546.5 367.819 546.45 353.219 546.85C349.819 546.95 347.919 546.65 347.519 545.95C347.419 545.65 347.569 544.5 347.969 542.5C348.569 540.5 348.969 539.35 349.169 539.05L349.769 538.6H355.019C360.319 538.5 363.469 538.2 364.469 537.7C364.769 537.6 365.119 537.35 365.519 536.95L386.219 454C386.219 453.9 386.119 453.75 385.919 453.55C385.119 453.25 382.319 453.05 377.519 452.95C373.619 452.95 371.519 452.65 371.219 452.05C371.019 451.75 371.119 450.6 371.519 448.6C372.019 446.5 372.469 445.25 372.869 444.85ZM471.333 441.4L479.133 441.55C481.933 442.05 484.583 442.9 487.083 444.1C489.683 445.3 491.933 447.1 493.833 449.5C494.233 449.9 494.483 450.15 494.583 450.25L498.933 445.9C501.833 443 503.333 441.5 503.433 441.4C503.933 441 504.933 441 506.433 441.4C506.733 441.7 506.933 441.95 507.033 442.15C507.133 442.55 505.733 448.55 502.833 460.15C499.833 471.95 498.233 477.95 498.033 478.15L497.583 478.6H494.883C492.583 478.6 491.333 478.3 491.133 477.7C491.033 477.4 491.083 476.75 491.283 475.75C492.183 468.75 491.633 463 489.633 458.5C487.233 453.5 483.033 450.5 477.033 449.5C474.633 449.1 471.983 449.1 469.083 449.5C465.283 450.3 461.733 452.3 458.433 455.5C452.733 461.1 450.433 467.05 451.533 473.35C452.133 477.65 454.433 480.6 458.433 482.2L468.783 485.05C472.683 486.05 476.383 487.05 479.883 488.05C482.483 489.15 484.883 490.8 487.083 493C488.683 494.6 489.983 496.45 490.983 498.55C493.783 504.45 494.283 511 492.483 518.2C490.183 528 484.783 536.2 476.283 542.8C475.583 543.3 474.883 543.8 474.183 544.3C470.683 546.4 467.733 547.85 465.333 548.65C461.633 549.85 457.833 550.4 453.933 550.3C447.733 550 442.533 548.8 438.333 546.7C436.333 545.8 434.283 544.35 432.183 542.35L430.833 541C430.733 541 429.283 542.5 426.483 545.5L421.833 550.15L420.333 550.3H420.183C419.383 550.3 418.833 550.15 418.533 549.85C418.233 549.55 418.083 549.3 418.083 549.1C418.083 548.8 420.983 537.05 426.783 513.85C426.983 513.25 428.233 512.95 430.533 512.95H433.233L433.683 513.4C434.083 513.8 434.133 514.85 433.833 516.55C433.833 516.75 433.783 517 433.683 517.3C432.983 521 432.883 524.1 433.383 526.6C435.383 536.3 442.733 541.4 455.433 541.9C458.033 541.9 460.233 541.6 462.033 541C467.633 539.2 472.133 535.3 475.533 529.3C476.933 527 477.883 524.6 478.383 522.1C479.583 516.1 478.633 511.3 475.533 507.7C474.533 506.7 473.233 505.85 471.633 505.15L461.283 502.3C453.683 500.3 449.033 498.85 447.333 497.95C440.533 494.05 436.983 487.85 436.683 479.35C436.483 475.75 437.033 472.05 438.333 468.25C441.433 458.85 447.483 451.55 456.483 446.35C457.683 445.65 458.933 445 460.233 444.4C463.633 442.8 466.783 441.85 469.683 441.55C470.083 441.45 470.633 441.4 471.333 441.4ZM531.825 444.7C532.025 444.6 532.825 444.55 534.225 444.55C542.025 444.95 552.575 445.05 565.875 444.85C574.675 444.65 579.025 444.55 578.925 444.55H580.725L581.175 445C581.675 445.5 581.725 446.65 581.325 448.45C581.325 448.65 581.275 448.85 581.175 449.05C580.675 451.25 580.225 452.45 579.825 452.65C579.525 452.85 577.975 452.95 575.175 452.95C569.275 452.95 565.425 453.1 563.625 453.4C562.025 453.6 561.025 454 560.625 454.6L539.775 538C539.775 538.2 539.975 538.35 540.375 538.45H550.425C557.825 538.45 562.675 538.15 564.975 537.55C565.175 537.55 565.375 537.5 565.575 537.4C572.375 535.8 577.975 532.25 582.375 526.75C585.175 523.25 588.175 517.2 591.375 508.6C592.275 506.2 592.875 504.95 593.175 504.85C593.875 504.35 595.525 504.3 598.125 504.7C598.525 504.7 598.775 504.75 598.875 504.85C599.475 505.05 599.775 505.5 599.775 506.2L585.525 546.25C585.325 546.65 584.025 546.85 581.625 546.85C578.625 546.95 566.725 547 545.925 547C520.225 547 507.225 546.9 506.925 546.7C506.625 546.4 506.425 546.15 506.325 545.95C506.225 545.55 506.375 544.4 506.775 542.5C507.375 540.5 507.775 539.35 507.975 539.05L508.575 538.6H513.675C519.275 538.5 522.425 538.1 523.125 537.4C523.425 537.2 527.025 523.3 533.925 495.7C540.825 468.1 544.275 454.2 544.275 454C544.275 453.9 544.175 453.75 543.975 453.55C543.575 453.35 540.875 453.15 535.875 452.95H530.775L530.325 452.5C529.725 452.1 529.725 450.7 530.325 448.3C530.825 446.2 531.325 445 531.825 444.7ZM633.025 444.85C633.325 444.65 634.175 444.55 635.575 444.55C644.875 444.95 655.225 445.05 666.625 444.85L678.025 444.55H679.675L680.125 445C680.525 445.4 680.725 445.8 680.725 446.2C680.725 447.8 680.225 449.75 679.225 452.05C679.025 452.65 677.575 452.95 674.875 452.95C674.375 452.95 673.775 452.95 673.075 452.95C667.175 453.05 663.875 453.45 663.175 454.15L662.575 454.6L652.375 496C645.475 523.4 642.025 537.25 642.025 537.55C641.925 537.85 642.375 538.05 643.375 538.15C644.675 538.35 647.175 538.5 650.875 538.6C654.675 538.6 656.775 538.95 657.175 539.65C657.275 539.95 657.125 541.1 656.725 543.1C656.225 545 655.775 546.15 655.375 546.55L654.925 547H652.525C641.025 546.5 627.975 546.45 613.375 546.85C609.975 546.95 608.075 546.65 607.675 545.95C607.575 545.65 607.725 544.5 608.125 542.5C608.725 540.5 609.125 539.35 609.325 539.05L609.925 538.6H615.175C620.475 538.5 623.625 538.2 624.625 537.7C624.925 537.6 625.275 537.35 625.675 536.95L646.375 454C646.375 453.9 646.275 453.75 646.075 453.55C645.275 453.25 642.475 453.05 637.675 452.95C633.775 452.95 631.675 452.65 631.375 452.05C631.175 451.75 631.275 450.6 631.675 448.6C632.175 446.5 632.625 445.25 633.025 444.85ZM699.989 444.7C700.189 444.6 701.089 444.55 702.689 444.55C714.689 445.05 727.289 445.1 740.489 444.7C743.689 444.6 745.539 444.9 746.039 445.6L746.189 446.05L745.439 449.05C744.939 450.95 744.589 452.1 744.389 452.5L743.939 452.95H738.689C733.689 453.05 730.789 453.3 729.989 453.7C729.489 453.9 729.089 454.3 728.789 454.9C728.389 456.2 726.489 463.55 723.089 476.95L717.539 499.3C717.539 499.4 726.189 492.6 743.489 478.9C760.689 465.2 769.639 458 770.339 457.3C771.539 455.9 771.839 454.85 771.239 454.15C770.739 453.55 769.639 453.15 767.939 452.95C767.139 452.95 766.539 452.75 766.139 452.35C765.839 452.05 765.689 451.7 765.689 451.3C765.689 449.7 766.189 447.75 767.189 445.45C767.489 444.85 768.439 444.6 770.039 444.7C770.539 444.7 771.689 444.7 773.489 444.7C781.989 445.1 790.239 445.15 798.239 444.85C798.939 444.75 799.489 444.7 799.889 444.7C801.989 444.6 803.239 444.9 803.639 445.6C803.839 445.9 803.689 447.05 803.189 449.05C802.589 451.35 802.039 452.55 801.539 452.65C801.339 452.75 800.539 452.85 799.139 452.95C791.339 453.25 784.739 455.35 779.339 459.25C778.339 459.85 777.789 460.2 777.689 460.3C777.489 460.3 772.389 464.3 762.389 472.3L747.239 484.3L747.539 485.05C747.239 484.55 750.689 493 757.889 510.4C764.689 527 768.289 535.5 768.689 535.9C769.789 537.5 772.439 538.4 776.639 538.6C777.039 538.6 777.489 538.6 777.989 538.6C780.489 538.6 781.939 538.95 782.339 539.65C782.439 539.95 782.289 541.1 781.889 543.1C781.389 545 780.939 546.15 780.539 546.55L780.089 547H778.139C769.639 546.6 758.639 546.55 745.139 546.85C741.839 546.95 739.989 546.7 739.589 546.1C739.389 545.8 739.489 544.65 739.889 542.65C740.389 540.55 740.839 539.3 741.239 538.9C741.539 538.7 742.189 538.6 743.189 538.6C746.089 538.6 748.189 538.1 749.489 537.1C749.989 536.5 750.089 535.7 749.789 534.7C749.389 533.2 746.789 526.65 741.989 515.05L733.739 495.25C733.739 494.95 730.589 497.4 724.289 502.6L714.989 509.95L711.389 523.75C709.089 533.05 707.989 537.75 708.089 537.85C708.289 538.05 708.639 538.15 709.139 538.15C710.339 538.45 713.289 538.6 717.989 538.6C720.289 538.6 721.539 538.7 721.739 538.9C722.339 539.1 722.639 539.55 722.639 540.25L721.139 546.1C720.739 546.7 719.739 546.95 718.139 546.85C717.639 546.85 716.489 546.85 714.689 546.85C706.389 546.45 695.939 546.4 683.339 546.7C682.139 546.8 681.189 546.85 680.489 546.85C676.989 546.95 675.039 546.7 674.639 546.1C674.439 545.8 674.539 544.65 674.939 542.65C675.439 540.45 675.939 539.2 676.439 538.9C676.939 538.7 678.739 538.6 681.839 538.6C687.439 538.5 690.589 538.1 691.289 537.4C691.589 537.2 695.189 523.3 702.089 495.7C708.989 468.1 712.439 454.2 712.439 454C712.439 453.9 712.339 453.75 712.139 453.55C711.739 453.35 709.039 453.15 704.039 452.95H698.939L698.339 452.35C697.939 451.95 697.989 450.65 698.489 448.45C699.089 446.25 699.589 445 699.989 444.7ZM826.984 445.3L827.434 445H869.434H911.284L911.884 445.45C912.184 445.85 912.334 446.25 912.334 446.65L907.984 480.85C907.984 481.35 907.784 481.75 907.384 482.05L906.934 482.5H904.384C902.584 482.5 901.534 482.4 901.234 482.2C900.734 481.9 900.584 480.7 900.784 478.6C900.784 478.4 900.784 478.15 900.784 477.85C901.284 473.75 901.534 470.35 901.534 467.65C901.234 461.65 899.234 457.7 895.534 455.8C893.734 455 891.884 454.45 889.984 454.15C887.184 453.65 880.984 453.45 871.384 453.55C861.784 453.55 856.734 453.85 856.234 454.45L847.234 489.85H855.184C861.784 489.75 866.034 489.35 867.934 488.65C870.134 487.95 871.934 486.7 873.334 484.9C874.734 483.1 876.034 479.85 877.234 475.15C877.634 473.85 877.984 473.05 878.284 472.75L878.734 472.3H881.284C883.384 472.3 884.634 472.65 885.034 473.35C885.134 473.75 883.534 480.7 880.234 494.2C876.734 507.9 874.934 514.8 874.834 514.9C874.634 515.5 873.434 515.8 871.234 515.8H868.684L868.084 515.35C867.684 514.85 867.684 513.7 868.084 511.9C869.284 506.8 869.434 503.3 868.534 501.4C867.834 499.9 865.834 498.95 862.534 498.55C861.934 498.45 858.834 498.4 853.234 498.4L845.134 498.25L840.184 517.9C836.884 531.2 835.234 537.9 835.234 538C835.234 538.1 835.334 538.25 835.534 538.45H862.684C868.584 538.15 873.634 537.05 877.834 535.15C880.334 533.85 882.584 532.3 884.584 530.5C888.484 526.6 892.634 519.35 897.034 508.75C897.834 506.65 898.434 505.4 898.834 505L899.284 504.55H901.984H904.684L905.134 505C905.534 505.4 905.534 506.2 905.134 507.4C904.634 508.9 902.134 515.2 897.634 526.3C892.134 539.5 889.384 546.15 889.384 546.25C889.184 546.65 887.734 546.85 885.034 546.85C881.834 546.95 868.684 547 845.584 547C816.884 547 802.334 546.7 801.934 546.1C801.734 545.8 801.834 544.65 802.234 542.65C802.734 540.45 803.234 539.2 803.734 538.9C804.234 538.7 806.034 538.6 809.134 538.6C814.734 538.5 817.884 538.1 818.584 537.4C818.884 537.2 822.484 523.3 829.384 495.7C836.284 468.1 839.634 454.25 839.434 454.15C839.234 453.95 838.884 453.85 838.384 453.85C836.684 453.55 833.784 453.4 829.684 453.4C827.084 453.4 825.634 453.1 825.334 452.5C825.134 452.2 825.234 451.05 825.634 449.05C826.134 446.95 826.584 445.7 826.984 445.3Z" fill="#C40000"/>
<path d="M478.648 138.42C478.557 137.504 478.167 136.792 477.477 136.284C476.788 135.777 475.852 135.523 474.67 135.523C473.867 135.523 473.189 135.636 472.636 135.864C472.083 136.083 471.659 136.39 471.364 136.784C471.076 137.178 470.932 137.625 470.932 138.125C470.917 138.542 471.004 138.905 471.193 139.216C471.39 139.527 471.659 139.795 472 140.023C472.341 140.242 472.735 140.436 473.182 140.602C473.629 140.761 474.106 140.898 474.614 141.011L476.705 141.511C477.72 141.739 478.652 142.042 479.5 142.42C480.348 142.799 481.083 143.265 481.705 143.818C482.326 144.371 482.807 145.023 483.148 145.773C483.496 146.523 483.674 147.383 483.682 148.352C483.674 149.777 483.311 151.011 482.591 152.057C481.879 153.095 480.848 153.902 479.5 154.477C478.159 155.045 476.542 155.33 474.648 155.33C472.769 155.33 471.133 155.042 469.739 154.466C468.352 153.89 467.269 153.038 466.489 151.909C465.716 150.773 465.311 149.367 465.273 147.693H470.034C470.087 148.473 470.311 149.125 470.705 149.648C471.106 150.163 471.64 150.553 472.307 150.818C472.981 151.076 473.742 151.205 474.591 151.205C475.424 151.205 476.148 151.083 476.761 150.841C477.383 150.598 477.864 150.261 478.205 149.83C478.545 149.398 478.716 148.902 478.716 148.341C478.716 147.818 478.561 147.379 478.25 147.023C477.947 146.667 477.5 146.364 476.909 146.114C476.326 145.864 475.61 145.636 474.761 145.432L472.227 144.795C470.265 144.318 468.716 143.572 467.58 142.557C466.443 141.542 465.879 140.174 465.886 138.455C465.879 137.045 466.254 135.814 467.011 134.761C467.777 133.708 468.826 132.886 470.159 132.295C471.492 131.705 473.008 131.409 474.705 131.409C476.432 131.409 477.939 131.705 479.227 132.295C480.523 132.886 481.53 133.708 482.25 134.761C482.97 135.814 483.341 137.034 483.364 138.42H478.648ZM491.912 131.727V155H486.991V131.727H491.912ZM495.96 131.727H502.028L508.438 147.364H508.71L515.119 131.727H521.188V155H516.415V139.852H516.222L510.199 154.886H506.949L500.926 139.795H500.733V155H495.96V131.727ZM539.616 131.727H544.537V146.841C544.537 148.538 544.132 150.023 543.321 151.295C542.518 152.568 541.393 153.561 539.946 154.273C538.499 154.977 536.813 155.33 534.889 155.33C532.957 155.33 531.268 154.977 529.821 154.273C528.374 153.561 527.249 152.568 526.446 151.295C525.643 150.023 525.241 148.538 525.241 146.841V131.727H530.162V146.42C530.162 147.307 530.355 148.095 530.741 148.784C531.135 149.473 531.688 150.015 532.401 150.409C533.113 150.803 533.942 151 534.889 151C535.844 151 536.673 150.803 537.378 150.409C538.09 150.015 538.639 149.473 539.026 148.784C539.42 148.095 539.616 147.307 539.616 146.42V131.727ZM548.585 155V131.727H553.506V150.943H563.483V155H548.585ZM562.949 135.784V131.727H582.062V135.784H574.938V155H570.074V135.784H562.949ZM586.378 155H581.105L589.139 131.727H595.48L603.503 155H598.23L592.401 137.045H592.219L586.378 155ZM586.048 145.852H598.503V149.693H586.048V145.852ZM625.77 131.727V155H621.52L611.395 140.352H611.224V155H606.304V131.727H610.622L620.668 146.364H620.872V131.727H625.77ZM629.835 155V131.727H645.517V135.784H634.756V141.33H644.71V145.386H634.756V150.943H645.562V155H629.835ZM670.815 143.364C670.815 145.902 670.334 148.061 669.372 149.841C668.418 151.621 667.115 152.981 665.463 153.92C663.819 154.852 661.971 155.318 659.918 155.318C657.849 155.318 655.993 154.848 654.349 153.909C652.705 152.97 651.406 151.61 650.452 149.83C649.497 148.049 649.02 145.894 649.02 143.364C649.02 140.826 649.497 138.667 650.452 136.886C651.406 135.106 652.705 133.75 654.349 132.818C655.993 131.879 657.849 131.409 659.918 131.409C661.971 131.409 663.819 131.879 665.463 132.818C667.115 133.75 668.418 135.106 669.372 136.886C670.334 138.667 670.815 140.826 670.815 143.364ZM665.827 143.364C665.827 141.72 665.58 140.333 665.088 139.205C664.603 138.076 663.918 137.22 663.031 136.636C662.145 136.053 661.107 135.761 659.918 135.761C658.728 135.761 657.69 136.053 656.804 136.636C655.918 137.22 655.228 138.076 654.736 139.205C654.251 140.333 654.009 141.72 654.009 143.364C654.009 145.008 654.251 146.394 654.736 147.523C655.228 148.652 655.918 149.508 656.804 150.091C657.69 150.674 658.728 150.966 659.918 150.966C661.107 150.966 662.145 150.674 663.031 150.091C663.918 149.508 664.603 148.652 665.088 147.523C665.58 146.394 665.827 145.008 665.827 143.364ZM688.835 131.727H693.756V146.841C693.756 148.538 693.35 150.023 692.54 151.295C691.737 152.568 690.612 153.561 689.165 154.273C687.718 154.977 686.032 155.33 684.108 155.33C682.176 155.33 680.487 154.977 679.04 154.273C677.593 153.561 676.468 152.568 675.665 151.295C674.862 150.023 674.46 148.538 674.46 146.841V131.727H679.381V146.42C679.381 147.307 679.574 148.095 679.96 148.784C680.354 149.473 680.907 150.015 681.619 150.409C682.331 150.803 683.161 151 684.108 151C685.063 151 685.892 150.803 686.597 150.409C687.309 150.015 687.858 149.473 688.244 148.784C688.638 148.095 688.835 147.307 688.835 146.42V131.727ZM710.429 138.42C710.338 137.504 709.948 136.792 709.259 136.284C708.569 135.777 707.634 135.523 706.452 135.523C705.649 135.523 704.971 135.636 704.418 135.864C703.865 136.083 703.44 136.39 703.145 136.784C702.857 137.178 702.713 137.625 702.713 138.125C702.698 138.542 702.785 138.905 702.974 139.216C703.171 139.527 703.44 139.795 703.781 140.023C704.122 140.242 704.516 140.436 704.963 140.602C705.41 140.761 705.887 140.898 706.395 141.011L708.486 141.511C709.501 141.739 710.433 142.042 711.281 142.42C712.13 142.799 712.865 143.265 713.486 143.818C714.107 144.371 714.588 145.023 714.929 145.773C715.277 146.523 715.455 147.383 715.463 148.352C715.455 149.777 715.092 151.011 714.372 152.057C713.66 153.095 712.63 153.902 711.281 154.477C709.94 155.045 708.323 155.33 706.429 155.33C704.55 155.33 702.914 155.042 701.52 154.466C700.134 153.89 699.05 153.038 698.27 151.909C697.497 150.773 697.092 149.367 697.054 147.693H701.815C701.868 148.473 702.092 149.125 702.486 149.648C702.887 150.163 703.421 150.553 704.088 150.818C704.762 151.076 705.524 151.205 706.372 151.205C707.205 151.205 707.929 151.083 708.543 150.841C709.164 150.598 709.645 150.261 709.986 149.83C710.327 149.398 710.497 148.902 710.497 148.341C710.497 147.818 710.342 147.379 710.031 147.023C709.728 146.667 709.281 146.364 708.69 146.114C708.107 145.864 707.391 145.636 706.543 145.432L704.009 144.795C702.046 144.318 700.497 143.572 699.361 142.557C698.224 141.542 697.66 140.174 697.668 138.455C697.66 137.045 698.035 135.814 698.793 134.761C699.558 133.708 700.607 132.886 701.94 132.295C703.274 131.705 704.789 131.409 706.486 131.409C708.213 131.409 709.721 131.705 711.009 132.295C712.304 132.886 713.312 133.708 714.031 134.761C714.751 135.814 715.122 137.034 715.145 138.42H710.429Z" fill="black"/>
</svg>
