<svg width="1456" height="900" viewBox="0 0 1456 900" fill="none" xmlns="http://www.w3.org/2000/svg">
<path d="M591.614 478.419H901.349V568.276H591.614V478.419ZM646.473 209.704L702.788 231.954C687.739 326.09 662.008 420.226 633.851 479.275C623.17 463.015 598.896 435.63 585.303 422.793C612.975 371.446 634.822 290.147 646.473 209.704ZM714.44 326.09H773.668V487.832C773.668 608.497 748.909 745.422 613.461 831C606.178 808.75 588.701 772.807 575.108 753.124C698.905 684.662 714.44 573.41 714.44 486.121V326.09ZM779.008 516.073C798.427 629.892 840.178 708.624 913 740.287C900.378 760.826 883.871 801.903 876.104 829.288C795.515 782.221 754.249 682.95 730.461 532.333L779.008 516.073ZM655.212 296.138H886.784V384.283H640.162L655.212 296.138ZM555.689 112.145H903.776V204.569H555.689V112.145ZM524.133 112.145H579.477V371.446C579.477 508.371 568.797 707.768 500.83 826.721C493.062 807.038 470.73 771.095 459.079 757.403C518.793 650.431 524.133 492.111 524.133 370.591V112.145ZM672.203 24H733.859V176.329H672.203V24ZM449.369 219.118L491.606 182.319C507.141 231.954 522.676 297.849 527.531 340.638L482.382 382.572C478.012 339.783 463.934 271.32 449.369 219.118ZM445 511.794C468.303 494.679 501.315 466.438 534.813 436.486L548.407 516.929C520.249 548.593 490.149 580.257 461.992 608.497L445 511.794Z" fill="white"/>
<path d="M0 205.214H398V315.453H0V205.214ZM156.061 1L213.168 21.7828C178.729 216.961 130.778 459.126 95.4677 615.449L42.2848 575.691C77.1588 428.404 125.111 186.238 156.061 1ZM278.12 259.43L335.663 286.538C300.789 662.436 220.142 793.459 31.3866 851.289C26.1555 817.856 14.3855 771.772 3.92333 743.761C178.729 702.195 249.349 592.859 278.12 259.43ZM71.0559 557.619L106.366 472.68C199.218 536.836 326.508 655.208 390.589 751.893L350.484 854C292.07 756.411 168.267 629.907 71.0559 557.619Z" fill="#FF0000"/>
<path d="M19.5284 10.9091H27.1136L35.125 30.4545H35.4659L43.4773 10.9091H51.0625V40H45.0966V21.0653H44.8551L37.3267 39.858H33.2642L25.7358 20.9943H25.4943V40H19.5284V10.9091ZM62.2805 10.9091V40H56.13V10.9091H62.2805ZM83.1222 19.2756C83.0085 18.1297 82.5208 17.2396 81.6591 16.6051C80.7973 15.9706 79.6278 15.6534 78.1506 15.6534C77.1468 15.6534 76.2992 15.7955 75.608 16.0795C74.9167 16.3542 74.3864 16.7377 74.017 17.2301C73.6572 17.7225 73.4773 18.2812 73.4773 18.9062C73.4583 19.4271 73.5672 19.8816 73.804 20.2699C74.0502 20.6581 74.3864 20.9943 74.8125 21.2784C75.2386 21.553 75.7311 21.7945 76.2898 22.0028C76.8485 22.2017 77.4451 22.3722 78.0795 22.5142L80.6932 23.1392C81.9621 23.4233 83.1269 23.8021 84.1875 24.2756C85.2481 24.7491 86.1667 25.3314 86.9432 26.0227C87.7197 26.714 88.321 27.5284 88.7472 28.4659C89.1828 29.4034 89.4053 30.4782 89.4148 31.6903C89.4053 33.4706 88.9508 35.0142 88.0511 36.321C87.161 37.6184 85.8731 38.6269 84.1875 39.3466C82.5114 40.0568 80.4896 40.4119 78.1222 40.4119C75.7737 40.4119 73.7282 40.0521 71.9858 39.3324C70.2528 38.6127 68.8987 37.5473 67.9233 36.1364C66.9574 34.7159 66.4508 32.9593 66.4034 30.8665H72.3551C72.4214 31.8419 72.7008 32.6562 73.1932 33.3097C73.6951 33.9536 74.3627 34.4413 75.196 34.7727C76.0388 35.0947 76.9905 35.2557 78.0511 35.2557C79.0928 35.2557 79.9972 35.1042 80.7642 34.8011C81.5407 34.4981 82.142 34.0767 82.5682 33.5369C82.9943 32.9972 83.2074 32.3769 83.2074 31.6761C83.2074 31.0227 83.0133 30.4735 82.625 30.0284C82.2462 29.5833 81.6875 29.2045 80.9489 28.892C80.2197 28.5795 79.3248 28.2955 78.2642 28.0398L75.0966 27.2443C72.6439 26.6477 70.7074 25.715 69.2869 24.446C67.8665 23.1771 67.161 21.4678 67.1705 19.3182C67.161 17.5568 67.6297 16.018 68.5767 14.7017C69.5331 13.3854 70.8447 12.358 72.5114 11.6193C74.178 10.8807 76.072 10.5114 78.1932 10.5114C80.3523 10.5114 82.2367 10.8807 83.8466 11.6193C85.4659 12.358 86.7254 13.3854 87.625 14.7017C88.5246 16.018 88.9886 17.5426 89.017 19.2756H83.1222ZM120.285 25.4545C120.285 28.6269 119.683 31.3258 118.481 33.5511C117.288 35.7765 115.659 37.4763 113.594 38.6506C111.54 39.8153 109.229 40.3977 106.663 40.3977C104.077 40.3977 101.757 39.8106 99.7024 38.6364C97.6475 37.4621 96.0234 35.7623 94.8303 33.5369C93.6371 31.3116 93.0405 28.6174 93.0405 25.4545C93.0405 22.2822 93.6371 19.5833 94.8303 17.358C96.0234 15.1326 97.6475 13.4375 99.7024 12.2727C101.757 11.0985 104.077 10.5114 106.663 10.5114C109.229 10.5114 111.54 11.0985 113.594 12.2727C115.659 13.4375 117.288 15.1326 118.481 17.358C119.683 19.5833 120.285 22.2822 120.285 25.4545ZM114.049 25.4545C114.049 23.3996 113.741 21.6667 113.126 20.2557C112.52 18.8447 111.663 17.7746 110.555 17.0455C109.447 16.3163 108.149 15.9517 106.663 15.9517C105.176 15.9517 103.879 16.3163 102.771 17.0455C101.663 17.7746 100.801 18.8447 100.185 20.2557C99.5793 21.6667 99.2763 23.3996 99.2763 25.4545C99.2763 27.5095 99.5793 29.2424 100.185 30.6534C100.801 32.0644 101.663 33.1345 102.771 33.8636C103.879 34.5928 105.176 34.9574 106.663 34.9574C108.149 34.9574 109.447 34.5928 110.555 33.8636C111.663 33.1345 112.52 32.0644 113.126 30.6534C113.741 29.2424 114.049 27.5095 114.049 25.4545ZM144.131 20.3125C143.932 19.6212 143.652 19.0104 143.293 18.4801C142.933 17.9403 142.492 17.4858 141.972 17.1165C141.46 16.7377 140.873 16.4489 140.21 16.25C139.557 16.0511 138.832 15.9517 138.037 15.9517C136.55 15.9517 135.243 16.321 134.116 17.0597C132.999 17.7983 132.128 18.8731 131.503 20.2841C130.878 21.6856 130.565 23.3996 130.565 25.4261C130.565 27.4527 130.873 29.1761 131.489 30.5966C132.104 32.017 132.975 33.1013 134.102 33.8494C135.229 34.5881 136.56 34.9574 138.094 34.9574C139.486 34.9574 140.674 34.7112 141.659 34.2188C142.653 33.7169 143.411 33.0114 143.932 32.1023C144.462 31.1932 144.727 30.1184 144.727 28.8778L145.977 29.0625H138.477V24.4318H150.651V28.0966C150.651 30.6534 150.111 32.8504 149.031 34.6875C147.952 36.5152 146.465 37.9261 144.571 38.9205C142.677 39.9053 140.509 40.3977 138.065 40.3977C135.338 40.3977 132.942 39.7964 130.878 38.5938C128.813 37.3816 127.204 35.6629 126.048 33.4375C124.902 31.2027 124.33 28.5511 124.33 25.483C124.33 23.125 124.67 21.0227 125.352 19.1761C126.044 17.3201 127.009 15.7481 128.25 14.4602C129.491 13.1723 130.935 12.1922 132.582 11.5199C134.23 10.8475 136.015 10.5114 137.938 10.5114C139.585 10.5114 141.119 10.7528 142.54 11.2358C143.96 11.7093 145.22 12.3816 146.318 13.2528C147.426 14.1241 148.33 15.161 149.031 16.3636C149.732 17.5568 150.182 18.8731 150.381 20.3125H144.131ZM152.394 10.9091H159.283L165.917 23.4375H166.201L172.835 10.9091H179.724L169.113 29.7159V40H163.005V29.7159L152.394 10.9091ZM207.415 10.9091V40H202.103L189.447 21.6903H189.234V40H183.083V10.9091H188.481L201.038 29.2045H201.293V10.9091H207.415ZM210.793 10.9091H217.682L224.315 23.4375H224.599L231.233 10.9091H238.122L227.511 29.7159V40H221.403V29.7159L210.793 10.9091ZM256.89 10.9091V40H250.739V10.9091H256.89ZM286.283 10.9091V40H280.97L268.314 21.6903H268.101V40H261.95V10.9091H267.348L279.905 29.2045H280.161V10.9091H286.283ZM45.196 69.0938H38.9744C38.8608 68.2888 38.6288 67.5739 38.2784 66.9489C37.928 66.3144 37.4782 65.7746 36.929 65.3295C36.3797 64.8845 35.7453 64.5436 35.0256 64.3068C34.3153 64.0701 33.5436 63.9517 32.7102 63.9517C31.2045 63.9517 29.893 64.3258 28.7756 65.0739C27.6581 65.8125 26.7917 66.892 26.1761 68.3125C25.5606 69.7235 25.2528 71.4375 25.2528 73.4545C25.2528 75.5284 25.5606 77.2708 26.1761 78.6818C26.8011 80.0928 27.6723 81.1581 28.7898 81.8778C29.9072 82.5975 31.1998 82.9574 32.6676 82.9574C33.4915 82.9574 34.2538 82.8485 34.9545 82.6307C35.6648 82.4129 36.2945 82.0956 36.8438 81.679C37.393 81.2528 37.8475 80.7367 38.2074 80.1307C38.5767 79.5246 38.8324 78.8333 38.9744 78.0568L45.196 78.0852C45.035 79.4205 44.6326 80.7083 43.9886 81.9489C43.3542 83.1799 42.4972 84.2831 41.4176 85.2585C40.3475 86.2244 39.0691 86.9915 37.5824 87.5597C36.1051 88.1184 34.4337 88.3977 32.5682 88.3977C29.9735 88.3977 27.6534 87.8106 25.608 86.6364C23.572 85.4621 21.9621 83.7623 20.7784 81.5369C19.6042 79.3116 19.017 76.6174 19.017 73.4545C19.017 70.2822 19.6136 67.5833 20.8068 65.358C22 63.1326 23.6193 61.4375 25.6648 60.2727C27.7102 59.0985 30.0114 58.5114 32.5682 58.5114C34.2538 58.5114 35.8163 58.7481 37.2557 59.2216C38.7045 59.6951 39.9877 60.3864 41.1051 61.2955C42.2225 62.1951 43.1316 63.2983 43.8324 64.6051C44.5426 65.9119 44.9972 67.4081 45.196 69.0938ZM49.6065 88V58.9091H55.7571V70.9119H68.2429V58.9091H74.3793V88H68.2429V75.983H55.7571V88H49.6065ZM85.6009 58.9091V88H79.4503V58.9091H85.6009ZM114.994 58.9091V88H109.681L97.0249 69.6903H96.8118V88H90.6612V58.9091H96.0589L108.616 77.2045H108.871V58.9091H114.994ZM120.075 88V58.9091H139.678V63.9801H126.226V70.9119H138.669V75.983H126.226V82.929H139.734V88H120.075ZM160.349 67.2756C160.235 66.1297 159.747 65.2396 158.886 64.6051C158.024 63.9706 156.854 63.6534 155.377 63.6534C154.373 63.6534 153.526 63.7955 152.835 64.0795C152.143 64.3542 151.613 64.7377 151.244 65.2301C150.884 65.7225 150.704 66.2812 150.704 66.9062C150.685 67.4271 150.794 67.8816 151.031 68.2699C151.277 68.6581 151.613 68.9943 152.039 69.2784C152.465 69.553 152.958 69.7945 153.516 70.0028C154.075 70.2017 154.672 70.3722 155.306 70.5142L157.92 71.1392C159.189 71.4233 160.353 71.8021 161.414 72.2756C162.475 72.7491 163.393 73.3314 164.17 74.0227C164.946 74.714 165.548 75.5284 165.974 76.4659C166.409 77.4034 166.632 78.4782 166.641 79.6903C166.632 81.4706 166.177 83.0142 165.278 84.321C164.388 85.6184 163.1 86.6269 161.414 87.3466C159.738 88.0568 157.716 88.4119 155.349 88.4119C153 88.4119 150.955 88.0521 149.212 87.3324C147.479 86.6127 146.125 85.5473 145.15 84.1364C144.184 82.7159 143.677 80.9593 143.63 78.8665H149.582C149.648 79.8419 149.927 80.6562 150.42 81.3097C150.922 81.9536 151.589 82.4413 152.423 82.7727C153.265 83.0947 154.217 83.2557 155.278 83.2557C156.319 83.2557 157.224 83.1042 157.991 82.8011C158.767 82.4981 159.369 82.0767 159.795 81.5369C160.221 80.9972 160.434 80.3769 160.434 79.6761C160.434 79.0227 160.24 78.4735 159.852 78.0284C159.473 77.5833 158.914 77.2045 158.175 76.892C157.446 76.5795 156.551 76.2955 155.491 76.0398L152.323 75.2443C149.871 74.6477 147.934 73.715 146.513 72.446C145.093 71.1771 144.388 69.4678 144.397 67.3182C144.388 65.5568 144.856 64.018 145.803 62.7017C146.76 61.3854 148.071 60.358 149.738 59.6193C151.405 58.8807 153.299 58.5114 155.42 58.5114C157.579 58.5114 159.463 58.8807 161.073 59.6193C162.692 60.358 163.952 61.3854 164.852 62.7017C165.751 64.018 166.215 65.5426 166.244 67.2756H160.349ZM170.778 88V58.9091H190.381V63.9801H176.929V70.9119H189.372V75.983H176.929V82.929H190.438V88H170.778ZM45.196 117.094H38.9744C38.8608 116.289 38.6288 115.574 38.2784 114.949C37.928 114.314 37.4782 113.775 36.929 113.33C36.3797 112.884 35.7453 112.544 35.0256 112.307C34.3153 112.07 33.5436 111.952 32.7102 111.952C31.2045 111.952 29.893 112.326 28.7756 113.074C27.6581 113.812 26.7917 114.892 26.1761 116.312C25.5606 117.723 25.2528 119.437 25.2528 121.455C25.2528 123.528 25.5606 125.271 26.1761 126.682C26.8011 128.093 27.6723 129.158 28.7898 129.878C29.9072 130.598 31.1998 130.957 32.6676 130.957C33.4915 130.957 34.2538 130.848 34.9545 130.631C35.6648 130.413 36.2945 130.096 36.8438 129.679C37.393 129.253 37.8475 128.737 38.2074 128.131C38.5767 127.525 38.8324 126.833 38.9744 126.057L45.196 126.085C45.035 127.42 44.6326 128.708 43.9886 129.949C43.3542 131.18 42.4972 132.283 41.4176 133.259C40.3475 134.224 39.0691 134.991 37.5824 135.56C36.1051 136.118 34.4337 136.398 32.5682 136.398C29.9735 136.398 27.6534 135.811 25.608 134.636C23.572 133.462 21.9621 131.762 20.7784 129.537C19.6042 127.312 19.017 124.617 19.017 121.455C19.017 118.282 19.6136 115.583 20.8068 113.358C22 111.133 23.6193 109.437 25.6648 108.273C27.7102 107.098 30.0114 106.511 32.5682 106.511C34.2538 106.511 35.8163 106.748 37.2557 107.222C38.7045 107.695 39.9877 108.386 41.1051 109.295C42.2225 110.195 43.1316 111.298 43.8324 112.605C44.5426 113.912 44.9972 115.408 45.196 117.094ZM49.6065 136V106.909H55.7571V118.912H68.2429V106.909H74.3793V136H68.2429V123.983H55.7571V136H49.6065ZM84.4645 136H77.8736L87.9162 106.909H95.8423L105.871 136H99.2798L91.9929 113.557H91.7656L84.4645 136ZM84.0526 124.565H99.6207V129.366H84.0526V124.565ZM109.372 136V106.909H120.849C123.046 106.909 124.921 107.302 126.474 108.088C128.037 108.865 129.225 109.968 130.04 111.398C130.864 112.818 131.276 114.49 131.276 116.412C131.276 118.344 130.859 120.006 130.026 121.398C129.192 122.78 127.985 123.841 126.403 124.58C124.831 125.318 122.928 125.688 120.693 125.688H113.009V120.744H119.699C120.873 120.744 121.848 120.583 122.625 120.261C123.402 119.939 123.979 119.456 124.358 118.812C124.746 118.169 124.94 117.368 124.94 116.412C124.94 115.446 124.746 114.632 124.358 113.969C123.979 113.306 123.397 112.804 122.611 112.463C121.834 112.113 120.854 111.938 119.67 111.938H115.523V136H109.372ZM125.082 122.761L132.312 136H125.523L118.449 122.761H125.082ZM140.636 136H134.045L144.088 106.909H152.014L162.043 136H155.452L148.165 113.557H147.938L140.636 136ZM140.224 124.565H155.793V129.366H140.224V124.565ZM189.844 117.094H183.623C183.509 116.289 183.277 115.574 182.927 114.949C182.576 114.314 182.127 113.775 181.577 113.33C181.028 112.884 180.394 112.544 179.674 112.307C178.964 112.07 178.192 111.952 177.359 111.952C175.853 111.952 174.541 112.326 173.424 113.074C172.307 113.812 171.44 114.892 170.825 116.312C170.209 117.723 169.901 119.437 169.901 121.455C169.901 123.528 170.209 125.271 170.825 126.682C171.45 128.093 172.321 129.158 173.438 129.878C174.556 130.598 175.848 130.957 177.316 130.957C178.14 130.957 178.902 130.848 179.603 130.631C180.313 130.413 180.943 130.096 181.492 129.679C182.041 129.253 182.496 128.737 182.856 128.131C183.225 127.525 183.481 126.833 183.623 126.057L189.844 126.085C189.683 127.42 189.281 128.708 188.637 129.949C188.003 131.18 187.146 132.283 186.066 133.259C184.996 134.224 183.718 134.991 182.231 135.56C180.754 136.118 179.082 136.398 177.217 136.398C174.622 136.398 172.302 135.811 170.256 134.636C168.22 133.462 166.611 131.762 165.427 129.537C164.253 127.312 163.665 124.617 163.665 121.455C163.665 118.282 164.262 115.583 165.455 113.358C166.648 111.133 168.268 109.437 170.313 108.273C172.359 107.098 174.66 106.511 177.217 106.511C178.902 106.511 180.465 106.748 181.904 107.222C183.353 107.695 184.636 108.386 185.754 109.295C186.871 110.195 187.78 111.298 188.481 112.605C189.191 113.912 189.646 115.408 189.844 117.094ZM193.147 111.98V106.909H217.039V111.98H208.133V136H202.053V111.98H193.147ZM220.974 136V106.909H240.576V111.98H227.124V118.912H239.567V123.983H227.124V130.929H240.633V136H220.974ZM245.466 136V106.909H256.943C259.14 106.909 261.015 107.302 262.568 108.088C264.131 108.865 265.319 109.968 266.134 111.398C266.957 112.818 267.369 114.49 267.369 116.412C267.369 118.344 266.953 120.006 266.119 121.398C265.286 122.78 264.079 123.841 262.497 124.58C260.925 125.318 259.022 125.688 256.787 125.688H249.102V120.744H255.793C256.967 120.744 257.942 120.583 258.719 120.261C259.495 119.939 260.073 119.456 260.452 118.812C260.84 118.169 261.034 117.368 261.034 116.412C261.034 115.446 260.84 114.632 260.452 113.969C260.073 113.306 259.491 112.804 258.705 112.463C257.928 112.113 256.948 111.938 255.764 111.938H251.616V136H245.466ZM261.176 122.761L268.406 136H261.616L254.543 122.761H261.176ZM287.497 115.276C287.384 114.13 286.896 113.24 286.034 112.605C285.172 111.971 284.003 111.653 282.526 111.653C281.522 111.653 280.674 111.795 279.983 112.08C279.292 112.354 278.761 112.738 278.392 113.23C278.032 113.723 277.852 114.281 277.852 114.906C277.833 115.427 277.942 115.882 278.179 116.27C278.425 116.658 278.761 116.994 279.188 117.278C279.614 117.553 280.106 117.795 280.665 118.003C281.223 118.202 281.82 118.372 282.455 118.514L285.068 119.139C286.337 119.423 287.502 119.802 288.562 120.276C289.623 120.749 290.542 121.331 291.318 122.023C292.095 122.714 292.696 123.528 293.122 124.466C293.558 125.403 293.78 126.478 293.79 127.69C293.78 129.471 293.326 131.014 292.426 132.321C291.536 133.618 290.248 134.627 288.562 135.347C286.886 136.057 284.865 136.412 282.497 136.412C280.149 136.412 278.103 136.052 276.361 135.332C274.628 134.613 273.274 133.547 272.298 132.136C271.332 130.716 270.826 128.959 270.778 126.866H276.73C276.796 127.842 277.076 128.656 277.568 129.31C278.07 129.954 278.738 130.441 279.571 130.773C280.414 131.095 281.366 131.256 282.426 131.256C283.468 131.256 284.372 131.104 285.139 130.801C285.916 130.498 286.517 130.077 286.943 129.537C287.369 128.997 287.582 128.377 287.582 127.676C287.582 127.023 287.388 126.473 287 126.028C286.621 125.583 286.063 125.205 285.324 124.892C284.595 124.58 283.7 124.295 282.639 124.04L279.472 123.244C277.019 122.648 275.082 121.715 273.662 120.446C272.241 119.177 271.536 117.468 271.545 115.318C271.536 113.557 272.005 112.018 272.952 110.702C273.908 109.385 275.22 108.358 276.886 107.619C278.553 106.881 280.447 106.511 282.568 106.511C284.727 106.511 286.612 106.881 288.222 107.619C289.841 108.358 291.1 109.385 292 110.702C292.9 112.018 293.364 113.543 293.392 115.276H287.497Z" fill="white"/>
<path d="M25.6229 843L17.7152 815.364H24.098L28.6726 834.566H28.902L33.9489 815.364H39.4141L44.4474 834.607H44.6903L49.2649 815.364H55.6477L47.7401 843H42.0455L36.7827 824.931H36.5668L31.3175 843H25.6229ZM82.6127 829.182C82.6127 832.196 82.0415 834.759 80.899 836.874C79.7654 838.988 78.2181 840.603 76.2569 841.718C74.3047 842.825 72.1097 843.378 69.6717 843.378C67.2157 843.378 65.0117 842.82 63.0595 841.705C61.1073 840.589 59.5645 838.974 58.4309 836.86C57.2974 834.746 56.7306 832.187 56.7306 829.182C56.7306 826.168 57.2974 823.604 58.4309 821.49C59.5645 819.376 61.1073 817.766 63.0595 816.659C65.0117 815.544 67.2157 814.986 69.6717 814.986C72.1097 814.986 74.3047 815.544 76.2569 816.659C78.2181 817.766 79.7654 819.376 80.899 821.49C82.0415 823.604 82.6127 826.168 82.6127 829.182ZM76.6887 829.182C76.6887 827.23 76.3964 825.583 75.8116 824.243C75.2359 822.902 74.4217 821.886 73.3691 821.193C72.3166 820.5 71.0841 820.154 69.6717 820.154C68.2593 820.154 67.0268 820.5 65.9743 821.193C64.9217 821.886 64.103 822.902 63.5183 824.243C62.9425 825.583 62.6547 827.23 62.6547 829.182C62.6547 831.134 62.9425 832.78 63.5183 834.121C64.103 835.461 64.9217 836.478 65.9743 837.17C67.0268 837.863 68.2593 838.21 69.6717 838.21C71.0841 838.21 72.3166 837.863 73.3691 837.17C74.4217 836.478 75.2359 835.461 75.8116 834.121C76.3964 832.78 76.6887 831.134 76.6887 829.182ZM86.9411 815.364H94.147L101.758 833.932H102.082L109.692 815.364H116.898V843H111.231V825.012H111.001L103.849 842.865H99.9901L92.8381 824.945H92.6087V843H86.9411V815.364ZM121.713 843V815.364H140.335V820.181H127.556V826.766H139.377V831.584H127.556V838.183H140.389V843H121.713ZM168.096 815.364V843H163.049L151.026 825.606H150.823V843H144.98V815.364H150.108L162.037 832.744H162.28V815.364H168.096Z" fill="white"/>
<path fill-rule="evenodd" clip-rule="evenodd" d="M915.748 20.1905H442.252V827.81H915.748V20.1905ZM398 0V848H960V0H398Z" fill="#FF0000"/>
<path d="M694.409 171H682.034V136.091H694.511C698.023 136.091 701.045 136.79 703.58 138.188C706.114 139.574 708.063 141.568 709.426 144.17C710.801 146.773 711.489 149.886 711.489 153.511C711.489 157.148 710.801 160.273 709.426 162.886C708.063 165.5 706.102 167.506 703.545 168.903C701 170.301 697.955 171 694.409 171ZM689.415 164.676H694.102C696.284 164.676 698.119 164.29 699.608 163.517C701.108 162.733 702.233 161.523 702.983 159.886C703.744 158.239 704.125 156.114 704.125 153.511C704.125 150.932 703.744 148.824 702.983 147.188C702.233 145.551 701.114 144.347 699.625 143.574C698.136 142.801 696.301 142.415 694.119 142.415H689.415V164.676ZM724.337 136.091V171H716.956V136.091H724.337ZM749.347 146.131C749.21 144.756 748.625 143.687 747.591 142.926C746.557 142.165 745.153 141.784 743.381 141.784C742.176 141.784 741.159 141.955 740.33 142.295C739.5 142.625 738.864 143.085 738.42 143.676C737.989 144.267 737.773 144.938 737.773 145.688C737.75 146.312 737.881 146.858 738.165 147.324C738.46 147.79 738.864 148.193 739.375 148.534C739.886 148.864 740.477 149.153 741.148 149.403C741.818 149.642 742.534 149.847 743.295 150.017L746.432 150.767C747.955 151.108 749.352 151.562 750.625 152.131C751.898 152.699 753 153.398 753.932 154.227C754.864 155.057 755.585 156.034 756.097 157.159C756.619 158.284 756.886 159.574 756.898 161.028C756.886 163.165 756.341 165.017 755.261 166.585C754.193 168.142 752.648 169.352 750.625 170.216C748.614 171.068 746.188 171.494 743.347 171.494C740.528 171.494 738.074 171.062 735.983 170.199C733.903 169.335 732.278 168.057 731.108 166.364C729.949 164.659 729.341 162.551 729.284 160.04H736.426C736.506 161.21 736.841 162.187 737.432 162.972C738.034 163.744 738.835 164.33 739.835 164.727C740.847 165.114 741.989 165.307 743.261 165.307C744.511 165.307 745.597 165.125 746.517 164.761C747.449 164.398 748.17 163.892 748.682 163.244C749.193 162.597 749.449 161.852 749.449 161.011C749.449 160.227 749.216 159.568 748.75 159.034C748.295 158.5 747.625 158.045 746.739 157.67C745.864 157.295 744.79 156.955 743.517 156.648L739.716 155.693C736.773 154.977 734.449 153.858 732.744 152.335C731.04 150.812 730.193 148.761 730.205 146.182C730.193 144.068 730.756 142.222 731.892 140.642C733.04 139.062 734.614 137.83 736.614 136.943C738.614 136.057 740.886 135.614 743.432 135.614C746.023 135.614 748.284 136.057 750.216 136.943C752.159 137.83 753.67 139.062 754.75 140.642C755.83 142.222 756.386 144.051 756.42 146.131H749.347ZM761.862 171V136.091H785.385V142.176H769.243V150.494H784.175V156.58H769.243V164.915H785.453V171H761.862ZM797.27 171H789.361L801.412 136.091H810.923L822.957 171H815.048L806.304 144.068H806.031L797.27 171ZM796.776 157.278H815.457V163.04H796.776V157.278ZM845.3 146.131C845.163 144.756 844.578 143.687 843.544 142.926C842.51 142.165 841.107 141.784 839.334 141.784C838.129 141.784 837.112 141.955 836.283 142.295C835.453 142.625 834.817 143.085 834.374 143.676C833.942 144.267 833.726 144.938 833.726 145.688C833.703 146.312 833.834 146.858 834.118 147.324C834.413 147.79 834.817 148.193 835.328 148.534C835.839 148.864 836.43 149.153 837.101 149.403C837.771 149.642 838.487 149.847 839.249 150.017L842.385 150.767C843.908 151.108 845.305 151.562 846.578 152.131C847.851 152.699 848.953 153.398 849.885 154.227C850.817 155.057 851.538 156.034 852.05 157.159C852.572 158.284 852.839 159.574 852.851 161.028C852.839 163.165 852.294 165.017 851.214 166.585C850.146 168.142 848.601 169.352 846.578 170.216C844.567 171.068 842.141 171.494 839.3 171.494C836.482 171.494 834.027 171.062 831.936 170.199C829.857 169.335 828.232 168.057 827.061 166.364C825.902 164.659 825.294 162.551 825.237 160.04H832.379C832.459 161.21 832.794 162.187 833.385 162.972C833.987 163.744 834.788 164.33 835.788 164.727C836.8 165.114 837.942 165.307 839.214 165.307C840.464 165.307 841.55 165.125 842.47 164.761C843.402 164.398 844.124 163.892 844.635 163.244C845.146 162.597 845.402 161.852 845.402 161.011C845.402 160.227 845.169 159.568 844.703 159.034C844.249 158.5 843.578 158.045 842.692 157.67C841.817 157.295 840.743 156.955 839.47 156.648L835.669 155.693C832.726 154.977 830.402 153.858 828.697 152.335C826.993 150.812 826.146 148.761 826.158 146.182C826.146 144.068 826.709 142.222 827.845 140.642C828.993 139.062 830.567 137.83 832.567 136.943C834.567 136.057 836.839 135.614 839.385 135.614C841.976 135.614 844.237 136.057 846.169 136.943C848.112 137.83 849.624 139.062 850.703 140.642C851.783 142.222 852.339 144.051 852.374 146.131H845.3ZM857.815 171V136.091H881.338V142.176H865.196V150.494H880.128V156.58H865.196V164.915H881.406V171H857.815Z" fill="black"/>
<path d="M142.74 447.4L143.25 446.89H146.31C161.383 447.457 176.003 447.513 190.17 447.06C193.23 446.947 194.93 447.23 195.27 447.91C195.497 448.25 195.383 449.553 194.93 451.82C194.25 454.54 193.627 456.013 193.06 456.24C192.607 456.353 191.587 456.41 190 456.41C185.92 456.41 183.257 456.58 182.01 456.92C181.33 457.033 180.933 457.317 180.82 457.77C180.253 458.903 176.627 472.787 169.94 499.42C163.14 526.62 159.513 540.843 159.06 542.09C156.567 548.777 151.693 554.557 144.44 559.43C141.153 561.583 137.867 563.227 134.58 564.36C123.927 567.987 114.577 567.76 106.53 563.68C102.45 561.64 99.5033 558.807 97.69 555.18C96.67 553.253 96.16 550.93 96.16 548.21C96.16 545.263 96.5 542.997 97.18 541.41C98.0867 539.483 99.1633 537.897 100.41 536.65C103.697 533.363 107.493 532.06 111.8 532.74C115.2 533.42 117.467 535.233 118.6 538.18C118.827 538.747 118.94 539.71 118.94 541.07C118.94 543.79 118.203 546.283 116.73 548.55C114.69 551.383 112.253 553.197 109.42 553.99L108.74 554.33L111.46 556.37C114.067 557.843 117.24 558.58 120.98 558.58C123.473 558.58 125.683 558.127 127.61 557.22C133.277 554.613 137.527 550.023 140.36 543.45C140.813 542.43 141.21 541.353 141.55 540.22C141.55 540.107 145.12 526.053 152.26 498.06C158.947 471.087 162.233 457.543 162.12 457.43C161.327 456.863 157.077 456.523 149.37 456.41C144.043 456.41 141.153 456.013 140.7 455.22C140.587 454.88 140.757 453.577 141.21 451.31C141.777 449.157 142.287 447.853 142.74 447.4ZM215.447 447.74L215.957 447.4H263.557H310.987L311.667 447.91C312.007 448.363 312.177 448.817 312.177 449.27L307.247 488.03C307.247 488.597 307.02 489.05 306.567 489.39L306.057 489.9H303.167C301.127 489.9 299.937 489.787 299.597 489.56C299.03 489.22 298.86 487.86 299.087 485.48C299.087 485.253 299.087 484.97 299.087 484.63C299.654 479.983 299.937 476.13 299.937 473.07C299.597 466.27 297.33 461.793 293.137 459.64C291.097 458.733 289 458.11 286.847 457.77C283.674 457.203 276.647 456.977 265.767 457.09C254.887 457.09 249.164 457.43 248.597 458.11L238.397 498.23H247.407C254.887 498.117 259.704 497.663 261.857 496.87C264.35 496.077 266.39 494.66 267.977 492.62C269.564 490.58 271.037 486.897 272.397 481.57C272.85 480.097 273.247 479.19 273.587 478.85L274.097 478.34H276.987C279.367 478.34 280.784 478.737 281.237 479.53C281.35 479.983 279.537 487.86 275.797 503.16C271.83 518.687 269.79 526.507 269.677 526.62C269.45 527.3 268.09 527.64 265.597 527.64H262.707L262.027 527.13C261.574 526.563 261.574 525.26 262.027 523.22C263.387 517.44 263.557 513.473 262.537 511.32C261.744 509.62 259.477 508.543 255.737 508.09C255.057 507.977 251.544 507.92 245.197 507.92L236.017 507.75L230.407 530.02C226.667 545.093 224.797 552.687 224.797 552.8C224.797 552.913 224.91 553.083 225.137 553.31H255.907C262.594 552.97 268.317 551.723 273.077 549.57C275.91 548.097 278.46 546.34 280.727 544.3C285.147 539.88 289.85 531.663 294.837 519.65C295.744 517.27 296.424 515.853 296.877 515.4L297.387 514.89H300.447H303.507L304.017 515.4C304.47 515.853 304.47 516.76 304.017 518.12C303.45 519.82 300.617 526.96 295.517 539.54C289.284 554.5 286.167 562.037 286.167 562.15C285.94 562.603 284.297 562.83 281.237 562.83C277.61 562.943 262.707 563 236.527 563C204 563 187.51 562.66 187.057 561.98C186.83 561.64 186.944 560.337 187.397 558.07C187.964 555.577 188.53 554.16 189.097 553.82C189.664 553.593 191.704 553.48 195.217 553.48C201.564 553.367 205.134 552.913 205.927 552.12C206.267 551.893 210.347 536.14 218.167 504.86C225.987 473.58 229.784 457.883 229.557 457.77C229.33 457.543 228.934 457.43 228.367 457.43C226.44 457.09 223.154 456.92 218.507 456.92C215.56 456.92 213.917 456.58 213.577 455.9C213.35 455.56 213.464 454.257 213.917 451.99C214.484 449.61 214.994 448.193 215.447 447.74ZM397.735 441.45L401.645 441.28H401.815C404.875 441.28 406.518 441.62 406.745 442.3C406.858 442.753 408.388 461.113 411.335 497.38C414.168 533.873 415.698 552.233 415.925 552.46C416.038 552.573 416.435 552.743 417.115 552.97C418.475 553.31 421.761 553.48 426.975 553.48H430.375L431.055 553.99C431.395 554.557 431.565 554.953 431.565 555.18L430.035 561.98C429.695 562.66 428.448 562.943 426.295 562.83C425.841 562.83 424.991 562.83 423.745 562.83C407.311 562.377 393.881 562.433 383.455 563H381.415L380.905 562.49C380.451 562.037 380.225 561.583 380.225 561.13C380.225 559.317 380.791 557.107 381.925 554.5C382.151 553.82 383.795 553.48 386.855 553.48C389.575 553.253 391.388 553.14 392.295 553.14C394.901 552.687 396.318 552.233 396.545 551.78C396.658 551.667 396.431 547.927 395.865 540.56C395.298 533.987 395.015 530.247 395.015 529.34C395.015 529.113 388.555 529 375.635 529H356.085L350.985 538.01C347.358 544.13 345.488 547.473 345.375 548.04C344.921 549.173 345.091 550.137 345.885 550.93C347.018 552.29 349.455 553.14 353.195 553.48C354.781 553.48 355.801 553.877 356.255 554.67L356.425 555.18L355.575 558.58C355.121 560.733 354.668 562.037 354.215 562.49L353.705 563H351.665C342.258 562.547 333.361 562.433 324.975 562.66C319.195 562.887 316.248 563 316.135 563H314.945L314.435 562.49C313.981 562.037 313.755 561.64 313.755 561.3L315.285 554.5C315.738 553.82 317.041 553.48 319.195 553.48C327.128 553.14 332.625 550.873 335.685 546.68L366.455 493.98C386.175 459.867 396.261 442.583 396.715 442.13C396.828 442.017 397.168 441.79 397.735 441.45ZM392.295 495C391.048 478.793 390.425 470.577 390.425 470.35C390.425 469.897 387.931 474.033 382.945 482.76L368.665 507.41L361.695 519.31L377.845 519.48H394.165C394.165 519.593 393.541 511.433 392.295 495ZM468.795 447.06C469.021 446.947 469.928 446.89 471.515 446.89C480.355 447.343 492.311 447.457 507.385 447.23C517.358 447.003 522.288 446.89 522.175 446.89H524.215L524.725 447.4C525.291 447.967 525.348 449.27 524.895 451.31C524.895 451.537 524.838 451.763 524.725 451.99C524.158 454.483 523.648 455.843 523.195 456.07C522.855 456.297 521.098 456.41 517.925 456.41C511.238 456.41 506.875 456.58 504.835 456.92C503.021 457.147 501.888 457.6 501.435 458.28L477.805 552.8C477.805 553.027 478.031 553.197 478.485 553.31H489.875C498.261 553.31 503.758 552.97 506.365 552.29C506.591 552.29 506.818 552.233 507.045 552.12C514.751 550.307 521.098 546.283 526.085 540.05C529.258 536.083 532.658 529.227 536.285 519.48C537.305 516.76 537.985 515.343 538.325 515.23C539.118 514.663 540.988 514.607 543.935 515.06C544.388 515.06 544.671 515.117 544.785 515.23C545.465 515.457 545.805 515.967 545.805 516.76L529.655 562.15C529.428 562.603 527.955 562.83 525.235 562.83C521.835 562.943 508.348 563 484.775 563C455.648 563 440.915 562.887 440.575 562.66C440.235 562.32 440.008 562.037 439.895 561.81C439.781 561.357 439.951 560.053 440.405 557.9C441.085 555.633 441.538 554.33 441.765 553.99L442.445 553.48H448.225C454.571 553.367 458.141 552.913 458.935 552.12C459.275 551.893 463.355 536.14 471.175 504.86C478.995 473.58 482.905 457.827 482.905 457.6C482.905 457.487 482.791 457.317 482.565 457.09C482.111 456.863 479.051 456.637 473.385 456.41H467.605L467.095 455.9C466.415 455.447 466.415 453.86 467.095 451.14C467.661 448.76 468.228 447.4 468.795 447.06ZM629.048 443.32C631.881 443.093 635.564 443.15 640.098 443.49C649.844 444.85 657.891 448.817 664.238 455.39C670.471 461.623 674.381 469.613 675.968 479.36C678.461 494.093 675.571 509.053 667.298 524.24C665.711 527.073 663.954 529.85 662.028 532.57C655.568 541.863 647.748 549.4 638.568 555.18C632.448 559.147 626.384 562.037 620.378 563.85C604.624 568.723 590.854 567.533 579.068 560.28C576.688 558.807 574.478 557.107 572.438 555.18C565.638 548.493 561.388 539.71 559.688 528.83C559.234 525.203 559.178 520.613 559.518 515.06C559.631 514.607 559.688 514.21 559.688 513.87C561.728 498.343 568.301 484.063 579.408 471.03C582.581 467.403 585.981 464.003 589.608 460.83C602.188 450.403 615.334 444.567 629.048 443.32ZM636.698 452.16C633.864 451.707 630.974 451.593 628.028 451.82C620.661 452.727 613.918 455.56 607.798 460.32C598.844 467.12 591.988 476.583 587.228 488.71C583.714 497.437 581.221 507.24 579.748 518.12C579.294 522.54 579.238 527.3 579.578 532.4C579.691 532.853 579.748 533.193 579.748 533.42C581.448 544.187 586.208 551.553 594.028 555.52C601.621 559.373 610.348 558.92 620.208 554.16C632.901 547.927 642.704 536.197 649.618 518.97C653.584 508.77 656.134 498.57 657.268 488.37C657.721 484.63 657.721 480.663 657.268 476.47C657.268 476.243 657.268 476.017 657.268 475.79C656.021 468.537 653.528 463.04 649.788 459.3C646.161 455.56 641.798 453.18 636.698 452.16ZM693.596 447.06C693.822 446.947 694.842 446.89 696.656 446.89C710.369 447.457 724.649 447.513 739.496 447.06C743.122 446.947 745.162 447.287 745.616 448.08C745.842 448.42 745.672 449.723 745.106 451.99C744.539 454.143 744.142 455.447 743.916 455.9L743.406 456.41H737.456C731.789 456.523 728.502 456.807 727.596 457.26C727.029 457.487 726.632 457.883 726.406 458.45C725.726 460.037 722.722 471.597 717.396 493.13C711.502 516.817 708.499 529 708.386 529.68C706.119 541.24 707.932 549.173 713.826 553.48C715.639 554.953 718.416 556.087 722.156 556.88C725.669 557.333 729.239 557.277 732.866 556.71C743.179 555.01 751.566 549.91 758.026 541.41C760.972 537.443 763.296 532.967 764.996 527.98L781.656 461.51C781.656 459.81 780.749 458.62 778.936 457.94C776.896 456.92 773.666 456.41 769.246 456.41H767.376L766.696 455.9C766.356 455.447 766.186 455.05 766.186 454.71L768.056 447.74C768.396 447.173 769.926 446.947 772.646 447.06C772.986 447.06 773.496 447.06 774.176 447.06C781.882 447.513 791.572 447.57 803.246 447.23C804.379 447.117 805.286 447.06 805.966 447.06C809.366 446.947 811.292 447.287 811.746 448.08C811.972 448.42 811.802 449.723 811.236 451.99C810.669 454.257 810.216 455.56 809.876 455.9L809.366 456.41H807.496C799.222 456.41 793.896 458.223 791.516 461.85C790.949 463.55 788.229 474.373 783.356 494.32C777.689 516.42 774.856 527.527 774.856 527.64C771.229 538.747 764.882 547.927 755.816 555.18C745.616 563.227 735.019 567.08 724.026 566.74C717.792 566.4 712.296 565.04 707.536 562.66C704.476 561.073 701.869 559.203 699.716 557.05C695.069 552.517 692.066 547.133 690.706 540.9C689.799 536.82 689.742 532.4 690.536 527.64C690.536 527.413 693.426 515.513 699.206 491.94C704.872 469.727 707.706 458.28 707.706 457.6C707.706 457.487 707.592 457.317 707.366 457.09C706.912 456.863 703.852 456.637 698.186 456.41H692.406L691.726 455.73C691.386 455.39 691.216 455.05 691.216 454.71L693.086 447.74C693.086 447.627 693.256 447.4 693.596 447.06ZM865.911 443.32L874.751 443.49C877.924 444.057 880.927 445.02 883.761 446.38C886.707 447.74 889.257 449.78 891.411 452.5C891.864 452.953 892.147 453.237 892.261 453.35L897.191 448.42C900.477 445.133 902.177 443.433 902.291 443.32C902.857 442.867 903.991 442.867 905.691 443.32C906.031 443.66 906.257 443.943 906.371 444.17C906.484 444.623 904.897 451.423 901.611 464.57C898.211 477.943 896.397 484.743 896.171 484.97L895.661 485.48H892.601C889.994 485.48 888.577 485.14 888.351 484.46C888.237 484.12 888.294 483.383 888.521 482.25C889.541 474.317 888.917 467.8 886.651 462.7C883.931 457.033 879.171 453.633 872.371 452.5C869.651 452.047 866.647 452.047 863.361 452.5C859.054 453.407 855.031 455.673 851.291 459.3C844.831 465.647 842.224 472.39 843.471 479.53C844.151 484.403 846.757 487.747 851.291 489.56L863.021 492.79C867.441 493.923 871.634 495.057 875.601 496.19C878.547 497.437 881.267 499.307 883.761 501.8C885.574 503.613 887.047 505.71 888.181 508.09C891.354 514.777 891.921 522.2 889.881 530.36C887.274 541.467 881.154 550.76 871.521 558.24C870.727 558.807 869.934 559.373 869.141 559.94C865.174 562.32 861.831 563.963 859.111 564.87C854.917 566.23 850.611 566.853 846.191 566.74C839.164 566.4 833.271 565.04 828.511 562.66C826.244 561.64 823.921 559.997 821.541 557.73L820.011 556.2C819.897 556.2 818.254 557.9 815.081 561.3L809.811 566.57L808.111 566.74H807.941C807.034 566.74 806.411 566.57 806.071 566.23C805.731 565.89 805.561 565.607 805.561 565.38C805.561 565.04 808.847 551.723 815.421 525.43C815.647 524.75 817.064 524.41 819.671 524.41H822.731L823.241 524.92C823.694 525.373 823.751 526.563 823.411 528.49C823.411 528.717 823.354 529 823.241 529.34C822.447 533.533 822.334 537.047 822.901 539.88C825.167 550.873 833.497 556.653 847.891 557.22C850.837 557.22 853.331 556.88 855.371 556.2C861.717 554.16 866.817 549.74 870.671 542.94C872.257 540.333 873.334 537.613 873.901 534.78C875.261 527.98 874.184 522.54 870.671 518.46C869.537 517.327 868.064 516.363 866.251 515.57L854.521 512.34C845.907 510.073 840.637 508.43 838.711 507.41C831.004 502.99 826.981 495.963 826.641 486.33C826.414 482.25 827.037 478.057 828.511 473.75C832.024 463.097 838.881 454.823 849.081 448.93C850.441 448.137 851.857 447.4 853.331 446.72C857.184 444.907 860.754 443.83 864.041 443.49C864.494 443.377 865.117 443.32 865.911 443.32Z" fill="#C40000"/>
<path d="M368.74 607.4L369.25 606.89H372.31C387.383 607.457 402.003 607.513 416.17 607.06C419.23 606.947 420.93 607.23 421.27 607.91C421.497 608.25 421.383 609.553 420.93 611.82C420.25 614.54 419.627 616.013 419.06 616.24C418.607 616.353 417.587 616.41 416 616.41C411.92 616.41 409.257 616.58 408.01 616.92C407.33 617.033 406.933 617.317 406.82 617.77C406.253 618.903 402.627 632.787 395.94 659.42C389.14 686.62 385.513 700.843 385.06 702.09C382.567 708.777 377.693 714.557 370.44 719.43C367.153 721.583 363.867 723.227 360.58 724.36C349.927 727.987 340.577 727.76 332.53 723.68C328.45 721.64 325.503 718.807 323.69 715.18C322.67 713.253 322.16 710.93 322.16 708.21C322.16 705.263 322.5 702.997 323.18 701.41C324.087 699.483 325.163 697.897 326.41 696.65C329.697 693.363 333.493 692.06 337.8 692.74C341.2 693.42 343.467 695.233 344.6 698.18C344.827 698.747 344.94 699.71 344.94 701.07C344.94 703.79 344.203 706.283 342.73 708.55C340.69 711.383 338.253 713.197 335.42 713.99L334.74 714.33L337.46 716.37C340.067 717.843 343.24 718.58 346.98 718.58C349.473 718.58 351.683 718.127 353.61 717.22C359.277 714.613 363.527 710.023 366.36 703.45C366.813 702.43 367.21 701.353 367.55 700.22C367.55 700.107 371.12 686.053 378.26 658.06C384.947 631.087 388.233 617.543 388.12 617.43C387.327 616.863 383.077 616.523 375.37 616.41C370.043 616.41 367.153 616.013 366.7 615.22C366.587 614.88 366.757 613.577 367.21 611.31C367.777 609.157 368.287 607.853 368.74 607.4ZM441.447 607.74L441.957 607.4H489.557H536.987L537.667 607.91C538.007 608.363 538.177 608.817 538.177 609.27L533.247 648.03C533.247 648.597 533.02 649.05 532.567 649.39L532.057 649.9H529.167C527.127 649.9 525.937 649.787 525.597 649.56C525.03 649.22 524.86 647.86 525.087 645.48C525.087 645.253 525.087 644.97 525.087 644.63C525.654 639.983 525.937 636.13 525.937 633.07C525.597 626.27 523.33 621.793 519.137 619.64C517.097 618.733 515 618.11 512.847 617.77C509.674 617.203 502.647 616.977 491.767 617.09C480.887 617.09 475.164 617.43 474.597 618.11L464.397 658.23H473.407C480.887 658.117 485.704 657.663 487.857 656.87C490.35 656.077 492.39 654.66 493.977 652.62C495.564 650.58 497.037 646.897 498.397 641.57C498.85 640.097 499.247 639.19 499.587 638.85L500.097 638.34H502.987C505.367 638.34 506.784 638.737 507.237 639.53C507.35 639.983 505.537 647.86 501.797 663.16C497.83 678.687 495.79 686.507 495.677 686.62C495.45 687.3 494.09 687.64 491.597 687.64H488.707L488.027 687.13C487.574 686.563 487.574 685.26 488.027 683.22C489.387 677.44 489.557 673.473 488.537 671.32C487.744 669.62 485.477 668.543 481.737 668.09C481.057 667.977 477.544 667.92 471.197 667.92L462.017 667.75L456.407 690.02C452.667 705.093 450.797 712.687 450.797 712.8C450.797 712.913 450.91 713.083 451.137 713.31H481.907C488.594 712.97 494.317 711.723 499.077 709.57C501.91 708.097 504.46 706.34 506.727 704.3C511.147 699.88 515.85 691.663 520.837 679.65C521.744 677.27 522.424 675.853 522.877 675.4L523.387 674.89H526.447H529.507L530.017 675.4C530.47 675.853 530.47 676.76 530.017 678.12C529.45 679.82 526.617 686.96 521.517 699.54C515.284 714.5 512.167 722.037 512.167 722.15C511.94 722.603 510.297 722.83 507.237 722.83C503.61 722.943 488.707 723 462.527 723C430 723 413.51 722.66 413.057 721.98C412.83 721.64 412.944 720.337 413.397 718.07C413.964 715.577 414.53 714.16 415.097 713.82C415.664 713.593 417.704 713.48 421.217 713.48C427.564 713.367 431.134 712.913 431.927 712.12C432.267 711.893 436.347 696.14 444.167 664.86C451.987 633.58 455.784 617.883 455.557 617.77C455.33 617.543 454.934 617.43 454.367 617.43C452.44 617.09 449.154 616.92 444.507 616.92C441.56 616.92 439.917 616.58 439.577 615.9C439.35 615.56 439.464 614.257 439.917 611.99C440.484 609.61 440.994 608.193 441.447 607.74ZM623.735 601.45L627.645 601.28H627.815C630.875 601.28 632.518 601.62 632.745 602.3C632.858 602.753 634.388 621.113 637.335 657.38C640.168 693.873 641.698 712.233 641.925 712.46C642.038 712.573 642.435 712.743 643.115 712.97C644.475 713.31 647.761 713.48 652.975 713.48H656.375L657.055 713.99C657.395 714.557 657.565 714.953 657.565 715.18L656.035 721.98C655.695 722.66 654.448 722.943 652.295 722.83C651.841 722.83 650.991 722.83 649.745 722.83C633.311 722.377 619.881 722.433 609.455 723H607.415L606.905 722.49C606.451 722.037 606.225 721.583 606.225 721.13C606.225 719.317 606.791 717.107 607.925 714.5C608.151 713.82 609.795 713.48 612.855 713.48C615.575 713.253 617.388 713.14 618.295 713.14C620.901 712.687 622.318 712.233 622.545 711.78C622.658 711.667 622.431 707.927 621.865 700.56C621.298 693.987 621.015 690.247 621.015 689.34C621.015 689.113 614.555 689 601.635 689H582.085L576.985 698.01C573.358 704.13 571.488 707.473 571.375 708.04C570.921 709.173 571.091 710.137 571.885 710.93C573.018 712.29 575.455 713.14 579.195 713.48C580.781 713.48 581.801 713.877 582.255 714.67L582.425 715.18L581.575 718.58C581.121 720.733 580.668 722.037 580.215 722.49L579.705 723H577.665C568.258 722.547 559.361 722.433 550.975 722.66C545.195 722.887 542.248 723 542.135 723H540.945L540.435 722.49C539.981 722.037 539.755 721.64 539.755 721.3L541.285 714.5C541.738 713.82 543.041 713.48 545.195 713.48C553.128 713.14 558.625 710.873 561.685 706.68L592.455 653.98C612.175 619.867 622.261 602.583 622.715 602.13C622.828 602.017 623.168 601.79 623.735 601.45ZM618.295 655C617.048 638.793 616.425 630.577 616.425 630.35C616.425 629.897 613.931 634.033 608.945 642.76L594.665 667.41L587.695 679.31L603.845 679.48H620.165C620.165 679.593 619.541 671.433 618.295 655ZM694.795 607.06C695.021 606.947 695.928 606.89 697.515 606.89C706.355 607.343 718.311 607.457 733.385 607.23C743.358 607.003 748.288 606.89 748.175 606.89H750.215L750.725 607.4C751.291 607.967 751.348 609.27 750.895 611.31C750.895 611.537 750.838 611.763 750.725 611.99C750.158 614.483 749.648 615.843 749.195 616.07C748.855 616.297 747.098 616.41 743.925 616.41C737.238 616.41 732.875 616.58 730.835 616.92C729.021 617.147 727.888 617.6 727.435 618.28L703.805 712.8C703.805 713.027 704.031 713.197 704.485 713.31H715.875C724.261 713.31 729.758 712.97 732.365 712.29C732.591 712.29 732.818 712.233 733.045 712.12C740.751 710.307 747.098 706.283 752.085 700.05C755.258 696.083 758.658 689.227 762.285 679.48C763.305 676.76 763.985 675.343 764.325 675.23C765.118 674.663 766.988 674.607 769.935 675.06C770.388 675.06 770.671 675.117 770.785 675.23C771.465 675.457 771.805 675.967 771.805 676.76L755.655 722.15C755.428 722.603 753.955 722.83 751.235 722.83C747.835 722.943 734.348 723 710.775 723C681.648 723 666.915 722.887 666.575 722.66C666.235 722.32 666.008 722.037 665.895 721.81C665.781 721.357 665.951 720.053 666.405 717.9C667.085 715.633 667.538 714.33 667.765 713.99L668.445 713.48H674.225C680.571 713.367 684.141 712.913 684.935 712.12C685.275 711.893 689.355 696.14 697.175 664.86C704.995 633.58 708.905 617.827 708.905 617.6C708.905 617.487 708.791 617.317 708.565 617.09C708.111 616.863 705.051 616.637 699.385 616.41H693.605L693.095 615.9C692.415 615.447 692.415 613.86 693.095 611.14C693.661 608.76 694.228 607.4 694.795 607.06ZM855.048 603.32C857.881 603.093 861.564 603.15 866.098 603.49C875.844 604.85 883.891 608.817 890.238 615.39C896.471 621.623 900.381 629.613 901.968 639.36C904.461 654.093 901.571 669.053 893.298 684.24C891.711 687.073 889.954 689.85 888.028 692.57C881.568 701.863 873.748 709.4 864.568 715.18C858.448 719.147 852.384 722.037 846.378 723.85C830.624 728.723 816.854 727.533 805.068 720.28C802.688 718.807 800.478 717.107 798.438 715.18C791.638 708.493 787.388 699.71 785.688 688.83C785.234 685.203 785.178 680.613 785.518 675.06C785.631 674.607 785.688 674.21 785.688 673.87C787.728 658.343 794.301 644.063 805.408 631.03C808.581 627.403 811.981 624.003 815.608 620.83C828.188 610.403 841.334 604.567 855.048 603.32ZM862.698 612.16C859.864 611.707 856.974 611.593 854.028 611.82C846.661 612.727 839.918 615.56 833.798 620.32C824.844 627.12 817.988 636.583 813.228 648.71C809.714 657.437 807.221 667.24 805.748 678.12C805.294 682.54 805.238 687.3 805.578 692.4C805.691 692.853 805.748 693.193 805.748 693.42C807.448 704.187 812.208 711.553 820.028 715.52C827.621 719.373 836.348 718.92 846.208 714.16C858.901 707.927 868.704 696.197 875.618 678.97C879.584 668.77 882.134 658.57 883.268 648.37C883.721 644.63 883.721 640.663 883.268 636.47C883.268 636.243 883.268 636.017 883.268 635.79C882.021 628.537 879.528 623.04 875.788 619.3C872.161 615.56 867.798 613.18 862.698 612.16ZM919.596 607.06C919.822 606.947 920.842 606.89 922.656 606.89C936.369 607.457 950.649 607.513 965.496 607.06C969.122 606.947 971.162 607.287 971.616 608.08C971.842 608.42 971.672 609.723 971.106 611.99C970.539 614.143 970.142 615.447 969.916 615.9L969.406 616.41H963.456C957.789 616.523 954.502 616.807 953.596 617.26C953.029 617.487 952.632 617.883 952.406 618.45C951.726 620.037 948.722 631.597 943.396 653.13C937.502 676.817 934.499 689 934.386 689.68C932.119 701.24 933.932 709.173 939.826 713.48C941.639 714.953 944.416 716.087 948.156 716.88C951.669 717.333 955.239 717.277 958.866 716.71C969.179 715.01 977.566 709.91 984.026 701.41C986.972 697.443 989.296 692.967 990.996 687.98L1007.66 621.51C1007.66 619.81 1006.75 618.62 1004.94 617.94C1002.9 616.92 999.666 616.41 995.246 616.41H993.376L992.696 615.9C992.356 615.447 992.186 615.05 992.186 614.71L994.056 607.74C994.396 607.173 995.926 606.947 998.646 607.06C998.986 607.06 999.496 607.06 1000.18 607.06C1007.88 607.513 1017.57 607.57 1029.25 607.23C1030.38 607.117 1031.29 607.06 1031.97 607.06C1035.37 606.947 1037.29 607.287 1037.75 608.08C1037.97 608.42 1037.8 609.723 1037.24 611.99C1036.67 614.257 1036.22 615.56 1035.88 615.9L1035.37 616.41H1033.5C1025.22 616.41 1019.9 618.223 1017.52 621.85C1016.95 623.55 1014.23 634.373 1009.36 654.32C1003.69 676.42 1000.86 687.527 1000.86 687.64C997.229 698.747 990.882 707.927 981.816 715.18C971.616 723.227 961.019 727.08 950.026 726.74C943.792 726.4 938.296 725.04 933.536 722.66C930.476 721.073 927.869 719.203 925.716 717.05C921.069 712.517 918.066 707.133 916.706 700.9C915.799 696.82 915.742 692.4 916.536 687.64C916.536 687.413 919.426 675.513 925.206 651.94C930.872 629.727 933.706 618.28 933.706 617.6C933.706 617.487 933.592 617.317 933.366 617.09C932.912 616.863 929.852 616.637 924.186 616.41H918.406L917.726 615.73C917.386 615.39 917.216 615.05 917.216 614.71L919.086 607.74C919.086 607.627 919.256 607.4 919.596 607.06ZM1091.91 603.32L1100.75 603.49C1103.92 604.057 1106.93 605.02 1109.76 606.38C1112.71 607.74 1115.26 609.78 1117.41 612.5C1117.86 612.953 1118.15 613.237 1118.26 613.35L1123.19 608.42C1126.48 605.133 1128.18 603.433 1128.29 603.32C1128.86 602.867 1129.99 602.867 1131.69 603.32C1132.03 603.66 1132.26 603.943 1132.37 604.17C1132.48 604.623 1130.9 611.423 1127.61 624.57C1124.21 637.943 1122.4 644.743 1122.17 644.97L1121.66 645.48H1118.6C1115.99 645.48 1114.58 645.14 1114.35 644.46C1114.24 644.12 1114.29 643.383 1114.52 642.25C1115.54 634.317 1114.92 627.8 1112.65 622.7C1109.93 617.033 1105.17 613.633 1098.37 612.5C1095.65 612.047 1092.65 612.047 1089.36 612.5C1085.05 613.407 1081.03 615.673 1077.29 619.3C1070.83 625.647 1068.22 632.39 1069.47 639.53C1070.15 644.403 1072.76 647.747 1077.29 649.56L1089.02 652.79C1093.44 653.923 1097.63 655.057 1101.6 656.19C1104.55 657.437 1107.27 659.307 1109.76 661.8C1111.57 663.613 1113.05 665.71 1114.18 668.09C1117.35 674.777 1117.92 682.2 1115.88 690.36C1113.27 701.467 1107.15 710.76 1097.52 718.24C1096.73 718.807 1095.93 719.373 1095.14 719.94C1091.17 722.32 1087.83 723.963 1085.11 724.87C1080.92 726.23 1076.61 726.853 1072.19 726.74C1065.16 726.4 1059.27 725.04 1054.51 722.66C1052.24 721.64 1049.92 719.997 1047.54 717.73L1046.01 716.2C1045.9 716.2 1044.25 717.9 1041.08 721.3L1035.81 726.57L1034.11 726.74H1033.94C1033.03 726.74 1032.41 726.57 1032.07 726.23C1031.73 725.89 1031.56 725.607 1031.56 725.38C1031.56 725.04 1034.85 711.723 1041.42 685.43C1041.65 684.75 1043.06 684.41 1045.67 684.41H1048.73L1049.24 684.92C1049.69 685.373 1049.75 686.563 1049.41 688.49C1049.41 688.717 1049.35 689 1049.24 689.34C1048.45 693.533 1048.33 697.047 1048.9 699.88C1051.17 710.873 1059.5 716.653 1073.89 717.22C1076.84 717.22 1079.33 716.88 1081.37 716.2C1087.72 714.16 1092.82 709.74 1096.67 702.94C1098.26 700.333 1099.33 697.613 1099.9 694.78C1101.26 687.98 1100.18 682.54 1096.67 678.46C1095.54 677.327 1094.06 676.363 1092.25 675.57L1080.52 672.34C1071.91 670.073 1066.64 668.43 1064.71 667.41C1057 662.99 1052.98 655.963 1052.64 646.33C1052.41 642.25 1053.04 638.057 1054.51 633.75C1058.02 623.097 1064.88 614.823 1075.08 608.93C1076.44 608.137 1077.86 607.4 1079.33 606.72C1083.18 604.907 1086.75 603.83 1090.04 603.49C1090.49 603.377 1091.12 603.32 1091.91 603.32Z" fill="#C40000"/>
</svg>
