<svg width="1879" height="914" viewBox="0 0 1879 914" fill="none" xmlns="http://www.w3.org/2000/svg">
<path d="M760.547 685.259L808.302 632.205C849.545 668.459 904.897 724.165 933.659 765.724L882.105 824.968C857.142 785.177 802.875 725.05 760.547 685.259ZM510.376 421.757H872.88V502.223H510.376V421.757ZM445.799 539.361H938V623.363H445.799V539.361ZM453.396 38H927.147V121.118H453.396V38ZM658.525 554.392H724.731V738.313C724.731 785.177 719.847 809.936 698.683 824.084C678.061 839.116 652.013 840 616.197 840C613.484 811.704 604.258 771.914 596.661 746.271C617.825 748.04 642.245 748.04 649.3 747.155C656.897 747.155 658.525 744.503 658.525 734.776V554.392ZM553.79 630.437L613.484 664.037C582.551 729.471 533.168 794.904 490.84 834.695C479.987 816.126 456.109 780.756 442 764.84C484.328 733.008 528.284 681.722 553.79 630.437ZM545.65 244.026V309.46H834.35V244.026H545.65ZM485.414 167.982H898.928V386.388H485.414V167.982ZM599.917 69.8324H659.61V355.44H599.917V69.8324ZM716.591 69.8324H777.37V355.44H716.591V69.8324Z" fill="white"/>
<path d="M0 208.326H405V320.246H0V208.326ZM158.806 1L216.917 22.0996C181.873 220.252 133.078 466.108 97.1468 624.814L43.0285 584.449C78.5159 434.917 127.311 189.061 158.806 1ZM283.012 263.369L341.566 290.89C306.079 672.517 224.014 805.536 31.9387 864.248C26.6156 830.305 14.6386 783.519 3.99233 755.081C181.873 712.881 253.735 601.879 283.012 263.369ZM72.3056 566.102L108.237 479.869C202.722 545.002 332.251 665.178 397.459 763.337L356.648 867C297.207 767.924 171.227 639.492 72.3056 566.102Z" fill="#FF0000"/>
<path d="M20.5284 9.90909H28.1136L36.125 29.4545H36.4659L44.4773 9.90909H52.0625V39H46.0966V20.0653H45.8551L38.3267 38.858H34.2642L26.7358 19.9943H26.4943V39H20.5284V9.90909ZM63.2805 9.90909V39H57.13V9.90909H63.2805ZM84.1222 18.2756C84.0085 17.1297 83.5208 16.2396 82.6591 15.6051C81.7973 14.9706 80.6278 14.6534 79.1506 14.6534C78.1468 14.6534 77.2992 14.7955 76.608 15.0795C75.9167 15.3542 75.3864 15.7377 75.017 16.2301C74.6572 16.7225 74.4773 17.2812 74.4773 17.9062C74.4583 18.4271 74.5672 18.8816 74.804 19.2699C75.0502 19.6581 75.3864 19.9943 75.8125 20.2784C76.2386 20.553 76.7311 20.7945 77.2898 21.0028C77.8485 21.2017 78.4451 21.3722 79.0795 21.5142L81.6932 22.1392C82.9621 22.4233 84.1269 22.8021 85.1875 23.2756C86.2481 23.7491 87.1667 24.3314 87.9432 25.0227C88.7197 25.714 89.321 26.5284 89.7472 27.4659C90.1828 28.4034 90.4053 29.4782 90.4148 30.6903C90.4053 32.4706 89.9508 34.0142 89.0511 35.321C88.161 36.6184 86.8731 37.6269 85.1875 38.3466C83.5114 39.0568 81.4896 39.4119 79.1222 39.4119C76.7737 39.4119 74.7282 39.0521 72.9858 38.3324C71.2528 37.6127 69.8987 36.5473 68.9233 35.1364C67.9574 33.7159 67.4508 31.9593 67.4034 29.8665H73.3551C73.4214 30.8419 73.7008 31.6562 74.1932 32.3097C74.6951 32.9536 75.3627 33.4413 76.196 33.7727C77.0388 34.0947 77.9905 34.2557 79.0511 34.2557C80.0928 34.2557 80.9972 34.1042 81.7642 33.8011C82.5407 33.4981 83.142 33.0767 83.5682 32.5369C83.9943 31.9972 84.2074 31.3769 84.2074 30.6761C84.2074 30.0227 84.0133 29.4735 83.625 29.0284C83.2462 28.5833 82.6875 28.2045 81.9489 27.892C81.2197 27.5795 80.3248 27.2955 79.2642 27.0398L76.0966 26.2443C73.6439 25.6477 71.7074 24.715 70.2869 23.446C68.8665 22.1771 68.161 20.4678 68.1705 18.3182C68.161 16.5568 68.6297 15.018 69.5767 13.7017C70.5331 12.3854 71.8447 11.358 73.5114 10.6193C75.178 9.88068 77.072 9.51136 79.1932 9.51136C81.3523 9.51136 83.2367 9.88068 84.8466 10.6193C86.4659 11.358 87.7254 12.3854 88.625 13.7017C89.5246 15.018 89.9886 16.5426 90.017 18.2756H84.1222ZM121.285 24.4545C121.285 27.6269 120.683 30.3258 119.481 32.5511C118.288 34.7765 116.659 36.4763 114.594 37.6506C112.54 38.8153 110.229 39.3977 107.663 39.3977C105.077 39.3977 102.757 38.8106 100.702 37.6364C98.6475 36.4621 97.0234 34.7623 95.8303 32.5369C94.6371 30.3116 94.0405 27.6174 94.0405 24.4545C94.0405 21.2822 94.6371 18.5833 95.8303 16.358C97.0234 14.1326 98.6475 12.4375 100.702 11.2727C102.757 10.0985 105.077 9.51136 107.663 9.51136C110.229 9.51136 112.54 10.0985 114.594 11.2727C116.659 12.4375 118.288 14.1326 119.481 16.358C120.683 18.5833 121.285 21.2822 121.285 24.4545ZM115.049 24.4545C115.049 22.3996 114.741 20.6667 114.126 19.2557C113.52 17.8447 112.663 16.7746 111.555 16.0455C110.447 15.3163 109.149 14.9517 107.663 14.9517C106.176 14.9517 104.879 15.3163 103.771 16.0455C102.663 16.7746 101.801 17.8447 101.185 19.2557C100.579 20.6667 100.276 22.3996 100.276 24.4545C100.276 26.5095 100.579 28.2424 101.185 29.6534C101.801 31.0644 102.663 32.1345 103.771 32.8636C104.879 33.5928 106.176 33.9574 107.663 33.9574C109.149 33.9574 110.447 33.5928 111.555 32.8636C112.663 32.1345 113.52 31.0644 114.126 29.6534C114.741 28.2424 115.049 26.5095 115.049 24.4545ZM145.131 19.3125C144.932 18.6212 144.652 18.0104 144.293 17.4801C143.933 16.9403 143.492 16.4858 142.972 16.1165C142.46 15.7377 141.873 15.4489 141.21 15.25C140.557 15.0511 139.832 14.9517 139.037 14.9517C137.55 14.9517 136.243 15.321 135.116 16.0597C133.999 16.7983 133.128 17.8731 132.503 19.2841C131.878 20.6856 131.565 22.3996 131.565 24.4261C131.565 26.4527 131.873 28.1761 132.489 29.5966C133.104 31.017 133.975 32.1013 135.102 32.8494C136.229 33.5881 137.56 33.9574 139.094 33.9574C140.486 33.9574 141.674 33.7112 142.659 33.2188C143.653 32.7169 144.411 32.0114 144.932 31.1023C145.462 30.1932 145.727 29.1184 145.727 27.8778L146.977 28.0625H139.477V23.4318H151.651V27.0966C151.651 29.6534 151.111 31.8504 150.031 33.6875C148.952 35.5152 147.465 36.9261 145.571 37.9205C143.677 38.9053 141.509 39.3977 139.065 39.3977C136.338 39.3977 133.942 38.7964 131.878 37.5938C129.813 36.3816 128.204 34.6629 127.048 32.4375C125.902 30.2027 125.33 27.5511 125.33 24.483C125.33 22.125 125.67 20.0227 126.352 18.1761C127.044 16.3201 128.009 14.7481 129.25 13.4602C130.491 12.1723 131.935 11.1922 133.582 10.5199C135.23 9.84754 137.015 9.51136 138.938 9.51136C140.585 9.51136 142.119 9.75284 143.54 10.2358C144.96 10.7093 146.22 11.3816 147.318 12.2528C148.426 13.1241 149.33 14.161 150.031 15.3636C150.732 16.5568 151.182 17.8731 151.381 19.3125H145.131ZM153.394 9.90909H160.283L166.917 22.4375H167.201L173.835 9.90909H180.724L170.113 28.7159V39H164.005V28.7159L153.394 9.90909ZM208.415 9.90909V39H203.103L190.447 20.6903H190.234V39H184.083V9.90909H189.481L202.038 28.2045H202.293V9.90909H208.415ZM211.793 9.90909H218.682L225.315 22.4375H225.599L232.233 9.90909H239.122L228.511 28.7159V39H222.403V28.7159L211.793 9.90909ZM257.89 9.90909V39H251.739V9.90909H257.89ZM287.283 9.90909V39H281.97L269.314 20.6903H269.101V39H262.95V9.90909H268.348L280.905 28.2045H281.161V9.90909H287.283ZM46.196 68.0938H39.9744C39.8608 67.2888 39.6288 66.5739 39.2784 65.9489C38.928 65.3144 38.4782 64.7746 37.929 64.3295C37.3797 63.8845 36.7453 63.5436 36.0256 63.3068C35.3153 63.0701 34.5436 62.9517 33.7102 62.9517C32.2045 62.9517 30.893 63.3258 29.7756 64.0739C28.6581 64.8125 27.7917 65.892 27.1761 67.3125C26.5606 68.7235 26.2528 70.4375 26.2528 72.4545C26.2528 74.5284 26.5606 76.2708 27.1761 77.6818C27.8011 79.0928 28.6723 80.1581 29.7898 80.8778C30.9072 81.5975 32.1998 81.9574 33.6676 81.9574C34.4915 81.9574 35.2538 81.8485 35.9545 81.6307C36.6648 81.4129 37.2945 81.0956 37.8438 80.679C38.393 80.2528 38.8475 79.7367 39.2074 79.1307C39.5767 78.5246 39.8324 77.8333 39.9744 77.0568L46.196 77.0852C46.035 78.4205 45.6326 79.7083 44.9886 80.9489C44.3542 82.1799 43.4972 83.2831 42.4176 84.2585C41.3475 85.2244 40.0691 85.9915 38.5824 86.5597C37.1051 87.1184 35.4337 87.3977 33.5682 87.3977C30.9735 87.3977 28.6534 86.8106 26.608 85.6364C24.572 84.4621 22.9621 82.7623 21.7784 80.5369C20.6042 78.3116 20.017 75.6174 20.017 72.4545C20.017 69.2822 20.6136 66.5833 21.8068 64.358C23 62.1326 24.6193 60.4375 26.6648 59.2727C28.7102 58.0985 31.0114 57.5114 33.5682 57.5114C35.2538 57.5114 36.8163 57.7481 38.2557 58.2216C39.7045 58.6951 40.9877 59.3864 42.1051 60.2955C43.2225 61.1951 44.1316 62.2983 44.8324 63.6051C45.5426 64.9119 45.9972 66.4081 46.196 68.0938ZM50.6065 87V57.9091H56.7571V69.9119H69.2429V57.9091H75.3793V87H69.2429V74.983H56.7571V87H50.6065ZM86.6009 57.9091V87H80.4503V57.9091H86.6009ZM115.994 57.9091V87H110.681L98.0249 68.6903H97.8118V87H91.6612V57.9091H97.0589L109.616 76.2045H109.871V57.9091H115.994ZM121.075 87V57.9091H140.678V62.9801H127.226V69.9119H139.669V74.983H127.226V81.929H140.734V87H121.075ZM161.349 66.2756C161.235 65.1297 160.747 64.2396 159.886 63.6051C159.024 62.9706 157.854 62.6534 156.377 62.6534C155.373 62.6534 154.526 62.7955 153.835 63.0795C153.143 63.3542 152.613 63.7377 152.244 64.2301C151.884 64.7225 151.704 65.2812 151.704 65.9062C151.685 66.4271 151.794 66.8816 152.031 67.2699C152.277 67.6581 152.613 67.9943 153.039 68.2784C153.465 68.553 153.958 68.7945 154.516 69.0028C155.075 69.2017 155.672 69.3722 156.306 69.5142L158.92 70.1392C160.189 70.4233 161.353 70.8021 162.414 71.2756C163.475 71.7491 164.393 72.3314 165.17 73.0227C165.946 73.714 166.548 74.5284 166.974 75.4659C167.409 76.4034 167.632 77.4782 167.641 78.6903C167.632 80.4706 167.177 82.0142 166.278 83.321C165.388 84.6184 164.1 85.6269 162.414 86.3466C160.738 87.0568 158.716 87.4119 156.349 87.4119C154 87.4119 151.955 87.0521 150.212 86.3324C148.479 85.6127 147.125 84.5473 146.15 83.1364C145.184 81.7159 144.677 79.9593 144.63 77.8665H150.582C150.648 78.8419 150.927 79.6562 151.42 80.3097C151.922 80.9536 152.589 81.4413 153.423 81.7727C154.265 82.0947 155.217 82.2557 156.278 82.2557C157.319 82.2557 158.224 82.1042 158.991 81.8011C159.767 81.4981 160.369 81.0767 160.795 80.5369C161.221 79.9972 161.434 79.3769 161.434 78.6761C161.434 78.0227 161.24 77.4735 160.852 77.0284C160.473 76.5833 159.914 76.2045 159.175 75.892C158.446 75.5795 157.551 75.2955 156.491 75.0398L153.323 74.2443C150.871 73.6477 148.934 72.715 147.513 71.446C146.093 70.1771 145.388 68.4678 145.397 66.3182C145.388 64.5568 145.856 63.018 146.803 61.7017C147.76 60.3854 149.071 59.358 150.738 58.6193C152.405 57.8807 154.299 57.5114 156.42 57.5114C158.579 57.5114 160.463 57.8807 162.073 58.6193C163.692 59.358 164.952 60.3854 165.852 61.7017C166.751 63.018 167.215 64.5426 167.244 66.2756H161.349ZM171.778 87V57.9091H191.381V62.9801H177.929V69.9119H190.372V74.983H177.929V81.929H191.438V87H171.778ZM46.196 116.094H39.9744C39.8608 115.289 39.6288 114.574 39.2784 113.949C38.928 113.314 38.4782 112.775 37.929 112.33C37.3797 111.884 36.7453 111.544 36.0256 111.307C35.3153 111.07 34.5436 110.952 33.7102 110.952C32.2045 110.952 30.893 111.326 29.7756 112.074C28.6581 112.812 27.7917 113.892 27.1761 115.312C26.5606 116.723 26.2528 118.437 26.2528 120.455C26.2528 122.528 26.5606 124.271 27.1761 125.682C27.8011 127.093 28.6723 128.158 29.7898 128.878C30.9072 129.598 32.1998 129.957 33.6676 129.957C34.4915 129.957 35.2538 129.848 35.9545 129.631C36.6648 129.413 37.2945 129.096 37.8438 128.679C38.393 128.253 38.8475 127.737 39.2074 127.131C39.5767 126.525 39.8324 125.833 39.9744 125.057L46.196 125.085C46.035 126.42 45.6326 127.708 44.9886 128.949C44.3542 130.18 43.4972 131.283 42.4176 132.259C41.3475 133.224 40.0691 133.991 38.5824 134.56C37.1051 135.118 35.4337 135.398 33.5682 135.398C30.9735 135.398 28.6534 134.811 26.608 133.636C24.572 132.462 22.9621 130.762 21.7784 128.537C20.6042 126.312 20.017 123.617 20.017 120.455C20.017 117.282 20.6136 114.583 21.8068 112.358C23 110.133 24.6193 108.437 26.6648 107.273C28.7102 106.098 31.0114 105.511 33.5682 105.511C35.2538 105.511 36.8163 105.748 38.2557 106.222C39.7045 106.695 40.9877 107.386 42.1051 108.295C43.2225 109.195 44.1316 110.298 44.8324 111.605C45.5426 112.912 45.9972 114.408 46.196 116.094ZM50.6065 135V105.909H56.7571V117.912H69.2429V105.909H75.3793V135H69.2429V122.983H56.7571V135H50.6065ZM85.4645 135H78.8736L88.9162 105.909H96.8423L106.871 135H100.28L92.9929 112.557H92.7656L85.4645 135ZM85.0526 123.565H100.621V128.366H85.0526V123.565ZM110.372 135V105.909H121.849C124.046 105.909 125.921 106.302 127.474 107.088C129.037 107.865 130.225 108.968 131.04 110.398C131.864 111.818 132.276 113.49 132.276 115.412C132.276 117.344 131.859 119.006 131.026 120.398C130.192 121.78 128.985 122.841 127.403 123.58C125.831 124.318 123.928 124.688 121.693 124.688H114.009V119.744H120.699C121.873 119.744 122.848 119.583 123.625 119.261C124.402 118.939 124.979 118.456 125.358 117.812C125.746 117.169 125.94 116.368 125.94 115.412C125.94 114.446 125.746 113.632 125.358 112.969C124.979 112.306 124.397 111.804 123.611 111.463C122.834 111.113 121.854 110.938 120.67 110.938H116.523V135H110.372ZM126.082 121.761L133.312 135H126.523L119.449 121.761H126.082ZM141.636 135H135.045L145.088 105.909H153.014L163.043 135H156.452L149.165 112.557H148.938L141.636 135ZM141.224 123.565H156.793V128.366H141.224V123.565ZM190.844 116.094H184.623C184.509 115.289 184.277 114.574 183.927 113.949C183.576 113.314 183.127 112.775 182.577 112.33C182.028 111.884 181.394 111.544 180.674 111.307C179.964 111.07 179.192 110.952 178.359 110.952C176.853 110.952 175.541 111.326 174.424 112.074C173.307 112.812 172.44 113.892 171.825 115.312C171.209 116.723 170.901 118.437 170.901 120.455C170.901 122.528 171.209 124.271 171.825 125.682C172.45 127.093 173.321 128.158 174.438 128.878C175.556 129.598 176.848 129.957 178.316 129.957C179.14 129.957 179.902 129.848 180.603 129.631C181.313 129.413 181.943 129.096 182.492 128.679C183.041 128.253 183.496 127.737 183.856 127.131C184.225 126.525 184.481 125.833 184.623 125.057L190.844 125.085C190.683 126.42 190.281 127.708 189.637 128.949C189.003 130.18 188.146 131.283 187.066 132.259C185.996 133.224 184.718 133.991 183.231 134.56C181.754 135.118 180.082 135.398 178.217 135.398C175.622 135.398 173.302 134.811 171.256 133.636C169.22 132.462 167.611 130.762 166.427 128.537C165.253 126.312 164.665 123.617 164.665 120.455C164.665 117.282 165.262 114.583 166.455 112.358C167.648 110.133 169.268 108.437 171.313 107.273C173.359 106.098 175.66 105.511 178.217 105.511C179.902 105.511 181.465 105.748 182.904 106.222C184.353 106.695 185.636 107.386 186.754 108.295C187.871 109.195 188.78 110.298 189.481 111.605C190.191 112.912 190.646 114.408 190.844 116.094ZM194.147 110.98V105.909H218.039V110.98H209.133V135H203.053V110.98H194.147ZM221.974 135V105.909H241.576V110.98H228.124V117.912H240.567V122.983H228.124V129.929H241.633V135H221.974ZM246.466 135V105.909H257.943C260.14 105.909 262.015 106.302 263.568 107.088C265.131 107.865 266.319 108.968 267.134 110.398C267.957 111.818 268.369 113.49 268.369 115.412C268.369 117.344 267.953 119.006 267.119 120.398C266.286 121.78 265.079 122.841 263.497 123.58C261.925 124.318 260.022 124.688 257.787 124.688H250.102V119.744H256.793C257.967 119.744 258.942 119.583 259.719 119.261C260.495 118.939 261.073 118.456 261.452 117.812C261.84 117.169 262.034 116.368 262.034 115.412C262.034 114.446 261.84 113.632 261.452 112.969C261.073 112.306 260.491 111.804 259.705 111.463C258.928 111.113 257.948 110.938 256.764 110.938H252.616V135H246.466ZM262.176 121.761L269.406 135H262.616L255.543 121.761H262.176ZM288.497 114.276C288.384 113.13 287.896 112.24 287.034 111.605C286.172 110.971 285.003 110.653 283.526 110.653C282.522 110.653 281.674 110.795 280.983 111.08C280.292 111.354 279.761 111.738 279.392 112.23C279.032 112.723 278.852 113.281 278.852 113.906C278.833 114.427 278.942 114.882 279.179 115.27C279.425 115.658 279.761 115.994 280.188 116.278C280.614 116.553 281.106 116.795 281.665 117.003C282.223 117.202 282.82 117.372 283.455 117.514L286.068 118.139C287.337 118.423 288.502 118.802 289.562 119.276C290.623 119.749 291.542 120.331 292.318 121.023C293.095 121.714 293.696 122.528 294.122 123.466C294.558 124.403 294.78 125.478 294.79 126.69C294.78 128.471 294.326 130.014 293.426 131.321C292.536 132.618 291.248 133.627 289.562 134.347C287.886 135.057 285.865 135.412 283.497 135.412C281.149 135.412 279.103 135.052 277.361 134.332C275.628 133.613 274.274 132.547 273.298 131.136C272.332 129.716 271.826 127.959 271.778 125.866H277.73C277.796 126.842 278.076 127.656 278.568 128.31C279.07 128.954 279.738 129.441 280.571 129.773C281.414 130.095 282.366 130.256 283.426 130.256C284.468 130.256 285.372 130.104 286.139 129.801C286.916 129.498 287.517 129.077 287.943 128.537C288.369 127.997 288.582 127.377 288.582 126.676C288.582 126.023 288.388 125.473 288 125.028C287.621 124.583 287.063 124.205 286.324 123.892C285.595 123.58 284.7 123.295 283.639 123.04L280.472 122.244C278.019 121.648 276.082 120.715 274.662 119.446C273.241 118.177 272.536 116.468 272.545 114.318C272.536 112.557 273.005 111.018 273.952 109.702C274.908 108.385 276.22 107.358 277.886 106.619C279.553 105.881 281.447 105.511 283.568 105.511C285.727 105.511 287.612 105.881 289.222 106.619C290.841 107.358 292.1 108.385 293 109.702C293.9 111.018 294.364 112.543 294.392 114.276H288.497Z" fill="white"/>
<path d="M25.6229 856L17.7152 828.364H24.098L28.6726 847.566H28.902L33.9489 828.364H39.4141L44.4474 847.607H44.6903L49.2649 828.364H55.6477L47.7401 856H42.0455L36.7827 837.931H36.5668L31.3175 856H25.6229ZM82.6127 842.182C82.6127 845.196 82.0415 847.759 80.899 849.874C79.7654 851.988 78.2181 853.603 76.2569 854.718C74.3047 855.825 72.1097 856.378 69.6717 856.378C67.2157 856.378 65.0117 855.82 63.0595 854.705C61.1073 853.589 59.5645 851.974 58.4309 849.86C57.2974 847.746 56.7306 845.187 56.7306 842.182C56.7306 839.168 57.2974 836.604 58.4309 834.49C59.5645 832.376 61.1073 830.766 63.0595 829.659C65.0117 828.544 67.2157 827.986 69.6717 827.986C72.1097 827.986 74.3047 828.544 76.2569 829.659C78.2181 830.766 79.7654 832.376 80.899 834.49C82.0415 836.604 82.6127 839.168 82.6127 842.182ZM76.6887 842.182C76.6887 840.23 76.3964 838.583 75.8116 837.243C75.2359 835.902 74.4217 834.886 73.3691 834.193C72.3166 833.5 71.0841 833.154 69.6717 833.154C68.2593 833.154 67.0268 833.5 65.9743 834.193C64.9217 834.886 64.103 835.902 63.5183 837.243C62.9425 838.583 62.6547 840.23 62.6547 842.182C62.6547 844.134 62.9425 845.78 63.5183 847.121C64.103 848.461 64.9217 849.478 65.9743 850.17C67.0268 850.863 68.2593 851.21 69.6717 851.21C71.0841 851.21 72.3166 850.863 73.3691 850.17C74.4217 849.478 75.2359 848.461 75.8116 847.121C76.3964 845.78 76.6887 844.134 76.6887 842.182ZM86.9411 828.364H94.147L101.758 846.932H102.082L109.692 828.364H116.898V856H111.231V838.012H111.001L103.849 855.865H99.9901L92.8381 837.945H92.6087V856H86.9411V828.364ZM121.713 856V828.364H140.335V833.181H127.556V839.766H139.377V844.584H127.556V851.183H140.389V856H121.713ZM168.096 828.364V856H163.049L151.026 838.606H150.823V856H144.98V828.364H150.108L162.037 845.744H162.28V828.364H168.096Z" fill="white"/>
<path fill-rule="evenodd" clip-rule="evenodd" d="M931.961 20.5238H450.039V841.476H931.961V20.5238ZM405 0V862H977V0H405Z" fill="#FF0000"/>
<path d="M730.776 66.9751V60.6364H760.641V66.9751H749.508V97H741.908V66.9751H730.776ZM773.247 60.6364V97H765.559V60.6364H773.247ZM811.657 73.3672H803.88C803.738 72.361 803.448 71.4673 803.01 70.6861C802.572 69.893 802.01 69.2183 801.323 68.6619C800.637 68.1056 799.844 67.6794 798.944 67.3835C798.056 67.0876 797.092 66.9396 796.05 66.9396C794.168 66.9396 792.528 67.4072 791.132 68.3423C789.735 69.2656 788.652 70.6151 787.882 72.3906C787.113 74.1544 786.728 76.2969 786.728 78.8182C786.728 81.4105 787.113 83.5885 787.882 85.3523C788.664 87.116 789.753 88.4477 791.149 89.3473C792.546 90.2469 794.162 90.6967 795.997 90.6967C797.026 90.6967 797.979 90.5606 798.855 90.2884C799.743 90.0161 800.53 89.6196 801.217 89.0987C801.903 88.5661 802.472 87.9209 802.921 87.1634C803.383 86.4058 803.703 85.5417 803.88 84.571L811.657 84.6065C811.456 86.2756 810.953 87.8854 810.148 89.4361C809.355 90.9749 808.284 92.3539 806.934 93.5732C805.597 94.7805 803.999 95.7393 802.14 96.4496C800.294 97.148 798.204 97.4972 795.872 97.4972C792.629 97.4972 789.729 96.7633 787.172 95.2955C784.627 93.8277 782.615 91.7029 781.135 88.9212C779.667 86.1394 778.933 82.7718 778.933 78.8182C778.933 74.8527 779.679 71.4792 781.171 68.6974C782.662 65.9157 784.686 63.7969 787.243 62.3409C789.8 60.8731 792.676 60.1392 795.872 60.1392C797.979 60.1392 799.932 60.4351 801.732 61.027C803.543 61.6188 805.147 62.483 806.544 63.6193C807.94 64.7438 809.077 66.1229 809.953 67.7564C810.84 69.3899 811.409 71.2602 811.657 73.3672ZM817.17 97V60.6364H824.858V76.6697H825.338L838.424 60.6364H847.639L834.145 76.9183L847.799 97H838.601L828.64 82.0497L824.858 86.6662V97H817.17ZM851.643 97V60.6364H876.146V66.9751H859.331V75.6399H874.885V81.9787H859.331V90.6612H876.217V97H851.643ZM880.873 66.9751V60.6364H910.738V66.9751H899.605V97H892.006V66.9751H880.873Z" fill="black"/>
<path d="M413.64 614.42C414 614.18 425.34 614.06 447.66 614.06C470.34 614.06 482.1 614.12 482.94 614.24C492.42 615.2 500.1 618.56 505.98 624.32C509.34 627.8 511.56 632.12 512.64 637.28C513.36 639.8 513.48 642.68 513 645.92C511.8 656.12 506.1 665.12 495.9 672.92C489.78 677.6 482.94 680.9 475.38 682.82C471.06 684.02 465.48 684.62 458.64 684.62C456.96 684.62 453.84 684.62 449.28 684.62H433.62L428.58 705.14C425.1 718.94 423.48 725.9 423.72 726.02C423.96 726.26 424.38 726.38 424.98 726.38C426.9 726.74 430.38 726.92 435.42 726.92C438.18 726.92 439.68 727.04 439.92 727.28C440.64 727.52 441 728.06 441 728.9L439.2 735.92C438.72 736.64 437.52 736.94 435.6 736.82C435 736.82 433.62 736.82 431.46 736.82C421.5 736.34 408.96 736.28 393.84 736.64C392.4 736.76 391.26 736.82 390.42 736.82C386.22 736.94 383.88 736.64 383.4 735.92C383.16 735.56 383.28 734.18 383.76 731.78C384.36 729.14 384.96 727.64 385.56 727.28C386.16 727.04 388.32 726.92 392.04 726.92C398.76 726.8 402.54 726.32 403.38 725.48C403.74 725.24 408.06 708.56 416.34 675.44C424.62 642.32 428.76 625.64 428.76 625.4C428.76 625.28 428.64 625.1 428.4 624.86C427.92 624.62 424.68 624.38 418.68 624.14H412.56L411.84 623.42C411.36 622.94 411.42 621.5 412.02 619.1C412.74 616.22 413.28 614.66 413.64 614.42ZM475.92 624.32H450.36C449.16 624.44 448.38 624.8 448.02 625.4L441.72 650.24C437.52 666.68 435.42 674.96 435.42 675.08C435.42 675.32 440.1 675.44 449.46 675.44C459.78 675.32 466.32 674.96 469.08 674.36C475.56 673.04 480.42 670.34 483.66 666.26C486.3 662.78 488.52 657.2 490.32 649.52C491.64 644.36 492.3 640.4 492.3 637.64C492.3 634.52 491.64 632.06 490.32 630.26C487.44 626.78 482.64 624.8 475.92 624.32ZM529.308 614.24C529.548 614.12 540.108 614.06 560.988 614.06C582.828 614.18 594.768 614.42 596.808 614.78C597.048 614.9 597.588 615.02 598.428 615.14C609.468 617.18 617.448 621.92 622.368 629.36C625.128 633.44 626.448 637.88 626.328 642.68C626.208 646.04 625.308 649.46 623.628 652.94C621.948 656.3 619.608 659.42 616.608 662.3C610.728 668.18 602.628 672.92 592.308 676.52C592.188 676.52 592.368 676.7 592.848 677.06C593.088 677.3 593.328 677.48 593.568 677.6C597.768 680.48 600.708 684.32 602.388 689.12C603.468 692.48 603.768 697.16 603.288 703.16C603.168 704.48 602.988 706.16 602.748 708.2C602.148 714.44 601.848 719 601.848 721.88C601.968 726.32 602.808 729.32 604.368 730.88C605.448 731.84 607.068 732.32 609.228 732.32C610.548 732.32 611.508 732.2 612.108 731.96C613.548 731.36 614.988 730.22 616.428 728.54C617.988 726.26 619.188 723.92 620.028 721.52C620.628 719.6 621.348 718.52 622.188 718.28C622.668 718.16 623.568 718.1 624.888 718.1C627.168 718.1 628.548 718.4 629.028 719C629.868 719.96 629.268 722.48 627.228 726.56C623.628 734.12 618.708 738.74 612.468 740.42C611.508 740.66 609.708 740.78 607.068 740.78C603.948 740.78 601.908 740.72 600.948 740.6C589.308 739.04 582.288 734.24 579.888 726.2C579.168 723.8 579.048 721.1 579.528 718.1C580.128 715.1 580.968 711.44 582.048 707.12C583.248 702.32 584.088 698.72 584.568 696.32C585.168 693.08 584.688 689.9 583.128 686.78C582.528 685.7 581.748 684.68 580.788 683.72C578.748 681.8 576.228 680.54 573.228 679.94C572.748 679.82 568.668 679.76 560.988 679.76H549.828L549.648 680.48C549.648 680.36 547.728 687.98 543.888 703.34C540.168 718.34 538.368 725.9 538.488 726.02C538.728 726.26 539.148 726.38 539.748 726.38C541.188 726.74 544.788 726.92 550.548 726.92C553.548 726.92 555.288 727.34 555.768 728.18C555.888 728.66 555.708 730.04 555.228 732.32C554.628 734.6 554.088 735.98 553.608 736.46L553.068 737H550.368C537.288 736.4 522.288 736.34 505.368 736.82C501.408 736.94 499.188 736.58 498.708 735.74C498.588 735.38 498.768 734 499.248 731.6C499.968 729.2 500.448 727.82 500.688 727.46L501.408 726.92H507.528C514.248 726.8 518.028 726.32 518.868 725.48C519.228 725.24 523.548 708.56 531.828 675.44C540.108 642.32 544.248 625.64 544.248 625.4C544.248 625.28 544.128 625.1 543.888 624.86C543.408 624.62 540.168 624.38 534.168 624.14H528.048L527.328 623.42C526.968 623.06 526.788 622.7 526.788 622.34L528.768 614.96C528.768 614.84 528.948 614.6 529.308 614.24ZM590.328 624.5C589.608 624.38 585.408 624.26 577.728 624.14L565.848 624.32C564.648 624.44 563.868 624.8 563.508 625.4L551.988 671.3H564.048C572.808 671.18 577.608 671.06 578.448 670.94C589.368 669.38 596.628 664.94 600.228 657.62C602.148 653.66 603.708 648.5 604.908 642.14C605.388 639.02 605.388 636.38 604.908 634.22C603.468 628.94 598.608 625.7 590.328 624.5ZM712.69 610.28C715.69 610.04 719.59 610.1 724.39 610.46C734.71 611.9 743.23 616.1 749.95 623.06C756.55 629.66 760.69 638.12 762.37 648.44C765.01 664.04 761.95 679.88 753.19 695.96C751.51 698.96 749.65 701.9 747.61 704.78C740.77 714.62 732.49 722.6 722.77 728.72C716.29 732.92 709.87 735.98 703.51 737.9C686.83 743.06 672.25 741.8 659.77 734.12C657.25 732.56 654.91 730.76 652.75 728.72C645.55 721.64 641.05 712.34 639.25 700.82C638.77 696.98 638.71 692.12 639.07 686.24C639.19 685.76 639.25 685.34 639.25 684.98C641.41 668.54 648.37 653.42 660.13 639.62C663.49 635.78 667.09 632.18 670.93 628.82C684.25 617.78 698.17 611.6 712.69 610.28ZM720.79 619.64C717.79 619.16 714.73 619.04 711.61 619.28C703.81 620.24 696.67 623.24 690.19 628.28C680.71 635.48 673.45 645.5 668.41 658.34C664.69 667.58 662.05 677.96 660.49 689.48C660.01 694.16 659.95 699.2 660.31 704.6C660.43 705.08 660.49 705.44 660.49 705.68C662.29 717.08 667.33 724.88 675.61 729.08C683.65 733.16 692.89 732.68 703.33 727.64C716.77 721.04 727.15 708.62 734.47 690.38C738.67 679.58 741.37 668.78 742.57 657.98C743.05 654.02 743.05 649.82 742.57 645.38C742.57 645.14 742.57 644.9 742.57 644.66C741.25 636.98 738.61 631.16 734.65 627.2C730.81 623.24 726.19 620.72 720.79 619.64ZM840.615 610.28L849.975 610.46C853.335 611.06 856.515 612.08 859.515 613.52C862.635 614.96 865.335 617.12 867.615 620C868.095 620.48 868.395 620.78 868.515 620.9L873.735 615.68C877.215 612.2 879.015 610.4 879.135 610.28C879.735 609.8 880.935 609.8 882.735 610.28C883.095 610.64 883.335 610.94 883.455 611.18C883.575 611.66 881.895 618.86 878.415 632.78C874.815 646.94 872.895 654.14 872.655 654.38L872.115 654.92H868.875C866.115 654.92 864.615 654.56 864.375 653.84C864.255 653.48 864.315 652.7 864.555 651.5C865.635 643.1 864.975 636.2 862.575 630.8C859.695 624.8 854.655 621.2 847.455 620C844.575 619.52 841.395 619.52 837.915 620C833.355 620.96 829.095 623.36 825.135 627.2C818.295 633.92 815.535 641.06 816.855 648.62C817.575 653.78 820.335 657.32 825.135 659.24L837.555 662.66C842.235 663.86 846.675 665.06 850.875 666.26C853.995 667.58 856.875 669.56 859.515 672.2C861.435 674.12 862.995 676.34 864.195 678.86C867.555 685.94 868.155 693.8 865.995 702.44C863.235 714.2 856.755 724.04 846.555 731.96C845.715 732.56 844.875 733.16 844.035 733.76C839.835 736.28 836.295 738.02 833.415 738.98C828.975 740.42 824.415 741.08 819.735 740.96C812.295 740.6 806.055 739.16 801.015 736.64C798.615 735.56 796.155 733.82 793.635 731.42L792.015 729.8C791.895 729.8 790.155 731.6 786.795 735.2L781.215 740.78L779.415 740.96H779.235C778.275 740.96 777.615 740.78 777.255 740.42C776.895 740.06 776.715 739.76 776.715 739.52C776.715 739.16 780.195 725.06 787.155 697.22C787.395 696.5 788.895 696.14 791.655 696.14H794.895L795.435 696.68C795.915 697.16 795.975 698.42 795.615 700.46C795.615 700.7 795.555 701 795.435 701.36C794.595 705.8 794.475 709.52 795.075 712.52C797.475 724.16 806.295 730.28 821.535 730.88C824.655 730.88 827.295 730.52 829.455 729.8C836.175 727.64 841.575 722.96 845.655 715.76C847.335 713 848.475 710.12 849.075 707.12C850.515 699.92 849.375 694.16 845.655 689.84C844.455 688.64 842.895 687.62 840.975 686.78L828.555 683.36C819.435 680.96 813.855 679.22 811.815 678.14C803.655 673.46 799.395 666.02 799.035 655.82C798.795 651.5 799.455 647.06 801.015 642.5C804.735 631.22 811.995 622.46 822.795 616.22C824.235 615.38 825.735 614.6 827.295 613.88C831.375 611.96 835.155 610.82 838.635 610.46C839.115 610.34 839.775 610.28 840.615 610.28ZM895.386 615.68L895.926 615.14H949.386C985.386 615.14 1003.69 615.5 1004.29 616.22C1004.53 616.82 1003.51 624.02 1001.23 637.82C998.826 651.98 997.566 659.12 997.446 659.24C996.966 659.84 995.526 660.14 993.126 660.14C990.606 660.14 989.226 659.78 988.986 659.06C988.746 658.58 988.806 657.08 989.166 654.56C990.966 643.64 991.326 636.32 990.246 632.6C989.166 629 985.386 626.66 978.906 625.58C977.826 625.46 974.346 625.4 968.466 625.4C961.626 625.28 957.906 625.58 957.306 626.3C957.066 626.54 952.866 643.16 944.706 676.16L932.286 725.66L932.826 726.02C934.386 726.62 940.326 726.92 950.646 726.92H956.226L956.946 727.46C957.306 727.94 957.486 728.36 957.486 728.72L955.866 735.92C955.506 736.64 954.306 736.94 952.266 736.82C951.546 736.82 949.806 736.82 947.046 736.82C921.966 736.34 902.406 736.4 888.366 737H885.666L885.126 736.46C884.526 735.86 884.466 734.48 884.946 732.32C884.946 732.08 885.006 731.84 885.126 731.6C885.726 728.96 886.266 727.52 886.746 727.28C887.106 727.04 889.206 726.92 893.046 726.92C901.086 726.92 906.306 726.74 908.706 726.38C910.626 726.26 911.946 725.84 912.666 725.12C912.906 724.76 917.106 708.14 925.266 675.26C933.546 642.26 937.686 625.7 937.686 625.58C937.206 625.34 933.486 625.22 926.526 625.22C921.006 625.34 917.646 625.52 916.446 625.76C909.486 626.84 904.386 629.36 901.146 633.32C898.026 637.16 894.666 644.42 891.066 655.1C890.106 657.74 889.626 659.12 889.626 659.24C889.146 659.84 887.706 660.14 885.306 660.14C882.906 660.14 881.466 659.72 880.986 658.88L880.806 658.34L887.646 637.28C892.446 623.24 895.026 616.04 895.386 615.68ZM1017.24 614.42C1017.6 614.18 1018.62 614.06 1020.3 614.06C1031.46 614.54 1043.88 614.66 1057.56 614.42L1071.24 614.06H1073.22L1073.76 614.6C1074.24 615.08 1074.48 615.56 1074.48 616.04C1074.48 617.96 1073.88 620.3 1072.68 623.06C1072.44 623.78 1070.7 624.14 1067.46 624.14C1066.86 624.14 1066.14 624.14 1065.3 624.14C1058.22 624.26 1054.26 624.74 1053.42 625.58L1052.7 626.12L1040.46 675.8C1032.18 708.68 1028.04 725.3 1028.04 725.66C1027.92 726.02 1028.46 726.26 1029.66 726.38C1031.22 726.62 1034.22 726.8 1038.66 726.92C1043.22 726.92 1045.74 727.34 1046.22 728.18C1046.34 728.54 1046.16 729.92 1045.68 732.32C1045.08 734.6 1044.54 735.98 1044.06 736.46L1043.52 737H1040.64C1026.84 736.4 1011.18 736.34 993.663 736.82C989.583 736.94 987.303 736.58 986.823 735.74C986.703 735.38 986.883 734 987.363 731.6C988.083 729.2 988.563 727.82 988.803 727.46L989.523 726.92H995.823C1002.18 726.8 1005.96 726.44 1007.16 725.84C1007.52 725.72 1007.94 725.42 1008.42 724.94L1033.26 625.4C1033.26 625.28 1033.14 625.1 1032.9 624.86C1031.94 624.5 1028.58 624.26 1022.82 624.14C1018.14 624.14 1015.62 623.78 1015.26 623.06C1015.02 622.7 1015.14 621.32 1015.62 618.92C1016.22 616.4 1016.76 614.9 1017.24 614.42ZM1079.78 615.68L1080.32 615.14H1133.78C1169.78 615.14 1188.08 615.5 1188.68 616.22C1188.92 616.82 1187.9 624.02 1185.62 637.82C1183.22 651.98 1181.96 659.12 1181.84 659.24C1181.36 659.84 1179.92 660.14 1177.52 660.14C1175 660.14 1173.62 659.78 1173.38 659.06C1173.14 658.58 1173.2 657.08 1173.56 654.56C1175.36 643.64 1175.72 636.32 1174.64 632.6C1173.56 629 1169.78 626.66 1163.3 625.58C1162.22 625.46 1158.74 625.4 1152.86 625.4C1146.02 625.28 1142.3 625.58 1141.7 626.3C1141.46 626.54 1137.26 643.16 1129.1 676.16L1116.68 725.66L1117.22 726.02C1118.78 726.62 1124.72 726.92 1135.04 726.92H1140.62L1141.34 727.46C1141.7 727.94 1141.88 728.36 1141.88 728.72L1140.26 735.92C1139.9 736.64 1138.7 736.94 1136.66 736.82C1135.94 736.82 1134.2 736.82 1131.44 736.82C1106.36 736.34 1086.8 736.4 1072.76 737H1070.06L1069.52 736.46C1068.92 735.86 1068.86 734.48 1069.34 732.32C1069.34 732.08 1069.4 731.84 1069.52 731.6C1070.12 728.96 1070.66 727.52 1071.14 727.28C1071.5 727.04 1073.6 726.92 1077.44 726.92C1085.48 726.92 1090.7 726.74 1093.1 726.38C1095.02 726.26 1096.34 725.84 1097.06 725.12C1097.3 724.76 1101.5 708.14 1109.66 675.26C1117.94 642.26 1122.08 625.7 1122.08 625.58C1121.6 625.34 1117.88 625.22 1110.92 625.22C1105.4 625.34 1102.04 625.52 1100.84 625.76C1093.88 626.84 1088.78 629.36 1085.54 633.32C1082.42 637.16 1079.06 644.42 1075.46 655.1C1074.5 657.74 1074.02 659.12 1074.02 659.24C1073.54 659.84 1072.1 660.14 1069.7 660.14C1067.3 660.14 1065.86 659.72 1065.38 658.88L1065.2 658.34L1072.04 637.28C1076.84 623.24 1079.42 616.04 1079.78 615.68ZM1180.94 614.24C1181.18 614.12 1182.26 614.06 1184.18 614.06C1198.7 614.66 1213.82 614.72 1229.54 614.24C1233.38 614.12 1235.54 614.48 1236.02 615.32C1236.26 615.68 1236.08 617.06 1235.48 619.46C1234.88 621.74 1234.46 623.12 1234.22 623.6L1233.68 624.14H1227.38C1221.38 624.26 1217.9 624.56 1216.94 625.04C1216.34 625.28 1215.92 625.7 1215.68 626.3C1214.96 627.98 1211.78 640.22 1206.14 663.02C1199.9 688.1 1196.72 701 1196.6 701.72C1194.2 713.96 1196.12 722.36 1202.36 726.92C1204.28 728.48 1207.22 729.68 1211.18 730.52C1214.9 731 1218.68 730.94 1222.52 730.34C1233.44 728.54 1242.32 723.14 1249.16 714.14C1252.28 709.94 1254.74 705.2 1256.54 699.92L1274.18 629.54C1274.18 627.74 1273.22 626.48 1271.3 625.76C1269.14 624.68 1265.72 624.14 1261.04 624.14H1259.06L1258.34 623.6C1257.98 623.12 1257.8 622.7 1257.8 622.34L1259.78 614.96C1260.14 614.36 1261.76 614.12 1264.64 614.24C1265 614.24 1265.54 614.24 1266.26 614.24C1274.42 614.72 1284.68 614.78 1297.04 614.42C1298.24 614.3 1299.2 614.24 1299.92 614.24C1303.52 614.12 1305.56 614.48 1306.04 615.32C1306.28 615.68 1306.1 617.06 1305.5 619.46C1304.9 621.86 1304.42 623.24 1304.06 623.6L1303.52 624.14H1301.54C1292.78 624.14 1287.14 626.06 1284.62 629.9C1284.02 631.7 1281.14 643.16 1275.98 664.28C1269.98 687.68 1266.98 699.44 1266.98 699.56C1263.14 711.32 1256.42 721.04 1246.82 728.72C1236.02 737.24 1224.8 741.32 1213.16 740.96C1206.56 740.6 1200.74 739.16 1195.7 736.64C1192.46 734.96 1189.7 732.98 1187.42 730.7C1182.5 725.9 1179.32 720.2 1177.88 713.6C1176.92 709.28 1176.86 704.6 1177.7 699.56C1177.7 699.32 1180.76 686.72 1186.88 661.76C1192.88 638.24 1195.88 626.12 1195.88 625.4C1195.88 625.28 1195.76 625.1 1195.52 624.86C1195.04 624.62 1191.8 624.38 1185.8 624.14H1179.68L1178.96 623.42C1178.6 623.06 1178.42 622.7 1178.42 622.34L1180.4 614.96C1180.4 614.84 1180.58 614.6 1180.94 614.24ZM1307.77 615.68L1308.31 615.14H1361.77C1397.77 615.14 1416.07 615.5 1416.67 616.22C1416.91 616.82 1415.89 624.02 1413.61 637.82C1411.21 651.98 1409.95 659.12 1409.83 659.24C1409.35 659.84 1407.91 660.14 1405.51 660.14C1402.99 660.14 1401.61 659.78 1401.37 659.06C1401.13 658.58 1401.19 657.08 1401.55 654.56C1403.35 643.64 1403.71 636.32 1402.63 632.6C1401.55 629 1397.77 626.66 1391.29 625.58C1390.21 625.46 1386.73 625.4 1380.85 625.4C1374.01 625.28 1370.29 625.58 1369.69 626.3C1369.45 626.54 1365.25 643.16 1357.09 676.16L1344.67 725.66L1345.21 726.02C1346.77 726.62 1352.71 726.92 1363.03 726.92H1368.61L1369.33 727.46C1369.69 727.94 1369.87 728.36 1369.87 728.72L1368.25 735.92C1367.89 736.64 1366.69 736.94 1364.65 736.82C1363.93 736.82 1362.19 736.82 1359.43 736.82C1334.35 736.34 1314.79 736.4 1300.75 737H1298.05L1297.51 736.46C1296.91 735.86 1296.85 734.48 1297.33 732.32C1297.33 732.08 1297.39 731.84 1297.51 731.6C1298.11 728.96 1298.65 727.52 1299.13 727.28C1299.49 727.04 1301.59 726.92 1305.43 726.92C1313.47 726.92 1318.69 726.74 1321.09 726.38C1323.01 726.26 1324.33 725.84 1325.05 725.12C1325.29 724.76 1329.49 708.14 1337.65 675.26C1345.93 642.26 1350.07 625.7 1350.07 625.58C1349.59 625.34 1345.87 625.22 1338.91 625.22C1333.39 625.34 1330.03 625.52 1328.83 625.76C1321.87 626.84 1316.77 629.36 1313.53 633.32C1310.41 637.16 1307.05 644.42 1303.45 655.1C1302.49 657.74 1302.01 659.12 1302.01 659.24C1301.53 659.84 1300.09 660.14 1297.69 660.14C1295.29 660.14 1293.85 659.72 1293.37 658.88L1293.19 658.34L1300.03 637.28C1304.83 623.24 1307.41 616.04 1307.77 615.68ZM1430.35 614.96L1430.89 614.6H1481.29H1531.51L1532.23 615.14C1532.59 615.62 1532.77 616.1 1532.77 616.58L1527.55 657.62C1527.55 658.22 1527.31 658.7 1526.83 659.06L1526.29 659.6H1523.23C1521.07 659.6 1519.81 659.48 1519.45 659.24C1518.85 658.88 1518.67 657.44 1518.91 654.92C1518.91 654.68 1518.91 654.38 1518.91 654.02C1519.51 649.1 1519.81 645.02 1519.81 641.78C1519.45 634.58 1517.05 629.84 1512.61 627.56C1510.45 626.6 1508.23 625.94 1505.95 625.58C1502.59 624.98 1495.15 624.74 1483.63 624.86C1472.11 624.86 1466.05 625.22 1465.45 625.94L1454.65 668.42H1464.19C1472.11 668.3 1477.21 667.82 1479.49 666.98C1482.13 666.14 1484.29 664.64 1485.97 662.48C1487.65 660.32 1489.21 656.42 1490.65 650.78C1491.13 649.22 1491.55 648.26 1491.91 647.9L1492.45 647.36H1495.51C1498.03 647.36 1499.53 647.78 1500.01 648.62C1500.13 649.1 1498.21 657.44 1494.25 673.64C1490.05 690.08 1487.89 698.36 1487.77 698.48C1487.53 699.2 1486.09 699.56 1483.45 699.56H1480.39L1479.67 699.02C1479.19 698.42 1479.19 697.04 1479.67 694.88C1481.11 688.76 1481.29 684.56 1480.21 682.28C1479.37 680.48 1476.97 679.34 1473.01 678.86C1472.29 678.74 1468.57 678.68 1461.85 678.68L1452.13 678.5L1446.19 702.08C1442.23 718.04 1440.25 726.08 1440.25 726.2C1440.25 726.32 1440.37 726.5 1440.61 726.74H1473.19C1480.27 726.38 1486.33 725.06 1491.37 722.78C1494.37 721.22 1497.07 719.36 1499.47 717.2C1504.15 712.52 1509.13 703.82 1514.41 691.1C1515.37 688.58 1516.09 687.08 1516.57 686.6L1517.11 686.06H1520.35H1523.59L1524.13 686.6C1524.61 687.08 1524.61 688.04 1524.13 689.48C1523.53 691.28 1520.53 698.84 1515.13 712.16C1508.53 728 1505.23 735.98 1505.23 736.1C1504.99 736.58 1503.25 736.82 1500.01 736.82C1496.17 736.94 1480.39 737 1452.67 737C1418.23 737 1400.77 736.64 1400.29 735.92C1400.05 735.56 1400.17 734.18 1400.65 731.78C1401.25 729.14 1401.85 727.64 1402.45 727.28C1403.05 727.04 1405.21 726.92 1408.93 726.92C1415.65 726.8 1419.43 726.32 1420.27 725.48C1420.63 725.24 1424.95 708.56 1433.23 675.44C1441.51 642.32 1445.53 625.7 1445.29 625.58C1445.05 625.34 1444.63 625.22 1444.03 625.22C1441.99 624.86 1438.51 624.68 1433.59 624.68C1430.47 624.68 1428.73 624.32 1428.37 623.6C1428.13 623.24 1428.25 621.86 1428.73 619.46C1429.33 616.94 1429.87 615.44 1430.35 614.96Z" fill="#C40000"/>
<path d="M80.64 403.42C81 403.18 92.34 403.06 114.66 403.06C137.34 403.06 149.1 403.12 149.94 403.24C159.42 404.2 167.1 407.56 172.98 413.32C176.34 416.8 178.56 421.12 179.64 426.28C180.36 428.8 180.48 431.68 180 434.92C178.8 445.12 173.1 454.12 162.9 461.92C156.78 466.6 149.94 469.9 142.38 471.82C138.06 473.02 132.48 473.62 125.64 473.62C123.96 473.62 120.84 473.62 116.28 473.62H100.62L95.58 494.14C92.1 507.94 90.48 514.9 90.72 515.02C90.96 515.26 91.38 515.38 91.98 515.38C93.9 515.74 97.38 515.92 102.42 515.92C105.18 515.92 106.68 516.04 106.92 516.28C107.64 516.52 108 517.06 108 517.9L106.2 524.92C105.72 525.64 104.52 525.94 102.6 525.82C102 525.82 100.62 525.82 98.46 525.82C88.5 525.34 75.96 525.28 60.84 525.64C59.4 525.76 58.26 525.82 57.42 525.82C53.22 525.94 50.88 525.64 50.4 524.92C50.16 524.56 50.28 523.18 50.76 520.78C51.36 518.14 51.96 516.64 52.56 516.28C53.16 516.04 55.32 515.92 59.04 515.92C65.76 515.8 69.54 515.32 70.38 514.48C70.74 514.24 75.06 497.56 83.34 464.44C91.62 431.32 95.76 414.64 95.76 414.4C95.76 414.28 95.64 414.1 95.4 413.86C94.92 413.62 91.68 413.38 85.68 413.14H79.56L78.84 412.42C78.36 411.94 78.42 410.5 79.02 408.1C79.74 405.22 80.28 403.66 80.64 403.42ZM142.92 413.32H117.36C116.16 413.44 115.38 413.8 115.02 414.4L108.72 439.24C104.52 455.68 102.42 463.96 102.42 464.08C102.42 464.32 107.1 464.44 116.46 464.44C126.78 464.32 133.32 463.96 136.08 463.36C142.56 462.04 147.42 459.34 150.66 455.26C153.3 451.78 155.52 446.2 157.32 438.52C158.64 433.36 159.3 429.4 159.3 426.64C159.3 423.52 158.64 421.06 157.32 419.26C154.44 415.78 149.64 413.8 142.92 413.32ZM196.308 403.24C196.548 403.12 207.108 403.06 227.988 403.06C249.828 403.18 261.768 403.42 263.808 403.78C264.048 403.9 264.588 404.02 265.428 404.14C276.468 406.18 284.448 410.92 289.368 418.36C292.128 422.44 293.448 426.88 293.328 431.68C293.208 435.04 292.308 438.46 290.628 441.94C288.948 445.3 286.608 448.42 283.608 451.3C277.728 457.18 269.628 461.92 259.308 465.52C259.188 465.52 259.368 465.7 259.848 466.06C260.088 466.3 260.328 466.48 260.568 466.6C264.768 469.48 267.708 473.32 269.388 478.12C270.468 481.48 270.768 486.16 270.288 492.16C270.168 493.48 269.988 495.16 269.748 497.2C269.148 503.44 268.848 508 268.848 510.88C268.968 515.32 269.808 518.32 271.368 519.88C272.448 520.84 274.068 521.32 276.228 521.32C277.548 521.32 278.508 521.2 279.108 520.96C280.548 520.36 281.988 519.22 283.428 517.54C284.988 515.26 286.188 512.92 287.028 510.52C287.628 508.6 288.348 507.52 289.188 507.28C289.668 507.16 290.568 507.1 291.888 507.1C294.168 507.1 295.548 507.4 296.028 508C296.868 508.96 296.268 511.48 294.228 515.56C290.628 523.12 285.708 527.74 279.468 529.42C278.508 529.66 276.708 529.78 274.068 529.78C270.948 529.78 268.908 529.72 267.948 529.6C256.308 528.04 249.288 523.24 246.888 515.2C246.168 512.8 246.048 510.1 246.528 507.1C247.128 504.1 247.968 500.44 249.048 496.12C250.248 491.32 251.088 487.72 251.568 485.32C252.168 482.08 251.688 478.9 250.128 475.78C249.528 474.7 248.748 473.68 247.788 472.72C245.748 470.8 243.228 469.54 240.228 468.94C239.748 468.82 235.668 468.76 227.988 468.76H216.828L216.648 469.48C216.648 469.36 214.728 476.98 210.888 492.34C207.168 507.34 205.368 514.9 205.488 515.02C205.728 515.26 206.148 515.38 206.748 515.38C208.188 515.74 211.788 515.92 217.548 515.92C220.548 515.92 222.288 516.34 222.768 517.18C222.888 517.66 222.708 519.04 222.228 521.32C221.628 523.6 221.088 524.98 220.608 525.46L220.068 526H217.368C204.288 525.4 189.288 525.34 172.368 525.82C168.408 525.94 166.188 525.58 165.708 524.74C165.588 524.38 165.768 523 166.248 520.6C166.968 518.2 167.448 516.82 167.688 516.46L168.408 515.92H174.528C181.248 515.8 185.028 515.32 185.868 514.48C186.228 514.24 190.548 497.56 198.828 464.44C207.108 431.32 211.248 414.64 211.248 414.4C211.248 414.28 211.128 414.1 210.888 413.86C210.408 413.62 207.168 413.38 201.168 413.14H195.048L194.328 412.42C193.968 412.06 193.788 411.7 193.788 411.34L195.768 403.96C195.768 403.84 195.948 403.6 196.308 403.24ZM257.328 413.5C256.608 413.38 252.408 413.26 244.728 413.14L232.848 413.32C231.648 413.44 230.868 413.8 230.508 414.4L218.988 460.3H231.048C239.808 460.18 244.608 460.06 245.448 459.94C256.368 458.38 263.628 453.94 267.228 446.62C269.148 442.66 270.708 437.5 271.908 431.14C272.388 428.02 272.388 425.38 271.908 423.22C270.468 417.94 265.608 414.7 257.328 413.5ZM379.69 399.28C382.69 399.04 386.59 399.1 391.39 399.46C401.71 400.9 410.23 405.1 416.95 412.06C423.55 418.66 427.69 427.12 429.37 437.44C432.01 453.04 428.95 468.88 420.19 484.96C418.51 487.96 416.65 490.9 414.61 493.78C407.77 503.62 399.49 511.6 389.77 517.72C383.29 521.92 376.87 524.98 370.51 526.9C353.83 532.06 339.25 530.8 326.77 523.12C324.25 521.56 321.91 519.76 319.75 517.72C312.55 510.64 308.05 501.34 306.25 489.82C305.77 485.98 305.71 481.12 306.07 475.24C306.19 474.76 306.25 474.34 306.25 473.98C308.41 457.54 315.37 442.42 327.13 428.62C330.49 424.78 334.09 421.18 337.93 417.82C351.25 406.78 365.17 400.6 379.69 399.28ZM387.79 408.64C384.79 408.16 381.73 408.04 378.61 408.28C370.81 409.24 363.67 412.24 357.19 417.28C347.71 424.48 340.45 434.5 335.41 447.34C331.69 456.58 329.05 466.96 327.49 478.48C327.01 483.16 326.95 488.2 327.31 493.6C327.43 494.08 327.49 494.44 327.49 494.68C329.29 506.08 334.33 513.88 342.61 518.08C350.65 522.16 359.89 521.68 370.33 516.64C383.77 510.04 394.15 497.62 401.47 479.38C405.67 468.58 408.37 457.78 409.57 446.98C410.05 443.02 410.05 438.82 409.57 434.38C409.57 434.14 409.57 433.9 409.57 433.66C408.25 425.98 405.61 420.16 401.65 416.2C397.81 412.24 393.19 409.72 387.79 408.64ZM507.615 399.28L516.975 399.46C520.335 400.06 523.515 401.08 526.515 402.52C529.635 403.96 532.335 406.12 534.615 409C535.095 409.48 535.395 409.78 535.515 409.9L540.735 404.68C544.215 401.2 546.015 399.4 546.135 399.28C546.735 398.8 547.935 398.8 549.735 399.28C550.095 399.64 550.335 399.94 550.455 400.18C550.575 400.66 548.895 407.86 545.415 421.78C541.815 435.94 539.895 443.14 539.655 443.38L539.115 443.92H535.875C533.115 443.92 531.615 443.56 531.375 442.84C531.255 442.48 531.315 441.7 531.555 440.5C532.635 432.1 531.975 425.2 529.575 419.8C526.695 413.8 521.655 410.2 514.455 409C511.575 408.52 508.395 408.52 504.915 409C500.355 409.96 496.095 412.36 492.135 416.2C485.295 422.92 482.535 430.06 483.855 437.62C484.575 442.78 487.335 446.32 492.135 448.24L504.555 451.66C509.235 452.86 513.675 454.06 517.875 455.26C520.995 456.58 523.875 458.56 526.515 461.2C528.435 463.12 529.995 465.34 531.195 467.86C534.555 474.94 535.155 482.8 532.995 491.44C530.235 503.2 523.755 513.04 513.555 520.96C512.715 521.56 511.875 522.16 511.035 522.76C506.835 525.28 503.295 527.02 500.415 527.98C495.975 529.42 491.415 530.08 486.735 529.96C479.295 529.6 473.055 528.16 468.015 525.64C465.615 524.56 463.155 522.82 460.635 520.42L459.015 518.8C458.895 518.8 457.155 520.6 453.795 524.2L448.215 529.78L446.415 529.96H446.235C445.275 529.96 444.615 529.78 444.255 529.42C443.895 529.06 443.715 528.76 443.715 528.52C443.715 528.16 447.195 514.06 454.155 486.22C454.395 485.5 455.895 485.14 458.655 485.14H461.895L462.435 485.68C462.915 486.16 462.975 487.42 462.615 489.46C462.615 489.7 462.555 490 462.435 490.36C461.595 494.8 461.475 498.52 462.075 501.52C464.475 513.16 473.295 519.28 488.535 519.88C491.655 519.88 494.295 519.52 496.455 518.8C503.175 516.64 508.575 511.96 512.655 504.76C514.335 502 515.475 499.12 516.075 496.12C517.515 488.92 516.375 483.16 512.655 478.84C511.455 477.64 509.895 476.62 507.975 475.78L495.555 472.36C486.435 469.96 480.855 468.22 478.815 467.14C470.655 462.46 466.395 455.02 466.035 444.82C465.795 440.5 466.455 436.06 468.015 431.5C471.735 420.22 478.995 411.46 489.795 405.22C491.235 404.38 492.735 403.6 494.295 402.88C498.375 400.96 502.155 399.82 505.635 399.46C506.115 399.34 506.775 399.28 507.615 399.28ZM562.386 404.68L562.926 404.14H616.386C652.386 404.14 670.686 404.5 671.286 405.22C671.526 405.82 670.506 413.02 668.226 426.82C665.826 440.98 664.566 448.12 664.446 448.24C663.966 448.84 662.526 449.14 660.126 449.14C657.606 449.14 656.226 448.78 655.986 448.06C655.746 447.58 655.806 446.08 656.166 443.56C657.966 432.64 658.326 425.32 657.246 421.6C656.166 418 652.386 415.66 645.906 414.58C644.826 414.46 641.346 414.4 635.466 414.4C628.626 414.28 624.906 414.58 624.306 415.3C624.066 415.54 619.866 432.16 611.706 465.16L599.286 514.66L599.826 515.02C601.386 515.62 607.326 515.92 617.646 515.92H623.226L623.946 516.46C624.306 516.94 624.486 517.36 624.486 517.72L622.866 524.92C622.506 525.64 621.306 525.94 619.266 525.82C618.546 525.82 616.806 525.82 614.046 525.82C588.966 525.34 569.406 525.4 555.366 526H552.666L552.126 525.46C551.526 524.86 551.466 523.48 551.946 521.32C551.946 521.08 552.006 520.84 552.126 520.6C552.726 517.96 553.266 516.52 553.746 516.28C554.106 516.04 556.206 515.92 560.046 515.92C568.086 515.92 573.306 515.74 575.706 515.38C577.626 515.26 578.946 514.84 579.666 514.12C579.906 513.76 584.106 497.14 592.266 464.26C600.546 431.26 604.686 414.7 604.686 414.58C604.206 414.34 600.486 414.22 593.526 414.22C588.006 414.34 584.646 414.52 583.446 414.76C576.486 415.84 571.386 418.36 568.146 422.32C565.026 426.16 561.666 433.42 558.066 444.1C557.106 446.74 556.626 448.12 556.626 448.24C556.146 448.84 554.706 449.14 552.306 449.14C549.906 449.14 548.466 448.72 547.986 447.88L547.806 447.34L554.646 426.28C559.446 412.24 562.026 405.04 562.386 404.68ZM684.243 403.42C684.603 403.18 685.623 403.06 687.303 403.06C698.463 403.54 710.883 403.66 724.563 403.42L738.243 403.06H740.223L740.763 403.6C741.243 404.08 741.483 404.56 741.483 405.04C741.483 406.96 740.883 409.3 739.683 412.06C739.443 412.78 737.703 413.14 734.463 413.14C733.863 413.14 733.143 413.14 732.303 413.14C725.223 413.26 721.263 413.74 720.423 414.58L719.703 415.12L707.463 464.8C699.183 497.68 695.043 514.3 695.043 514.66C694.923 515.02 695.463 515.26 696.663 515.38C698.223 515.62 701.223 515.8 705.663 515.92C710.223 515.92 712.743 516.34 713.223 517.18C713.343 517.54 713.163 518.92 712.683 521.32C712.083 523.6 711.543 524.98 711.063 525.46L710.523 526H707.643C693.843 525.4 678.183 525.34 660.663 525.82C656.583 525.94 654.303 525.58 653.823 524.74C653.703 524.38 653.883 523 654.363 520.6C655.083 518.2 655.563 516.82 655.803 516.46L656.523 515.92H662.823C669.183 515.8 672.963 515.44 674.163 514.84C674.523 514.72 674.943 514.42 675.423 513.94L700.263 414.4C700.263 414.28 700.143 414.1 699.903 413.86C698.943 413.5 695.583 413.26 689.823 413.14C685.143 413.14 682.623 412.78 682.263 412.06C682.023 411.7 682.143 410.32 682.623 407.92C683.223 405.4 683.763 403.9 684.243 403.42ZM746.781 404.68L747.321 404.14H800.781C836.781 404.14 855.081 404.5 855.681 405.22C855.921 405.82 854.901 413.02 852.621 426.82C850.221 440.98 848.961 448.12 848.841 448.24C848.361 448.84 846.921 449.14 844.521 449.14C842.001 449.14 840.621 448.78 840.381 448.06C840.141 447.58 840.201 446.08 840.561 443.56C842.361 432.64 842.721 425.32 841.641 421.6C840.561 418 836.781 415.66 830.301 414.58C829.221 414.46 825.741 414.4 819.861 414.4C813.021 414.28 809.301 414.58 808.701 415.3C808.461 415.54 804.261 432.16 796.101 465.16L783.681 514.66L784.221 515.02C785.781 515.62 791.721 515.92 802.041 515.92H807.621L808.341 516.46C808.701 516.94 808.881 517.36 808.881 517.72L807.261 524.92C806.901 525.64 805.701 525.94 803.661 525.82C802.941 525.82 801.201 525.82 798.441 525.82C773.361 525.34 753.801 525.4 739.761 526H737.061L736.521 525.46C735.921 524.86 735.861 523.48 736.341 521.32C736.341 521.08 736.401 520.84 736.521 520.6C737.121 517.96 737.661 516.52 738.141 516.28C738.501 516.04 740.601 515.92 744.441 515.92C752.481 515.92 757.701 515.74 760.101 515.38C762.021 515.26 763.341 514.84 764.061 514.12C764.301 513.76 768.501 497.14 776.661 464.26C784.941 431.26 789.081 414.7 789.081 414.58C788.601 414.34 784.881 414.22 777.921 414.22C772.401 414.34 769.041 414.52 767.841 414.76C760.881 415.84 755.781 418.36 752.541 422.32C749.421 426.16 746.061 433.42 742.461 444.1C741.501 446.74 741.021 448.12 741.021 448.24C740.541 448.84 739.101 449.14 736.701 449.14C734.301 449.14 732.861 448.72 732.381 447.88L732.201 447.34L739.041 426.28C743.841 412.24 746.421 405.04 746.781 404.68ZM847.938 403.24C848.178 403.12 849.258 403.06 851.178 403.06C865.698 403.66 880.818 403.72 896.538 403.24C900.378 403.12 902.538 403.48 903.018 404.32C903.258 404.68 903.078 406.06 902.478 408.46C901.878 410.74 901.458 412.12 901.218 412.6L900.678 413.14H894.378C888.378 413.26 884.898 413.56 883.938 414.04C883.338 414.28 882.918 414.7 882.678 415.3C881.958 416.98 878.778 429.22 873.138 452.02C866.898 477.1 863.718 490 863.598 490.72C861.198 502.96 863.118 511.36 869.358 515.92C871.278 517.48 874.218 518.68 878.178 519.52C881.898 520 885.678 519.94 889.518 519.34C900.438 517.54 909.318 512.14 916.158 503.14C919.278 498.94 921.738 494.2 923.538 488.92L941.178 418.54C941.178 416.74 940.218 415.48 938.298 414.76C936.138 413.68 932.718 413.14 928.038 413.14H926.058L925.338 412.6C924.978 412.12 924.798 411.7 924.798 411.34L926.778 403.96C927.138 403.36 928.758 403.12 931.638 403.24C931.998 403.24 932.538 403.24 933.258 403.24C941.418 403.72 951.678 403.78 964.038 403.42C965.238 403.3 966.198 403.24 966.918 403.24C970.518 403.12 972.558 403.48 973.038 404.32C973.278 404.68 973.098 406.06 972.498 408.46C971.898 410.86 971.418 412.24 971.058 412.6L970.518 413.14H968.538C959.778 413.14 954.138 415.06 951.618 418.9C951.018 420.7 948.138 432.16 942.978 453.28C936.978 476.68 933.978 488.44 933.978 488.56C930.138 500.32 923.418 510.04 913.818 517.72C903.018 526.24 891.798 530.32 880.158 529.96C873.558 529.6 867.738 528.16 862.698 525.64C859.458 523.96 856.698 521.98 854.418 519.7C849.498 514.9 846.318 509.2 844.878 502.6C843.918 498.28 843.858 493.6 844.698 488.56C844.698 488.32 847.758 475.72 853.878 450.76C859.878 427.24 862.878 415.12 862.878 414.4C862.878 414.28 862.758 414.1 862.518 413.86C862.038 413.62 858.798 413.38 852.798 413.14H846.678L845.958 412.42C845.598 412.06 845.418 411.7 845.418 411.34L847.398 403.96C847.398 403.84 847.578 403.6 847.938 403.24ZM974.769 404.68L975.309 404.14H1028.77C1064.77 404.14 1083.07 404.5 1083.67 405.22C1083.91 405.82 1082.89 413.02 1080.61 426.82C1078.21 440.98 1076.95 448.12 1076.83 448.24C1076.35 448.84 1074.91 449.14 1072.51 449.14C1069.99 449.14 1068.61 448.78 1068.37 448.06C1068.13 447.58 1068.19 446.08 1068.55 443.56C1070.35 432.64 1070.71 425.32 1069.63 421.6C1068.55 418 1064.77 415.66 1058.29 414.58C1057.21 414.46 1053.73 414.4 1047.85 414.4C1041.01 414.28 1037.29 414.58 1036.69 415.3C1036.45 415.54 1032.25 432.16 1024.09 465.16L1011.67 514.66L1012.21 515.02C1013.77 515.62 1019.71 515.92 1030.03 515.92H1035.61L1036.33 516.46C1036.69 516.94 1036.87 517.36 1036.87 517.72L1035.25 524.92C1034.89 525.64 1033.69 525.94 1031.65 525.82C1030.93 525.82 1029.19 525.82 1026.43 525.82C1001.35 525.34 981.789 525.4 967.749 526H965.049L964.509 525.46C963.909 524.86 963.849 523.48 964.329 521.32C964.329 521.08 964.389 520.84 964.509 520.6C965.109 517.96 965.649 516.52 966.129 516.28C966.489 516.04 968.589 515.92 972.429 515.92C980.469 515.92 985.689 515.74 988.089 515.38C990.009 515.26 991.329 514.84 992.049 514.12C992.289 513.76 996.489 497.14 1004.65 464.26C1012.93 431.26 1017.07 414.7 1017.07 414.58C1016.59 414.34 1012.87 414.22 1005.91 414.22C1000.39 414.34 997.029 414.52 995.829 414.76C988.869 415.84 983.769 418.36 980.529 422.32C977.409 426.16 974.049 433.42 970.449 444.1C969.489 446.74 969.009 448.12 969.009 448.24C968.529 448.84 967.089 449.14 964.689 449.14C962.289 449.14 960.849 448.72 960.369 447.88L960.189 447.34L967.029 426.28C971.829 412.24 974.409 405.04 974.769 404.68ZM1097.35 403.96L1097.89 403.6H1148.29H1198.51L1199.23 404.14C1199.59 404.62 1199.77 405.1 1199.77 405.58L1194.55 446.62C1194.55 447.22 1194.31 447.7 1193.83 448.06L1193.29 448.6H1190.23C1188.07 448.6 1186.81 448.48 1186.45 448.24C1185.85 447.88 1185.67 446.44 1185.91 443.92C1185.91 443.68 1185.91 443.38 1185.91 443.02C1186.51 438.1 1186.81 434.02 1186.81 430.78C1186.45 423.58 1184.05 418.84 1179.61 416.56C1177.45 415.6 1175.23 414.94 1172.95 414.58C1169.59 413.98 1162.15 413.74 1150.63 413.86C1139.11 413.86 1133.05 414.22 1132.45 414.94L1121.65 457.42H1131.19C1139.11 457.3 1144.21 456.82 1146.49 455.98C1149.13 455.14 1151.29 453.64 1152.97 451.48C1154.65 449.32 1156.21 445.42 1157.65 439.78C1158.13 438.22 1158.55 437.26 1158.91 436.9L1159.45 436.36H1162.51C1165.03 436.36 1166.53 436.78 1167.01 437.62C1167.13 438.1 1165.21 446.44 1161.25 462.64C1157.05 479.08 1154.89 487.36 1154.77 487.48C1154.53 488.2 1153.09 488.56 1150.45 488.56H1147.39L1146.67 488.02C1146.19 487.42 1146.19 486.04 1146.67 483.88C1148.11 477.76 1148.29 473.56 1147.21 471.28C1146.37 469.48 1143.97 468.34 1140.01 467.86C1139.29 467.74 1135.57 467.68 1128.85 467.68L1119.13 467.5L1113.19 491.08C1109.23 507.04 1107.25 515.08 1107.25 515.2C1107.25 515.32 1107.37 515.5 1107.61 515.74H1140.19C1147.27 515.38 1153.33 514.06 1158.37 511.78C1161.37 510.22 1164.07 508.36 1166.47 506.2C1171.15 501.52 1176.13 492.82 1181.41 480.1C1182.37 477.58 1183.09 476.08 1183.57 475.6L1184.11 475.06H1187.35H1190.59L1191.13 475.6C1191.61 476.08 1191.61 477.04 1191.13 478.48C1190.53 480.28 1187.53 487.84 1182.13 501.16C1175.53 517 1172.23 524.98 1172.23 525.1C1171.99 525.58 1170.25 525.82 1167.01 525.82C1163.17 525.94 1147.39 526 1119.67 526C1085.23 526 1067.77 525.64 1067.29 524.92C1067.05 524.56 1067.17 523.18 1067.65 520.78C1068.25 518.14 1068.85 516.64 1069.45 516.28C1070.05 516.04 1072.21 515.92 1075.93 515.92C1082.65 515.8 1086.43 515.32 1087.27 514.48C1087.63 514.24 1091.95 497.56 1100.23 464.44C1108.51 431.32 1112.53 414.7 1112.29 414.58C1112.05 414.34 1111.63 414.22 1111.03 414.22C1108.99 413.86 1105.51 413.68 1100.59 413.68C1097.47 413.68 1095.73 413.32 1095.37 412.6C1095.13 412.24 1095.25 410.86 1095.73 408.46C1096.33 405.94 1096.87 404.44 1097.35 403.96Z" fill="#C40000"/>
</svg>
