<svg width="507" height="325" viewBox="0 0 507 325" fill="none" xmlns="http://www.w3.org/2000/svg">
<path d="M0 66.5975H134V102.008H0V66.5975ZM52.5433 1L71.77 7.67585C60.1752 70.3708 44.0307 148.159 32.1424 198.373L14.2366 185.602C25.9781 138.29 42.1227 60.5021 52.5433 1ZM93.6386 84.0127L113.012 92.7203C101.271 213.466 74.1183 255.553 10.5674 274.129C8.80613 263.39 4.84337 248.587 1.32092 239.589C60.1752 226.237 83.9518 191.117 93.6386 84.0127ZM23.9233 179.797L35.8116 152.513C67.0734 173.121 109.93 211.144 131.505 242.201L118.002 275C98.3352 243.653 56.6528 203.017 23.9233 179.797Z" fill="#FF0000"/>
<path d="M8.07457 4.63636H11.2983L14.7031 12.9432H14.848L18.2528 4.63636H21.4766V17H18.9411V8.95277H18.8384L15.6388 16.9396H13.9123L10.7127 8.92258H10.6101V17H8.07457V4.63636ZM26.2442 4.63636V17H23.6302V4.63636H26.2442ZM35.1019 8.19212C35.0536 7.70514 34.8464 7.32682 34.4801 7.05717C34.1139 6.78752 33.6168 6.6527 32.989 6.6527C32.5624 6.6527 32.2022 6.71307 31.9084 6.83381C31.6146 6.95052 31.3892 7.11352 31.2322 7.3228C31.0793 7.53208 31.0028 7.76953 31.0028 8.03516C30.9948 8.25651 31.0411 8.44969 31.1417 8.6147C31.2463 8.77971 31.3892 8.92259 31.5703 9.04332C31.7514 9.16004 31.9607 9.26267 32.1982 9.35121C32.4356 9.43572 32.6892 9.50817 32.9588 9.56854L34.0696 9.83416C34.6089 9.9549 35.1039 10.1159 35.5547 10.3171C36.0054 10.5183 36.3958 10.7659 36.7259 11.0597C37.0559 11.3535 37.3114 11.6996 37.4925 12.098C37.6777 12.4964 37.7723 12.9532 37.7763 13.4684C37.7723 14.225 37.5791 14.881 37.1967 15.4364C36.8184 15.9878 36.2711 16.4164 35.5547 16.7223C34.8423 17.0241 33.9831 17.1751 32.9769 17.1751C31.9788 17.1751 31.1095 17.0221 30.369 16.7163C29.6325 16.4104 29.0569 15.9576 28.6424 15.358C28.2319 14.7543 28.0166 14.0077 27.9964 13.1183H30.5259C30.5541 13.5328 30.6728 13.8789 30.8821 14.1566C31.0954 14.4303 31.3791 14.6375 31.7333 14.7784C32.0915 14.9152 32.496 14.9837 32.9467 14.9837C33.3894 14.9837 33.7738 14.9193 34.0998 14.7905C34.4298 14.6617 34.6854 14.4826 34.8665 14.2532C35.0476 14.0238 35.1381 13.7602 35.1381 13.4624C35.1381 13.1847 35.0556 12.9512 34.8906 12.7621C34.7296 12.5729 34.4922 12.4119 34.1783 12.2791C33.8684 12.1463 33.488 12.0256 33.0373 11.9169L31.6911 11.5788C30.6487 11.3253 29.8256 10.9289 29.2219 10.3896C28.6183 9.85026 28.3184 9.12382 28.3224 8.21023C28.3184 7.46165 28.5176 6.80765 28.9201 6.24822C29.3266 5.6888 29.884 5.25213 30.5923 4.93821C31.3007 4.62429 32.1056 4.46733 33.0071 4.46733C33.9247 4.46733 34.7256 4.62429 35.4098 4.93821C36.098 5.25213 36.6333 5.6888 37.0156 6.24822C37.398 6.80765 37.5952 7.45561 37.6072 8.19212H35.1019ZM50.896 10.8182C50.896 12.1664 50.6405 13.3134 50.1294 14.2592C49.6222 15.205 48.93 15.9274 48.0526 16.4265C47.1793 16.9215 46.1973 17.169 45.1066 17.169C44.0079 17.169 43.0219 16.9195 42.1485 16.4205C41.2752 15.9214 40.585 15.199 40.0779 14.2532C39.5708 13.3074 39.3172 12.1624 39.3172 10.8182C39.3172 9.46993 39.5708 8.32292 40.0779 7.37713C40.585 6.43134 41.2752 5.71094 42.1485 5.21591C43.0219 4.71686 44.0079 4.46733 45.1066 4.46733C46.1973 4.46733 47.1793 4.71686 48.0526 5.21591C48.93 5.71094 49.6222 6.43134 50.1294 7.37713C50.6405 8.32292 50.896 9.46993 50.896 10.8182ZM48.2458 10.8182C48.2458 9.94484 48.115 9.20833 47.8534 8.60866C47.5959 8.009 47.2316 7.55421 46.7607 7.24432C46.2899 6.93442 45.7385 6.77947 45.1066 6.77947C44.4748 6.77947 43.9234 6.93442 43.4525 7.24432C42.9816 7.55421 42.6154 8.009 42.3538 8.60866C42.0962 9.20833 41.9674 9.94484 41.9674 10.8182C41.9674 11.6915 42.0962 12.428 42.3538 13.0277C42.6154 13.6274 42.9816 14.0821 43.4525 14.392C43.9234 14.7019 44.4748 14.8569 45.1066 14.8569C45.7385 14.8569 46.2899 14.7019 46.7607 14.392C47.2316 14.0821 47.5959 13.6274 47.8534 13.0277C48.115 12.428 48.2458 11.6915 48.2458 10.8182ZM61.0305 8.63281C60.946 8.33901 60.8273 8.07943 60.6744 7.85405C60.5214 7.62464 60.3343 7.43146 60.1129 7.2745C59.8956 7.11352 59.6461 6.99077 59.3643 6.90625C59.0866 6.82173 58.7788 6.77947 58.4407 6.77947C57.8088 6.77947 57.2534 6.93643 56.7745 7.25035C56.2996 7.56428 55.9293 8.02107 55.6637 8.62074C55.3981 9.21638 55.2653 9.94484 55.2653 10.8061C55.2653 11.6674 55.3961 12.3999 55.6577 13.0036C55.9193 13.6072 56.2895 14.0681 56.7685 14.386C57.2474 14.6999 57.8129 14.8569 58.4648 14.8569C59.0565 14.8569 59.5616 14.7522 59.9801 14.543C60.4027 14.3297 60.7247 14.0298 60.946 13.6435C61.1714 13.2571 61.2841 12.8003 61.2841 12.2731L61.8153 12.3516H58.6278V10.3835H63.8015V11.9411C63.8015 13.0277 63.5721 13.9614 63.1133 14.7422C62.6545 15.5189 62.0226 16.1186 61.2177 16.5412C60.4128 16.9598 59.4911 17.169 58.4528 17.169C57.2937 17.169 56.2755 16.9135 55.3981 16.4023C54.5207 15.8872 53.8365 15.1567 53.3455 14.2109C52.8585 13.2611 52.6151 12.1342 52.6151 10.8303C52.6151 9.82812 52.7599 8.93466 53.0497 8.14986C53.3435 7.36103 53.754 6.69294 54.2812 6.1456C54.8085 5.59825 55.4222 5.1817 56.1225 4.89595C56.8228 4.6102 57.5814 4.46733 58.3984 4.46733C59.0987 4.46733 59.7507 4.56996 60.3544 4.77521C60.9581 4.97644 61.4934 5.26219 61.9602 5.63246C62.4311 6.00272 62.8155 6.44342 63.1133 6.95454C63.4111 7.46165 63.6023 8.02107 63.6868 8.63281H61.0305ZM64.5425 4.63636H67.4704L70.2897 9.96094H70.4104L73.2297 4.63636H76.1576L71.648 12.6293V17H69.0521V12.6293L64.5425 4.63636ZM87.9266 4.63636V17H85.6688L80.2899 9.21839H80.1993V17H77.5853V4.63636H79.8794L85.216 12.4119H85.3247V4.63636H87.9266ZM89.3619 4.63636H92.2898L95.109 9.96094H95.2298L98.049 4.63636H100.977L96.4673 12.6293V17H93.8714V12.6293L89.3619 4.63636ZM108.953 4.63636V17H106.339V4.63636H108.953ZM121.445 4.63636V17H119.187L113.808 9.21839H113.718V17H111.104V4.63636H113.398L118.735 12.4119H118.843V4.63636H121.445ZM18.9833 29.9648H16.3391C16.2908 29.6228 16.1922 29.3189 16.0433 29.0533C15.8944 28.7836 15.7032 28.5542 15.4698 28.3651C15.2364 28.1759 14.9667 28.031 14.6609 27.9304C14.359 27.8298 14.031 27.7795 13.6768 27.7795C13.0369 27.7795 12.4795 27.9384 12.0046 28.2564C11.5297 28.5703 11.1615 29.0291 10.8999 29.6328C10.6383 30.2325 10.5075 30.9609 10.5075 31.8182C10.5075 32.6996 10.6383 33.4401 10.8999 34.0398C11.1655 34.6394 11.5357 35.0922 12.0107 35.3981C12.4856 35.704 13.0349 35.8569 13.6587 35.8569C14.0089 35.8569 14.3329 35.8106 14.6307 35.718C14.9325 35.6255 15.2002 35.4906 15.4336 35.3136C15.667 35.1325 15.8602 34.9131 16.0131 34.6555C16.1701 34.398 16.2788 34.1042 16.3391 33.7741L18.9833 33.7862C18.9149 34.3537 18.7438 34.901 18.4702 35.4283C18.2005 35.9515 17.8363 36.4203 17.3775 36.8349C16.9227 37.2454 16.3794 37.5714 15.7475 37.8129C15.1197 38.0503 14.4093 38.169 13.6165 38.169C12.5137 38.169 11.5277 37.9195 10.6584 37.4205C9.79309 36.9214 9.1089 36.199 8.60582 35.2532C8.10677 34.3074 7.85724 33.1624 7.85724 31.8182C7.85724 30.4699 8.1108 29.3229 8.6179 28.3771C9.125 27.4313 9.81321 26.7109 10.6825 26.2159C11.5518 25.7169 12.5298 25.4673 13.6165 25.4673C14.3329 25.4673 14.9969 25.5679 15.6087 25.7692C16.2244 25.9704 16.7698 26.2642 17.2447 26.6506C17.7196 27.0329 18.1059 27.5018 18.4038 28.0572C18.7056 28.6126 18.8988 29.2485 18.9833 29.9648ZM20.8578 38V25.6364H23.4718V30.7376H28.7782V25.6364H31.3862V38H28.7782V32.8928H23.4718V38H20.8578ZM36.1554 25.6364V38H33.5414V25.6364H36.1554ZM48.6473 25.6364V38H46.3895L41.0106 30.2184H40.92V38H38.306V25.6364H40.6001L45.9367 33.4119H46.0454V25.6364H48.6473ZM50.807 38V25.6364H59.138V27.7915H53.421V30.7376H58.7093V32.8928H53.421V35.8448H59.1621V38H50.807ZM67.9232 29.1921C67.8749 28.7051 67.6676 28.3268 67.3014 28.0572C66.9352 27.7875 66.4381 27.6527 65.8103 27.6527C65.3837 27.6527 65.0235 27.7131 64.7297 27.8338C64.4359 27.9505 64.2105 28.1135 64.0535 28.3228C63.9006 28.5321 63.8241 28.7695 63.8241 29.0352C63.8161 29.2565 63.8624 29.4497 63.963 29.6147C64.0676 29.7797 64.2105 29.9226 64.3916 30.0433C64.5727 30.16 64.782 30.2627 65.0194 30.3512C65.2569 30.4357 65.5104 30.5082 65.7801 30.5685L66.8909 30.8342C67.4302 30.9549 67.9252 31.1159 68.376 31.3171C68.8267 31.5183 69.2171 31.7659 69.5471 32.0597C69.8772 32.3535 70.1327 32.6996 70.3138 33.098C70.499 33.4964 70.5935 33.9532 70.5976 34.4684C70.5935 35.225 70.4004 35.881 70.018 36.4364C69.6397 36.9878 69.0924 37.4164 68.376 37.7223C67.6636 38.0241 66.8044 38.1751 65.7982 38.1751C64.8001 38.1751 63.9308 38.0221 63.1903 37.7163C62.4537 37.4104 61.8782 36.9576 61.4637 36.358C61.0532 35.7543 60.8379 35.0077 60.8177 34.1183H63.3472C63.3754 34.5328 63.4941 34.8789 63.7034 35.1566C63.9167 35.4303 64.2004 35.6375 64.5546 35.7784C64.9128 35.9152 65.3173 35.9837 65.768 35.9837C66.2107 35.9837 66.5951 35.9193 66.9211 35.7905C67.2511 35.6617 67.5067 35.4826 67.6878 35.2532C67.8689 35.0238 67.9594 34.7602 67.9594 34.4624C67.9594 34.1847 67.8769 33.9512 67.7119 33.7621C67.5509 33.5729 67.3135 33.4119 66.9996 33.2791C66.6897 33.1463 66.3093 33.0256 65.8586 32.9169L64.5123 32.5788C63.47 32.3253 62.6469 31.9289 62.0432 31.3896C61.4395 30.8503 61.1397 30.1238 61.1437 29.2102C61.1397 28.4616 61.3389 27.8076 61.7414 27.2482C62.1479 26.6888 62.7053 26.2521 63.4136 25.9382C64.122 25.6243 64.9269 25.4673 65.8284 25.4673C66.746 25.4673 67.5469 25.6243 68.2311 25.9382C68.9193 26.2521 69.4546 26.6888 69.8369 27.2482C70.2193 27.8076 70.4165 28.4556 70.4285 29.1921H67.9232ZM72.3558 38V25.6364H80.6868V27.7915H74.9698V30.7376H80.2582V32.8928H74.9698V35.8448H80.7109V38H72.3558ZM18.9833 50.9648H16.3391C16.2908 50.6228 16.1922 50.3189 16.0433 50.0533C15.8944 49.7836 15.7032 49.5542 15.4698 49.3651C15.2364 49.1759 14.9667 49.031 14.6609 48.9304C14.359 48.8298 14.031 48.7795 13.6768 48.7795C13.0369 48.7795 12.4795 48.9384 12.0046 49.2564C11.5297 49.5703 11.1615 50.0291 10.8999 50.6328C10.6383 51.2325 10.5075 51.9609 10.5075 52.8182C10.5075 53.6996 10.6383 54.4401 10.8999 55.0398C11.1655 55.6394 11.5357 56.0922 12.0107 56.3981C12.4856 56.704 13.0349 56.8569 13.6587 56.8569C14.0089 56.8569 14.3329 56.8106 14.6307 56.718C14.9325 56.6255 15.2002 56.4906 15.4336 56.3136C15.667 56.1325 15.8602 55.9131 16.0131 55.6555C16.1701 55.398 16.2788 55.1042 16.3391 54.7741L18.9833 54.7862C18.9149 55.3537 18.7438 55.901 18.4702 56.4283C18.2005 56.9515 17.8363 57.4203 17.3775 57.8349C16.9227 58.2454 16.3794 58.5714 15.7475 58.8129C15.1197 59.0503 14.4093 59.169 13.6165 59.169C12.5137 59.169 11.5277 58.9195 10.6584 58.4205C9.79309 57.9214 9.1089 57.199 8.60582 56.2532C8.10677 55.3074 7.85724 54.1624 7.85724 52.8182C7.85724 51.4699 8.1108 50.3229 8.6179 49.3771C9.125 48.4313 9.81321 47.7109 10.6825 47.2159C11.5518 46.7169 12.5298 46.4673 13.6165 46.4673C14.3329 46.4673 14.9969 46.5679 15.6087 46.7692C16.2244 46.9704 16.7698 47.2642 17.2447 47.6506C17.7196 48.0329 18.1059 48.5018 18.4038 49.0572C18.7056 49.6126 18.8988 50.2485 18.9833 50.9648ZM20.8578 59V46.6364H23.4718V51.7376H28.7782V46.6364H31.3862V59H28.7782V53.8928H23.4718V59H20.8578ZM35.6724 59H32.8713L37.1394 46.6364H40.508L44.7701 59H41.9689L38.872 49.4616H38.7754L35.6724 59ZM35.4973 54.1403H42.1138V56.1808H35.4973V54.1403ZM46.2582 59V46.6364H51.136C52.0697 46.6364 52.8666 46.8034 53.5266 47.1374C54.1907 47.4674 54.6958 47.9363 55.0419 48.544C55.392 49.1477 55.5671 49.8581 55.5671 50.6751C55.5671 51.4961 55.39 52.2024 55.0359 52.794C54.6817 53.3816 54.1686 53.8324 53.4964 54.1463C52.8284 54.4602 52.0194 54.6172 51.0696 54.6172H47.8036V52.5163H50.647C51.1461 52.5163 51.5606 52.4479 51.8906 52.3111C52.2206 52.1742 52.4661 51.969 52.6271 51.6953C52.7921 51.4216 52.8746 51.0816 52.8746 50.6751C52.8746 50.2646 52.7921 49.9184 52.6271 49.6367C52.4661 49.355 52.2186 49.1417 51.8846 48.9968C51.5546 48.8479 51.138 48.7734 50.6349 48.7734H48.8722V59H46.2582ZM52.935 53.3736L56.0078 59H53.1222L50.1158 53.3736H52.935ZM59.5455 59H56.7443L61.0124 46.6364H64.381L68.6431 59H65.842L62.745 49.4616H62.6484L59.5455 59ZM59.3704 54.1403H65.9869V56.1808H59.3704V54.1403ZM80.4589 50.9648H77.8147C77.7664 50.6228 77.6678 50.3189 77.5189 50.0533C77.37 49.7836 77.1788 49.5542 76.9454 49.3651C76.712 49.1759 76.4423 49.031 76.1365 48.9304C75.8346 48.8298 75.5066 48.7795 75.1524 48.7795C74.5125 48.7795 73.9551 48.9384 73.4802 49.2564C73.0053 49.5703 72.637 50.0291 72.3754 50.6328C72.1138 51.2325 71.983 51.9609 71.983 52.8182C71.983 53.6996 72.1138 54.4401 72.3754 55.0398C72.6411 55.6394 73.0113 56.0922 73.4862 56.3981C73.9611 56.704 74.5105 56.8569 75.1343 56.8569C75.4845 56.8569 75.8084 56.8106 76.1063 56.718C76.4081 56.6255 76.6758 56.4906 76.9092 56.3136C77.1426 56.1325 77.3358 55.9131 77.4887 55.6555C77.6457 55.398 77.7544 55.1042 77.8147 54.7741L80.4589 54.7862C80.3905 55.3537 80.2194 55.901 79.9458 56.4283C79.6761 56.9515 79.3119 57.4203 78.8531 57.8349C78.3983 58.2454 77.855 58.5714 77.2231 58.8129C76.5953 59.0503 75.8849 59.169 75.0921 59.169C73.9893 59.169 73.0033 58.9195 72.134 58.4205C71.2687 57.9214 70.5845 57.199 70.0814 56.2532C69.5824 55.3074 69.3328 54.1624 69.3328 52.8182C69.3328 51.4699 69.5864 50.3229 70.0935 49.3771C70.6006 48.4313 71.2888 47.7109 72.1581 47.2159C73.0274 46.7169 74.0054 46.4673 75.0921 46.4673C75.8084 46.4673 76.4725 46.5679 77.0843 46.7692C77.7 46.9704 78.2454 47.2642 78.7203 47.6506C79.1952 48.0329 79.5815 48.5018 79.8794 49.0572C80.1812 49.6126 80.3744 50.2485 80.4589 50.9648ZM81.8625 48.7915V46.6364H92.0166V48.7915H88.2314V59H85.6476V48.7915H81.8625ZM93.6888 59V46.6364H102.02V48.7915H96.3028V51.7376H101.591V53.8928H96.3028V56.8448H102.044V59H93.6888ZM104.098 59V46.6364H108.976C109.91 46.6364 110.706 46.8034 111.366 47.1374C112.031 47.4674 112.536 47.9363 112.882 48.544C113.232 49.1477 113.407 49.8581 113.407 50.6751C113.407 51.4961 113.23 52.2024 112.876 52.794C112.522 53.3816 112.008 53.8324 111.336 54.1463C110.668 54.4602 109.859 54.6172 108.909 54.6172H105.643V52.5163H108.487C108.986 52.5163 109.4 52.4479 109.73 52.3111C110.06 52.1742 110.306 51.969 110.467 51.6953C110.632 51.4216 110.714 51.0816 110.714 50.6751C110.714 50.2646 110.632 49.9184 110.467 49.6367C110.306 49.355 110.058 49.1417 109.724 48.9968C109.394 48.8479 108.978 48.7734 108.475 48.7734H106.712V59H104.098ZM110.775 53.3736L113.848 59H110.962L107.956 53.3736H110.775ZM121.961 50.1921C121.913 49.7051 121.706 49.3268 121.339 49.0572C120.973 48.7875 120.476 48.6527 119.848 48.6527C119.422 48.6527 119.062 48.7131 118.768 48.8338C118.474 48.9505 118.249 49.1135 118.092 49.3228C117.939 49.5321 117.862 49.7695 117.862 50.0352C117.854 50.2565 117.9 50.4497 118.001 50.6147C118.106 50.7797 118.249 50.9226 118.43 51.0433C118.611 51.16 118.82 51.2627 119.058 51.3512C119.295 51.4357 119.549 51.5082 119.818 51.5685L120.929 51.8342C121.468 51.9549 121.963 52.1159 122.414 52.3171C122.865 52.5183 123.255 52.7659 123.585 53.0597C123.915 53.3535 124.171 53.6996 124.352 54.098C124.537 54.4964 124.632 54.9532 124.636 55.4684C124.632 56.225 124.438 56.881 124.056 57.4364C123.678 57.9878 123.13 58.4164 122.414 58.7223C121.702 59.0241 120.842 59.1751 119.836 59.1751C118.838 59.1751 117.969 59.0221 117.228 58.7163C116.492 58.4104 115.916 57.9576 115.502 57.358C115.091 56.7543 114.876 56.0077 114.856 55.1183H117.385C117.413 55.5328 117.532 55.8789 117.741 56.1566C117.955 56.4303 118.239 56.6375 118.593 56.7784C118.951 56.9152 119.355 56.9837 119.806 56.9837C120.249 56.9837 120.633 56.9193 120.959 56.7905C121.289 56.6617 121.545 56.4826 121.726 56.2532C121.907 56.0238 121.998 55.7602 121.998 55.4624C121.998 55.1847 121.915 54.9512 121.75 54.7621C121.589 54.5729 121.352 54.4119 121.038 54.2791C120.728 54.1463 120.347 54.0256 119.897 53.9169L118.55 53.5788C117.508 53.3253 116.685 52.9289 116.081 52.3896C115.478 51.8503 115.178 51.1238 115.182 50.2102C115.178 49.4616 115.377 48.8076 115.779 48.2482C116.186 47.6888 116.743 47.2521 117.452 46.9382C118.16 46.6243 118.965 46.4673 119.866 46.4673C120.784 46.4673 121.585 46.6243 122.269 46.9382C122.957 47.2521 123.493 47.6888 123.875 48.2482C124.257 48.8076 124.455 49.4556 124.467 50.1921H121.961Z" fill="white"/>
<path fill-rule="evenodd" clip-rule="evenodd" d="M309.961 6.52381H149.039V267.476H309.961V6.52381ZM134 0V274H325V0H134Z" fill="#FF0000"/>
<path d="M198.22 46.8194C213.72 138.792 247.275 205.681 304 230.764C299.526 238.826 293.454 254.951 290.578 265.104C230.657 234.646 198.38 163.576 179.046 56.9722L198.22 46.8194ZM163.386 9.79166H273.48V45.3264H163.386V9.79166ZM266.769 9.79166H270.444L273.8 8L287.861 20.2431C269.486 154.917 223.147 231.958 165.623 266C163.546 256.444 157.314 238.826 153 231.361C208.766 201.5 251.589 136.104 266.769 17.2569V9.79166Z" fill="white"/>
<path d="M215.771 30H212.476L217.497 15.4545H221.46L226.474 30H223.179L219.536 18.7784H219.422L215.771 30ZM215.565 24.2827H223.349V26.6832H215.565V24.2827ZM237.186 20.1562C237.087 19.8106 236.947 19.5052 236.767 19.2401C236.587 18.9702 236.367 18.7429 236.107 18.5582C235.851 18.3688 235.558 18.2244 235.226 18.125C234.9 18.0256 234.537 17.9759 234.14 17.9759C233.396 17.9759 232.743 18.1605 232.179 18.5298C231.621 18.8991 231.185 19.4366 230.873 20.142C230.56 20.8428 230.404 21.6998 230.404 22.7131C230.404 23.7263 230.558 24.5881 230.865 25.2983C231.173 26.0085 231.609 26.5507 232.172 26.9247C232.736 27.294 233.401 27.4787 234.168 27.4787C234.864 27.4787 235.458 27.3556 235.951 27.1094C236.448 26.8584 236.827 26.5057 237.087 26.0511C237.352 25.5966 237.485 25.0592 237.485 24.4389L238.11 24.5312H234.36V22.2159H240.446V24.0483C240.446 25.3267 240.176 26.4252 239.637 27.3438C239.097 28.2576 238.354 28.9631 237.407 29.4602C236.46 29.9527 235.375 30.1989 234.154 30.1989C232.79 30.1989 231.592 29.8982 230.56 29.2969C229.528 28.6908 228.723 27.8314 228.145 26.7188C227.572 25.6013 227.286 24.2756 227.286 22.7415C227.286 21.5625 227.456 20.5114 227.797 19.5881C228.143 18.66 228.626 17.8741 229.246 17.2301C229.866 16.5862 230.588 16.0961 231.412 15.7599C232.236 15.4238 233.129 15.2557 234.09 15.2557C234.914 15.2557 235.681 15.3764 236.391 15.6179C237.101 15.8546 237.731 16.1908 238.28 16.6264C238.834 17.062 239.286 17.5805 239.637 18.1818C239.987 18.7784 240.212 19.4366 240.311 20.1562H237.186ZM244.814 30H241.519L246.54 15.4545H250.503L255.517 30H252.222L248.578 18.7784H248.465L244.814 30ZM244.608 24.2827H252.392V26.6832H244.608V24.2827ZM260.343 15.4545V30H257.268V15.4545H260.343ZM275.04 15.4545V30H272.384L266.055 20.8452H265.949V30H262.874V15.4545H265.572L271.851 24.6023H271.979V15.4545H275.04Z" fill="black"/>
<path d="M145.49 170.72L149.13 170.79C150.437 171.023 151.673 171.42 152.84 171.98C154.053 172.54 155.103 173.38 155.99 174.5C156.177 174.687 156.293 174.803 156.34 174.85L158.37 172.82C159.723 171.467 160.423 170.767 160.47 170.72C160.703 170.533 161.17 170.533 161.87 170.72C162.01 170.86 162.103 170.977 162.15 171.07C162.197 171.257 161.543 174.057 160.19 179.47C158.79 184.977 158.043 187.777 157.95 187.87L157.74 188.08H156.48C155.407 188.08 154.823 187.94 154.73 187.66C154.683 187.52 154.707 187.217 154.8 186.75C155.22 183.483 154.963 180.8 154.03 178.7C152.91 176.367 150.95 174.967 148.15 174.5C147.03 174.313 145.793 174.313 144.44 174.5C142.667 174.873 141.01 175.807 139.47 177.3C136.81 179.913 135.737 182.69 136.25 185.63C136.53 187.637 137.603 189.013 139.47 189.76L144.3 191.09C146.12 191.557 147.847 192.023 149.48 192.49C150.693 193.003 151.813 193.773 152.84 194.8C153.587 195.547 154.193 196.41 154.66 197.39C155.967 200.143 156.2 203.2 155.36 206.56C154.287 211.133 151.767 214.96 147.8 218.04C147.473 218.273 147.147 218.507 146.82 218.74C145.187 219.72 143.81 220.397 142.69 220.77C140.963 221.33 139.19 221.587 137.37 221.54C134.477 221.4 132.05 220.84 130.09 219.86C129.157 219.44 128.2 218.763 127.22 217.83L126.59 217.2C126.543 217.2 125.867 217.9 124.56 219.3L122.39 221.47L121.69 221.54H121.62C121.247 221.54 120.99 221.47 120.85 221.33C120.71 221.19 120.64 221.073 120.64 220.98C120.64 220.84 121.993 215.357 124.7 204.53C124.793 204.25 125.377 204.11 126.45 204.11H127.71L127.92 204.32C128.107 204.507 128.13 204.997 127.99 205.79C127.99 205.883 127.967 206 127.92 206.14C127.593 207.867 127.547 209.313 127.78 210.48C128.713 215.007 132.143 217.387 138.07 217.62C139.283 217.62 140.31 217.48 141.15 217.2C143.763 216.36 145.863 214.54 147.45 211.74C148.103 210.667 148.547 209.547 148.78 208.38C149.34 205.58 148.897 203.34 147.45 201.66C146.983 201.193 146.377 200.797 145.63 200.47L140.8 199.14C137.253 198.207 135.083 197.53 134.29 197.11C131.117 195.29 129.46 192.397 129.32 188.43C129.227 186.75 129.483 185.023 130.09 183.25C131.537 178.863 134.36 175.457 138.56 173.03C139.12 172.703 139.703 172.4 140.31 172.12C141.897 171.373 143.367 170.93 144.72 170.79C144.907 170.743 145.163 170.72 145.49 170.72ZM173.72 172.26C173.813 172.213 174.186 172.19 174.84 172.19C178.48 172.377 183.403 172.423 189.61 172.33C193.716 172.237 195.746 172.19 195.7 172.19H196.54L196.75 172.4C196.983 172.633 197.006 173.17 196.82 174.01C196.82 174.103 196.796 174.197 196.75 174.29C196.516 175.317 196.306 175.877 196.12 175.97C195.98 176.063 195.256 176.11 193.95 176.11C191.196 176.11 189.4 176.18 188.56 176.32C187.813 176.413 187.346 176.6 187.16 176.88L177.43 215.8C177.43 215.893 177.523 215.963 177.71 216.01H182.4C185.853 216.01 188.116 215.87 189.19 215.59C189.283 215.59 189.376 215.567 189.47 215.52C192.643 214.773 195.256 213.117 197.31 210.55C198.616 208.917 200.016 206.093 201.51 202.08C201.93 200.96 202.21 200.377 202.35 200.33C202.676 200.097 203.446 200.073 204.66 200.26C204.846 200.26 204.963 200.283 205.01 200.33C205.29 200.423 205.43 200.633 205.43 200.96L198.78 219.65C198.686 219.837 198.08 219.93 196.96 219.93C195.56 219.977 190.006 220 180.3 220C168.306 220 162.24 219.953 162.1 219.86C161.96 219.72 161.866 219.603 161.82 219.51C161.773 219.323 161.843 218.787 162.03 217.9C162.31 216.967 162.496 216.43 162.59 216.29L162.87 216.08H165.25C167.863 216.033 169.333 215.847 169.66 215.52C169.8 215.427 171.48 208.94 174.7 196.06C177.92 183.18 179.53 176.693 179.53 176.6C179.53 176.553 179.483 176.483 179.39 176.39C179.203 176.297 177.943 176.203 175.61 176.11H173.23L173.02 175.9C172.74 175.713 172.74 175.06 173.02 173.94C173.253 172.96 173.486 172.4 173.72 172.26ZM244.606 169.95L246.216 169.88H246.286C247.546 169.88 248.223 170.02 248.316 170.3C248.363 170.487 248.993 178.047 250.206 192.98C251.373 208.007 252.003 215.567 252.096 215.66C252.143 215.707 252.306 215.777 252.586 215.87C253.146 216.01 254.5 216.08 256.646 216.08H258.046L258.326 216.29C258.466 216.523 258.536 216.687 258.536 216.78L257.906 219.58C257.766 219.86 257.253 219.977 256.366 219.93C256.18 219.93 255.83 219.93 255.316 219.93C248.55 219.743 243.02 219.767 238.726 220H237.886L237.676 219.79C237.49 219.603 237.396 219.417 237.396 219.23C237.396 218.483 237.63 217.573 238.096 216.5C238.19 216.22 238.866 216.08 240.126 216.08C241.246 215.987 241.993 215.94 242.366 215.94C243.44 215.753 244.023 215.567 244.116 215.38C244.163 215.333 244.07 213.793 243.836 210.76C243.603 208.053 243.486 206.513 243.486 206.14C243.486 206.047 240.826 206 235.506 206H227.456L225.356 209.71C223.863 212.23 223.093 213.607 223.046 213.84C222.86 214.307 222.93 214.703 223.256 215.03C223.723 215.59 224.726 215.94 226.266 216.08C226.92 216.08 227.34 216.243 227.526 216.57L227.596 216.78L227.246 218.18C227.06 219.067 226.873 219.603 226.686 219.79L226.476 220H225.636C221.763 219.813 218.1 219.767 214.646 219.86C212.266 219.953 211.053 220 211.006 220H210.516L210.306 219.79C210.12 219.603 210.026 219.44 210.026 219.3L210.656 216.5C210.843 216.22 211.38 216.08 212.266 216.08C215.533 215.94 217.796 215.007 219.056 213.28L231.726 191.58C239.846 177.533 244 170.417 244.186 170.23C244.233 170.183 244.373 170.09 244.606 169.95ZM242.366 192C241.853 185.327 241.596 181.943 241.596 181.85C241.596 181.663 240.57 183.367 238.516 186.96L232.636 197.11L229.766 202.01L236.416 202.08H243.136C243.136 202.127 242.88 198.767 242.366 192ZM264.416 172.33L264.626 172.19H265.606C269.993 172.423 275.36 172.447 281.706 172.26C283.246 172.213 284.11 172.353 284.296 172.68C284.39 172.82 284.32 173.357 284.086 174.29C283.806 175.317 283.573 175.877 283.386 175.97C283.246 176.017 282.71 176.063 281.776 176.11C280.656 176.203 279.91 176.25 279.536 176.25C278.556 176.437 277.973 176.6 277.786 176.74C277.74 176.787 278.323 182.363 279.536 193.47C280.75 204.623 281.38 210.27 281.426 210.41C281.426 210.457 281.496 210.387 281.636 210.2C282.056 209.593 285.23 204.46 291.156 194.8C297.736 183.88 301.003 178.49 300.956 178.63C301.143 178.163 301.213 177.79 301.166 177.51C300.933 176.717 299.906 176.25 298.086 176.11C297.386 176.11 296.943 175.947 296.756 175.62C296.71 175.48 296.78 174.943 296.966 174.01C297.2 173.123 297.41 172.587 297.596 172.4L297.806 172.19H298.646C302.52 172.377 306.136 172.423 309.496 172.33L312.926 172.19H313.416L313.626 172.4C313.813 172.587 313.906 172.773 313.906 172.96C313.906 173.707 313.673 174.617 313.206 175.69C313.113 175.97 312.6 176.11 311.666 176.11C309.333 176.25 307.513 176.787 306.206 177.72C305.833 178.047 305.39 178.537 304.876 179.19C304.55 179.657 300.256 186.657 291.996 200.19C283.55 214.003 279.303 220.933 279.256 220.98C279.256 221.027 279.07 221.167 278.696 221.4C278.463 221.493 277.833 221.54 276.806 221.54C275.826 221.54 275.22 221.47 274.986 221.33C274.846 221.19 274.776 221.073 274.776 220.98C274.776 220.7 273.936 213.303 272.256 198.79C270.67 184.043 269.83 176.623 269.736 176.53C269.69 176.483 269.526 176.413 269.246 176.32C268.686 176.18 267.426 176.11 265.466 176.11C264.346 176.11 263.74 175.97 263.646 175.69C263.553 175.55 263.6 175.013 263.786 174.08C264.02 173.1 264.23 172.517 264.416 172.33ZM314.537 172.54L314.747 172.4H334.347H353.877L354.157 172.61C354.297 172.797 354.367 172.983 354.367 173.17L352.337 189.13C352.337 189.363 352.243 189.55 352.057 189.69L351.847 189.9H350.657C349.817 189.9 349.327 189.853 349.187 189.76C348.953 189.62 348.883 189.06 348.977 188.08C348.977 187.987 348.977 187.87 348.977 187.73C349.21 185.817 349.327 184.23 349.327 182.97C349.187 180.17 348.253 178.327 346.527 177.44C345.687 177.067 344.823 176.81 343.937 176.67C342.63 176.437 339.737 176.343 335.257 176.39C330.777 176.39 328.42 176.53 328.187 176.81L323.987 193.33H327.697C330.777 193.283 332.76 193.097 333.647 192.77C334.673 192.443 335.513 191.86 336.167 191.02C336.82 190.18 337.427 188.663 337.987 186.47C338.173 185.863 338.337 185.49 338.477 185.35L338.687 185.14H339.877C340.857 185.14 341.44 185.303 341.627 185.63C341.673 185.817 340.927 189.06 339.387 195.36C337.753 201.753 336.913 204.973 336.867 205.02C336.773 205.3 336.213 205.44 335.187 205.44H333.997L333.717 205.23C333.53 204.997 333.53 204.46 333.717 203.62C334.277 201.24 334.347 199.607 333.927 198.72C333.6 198.02 332.667 197.577 331.127 197.39C330.847 197.343 329.4 197.32 326.787 197.32L323.007 197.25L320.697 206.42C319.157 212.627 318.387 215.753 318.387 215.8C318.387 215.847 318.433 215.917 318.527 216.01H331.197C333.95 215.87 336.307 215.357 338.267 214.47C339.433 213.863 340.483 213.14 341.417 212.3C343.237 210.48 345.173 207.097 347.227 202.15C347.6 201.17 347.88 200.587 348.067 200.4L348.277 200.19H349.537H350.797L351.007 200.4C351.193 200.587 351.193 200.96 351.007 201.52C350.773 202.22 349.607 205.16 347.507 210.34C344.94 216.5 343.657 219.603 343.657 219.65C343.563 219.837 342.887 219.93 341.627 219.93C340.133 219.977 333.997 220 323.217 220C309.823 220 303.033 219.86 302.847 219.58C302.753 219.44 302.8 218.903 302.987 217.97C303.22 216.943 303.453 216.36 303.687 216.22C303.92 216.127 304.76 216.08 306.207 216.08C308.82 216.033 310.29 215.847 310.617 215.52C310.757 215.427 312.437 208.94 315.657 196.06C318.877 183.18 320.44 176.717 320.347 176.67C320.253 176.577 320.09 176.53 319.857 176.53C319.063 176.39 317.71 176.32 315.797 176.32C314.583 176.32 313.907 176.18 313.767 175.9C313.673 175.76 313.72 175.223 313.907 174.29C314.14 173.31 314.35 172.727 314.537 172.54Z" fill="#C40000"/>
<path d="M72.49 123.72L76.13 123.79C77.4367 124.023 78.6733 124.42 79.84 124.98C81.0533 125.54 82.1033 126.38 82.99 127.5C83.1767 127.687 83.2933 127.803 83.34 127.85L85.37 125.82C86.7233 124.467 87.4233 123.767 87.47 123.72C87.7033 123.533 88.17 123.533 88.87 123.72C89.01 123.86 89.1033 123.977 89.15 124.07C89.1967 124.257 88.5433 127.057 87.19 132.47C85.79 137.977 85.0433 140.777 84.95 140.87L84.74 141.08H83.48C82.4067 141.08 81.8233 140.94 81.73 140.66C81.6833 140.52 81.7067 140.217 81.8 139.75C82.22 136.483 81.9633 133.8 81.03 131.7C79.91 129.367 77.95 127.967 75.15 127.5C74.03 127.313 72.7933 127.313 71.44 127.5C69.6667 127.873 68.01 128.807 66.47 130.3C63.81 132.913 62.7367 135.69 63.25 138.63C63.53 140.637 64.6033 142.013 66.47 142.76L71.3 144.09C73.12 144.557 74.8467 145.023 76.48 145.49C77.6933 146.003 78.8133 146.773 79.84 147.8C80.5867 148.547 81.1933 149.41 81.66 150.39C82.9667 153.143 83.2 156.2 82.36 159.56C81.2867 164.133 78.7667 167.96 74.8 171.04C74.4733 171.273 74.1467 171.507 73.82 171.74C72.1867 172.72 70.81 173.397 69.69 173.77C67.9633 174.33 66.19 174.587 64.37 174.54C61.4767 174.4 59.05 173.84 57.09 172.86C56.1567 172.44 55.2 171.763 54.22 170.83L53.59 170.2C53.5433 170.2 52.8667 170.9 51.56 172.3L49.39 174.47L48.69 174.54H48.62C48.2467 174.54 47.99 174.47 47.85 174.33C47.71 174.19 47.64 174.073 47.64 173.98C47.64 173.84 48.9933 168.357 51.7 157.53C51.7933 157.25 52.3767 157.11 53.45 157.11H54.71L54.92 157.32C55.1067 157.507 55.13 157.997 54.99 158.79C54.99 158.883 54.9667 159 54.92 159.14C54.5933 160.867 54.5467 162.313 54.78 163.48C55.7133 168.007 59.1433 170.387 65.07 170.62C66.2833 170.62 67.31 170.48 68.15 170.2C70.7633 169.36 72.8633 167.54 74.45 164.74C75.1033 163.667 75.5467 162.547 75.78 161.38C76.34 158.58 75.8967 156.34 74.45 154.66C73.9833 154.193 73.3767 153.797 72.63 153.47L67.8 152.14C64.2533 151.207 62.0833 150.53 61.29 150.11C58.1167 148.29 56.46 145.397 56.32 141.43C56.2267 139.75 56.4833 138.023 57.09 136.25C58.5367 131.863 61.36 128.457 65.56 126.03C66.12 125.703 66.7033 125.4 67.31 125.12C68.8967 124.373 70.3667 123.93 71.72 123.79C71.9067 123.743 72.1633 123.72 72.49 123.72ZM100.72 125.26C100.813 125.213 101.186 125.19 101.84 125.19C105.48 125.377 110.403 125.423 116.61 125.33C120.716 125.237 122.746 125.19 122.7 125.19H123.54L123.75 125.4C123.983 125.633 124.006 126.17 123.82 127.01C123.82 127.103 123.796 127.197 123.75 127.29C123.516 128.317 123.306 128.877 123.12 128.97C122.98 129.063 122.256 129.11 120.95 129.11C118.196 129.11 116.4 129.18 115.56 129.32C114.813 129.413 114.346 129.6 114.16 129.88L104.43 168.8C104.43 168.893 104.523 168.963 104.71 169.01H109.4C112.853 169.01 115.116 168.87 116.19 168.59C116.283 168.59 116.376 168.567 116.47 168.52C119.643 167.773 122.256 166.117 124.31 163.55C125.616 161.917 127.016 159.093 128.51 155.08C128.93 153.96 129.21 153.377 129.35 153.33C129.676 153.097 130.446 153.073 131.66 153.26C131.846 153.26 131.963 153.283 132.01 153.33C132.29 153.423 132.43 153.633 132.43 153.96L125.78 172.65C125.686 172.837 125.08 172.93 123.96 172.93C122.56 172.977 117.006 173 107.3 173C95.3064 173 89.2397 172.953 89.0997 172.86C88.9597 172.72 88.8664 172.603 88.8197 172.51C88.773 172.323 88.843 171.787 89.0297 170.9C89.3097 169.967 89.4964 169.43 89.5897 169.29L89.8697 169.08H92.2497C94.863 169.033 96.333 168.847 96.6597 168.52C96.7997 168.427 98.4797 161.94 101.7 149.06C104.92 136.18 106.53 129.693 106.53 129.6C106.53 129.553 106.483 129.483 106.39 129.39C106.203 129.297 104.943 129.203 102.61 129.11H100.23L100.02 128.9C99.7397 128.713 99.7397 128.06 100.02 126.94C100.253 125.96 100.486 125.4 100.72 125.26ZM171.606 122.95L173.216 122.88H173.286C174.546 122.88 175.223 123.02 175.316 123.3C175.363 123.487 175.993 131.047 177.206 145.98C178.373 161.007 179.003 168.567 179.096 168.66C179.143 168.707 179.306 168.777 179.586 168.87C180.146 169.01 181.5 169.08 183.646 169.08H185.046L185.326 169.29C185.466 169.523 185.536 169.687 185.536 169.78L184.906 172.58C184.766 172.86 184.253 172.977 183.366 172.93C183.18 172.93 182.83 172.93 182.316 172.93C175.55 172.743 170.02 172.767 165.726 173H164.886L164.676 172.79C164.49 172.603 164.396 172.417 164.396 172.23C164.396 171.483 164.63 170.573 165.096 169.5C165.19 169.22 165.866 169.08 167.126 169.08C168.246 168.987 168.993 168.94 169.366 168.94C170.44 168.753 171.023 168.567 171.116 168.38C171.163 168.333 171.07 166.793 170.836 163.76C170.603 161.053 170.486 159.513 170.486 159.14C170.486 159.047 167.826 159 162.506 159H154.456L152.356 162.71C150.863 165.23 150.093 166.607 150.046 166.84C149.86 167.307 149.93 167.703 150.256 168.03C150.723 168.59 151.726 168.94 153.266 169.08C153.92 169.08 154.34 169.243 154.526 169.57L154.596 169.78L154.246 171.18C154.06 172.067 153.873 172.603 153.686 172.79L153.476 173H152.636C148.763 172.813 145.1 172.767 141.646 172.86C139.266 172.953 138.053 173 138.006 173H137.516L137.306 172.79C137.12 172.603 137.026 172.44 137.026 172.3L137.656 169.5C137.843 169.22 138.38 169.08 139.266 169.08C142.533 168.94 144.796 168.007 146.056 166.28L158.726 144.58C166.846 130.533 171 123.417 171.186 123.23C171.233 123.183 171.373 123.09 171.606 122.95ZM169.366 145C168.853 138.327 168.596 134.943 168.596 134.85C168.596 134.663 167.57 136.367 165.516 139.96L159.636 150.11L156.766 155.01L163.416 155.08H170.136C170.136 155.127 169.88 151.767 169.366 145ZM191.416 125.33L191.626 125.19H192.606C196.993 125.423 202.36 125.447 208.706 125.26C210.246 125.213 211.11 125.353 211.296 125.68C211.39 125.82 211.32 126.357 211.086 127.29C210.806 128.317 210.573 128.877 210.386 128.97C210.246 129.017 209.71 129.063 208.776 129.11C207.656 129.203 206.91 129.25 206.536 129.25C205.556 129.437 204.973 129.6 204.786 129.74C204.74 129.787 205.323 135.363 206.536 146.47C207.75 157.623 208.38 163.27 208.426 163.41C208.426 163.457 208.496 163.387 208.636 163.2C209.056 162.593 212.23 157.46 218.156 147.8C224.736 136.88 228.003 131.49 227.956 131.63C228.143 131.163 228.213 130.79 228.166 130.51C227.933 129.717 226.906 129.25 225.086 129.11C224.386 129.11 223.943 128.947 223.756 128.62C223.71 128.48 223.78 127.943 223.966 127.01C224.2 126.123 224.41 125.587 224.596 125.4L224.806 125.19H225.646C229.52 125.377 233.136 125.423 236.496 125.33L239.926 125.19H240.416L240.626 125.4C240.813 125.587 240.906 125.773 240.906 125.96C240.906 126.707 240.673 127.617 240.206 128.69C240.113 128.97 239.6 129.11 238.666 129.11C236.333 129.25 234.513 129.787 233.206 130.72C232.833 131.047 232.39 131.537 231.876 132.19C231.55 132.657 227.256 139.657 218.996 153.19C210.55 167.003 206.303 173.933 206.256 173.98C206.256 174.027 206.07 174.167 205.696 174.4C205.463 174.493 204.833 174.54 203.806 174.54C202.826 174.54 202.22 174.47 201.986 174.33C201.846 174.19 201.776 174.073 201.776 173.98C201.776 173.7 200.936 166.303 199.256 151.79C197.67 137.043 196.83 129.623 196.736 129.53C196.69 129.483 196.526 129.413 196.246 129.32C195.686 129.18 194.426 129.11 192.466 129.11C191.346 129.11 190.74 128.97 190.646 128.69C190.553 128.55 190.6 128.013 190.786 127.08C191.02 126.1 191.23 125.517 191.416 125.33ZM241.537 125.54L241.747 125.4H261.347H280.877L281.157 125.61C281.297 125.797 281.367 125.983 281.367 126.17L279.337 142.13C279.337 142.363 279.243 142.55 279.057 142.69L278.847 142.9H277.657C276.817 142.9 276.327 142.853 276.187 142.76C275.953 142.62 275.883 142.06 275.977 141.08C275.977 140.987 275.977 140.87 275.977 140.73C276.21 138.817 276.327 137.23 276.327 135.97C276.187 133.17 275.253 131.327 273.527 130.44C272.687 130.067 271.823 129.81 270.937 129.67C269.63 129.437 266.737 129.343 262.257 129.39C257.777 129.39 255.42 129.53 255.187 129.81L250.987 146.33H254.697C257.777 146.283 259.76 146.097 260.647 145.77C261.673 145.443 262.513 144.86 263.167 144.02C263.82 143.18 264.427 141.663 264.987 139.47C265.173 138.863 265.337 138.49 265.477 138.35L265.687 138.14H266.877C267.857 138.14 268.44 138.303 268.627 138.63C268.673 138.817 267.927 142.06 266.387 148.36C264.753 154.753 263.913 157.973 263.867 158.02C263.773 158.3 263.213 158.44 262.187 158.44H260.997L260.717 158.23C260.53 157.997 260.53 157.46 260.717 156.62C261.277 154.24 261.347 152.607 260.927 151.72C260.6 151.02 259.667 150.577 258.127 150.39C257.847 150.343 256.4 150.32 253.787 150.32L250.007 150.25L247.697 159.42C246.157 165.627 245.387 168.753 245.387 168.8C245.387 168.847 245.433 168.917 245.527 169.01H258.197C260.95 168.87 263.307 168.357 265.267 167.47C266.433 166.863 267.483 166.14 268.417 165.3C270.237 163.48 272.173 160.097 274.227 155.15C274.6 154.17 274.88 153.587 275.067 153.4L275.277 153.19H276.537H277.797L278.007 153.4C278.193 153.587 278.193 153.96 278.007 154.52C277.773 155.22 276.607 158.16 274.507 163.34C271.94 169.5 270.657 172.603 270.657 172.65C270.563 172.837 269.887 172.93 268.627 172.93C267.133 172.977 260.997 173 250.217 173C236.823 173 230.033 172.86 229.847 172.58C229.753 172.44 229.8 171.903 229.987 170.97C230.22 169.943 230.453 169.36 230.687 169.22C230.92 169.127 231.76 169.08 233.207 169.08C235.82 169.033 237.29 168.847 237.617 168.52C237.757 168.427 239.437 161.94 242.657 149.06C245.877 136.18 247.44 129.717 247.347 129.67C247.253 129.577 247.09 129.53 246.857 129.53C246.063 129.39 244.71 129.32 242.797 129.32C241.583 129.32 240.907 129.18 240.767 128.9C240.673 128.76 240.72 128.223 240.907 127.29C241.14 126.31 241.35 125.727 241.537 125.54Z" fill="#C40000"/>
<path d="M12.6729 276L7.47053 257.818H11.6697L14.6793 270.451H14.8303L18.1506 257.818H21.7461L25.0575 270.478H25.2173L28.2269 257.818H32.4261L27.2237 276H23.4773L20.0149 264.113H19.8729L16.4194 276H12.6729ZM50.1663 266.909C50.1663 268.892 49.7905 270.579 49.0388 271.969C48.2931 273.36 47.2751 274.423 45.9848 275.157C44.7005 275.885 43.2564 276.249 41.6524 276.249C40.0367 276.249 38.5866 275.882 37.3023 275.148C36.018 274.414 35.0029 273.351 34.2572 271.961C33.5115 270.57 33.1386 268.886 33.1386 266.909C33.1386 264.926 33.5115 263.24 34.2572 261.849C35.0029 260.458 36.018 259.398 37.3023 258.67C38.5866 257.937 40.0367 257.57 41.6524 257.57C43.2564 257.57 44.7005 257.937 45.9848 258.67C47.2751 259.398 48.2931 260.458 49.0388 261.849C49.7905 263.24 50.1663 264.926 50.1663 266.909ZM46.2689 266.909C46.2689 265.625 46.0766 264.542 45.6919 263.66C45.3131 262.778 44.7774 262.109 44.085 261.653C43.3925 261.198 42.5816 260.97 41.6524 260.97C40.7232 260.97 39.9124 261.198 39.2199 261.653C38.5274 262.109 37.9888 262.778 37.6041 263.66C37.2253 264.542 37.036 265.625 37.036 266.909C37.036 268.193 37.2253 269.277 37.6041 270.158C37.9888 271.04 38.5274 271.709 39.2199 272.165C39.9124 272.621 40.7232 272.848 41.6524 272.848C42.5816 272.848 43.3925 272.621 44.085 272.165C44.7774 271.709 45.3131 271.04 45.6919 270.158C46.0766 269.277 46.2689 268.193 46.2689 266.909ZM53.0138 257.818H57.7546L62.7617 270.034H62.9748L67.9819 257.818H72.7227V276H68.994V264.166H68.843L64.1378 275.911H61.5987L56.8935 264.121H56.7425V276H53.0138V257.818ZM75.8898 276V257.818H88.1412V260.988H79.7339V265.32H87.5109V268.489H79.7339V272.831H88.1768V276H75.8898ZM106.405 257.818V276H103.085L95.1747 264.556H95.0415V276H91.1974V257.818H94.571L102.419 269.253H102.579V257.818H106.405Z" fill="white"/>
</svg>
