<svg width="653" height="362" viewBox="0 0 653 362" fill="none" xmlns="http://www.w3.org/2000/svg">
<path d="M209.987 22H380.281V65.5982H209.987V22ZM199 141.543H390V185.845H199V141.543ZM279.288 36.4155H307.811V330H279.288V36.4155Z" fill="white"/>
<path d="M0 85.2712H173V130.763H0V85.2712ZM67.8357 1L92.6583 9.57627C77.6889 90.1186 56.8456 190.051 41.4973 254.559L18.3801 238.153C33.5389 177.373 54.3823 77.4407 67.8357 1ZM120.892 107.644L145.904 118.83C130.745 273.949 95.69 328.017 13.6429 351.881C11.3691 338.085 6.25301 319.068 1.70537 307.508C77.6889 290.356 108.386 245.237 120.892 107.644ZM30.8861 230.695L46.2344 195.644C86.5947 222.119 141.924 270.966 169.779 310.864L152.346 353C126.955 312.729 73.1413 260.525 30.8861 230.695Z" fill="#FF0000"/>
<path d="M8.2642 4.45455H12.0568L16.0625 14.2273H16.233L20.2386 4.45455H24.0312V19H21.0483V9.53267H20.9276L17.1634 18.929H15.1321L11.3679 9.49716H11.2472V19H8.2642V4.45455ZM29.6403 4.45455V19H26.565V4.45455H29.6403ZM40.0611 8.63778C40.0043 8.06487 39.7604 7.61979 39.3295 7.30256C38.8987 6.98532 38.3139 6.8267 37.5753 6.8267C37.0734 6.8267 36.6496 6.89773 36.304 7.03977C35.9583 7.17708 35.6932 7.36884 35.5085 7.61506C35.3286 7.86127 35.2386 8.14062 35.2386 8.45312C35.2292 8.71354 35.2836 8.94081 35.402 9.13494C35.5251 9.32907 35.6932 9.49716 35.9062 9.6392C36.1193 9.77651 36.3655 9.89725 36.6449 10.0014C36.9242 10.1009 37.2225 10.1861 37.5398 10.2571L38.8466 10.5696C39.4811 10.7116 40.0634 10.901 40.5938 11.1378C41.1241 11.3745 41.5833 11.6657 41.9716 12.0114C42.3598 12.357 42.6605 12.7642 42.8736 13.233C43.0914 13.7017 43.2027 14.2391 43.2074 14.8452C43.2027 15.7353 42.9754 16.5071 42.5256 17.1605C42.0805 17.8092 41.4366 18.3134 40.5938 18.6733C39.7557 19.0284 38.7448 19.206 37.5611 19.206C36.3868 19.206 35.3641 19.026 34.4929 18.6662C33.6264 18.3063 32.9493 17.7737 32.4616 17.0682C31.9787 16.358 31.7254 15.4796 31.7017 14.4332H34.6776C34.7107 14.9209 34.8504 15.3281 35.0966 15.6548C35.3475 15.9768 35.6813 16.2206 36.098 16.3864C36.5194 16.5473 36.9953 16.6278 37.5256 16.6278C38.0464 16.6278 38.4986 16.5521 38.8821 16.4006C39.2704 16.2491 39.571 16.0384 39.7841 15.7685C39.9972 15.4986 40.1037 15.1884 40.1037 14.8381C40.1037 14.5114 40.0066 14.2367 39.8125 14.0142C39.6231 13.7917 39.3438 13.6023 38.9744 13.446C38.6098 13.2898 38.1624 13.1477 37.6321 13.0199L36.0483 12.6222C34.822 12.3239 33.8537 11.8575 33.1435 11.223C32.4332 10.5885 32.0805 9.7339 32.0852 8.65909C32.0805 7.77841 32.3149 7.009 32.7884 6.35085C33.2666 5.69271 33.9223 5.17898 34.7557 4.80966C35.589 4.44034 36.536 4.25568 37.5966 4.25568C38.6761 4.25568 39.6184 4.44034 40.4233 4.80966C41.233 5.17898 41.8627 5.69271 42.3125 6.35085C42.7623 7.009 42.9943 7.77131 43.0085 8.63778H40.0611ZM58.6424 11.7273C58.6424 13.3134 58.3417 14.6629 57.7404 15.7756C57.1438 16.8883 56.3294 17.7382 55.2972 18.3253C54.2698 18.9077 53.1145 19.1989 51.8313 19.1989C50.5387 19.1989 49.3787 18.9053 48.3512 18.3182C47.3237 17.7311 46.5117 16.8812 45.9151 15.7685C45.3185 14.6558 45.0202 13.3087 45.0202 11.7273C45.0202 10.1411 45.3185 8.79167 45.9151 7.67898C46.5117 6.56629 47.3237 5.71875 48.3512 5.13636C49.3787 4.54924 50.5387 4.25568 51.8313 4.25568C53.1145 4.25568 54.2698 4.54924 55.2972 5.13636C56.3294 5.71875 57.1438 6.56629 57.7404 7.67898C58.3417 8.79167 58.6424 10.1411 58.6424 11.7273ZM55.5245 11.7273C55.5245 10.6998 55.3706 9.83333 55.0629 9.12784C54.7598 8.42235 54.3313 7.88731 53.7773 7.52273C53.2234 7.15814 52.5747 6.97585 51.8313 6.97585C51.0879 6.97585 50.4393 7.15814 49.8853 7.52273C49.3313 7.88731 48.9004 8.42235 48.5927 9.12784C48.2897 9.83333 48.1381 10.6998 48.1381 11.7273C48.1381 12.7547 48.2897 13.6212 48.5927 14.3267C48.9004 15.0322 49.3313 15.5672 49.8853 15.9318C50.4393 16.2964 51.0879 16.4787 51.8313 16.4787C52.5747 16.4787 53.2234 16.2964 53.7773 15.9318C54.3313 15.5672 54.7598 15.0322 55.0629 14.3267C55.3706 13.6212 55.5245 12.7547 55.5245 11.7273ZM70.5653 9.15625C70.4659 8.81061 70.3262 8.50521 70.1463 8.24006C69.9664 7.97017 69.7462 7.7429 69.4858 7.55824C69.2301 7.36884 68.9366 7.22443 68.6051 7.125C68.2784 7.02557 67.9162 6.97585 67.5185 6.97585C66.7751 6.97585 66.1217 7.16051 65.5582 7.52983C64.9995 7.89915 64.5639 8.43655 64.2514 9.14205C63.9389 9.8428 63.7827 10.6998 63.7827 11.7131C63.7827 12.7263 63.9366 13.5881 64.2443 14.2983C64.5521 15.0085 64.9877 15.5507 65.5511 15.9247C66.1146 16.294 66.7798 16.4787 67.5469 16.4787C68.2429 16.4787 68.8371 16.3556 69.3295 16.1094C69.8267 15.8584 70.2055 15.5057 70.4659 15.0511C70.7311 14.5966 70.8636 14.0592 70.8636 13.4389L71.4886 13.5312H67.7386V11.2159H73.8253V13.0483C73.8253 14.3267 73.5554 15.4252 73.0156 16.3438C72.4759 17.2576 71.7325 17.9631 70.7855 18.4602C69.8385 18.9527 68.7543 19.1989 67.5327 19.1989C66.169 19.1989 64.9711 18.8982 63.9389 18.2969C62.9067 17.6908 62.1018 16.8314 61.5241 15.7188C60.9512 14.6013 60.6648 13.2756 60.6648 11.7415C60.6648 10.5625 60.8352 9.51136 61.1761 8.58807C61.5218 7.66004 62.0047 6.87405 62.625 6.23011C63.2453 5.58617 63.9673 5.09612 64.7912 4.75994C65.6151 4.42377 66.5076 4.25568 67.4688 4.25568C68.2926 4.25568 69.0597 4.37642 69.7699 4.6179C70.4801 4.85464 71.1098 5.19081 71.6591 5.62642C72.2131 6.06203 72.6652 6.58049 73.0156 7.18182C73.366 7.77841 73.5909 8.43655 73.6903 9.15625H70.5653ZM74.6971 4.45455H78.1417L81.4585 10.7188H81.6005L84.9173 4.45455H88.3619L83.0565 13.858V19H80.0025V13.858L74.6971 4.45455ZM102.208 4.45455V19H99.5515L93.2234 9.84517H93.1168V19H90.0415V4.45455H92.7404L99.0188 13.6023H99.1467V4.45455H102.208ZM103.896 4.45455H107.341L110.658 10.7188H110.8L114.116 4.45455H117.561L112.256 13.858V19H109.202V13.858L103.896 4.45455ZM126.945 4.45455V19H123.87V4.45455H126.945ZM141.641 4.45455V19H138.985L132.657 9.84517H132.55V19H129.475V4.45455H132.174L138.452 13.6023H138.58V4.45455H141.641ZM21.098 33.5469H17.9872C17.9304 33.1444 17.8144 32.7869 17.6392 32.4744C17.464 32.1572 17.2391 31.8873 16.9645 31.6648C16.6899 31.4422 16.3726 31.2718 16.0128 31.1534C15.6577 31.035 15.2718 30.9759 14.8551 30.9759C14.1023 30.9759 13.4465 31.1629 12.8878 31.5369C12.3291 31.9062 11.8958 32.446 11.5881 33.1562C11.2803 33.8617 11.1264 34.7187 11.1264 35.7273C11.1264 36.7642 11.2803 37.6354 11.5881 38.3409C11.9006 39.0464 12.3362 39.5791 12.8949 39.9389C13.4536 40.2988 14.0999 40.4787 14.8338 40.4787C15.2457 40.4787 15.6269 40.4242 15.9773 40.3153C16.3324 40.2064 16.6473 40.0478 16.9219 39.8395C17.1965 39.6264 17.4238 39.3684 17.6037 39.0653C17.7884 38.7623 17.9162 38.4167 17.9872 38.0284L21.098 38.0426C21.0175 38.7102 20.8163 39.3542 20.4943 39.9744C20.1771 40.59 19.7486 41.1416 19.2088 41.6293C18.6738 42.1122 18.0346 42.4957 17.2912 42.7798C16.5526 43.0592 15.7169 43.1989 14.7841 43.1989C13.4867 43.1989 12.3267 42.9053 11.304 42.3182C10.286 41.7311 9.48106 40.8812 8.8892 39.7685C8.30208 38.6558 8.00852 37.3087 8.00852 35.7273C8.00852 34.1411 8.30682 32.7917 8.90341 31.679C9.5 30.5663 10.3097 29.7187 11.3324 29.1364C12.3551 28.5492 13.5057 28.2557 14.7841 28.2557C15.6269 28.2557 16.4081 28.3741 17.1278 28.6108C17.8523 28.8475 18.4938 29.1932 19.0526 29.6477C19.6113 30.0975 20.0658 30.6491 20.4162 31.3026C20.7713 31.956 20.9986 32.7041 21.098 33.5469ZM23.3033 43V28.4545H26.3786V34.456H32.6214V28.4545H35.6896V43H32.6214V36.9915H26.3786V43H23.3033ZM41.3004 28.4545V43H38.2251V28.4545H41.3004ZM55.9968 28.4545V43H53.3406L47.0124 33.8452H46.9059V43H43.8306V28.4545H46.5295L52.8079 37.6023H52.9357V28.4545H55.9968ZM58.5376 43V28.4545H68.3388V30.9901H61.6129V34.456H67.8345V36.9915H61.6129V40.4645H68.3672V43H58.5376ZM78.6744 32.6378C78.6175 32.0649 78.3737 31.6198 77.9428 31.3026C77.512 30.9853 76.9272 30.8267 76.1886 30.8267C75.6867 30.8267 75.2629 30.8977 74.9173 31.0398C74.5716 31.1771 74.3065 31.3688 74.1218 31.6151C73.9419 31.8613 73.8519 32.1406 73.8519 32.4531C73.8424 32.7135 73.8969 32.9408 74.0153 33.1349C74.1384 33.3291 74.3065 33.4972 74.5195 33.6392C74.7326 33.7765 74.9788 33.8973 75.2582 34.0014C75.5375 34.1009 75.8358 34.1861 76.1531 34.2571L77.4599 34.5696C78.0943 34.7116 78.6767 34.901 79.207 35.1378C79.7373 35.3745 80.1966 35.6657 80.5849 36.0114C80.9731 36.357 81.2738 36.7642 81.4869 37.233C81.7047 37.7017 81.8159 38.2391 81.8207 38.8452C81.8159 39.7353 81.5887 40.5071 81.1388 41.1605C80.6938 41.8092 80.0498 42.3134 79.207 42.6733C78.369 43.0284 77.3581 43.206 76.1744 43.206C75.0001 43.206 73.9774 43.026 73.1062 42.6662C72.2397 42.3063 71.5626 41.7737 71.0749 41.0682C70.592 40.358 70.3387 39.4796 70.315 38.4332H73.2908C73.324 38.9209 73.4637 39.3281 73.7099 39.6548C73.9608 39.9768 74.2946 40.2206 74.7113 40.3864C75.1327 40.5473 75.6085 40.6278 76.1388 40.6278C76.6597 40.6278 77.1119 40.5521 77.4954 40.4006C77.8836 40.2491 78.1843 40.0384 78.3974 39.7685C78.6104 39.4986 78.717 39.1884 78.717 38.8381C78.717 38.5114 78.6199 38.2367 78.4258 38.0142C78.2364 37.7917 77.957 37.6023 77.5877 37.446C77.2231 37.2898 76.7757 37.1477 76.2454 37.0199L74.6616 36.6222C73.4353 36.3239 72.467 35.8575 71.7567 35.223C71.0465 34.5885 70.6938 33.7339 70.6985 32.6591C70.6938 31.7784 70.9281 31.009 71.4016 30.3509C71.8799 29.6927 72.5356 29.179 73.369 28.8097C74.2023 28.4403 75.1493 28.2557 76.2099 28.2557C77.2894 28.2557 78.2317 28.4403 79.0366 28.8097C79.8462 29.179 80.476 29.6927 80.9258 30.3509C81.3756 31.009 81.6076 31.7713 81.6218 32.6378H78.6744ZM83.8892 43V28.4545H93.6903V30.9901H86.9645V34.456H93.1861V36.9915H86.9645V40.4645H93.7188V43H83.8892ZM21.098 57.5469H17.9872C17.9304 57.1444 17.8144 56.7869 17.6392 56.4744C17.464 56.1572 17.2391 55.8873 16.9645 55.6648C16.6899 55.4422 16.3726 55.2718 16.0128 55.1534C15.6577 55.035 15.2718 54.9759 14.8551 54.9759C14.1023 54.9759 13.4465 55.1629 12.8878 55.5369C12.3291 55.9062 11.8958 56.446 11.5881 57.1562C11.2803 57.8617 11.1264 58.7187 11.1264 59.7273C11.1264 60.7642 11.2803 61.6354 11.5881 62.3409C11.9006 63.0464 12.3362 63.5791 12.8949 63.9389C13.4536 64.2988 14.0999 64.4787 14.8338 64.4787C15.2457 64.4787 15.6269 64.4242 15.9773 64.3153C16.3324 64.2064 16.6473 64.0478 16.9219 63.8395C17.1965 63.6264 17.4238 63.3684 17.6037 63.0653C17.7884 62.7623 17.9162 62.4167 17.9872 62.0284L21.098 62.0426C21.0175 62.7102 20.8163 63.3542 20.4943 63.9744C20.1771 64.59 19.7486 65.1416 19.2088 65.6293C18.6738 66.1122 18.0346 66.4957 17.2912 66.7798C16.5526 67.0592 15.7169 67.1989 14.7841 67.1989C13.4867 67.1989 12.3267 66.9053 11.304 66.3182C10.286 65.7311 9.48106 64.8812 8.8892 63.7685C8.30208 62.6558 8.00852 61.3087 8.00852 59.7273C8.00852 58.1411 8.30682 56.7917 8.90341 55.679C9.5 54.5663 10.3097 53.7187 11.3324 53.1364C12.3551 52.5492 13.5057 52.2557 14.7841 52.2557C15.6269 52.2557 16.4081 52.3741 17.1278 52.6108C17.8523 52.8475 18.4938 53.1932 19.0526 53.6477C19.6113 54.0975 20.0658 54.6491 20.4162 55.3026C20.7713 55.956 20.9986 56.7041 21.098 57.5469ZM23.3033 67V52.4545H26.3786V58.456H32.6214V52.4545H35.6896V67H32.6214V60.9915H26.3786V67H23.3033ZM40.7322 67H37.4368L42.4581 52.4545H46.4212L51.4354 67H48.1399L44.4964 55.7784H44.3828L40.7322 67ZM40.5263 61.2827H48.3104V63.6832H40.5263V61.2827ZM53.1861 67V52.4545H58.9247C60.0232 52.4545 60.9607 52.651 61.7372 53.044C62.5185 53.4323 63.1127 53.9839 63.5199 54.6989C63.9318 55.4091 64.1378 56.2448 64.1378 57.206C64.1378 58.1719 63.9295 59.0028 63.5128 59.6989C63.0961 60.3902 62.4924 60.9205 61.7017 61.2898C60.9157 61.6591 59.964 61.8438 58.8466 61.8438H55.0043V59.3722H58.3494C58.9366 59.3722 59.4242 59.2917 59.8125 59.1307C60.2008 58.9697 60.4896 58.7282 60.679 58.4062C60.8731 58.0843 60.9702 57.6842 60.9702 57.206C60.9702 56.723 60.8731 56.3158 60.679 55.9844C60.4896 55.6529 60.1984 55.402 59.8054 55.2315C59.4171 55.0563 58.9271 54.9688 58.3352 54.9688H56.2614V67H53.1861ZM61.0412 60.3807L64.6562 67H61.2614L57.7244 60.3807H61.0412ZM68.8182 67H65.5227L70.544 52.4545H74.5071L79.5213 67H76.2259L72.5824 55.7784H72.4688L68.8182 67ZM68.6122 61.2827H76.3963V63.6832H68.6122V61.2827ZM93.4222 57.5469H90.3114C90.2546 57.1444 90.1386 56.7869 89.9634 56.4744C89.7882 56.1572 89.5633 55.8873 89.2887 55.6648C89.0141 55.4422 88.6969 55.2718 88.337 55.1534C87.9819 55.035 87.596 54.9759 87.1793 54.9759C86.4265 54.9759 85.7707 55.1629 85.212 55.5369C84.6533 55.9062 84.2201 56.446 83.9123 57.1562C83.6045 57.8617 83.4506 58.7187 83.4506 59.7273C83.4506 60.7642 83.6045 61.6354 83.9123 62.3409C84.2248 63.0464 84.6604 63.5791 85.2191 63.9389C85.7778 64.2988 86.4241 64.4787 87.158 64.4787C87.57 64.4787 87.9511 64.4242 88.3015 64.3153C88.6566 64.2064 88.9715 64.0478 89.2461 63.8395C89.5207 63.6264 89.748 63.3684 89.9279 63.0653C90.1126 62.7623 90.2404 62.4167 90.3114 62.0284L93.4222 62.0426C93.3417 62.7102 93.1405 63.3542 92.8185 63.9744C92.5013 64.59 92.0728 65.1416 91.533 65.6293C90.998 66.1122 90.3588 66.4957 89.6154 66.7798C88.8768 67.0592 88.0411 67.1989 87.1083 67.1989C85.811 67.1989 84.6509 66.9053 83.6282 66.3182C82.6102 65.7311 81.8053 64.8812 81.2134 63.7685C80.6263 62.6558 80.3327 61.3087 80.3327 59.7273C80.3327 58.1411 80.631 56.7917 81.2276 55.679C81.8242 54.5663 82.6339 53.7187 83.6566 53.1364C84.6793 52.5492 85.8299 52.2557 87.1083 52.2557C87.9511 52.2557 88.7324 52.3741 89.4521 52.6108C90.1765 52.8475 90.8181 53.1932 91.3768 53.6477C91.9355 54.0975 92.39 54.6491 92.7404 55.3026C93.0955 55.956 93.3228 56.7041 93.4222 57.5469ZM95.0735 54.9901V52.4545H107.02V54.9901H102.566V67H99.5266V54.9901H95.0735ZM108.987 67V52.4545H118.788V54.9901H112.062V58.456H118.284V60.9915H112.062V64.4645H118.816V67H108.987ZM121.233 67V52.4545H126.972C128.07 52.4545 129.008 52.651 129.784 53.044C130.565 53.4323 131.16 53.9839 131.567 54.6989C131.979 55.4091 132.185 56.2448 132.185 57.206C132.185 58.1719 131.976 59.0028 131.56 59.6989C131.143 60.3902 130.539 60.9205 129.749 61.2898C128.963 61.6591 128.011 61.8438 126.893 61.8438H123.051V59.3722H126.396C126.983 59.3722 127.471 59.2917 127.859 59.1307C128.248 58.9697 128.536 58.7282 128.726 58.4062C128.92 58.0843 129.017 57.6842 129.017 57.206C129.017 56.723 128.92 56.3158 128.726 55.9844C128.536 55.6529 128.245 55.402 127.852 55.2315C127.464 55.0563 126.974 54.9688 126.382 54.9688H124.308V67H121.233ZM129.088 60.3807L132.703 67H129.308L125.771 60.3807H129.088ZM142.249 56.6378C142.192 56.0649 141.948 55.6198 141.517 55.3026C141.086 54.9853 140.501 54.8267 139.763 54.8267C139.261 54.8267 138.837 54.8977 138.491 55.0398C138.146 55.1771 137.881 55.3688 137.696 55.6151C137.516 55.8613 137.426 56.1406 137.426 56.4531C137.417 56.7135 137.471 56.9408 137.589 57.1349C137.713 57.3291 137.881 57.4972 138.094 57.6392C138.307 57.7765 138.553 57.8973 138.832 58.0014C139.112 58.1009 139.41 58.1861 139.727 58.2571L141.034 58.5696C141.669 58.7116 142.251 58.901 142.781 59.1378C143.312 59.3745 143.771 59.6657 144.159 60.0114C144.547 60.357 144.848 60.7642 145.061 61.233C145.279 61.7017 145.39 62.2391 145.395 62.8452C145.39 63.7353 145.163 64.5071 144.713 65.1605C144.268 65.8092 143.624 66.3134 142.781 66.6733C141.943 67.0284 140.932 67.206 139.749 67.206C138.574 67.206 137.552 67.026 136.68 66.6662C135.814 66.3063 135.137 65.7737 134.649 65.0682C134.166 64.358 133.913 63.4796 133.889 62.4332H136.865C136.898 62.9209 137.038 63.3281 137.284 63.6548C137.535 63.9768 137.869 64.2206 138.286 64.3864C138.707 64.5473 139.183 64.6278 139.713 64.6278C140.234 64.6278 140.686 64.5521 141.07 64.4006C141.458 64.2491 141.759 64.0384 141.972 63.7685C142.185 63.4986 142.291 63.1884 142.291 62.8381C142.291 62.5114 142.194 62.2367 142 62.0142C141.811 61.7917 141.531 61.6023 141.162 61.446C140.797 61.2898 140.35 61.1477 139.82 61.0199L138.236 60.6222C137.009 60.3239 136.041 59.8575 135.331 59.223C134.621 58.5885 134.268 57.7339 134.273 56.6591C134.268 55.7784 134.502 55.009 134.976 54.3509C135.454 53.6927 136.11 53.179 136.943 52.8097C137.777 52.4403 138.723 52.2557 139.784 52.2557C140.864 52.2557 141.806 52.4403 142.611 52.8097C143.42 53.179 144.05 53.6927 144.5 54.3509C144.95 55.009 145.182 55.7713 145.196 56.6378H142.249Z" fill="white"/>
<path fill-rule="evenodd" clip-rule="evenodd" d="M395.945 8.33333H192.055V341.667H395.945V8.33333ZM173 0V350H415V0H173Z" fill="#FF0000"/>
<path d="M335.42 43H330.264V28.4545H335.463C336.926 28.4545 338.186 28.7457 339.241 29.3281C340.297 29.9058 341.109 30.7367 341.678 31.821C342.25 32.9053 342.537 34.2027 342.537 35.7131C342.537 37.2282 342.25 38.5303 341.678 39.6193C341.109 40.7083 340.293 41.544 339.227 42.1264C338.167 42.7088 336.898 43 335.42 43ZM333.339 40.3651H335.293C336.202 40.3651 336.966 40.2041 337.587 39.8821C338.212 39.5554 338.68 39.0511 338.993 38.3693C339.31 37.6828 339.469 36.7973 339.469 35.7131C339.469 34.6383 339.31 33.7599 338.993 33.0781C338.68 32.3963 338.214 31.8944 337.594 31.5724C336.973 31.2505 336.209 31.0895 335.3 31.0895H333.339V40.3651ZM344.815 43V28.4545H350.554C351.652 28.4545 352.59 28.651 353.366 29.044C354.147 29.4323 354.742 29.9839 355.149 30.6989C355.561 31.4091 355.767 32.2448 355.767 33.206C355.767 34.1719 355.558 35.0028 355.142 35.6989C354.725 36.3902 354.121 36.9205 353.331 37.2898C352.545 37.6591 351.593 37.8438 350.475 37.8438H346.633V35.3722H349.978C350.565 35.3722 351.053 35.2917 351.441 35.1307C351.83 34.9697 352.118 34.7282 352.308 34.4062C352.502 34.0843 352.599 33.6842 352.599 33.206C352.599 32.723 352.502 32.3158 352.308 31.9844C352.118 31.6529 351.827 31.402 351.434 31.2315C351.046 31.0563 350.556 30.9688 349.964 30.9688H347.89V43H344.815ZM352.67 36.3807L356.285 43H352.89L349.353 36.3807H352.67ZM356.482 28.4545H359.927L363.244 34.7188H363.386L366.702 28.4545H370.147L364.842 37.858V43H361.788V37.858L356.482 28.4545Z" fill="black"/>
<path d="M26.37 154.19L26.565 153.995H45.87C58.87 153.995 65.4783 154.125 65.695 154.385C65.7817 154.602 65.4133 157.202 64.59 162.185C63.7233 167.298 63.2683 169.877 63.225 169.92C63.0517 170.137 62.5317 170.245 61.665 170.245C60.755 170.245 60.2567 170.115 60.17 169.855C60.0833 169.682 60.105 169.14 60.235 168.23C60.885 164.287 61.015 161.643 60.625 160.3C60.235 159 58.87 158.155 56.53 157.765C56.14 157.722 54.8833 157.7 52.76 157.7C50.29 157.657 48.9467 157.765 48.73 158.025C48.6433 158.112 47.1267 164.113 44.18 176.03L39.695 193.905L39.89 194.035C40.4533 194.252 42.5983 194.36 46.325 194.36H48.34L48.6 194.555C48.73 194.728 48.795 194.88 48.795 195.01L48.21 197.61C48.08 197.87 47.6467 197.978 46.91 197.935C46.65 197.935 46.0217 197.935 45.025 197.935C35.9683 197.762 28.905 197.783 23.835 198H22.86L22.665 197.805C22.4483 197.588 22.4267 197.09 22.6 196.31C22.6 196.223 22.6217 196.137 22.665 196.05C22.8817 195.097 23.0767 194.577 23.25 194.49C23.38 194.403 24.1383 194.36 25.525 194.36C28.4283 194.36 30.3133 194.295 31.18 194.165C31.8733 194.122 32.35 193.97 32.61 193.71C32.6967 193.58 34.2133 187.578 37.16 175.705C40.15 163.788 41.645 157.808 41.645 157.765C41.4717 157.678 40.1283 157.635 37.615 157.635C35.6217 157.678 34.4083 157.743 33.975 157.83C31.4617 158.22 29.62 159.13 28.45 160.56C27.3233 161.947 26.11 164.568 24.81 168.425C24.4633 169.378 24.29 169.877 24.29 169.92C24.1167 170.137 23.5967 170.245 22.73 170.245C21.8633 170.245 21.3433 170.093 21.17 169.79L21.105 169.595L23.575 161.99C25.3083 156.92 26.24 154.32 26.37 154.19ZM70.894 153.67C70.9807 153.627 74.794 153.605 82.334 153.605C90.2207 153.648 94.5323 153.735 95.269 153.865C95.3557 153.908 95.5507 153.952 95.854 153.995C99.8407 154.732 102.722 156.443 104.499 159.13C105.496 160.603 105.972 162.207 105.929 163.94C105.886 165.153 105.561 166.388 104.954 167.645C104.347 168.858 103.502 169.985 102.419 171.025C100.296 173.148 97.3707 174.86 93.644 176.16C93.6007 176.16 93.6657 176.225 93.839 176.355C93.9257 176.442 94.0123 176.507 94.099 176.55C95.6157 177.59 96.6773 178.977 97.284 180.71C97.674 181.923 97.7823 183.613 97.609 185.78C97.5657 186.257 97.5007 186.863 97.414 187.6C97.1973 189.853 97.089 191.5 97.089 192.54C97.1323 194.143 97.4357 195.227 97.999 195.79C98.389 196.137 98.974 196.31 99.754 196.31C100.231 196.31 100.577 196.267 100.794 196.18C101.314 195.963 101.834 195.552 102.354 194.945C102.917 194.122 103.351 193.277 103.654 192.41C103.871 191.717 104.131 191.327 104.434 191.24C104.607 191.197 104.932 191.175 105.409 191.175C106.232 191.175 106.731 191.283 106.904 191.5C107.207 191.847 106.991 192.757 106.254 194.23C104.954 196.96 103.177 198.628 100.924 199.235C100.577 199.322 99.9273 199.365 98.974 199.365C97.8473 199.365 97.1107 199.343 96.764 199.3C92.5607 198.737 90.0257 197.003 89.159 194.1C88.899 193.233 88.8557 192.258 89.029 191.175C89.2457 190.092 89.549 188.77 89.939 187.21C90.3723 185.477 90.6757 184.177 90.849 183.31C91.0657 182.14 90.8923 180.992 90.329 179.865C90.1123 179.475 89.8307 179.107 89.484 178.76C88.7473 178.067 87.8373 177.612 86.754 177.395C86.5807 177.352 85.1073 177.33 82.334 177.33H78.304L78.239 177.59C78.239 177.547 77.5457 180.298 76.159 185.845C74.8157 191.262 74.1657 193.992 74.209 194.035C74.2957 194.122 74.4473 194.165 74.664 194.165C75.184 194.295 76.484 194.36 78.564 194.36C79.6473 194.36 80.2757 194.512 80.449 194.815C80.4923 194.988 80.4273 195.487 80.254 196.31C80.0373 197.133 79.8423 197.632 79.669 197.805L79.474 198H78.499C73.7757 197.783 68.359 197.762 62.249 197.935C60.819 197.978 60.0173 197.848 59.844 197.545C59.8007 197.415 59.8657 196.917 60.039 196.05C60.299 195.183 60.4723 194.685 60.559 194.555L60.819 194.36H63.029C65.4557 194.317 66.8207 194.143 67.124 193.84C67.254 193.753 68.814 187.73 71.804 175.77C74.794 163.81 76.289 157.787 76.289 157.7C76.289 157.657 76.2457 157.592 76.159 157.505C75.9857 157.418 74.8157 157.332 72.649 157.245H70.439L70.179 156.985C70.049 156.855 69.984 156.725 69.984 156.595L70.699 153.93C70.699 153.887 70.764 153.8 70.894 153.67ZM92.929 157.375C92.669 157.332 91.1523 157.288 88.379 157.245L84.089 157.31C83.6557 157.353 83.374 157.483 83.244 157.7L79.084 174.275H83.439C86.6023 174.232 88.3357 174.188 88.639 174.145C92.5823 173.582 95.204 171.978 96.504 169.335C97.1973 167.905 97.7607 166.042 98.194 163.745C98.3673 162.618 98.3673 161.665 98.194 160.885C97.674 158.978 95.919 157.808 92.929 157.375ZM119.955 153.93L120.15 153.8H138.35H156.485L156.745 153.995C156.875 154.168 156.94 154.342 156.94 154.515L155.055 169.335C155.055 169.552 154.969 169.725 154.795 169.855L154.6 170.05H153.495C152.715 170.05 152.26 170.007 152.13 169.92C151.914 169.79 151.849 169.27 151.935 168.36C151.935 168.273 151.935 168.165 151.935 168.035C152.152 166.258 152.26 164.785 152.26 163.615C152.13 161.015 151.264 159.303 149.66 158.48C148.88 158.133 148.079 157.895 147.255 157.765C146.042 157.548 143.355 157.462 139.195 157.505C135.035 157.505 132.847 157.635 132.63 157.895L128.73 173.235H132.175C135.035 173.192 136.877 173.018 137.7 172.715C138.654 172.412 139.434 171.87 140.04 171.09C140.647 170.31 141.21 168.902 141.73 166.865C141.904 166.302 142.055 165.955 142.185 165.825L142.38 165.63H143.485C144.395 165.63 144.937 165.782 145.11 166.085C145.154 166.258 144.46 169.27 143.03 175.12C141.514 181.057 140.734 184.047 140.69 184.09C140.604 184.35 140.084 184.48 139.13 184.48H138.025L137.765 184.285C137.592 184.068 137.592 183.57 137.765 182.79C138.285 180.58 138.35 179.063 137.96 178.24C137.657 177.59 136.79 177.178 135.36 177.005C135.1 176.962 133.757 176.94 131.33 176.94L127.82 176.875L125.675 185.39C124.245 191.153 123.53 194.057 123.53 194.1C123.53 194.143 123.574 194.208 123.66 194.295H135.425C137.982 194.165 140.17 193.688 141.99 192.865C143.074 192.302 144.049 191.63 144.915 190.85C146.605 189.16 148.404 186.018 150.31 181.425C150.657 180.515 150.917 179.973 151.09 179.8L151.285 179.605H152.455H153.625L153.82 179.8C153.994 179.973 153.994 180.32 153.82 180.84C153.604 181.49 152.52 184.22 150.57 189.03C148.187 194.75 146.995 197.632 146.995 197.675C146.909 197.848 146.28 197.935 145.11 197.935C143.724 197.978 138.025 198 128.015 198C115.579 198 109.274 197.87 109.1 197.61C109.014 197.48 109.057 196.982 109.23 196.115C109.447 195.162 109.664 194.62 109.88 194.49C110.097 194.403 110.877 194.36 112.22 194.36C114.647 194.317 116.012 194.143 116.315 193.84C116.445 193.753 118.005 187.73 120.995 175.77C123.985 163.81 125.437 157.808 125.35 157.765C125.264 157.678 125.112 157.635 124.895 157.635C124.159 157.505 122.902 157.44 121.125 157.44C119.999 157.44 119.37 157.31 119.24 157.05C119.154 156.92 119.197 156.422 119.37 155.555C119.587 154.645 119.782 154.103 119.955 153.93ZM189.654 151.525L191.149 151.46H191.214C192.384 151.46 193.012 151.59 193.099 151.85C193.142 152.023 193.727 159.043 194.854 172.91C195.937 186.863 196.522 193.883 196.609 193.97C196.652 194.013 196.804 194.078 197.064 194.165C197.584 194.295 198.84 194.36 200.834 194.36H202.134L202.394 194.555C202.524 194.772 202.589 194.923 202.589 195.01L202.004 197.61C201.874 197.87 201.397 197.978 200.574 197.935C200.4 197.935 200.075 197.935 199.599 197.935C193.315 197.762 188.18 197.783 184.194 198H183.414L183.219 197.805C183.045 197.632 182.959 197.458 182.959 197.285C182.959 196.592 183.175 195.747 183.609 194.75C183.695 194.49 184.324 194.36 185.494 194.36C186.534 194.273 187.227 194.23 187.574 194.23C188.57 194.057 189.112 193.883 189.199 193.71C189.242 193.667 189.155 192.237 188.939 189.42C188.722 186.907 188.614 185.477 188.614 185.13C188.614 185.043 186.144 185 181.204 185H173.729L171.779 188.445C170.392 190.785 169.677 192.063 169.634 192.28C169.46 192.713 169.525 193.082 169.829 193.385C170.262 193.905 171.194 194.23 172.624 194.36C173.23 194.36 173.62 194.512 173.794 194.815L173.859 195.01L173.534 196.31C173.36 197.133 173.187 197.632 173.014 197.805L172.819 198H172.039C168.442 197.827 165.04 197.783 161.834 197.87C159.624 197.957 158.497 198 158.454 198H157.999L157.804 197.805C157.63 197.632 157.544 197.48 157.544 197.35L158.129 194.75C158.302 194.49 158.8 194.36 159.624 194.36C162.657 194.23 164.759 193.363 165.929 191.76L177.694 171.61C185.234 158.567 189.09 151.958 189.264 151.785C189.307 151.742 189.437 151.655 189.654 151.525ZM187.574 172C187.097 165.803 186.859 162.662 186.859 162.575C186.859 162.402 185.905 163.983 183.999 167.32L178.539 176.745L175.874 181.295L182.049 181.36H188.289C188.289 181.403 188.05 178.283 187.574 172ZM234.959 152.24H237.819C241.372 152.587 244.167 154.125 246.204 156.855C246.42 157.115 246.55 157.267 246.594 157.31C246.55 157.31 247.265 156.617 248.739 155.23C250.602 153.453 251.49 152.608 251.404 152.695L251.924 152.175H252.444C253.007 152.175 253.332 152.305 253.419 152.565C253.462 152.652 252.747 155.728 251.274 161.795C249.714 168.035 248.934 171.09 248.934 170.96C248.847 171.22 248.24 171.35 247.114 171.35H245.749L245.554 171.155C245.38 170.982 245.337 170.592 245.424 169.985C245.424 169.942 245.445 169.725 245.489 169.335C245.922 166.215 245.662 163.442 244.709 161.015C243.669 158.155 241.805 156.465 239.119 155.945C238.339 155.772 237.147 155.75 235.544 155.88C235.414 155.923 235.305 155.945 235.219 155.945C231.362 156.508 227.83 158.025 224.624 160.495C220.29 164.048 217.3 169.617 215.654 177.2C215.09 179.497 214.809 181.707 214.809 183.83C214.809 185.823 215.069 187.492 215.589 188.835C215.762 189.398 216.109 190.07 216.629 190.85C218.535 193.71 221.59 195.335 225.794 195.725C228.264 195.985 230.647 195.53 232.944 194.36C236.627 192.583 239.487 189.658 241.524 185.585C242.044 184.502 242.477 183.397 242.824 182.27C243.04 181.577 243.257 181.208 243.474 181.165C243.604 181.122 243.972 181.1 244.579 181.1C245.575 181.1 246.117 181.23 246.204 181.49C246.247 181.663 246.204 181.967 246.074 182.4C245.337 184.957 244.189 187.318 242.629 189.485C241.415 191.218 240.072 192.692 238.599 193.905C234.915 197.155 230.82 198.975 226.314 199.365C225.014 199.538 223.67 199.495 222.284 199.235C218.037 198.715 214.614 197.047 212.014 194.23C209.5 191.587 207.984 188.293 207.464 184.35C207.204 182.573 207.225 180.558 207.529 178.305C208.309 172.715 210.735 167.558 214.809 162.835C216.325 161.188 217.582 159.975 218.579 159.195C222.912 155.598 227.57 153.367 232.554 152.5C232.77 152.457 233.572 152.37 234.959 152.24ZM263.288 153.67C263.375 153.627 263.765 153.605 264.458 153.605C269.702 153.822 275.162 153.843 280.838 153.67C282.225 153.627 283.005 153.757 283.178 154.06C283.265 154.19 283.2 154.688 282.983 155.555C282.767 156.378 282.615 156.877 282.528 157.05L282.333 157.245H280.058C277.892 157.288 276.635 157.397 276.288 157.57C276.028 157.657 275.855 157.873 275.768 158.22C275.552 158.74 274.902 161.188 273.818 165.565L271.933 173.105H281.033L290.133 173.04L292.083 165.435C293.34 160.408 293.968 157.83 293.968 157.7C293.968 157.657 293.925 157.592 293.838 157.505C293.665 157.418 292.495 157.332 290.328 157.245H288.118L287.858 156.985C287.728 156.855 287.663 156.725 287.663 156.595L288.378 153.93C288.508 153.713 289.072 153.627 290.068 153.67C290.242 153.67 290.588 153.67 291.108 153.67C294.662 153.843 299.168 153.865 304.628 153.735C305.148 153.692 305.582 153.67 305.928 153.67C307.445 153.627 308.29 153.757 308.463 154.06C308.55 154.19 308.485 154.688 308.268 155.555C308.052 156.378 307.9 156.877 307.813 157.05L307.618 157.245H305.343C303.177 157.288 301.92 157.397 301.573 157.57C301.357 157.657 301.227 157.787 301.183 157.96C300.923 158.61 299.385 164.568 296.568 175.835C293.578 187.795 292.062 193.797 292.018 193.84C291.975 194.013 292.17 194.122 292.603 194.165C293.123 194.252 294.142 194.317 295.658 194.36C297.262 194.36 298.15 194.512 298.323 194.815C298.367 194.945 298.302 195.443 298.128 196.31C297.912 197.133 297.717 197.632 297.543 197.805L297.348 198H296.308C291.585 197.783 286.125 197.762 279.928 197.935C278.498 197.978 277.697 197.848 277.523 197.545C277.48 197.415 277.545 196.917 277.718 196.05C277.978 195.183 278.152 194.685 278.238 194.555L278.498 194.36H280.708C283.135 194.317 284.5 194.143 284.803 193.84C284.933 193.753 285.713 190.893 287.143 185.26L289.223 176.81C289.223 176.767 286.19 176.745 280.123 176.745H271.023L268.878 185.325C267.448 191.088 266.755 193.992 266.798 194.035C266.885 194.122 267.037 194.165 267.253 194.165C267.773 194.295 269.073 194.36 271.153 194.36C272.237 194.36 272.865 194.512 273.038 194.815C273.082 194.988 273.017 195.487 272.843 196.31C272.627 197.133 272.432 197.632 272.258 197.805L272.063 198H271.023C266.3 197.783 260.84 197.762 254.643 197.935C253.213 197.978 252.412 197.848 252.238 197.545C252.195 197.415 252.26 196.917 252.433 196.05C252.693 195.183 252.867 194.685 252.953 194.555L253.213 194.36H255.423C257.85 194.317 259.215 194.143 259.518 193.84C259.648 193.753 261.208 187.73 264.198 175.77C267.188 163.81 268.683 157.787 268.683 157.7C268.683 157.657 268.64 157.592 268.553 157.505C268.38 157.418 267.21 157.332 265.043 157.245H262.833L262.573 156.985C262.443 156.855 262.378 156.725 262.378 156.595L263.093 153.93C263.093 153.887 263.158 153.8 263.288 153.67ZM317.177 153.93L317.372 153.8H335.572H353.707L353.967 153.995C354.097 154.168 354.162 154.342 354.162 154.515L352.277 169.335C352.277 169.552 352.19 169.725 352.017 169.855L351.822 170.05H350.717C349.937 170.05 349.482 170.007 349.352 169.92C349.135 169.79 349.07 169.27 349.157 168.36C349.157 168.273 349.157 168.165 349.157 168.035C349.374 166.258 349.482 164.785 349.482 163.615C349.352 161.015 348.485 159.303 346.882 158.48C346.102 158.133 345.3 157.895 344.477 157.765C343.264 157.548 340.577 157.462 336.417 157.505C332.257 157.505 330.069 157.635 329.852 157.895L325.952 173.235H329.397C332.257 173.192 334.099 173.018 334.922 172.715C335.875 172.412 336.655 171.87 337.262 171.09C337.869 170.31 338.432 168.902 338.952 166.865C339.125 166.302 339.277 165.955 339.407 165.825L339.602 165.63H340.707C341.617 165.63 342.159 165.782 342.332 166.085C342.375 166.258 341.682 169.27 340.252 175.12C338.735 181.057 337.955 184.047 337.912 184.09C337.825 184.35 337.305 184.48 336.352 184.48H335.247L334.987 184.285C334.814 184.068 334.814 183.57 334.987 182.79C335.507 180.58 335.572 179.063 335.182 178.24C334.879 177.59 334.012 177.178 332.582 177.005C332.322 176.962 330.979 176.94 328.552 176.94L325.042 176.875L322.897 185.39C321.467 191.153 320.752 194.057 320.752 194.1C320.752 194.143 320.795 194.208 320.882 194.295H332.647C335.204 194.165 337.392 193.688 339.212 192.865C340.295 192.302 341.27 191.63 342.137 190.85C343.827 189.16 345.625 186.018 347.532 181.425C347.879 180.515 348.139 179.973 348.312 179.8L348.507 179.605H349.677H350.847L351.042 179.8C351.215 179.973 351.215 180.32 351.042 180.84C350.825 181.49 349.742 184.22 347.792 189.03C345.409 194.75 344.217 197.632 344.217 197.675C344.13 197.848 343.502 197.935 342.332 197.935C340.945 197.978 335.247 198 325.237 198C312.8 198 306.495 197.87 306.322 197.61C306.235 197.48 306.279 196.982 306.452 196.115C306.669 195.162 306.885 194.62 307.102 194.49C307.319 194.403 308.099 194.36 309.442 194.36C311.869 194.317 313.234 194.143 313.537 193.84C313.667 193.753 315.227 187.73 318.217 175.77C321.207 163.81 322.659 157.808 322.572 157.765C322.485 157.678 322.334 157.635 322.117 157.635C321.38 157.505 320.124 157.44 318.347 157.44C317.22 157.44 316.592 157.31 316.462 157.05C316.375 156.92 316.419 156.422 316.592 155.555C316.809 154.645 317.004 154.103 317.177 153.93ZM365.425 153.67C365.512 153.627 369.325 153.605 376.865 153.605C384.752 153.648 389.064 153.735 389.8 153.865C389.887 153.908 390.082 153.952 390.385 153.995C394.372 154.732 397.254 156.443 399.03 159.13C400.027 160.603 400.504 162.207 400.46 163.94C400.417 165.153 400.092 166.388 399.485 167.645C398.879 168.858 398.034 169.985 396.95 171.025C394.827 173.148 391.902 174.86 388.175 176.16C388.132 176.16 388.197 176.225 388.37 176.355C388.457 176.442 388.544 176.507 388.63 176.55C390.147 177.59 391.209 178.977 391.815 180.71C392.205 181.923 392.314 183.613 392.14 185.78C392.097 186.257 392.032 186.863 391.945 187.6C391.729 189.853 391.62 191.5 391.62 192.54C391.664 194.143 391.967 195.227 392.53 195.79C392.92 196.137 393.505 196.31 394.285 196.31C394.762 196.31 395.109 196.267 395.325 196.18C395.845 195.963 396.365 195.552 396.885 194.945C397.449 194.122 397.882 193.277 398.185 192.41C398.402 191.717 398.662 191.327 398.965 191.24C399.139 191.197 399.464 191.175 399.94 191.175C400.764 191.175 401.262 191.283 401.435 191.5C401.739 191.847 401.522 192.757 400.785 194.23C399.485 196.96 397.709 198.628 395.455 199.235C395.109 199.322 394.459 199.365 393.505 199.365C392.379 199.365 391.642 199.343 391.295 199.3C387.092 198.737 384.557 197.003 383.69 194.1C383.43 193.233 383.387 192.258 383.56 191.175C383.777 190.092 384.08 188.77 384.47 187.21C384.904 185.477 385.207 184.177 385.38 183.31C385.597 182.14 385.424 180.992 384.86 179.865C384.644 179.475 384.362 179.107 384.015 178.76C383.279 178.067 382.369 177.612 381.285 177.395C381.112 177.352 379.639 177.33 376.865 177.33H372.835L372.77 177.59C372.77 177.547 372.077 180.298 370.69 185.845C369.347 191.262 368.697 193.992 368.74 194.035C368.827 194.122 368.979 194.165 369.195 194.165C369.715 194.295 371.015 194.36 373.095 194.36C374.179 194.36 374.807 194.512 374.98 194.815C375.024 194.988 374.959 195.487 374.785 196.31C374.569 197.133 374.374 197.632 374.2 197.805L374.005 198H373.03C368.307 197.783 362.89 197.762 356.78 197.935C355.35 197.978 354.549 197.848 354.375 197.545C354.332 197.415 354.397 196.917 354.57 196.05C354.83 195.183 355.004 194.685 355.09 194.555L355.35 194.36H357.56C359.987 194.317 361.352 194.143 361.655 193.84C361.785 193.753 363.345 187.73 366.335 175.77C369.325 163.81 370.82 157.787 370.82 157.7C370.82 157.657 370.777 157.592 370.69 157.505C370.517 157.418 369.347 157.332 367.18 157.245H364.97L364.71 156.985C364.58 156.855 364.515 156.725 364.515 156.595L365.23 153.93C365.23 153.887 365.295 153.8 365.425 153.67ZM387.46 157.375C387.2 157.332 385.684 157.288 382.91 157.245L378.62 157.31C378.187 157.353 377.905 157.483 377.775 157.7L373.615 174.275H377.97C381.134 174.232 382.867 174.188 383.17 174.145C387.114 173.582 389.735 171.978 391.035 169.335C391.729 167.905 392.292 166.042 392.725 163.745C392.899 162.618 392.899 161.665 392.725 160.885C392.205 158.978 390.45 157.808 387.46 157.375ZM431.647 152.24C432.73 152.153 434.138 152.175 435.872 152.305C439.598 152.825 442.675 154.342 445.102 156.855C447.485 159.238 448.98 162.293 449.587 166.02C450.54 171.653 449.435 177.373 446.272 183.18C445.665 184.263 444.993 185.325 444.257 186.365C441.787 189.918 438.797 192.8 435.287 195.01C432.947 196.527 430.628 197.632 428.332 198.325C422.308 200.188 417.043 199.733 412.537 196.96C411.627 196.397 410.782 195.747 410.002 195.01C407.402 192.453 405.777 189.095 405.127 184.935C404.953 183.548 404.932 181.793 405.062 179.67C405.105 179.497 405.127 179.345 405.127 179.215C405.907 173.278 408.42 167.818 412.667 162.835C413.88 161.448 415.18 160.148 416.567 158.935C421.377 154.948 426.403 152.717 431.647 152.24ZM434.572 155.62C433.488 155.447 432.383 155.403 431.257 155.49C428.44 155.837 425.862 156.92 423.522 158.74C420.098 161.34 417.477 164.958 415.657 169.595C414.313 172.932 413.36 176.68 412.797 180.84C412.623 182.53 412.602 184.35 412.732 186.3C412.775 186.473 412.797 186.603 412.797 186.69C413.447 190.807 415.267 193.623 418.257 195.14C421.16 196.613 424.497 196.44 428.267 194.62C433.12 192.237 436.868 187.752 439.512 181.165C441.028 177.265 442.003 173.365 442.437 169.465C442.61 168.035 442.61 166.518 442.437 164.915C442.437 164.828 442.437 164.742 442.437 164.655C441.96 161.882 441.007 159.78 439.577 158.35C438.19 156.92 436.522 156.01 434.572 155.62ZM456.327 153.67C456.413 153.627 456.803 153.605 457.497 153.605C462.74 153.822 468.2 153.843 473.877 153.67C475.263 153.627 476.043 153.757 476.217 154.06C476.303 154.19 476.238 154.688 476.022 155.555C475.805 156.378 475.653 156.877 475.567 157.05L475.372 157.245H473.097C470.93 157.288 469.673 157.397 469.327 157.57C469.11 157.657 468.958 157.808 468.872 158.025C468.612 158.632 467.463 163.052 465.427 171.285C463.173 180.342 462.025 185 461.982 185.26C461.115 189.68 461.808 192.713 464.062 194.36C464.755 194.923 465.817 195.357 467.247 195.66C468.59 195.833 469.955 195.812 471.342 195.595C475.285 194.945 478.492 192.995 480.962 189.745C482.088 188.228 482.977 186.517 483.627 184.61L489.997 159.195C489.997 158.545 489.65 158.09 488.957 157.83C488.177 157.44 486.942 157.245 485.252 157.245H484.537L484.277 157.05C484.147 156.877 484.082 156.725 484.082 156.595L484.797 153.93C484.927 153.713 485.512 153.627 486.552 153.67C486.682 153.67 486.877 153.67 487.137 153.67C490.083 153.843 493.788 153.865 498.252 153.735C498.685 153.692 499.032 153.67 499.292 153.67C500.592 153.627 501.328 153.757 501.502 154.06C501.588 154.19 501.523 154.688 501.307 155.555C501.09 156.422 500.917 156.92 500.787 157.05L500.592 157.245H499.877C496.713 157.245 494.677 157.938 493.767 159.325C493.55 159.975 492.51 164.113 490.647 171.74C488.48 180.19 487.397 184.437 487.397 184.48C486.01 188.727 483.583 192.237 480.117 195.01C476.217 198.087 472.165 199.56 467.962 199.43C465.578 199.3 463.477 198.78 461.657 197.87C460.487 197.263 459.49 196.548 458.667 195.725C456.89 193.992 455.742 191.933 455.222 189.55C454.875 187.99 454.853 186.3 455.157 184.48C455.157 184.393 456.262 179.843 458.472 170.83C460.638 162.337 461.722 157.96 461.722 157.7C461.722 157.657 461.678 157.592 461.592 157.505C461.418 157.418 460.248 157.332 458.082 157.245H455.872L455.612 156.985C455.482 156.855 455.417 156.725 455.417 156.595L456.132 153.93C456.132 153.887 456.197 153.8 456.327 153.67ZM522.212 152.24L525.592 152.305C526.805 152.522 527.954 152.89 529.037 153.41C530.164 153.93 531.139 154.71 531.962 155.75C532.135 155.923 532.244 156.032 532.287 156.075L534.172 154.19C535.429 152.933 536.079 152.283 536.122 152.24C536.339 152.067 536.772 152.067 537.422 152.24C537.552 152.37 537.639 152.478 537.682 152.565C537.725 152.738 537.119 155.338 535.862 160.365C534.562 165.478 533.869 168.078 533.782 168.165L533.587 168.36H532.417C531.42 168.36 530.879 168.23 530.792 167.97C530.749 167.84 530.77 167.558 530.857 167.125C531.247 164.092 531.009 161.6 530.142 159.65C529.102 157.483 527.282 156.183 524.682 155.75C523.642 155.577 522.494 155.577 521.237 155.75C519.59 156.097 518.052 156.963 516.622 158.35C514.152 160.777 513.155 163.355 513.632 166.085C513.892 167.948 514.889 169.227 516.622 169.92L521.107 171.155C522.797 171.588 524.4 172.022 525.917 172.455C527.044 172.932 528.084 173.647 529.037 174.6C529.73 175.293 530.294 176.095 530.727 177.005C531.94 179.562 532.157 182.4 531.377 185.52C530.38 189.767 528.04 193.32 524.357 196.18C524.054 196.397 523.75 196.613 523.447 196.83C521.93 197.74 520.652 198.368 519.612 198.715C518.009 199.235 516.362 199.473 514.672 199.43C511.985 199.3 509.732 198.78 507.912 197.87C507.045 197.48 506.157 196.852 505.247 195.985L504.662 195.4C504.619 195.4 503.99 196.05 502.777 197.35L500.762 199.365L500.112 199.43H500.047C499.7 199.43 499.462 199.365 499.332 199.235C499.202 199.105 499.137 198.997 499.137 198.91C499.137 198.78 500.394 193.688 502.907 183.635C502.994 183.375 503.535 183.245 504.532 183.245H505.702L505.897 183.44C506.07 183.613 506.092 184.068 505.962 184.805C505.962 184.892 505.94 185 505.897 185.13C505.594 186.733 505.55 188.077 505.767 189.16C506.634 193.363 509.819 195.573 515.322 195.79C516.449 195.79 517.402 195.66 518.182 195.4C520.609 194.62 522.559 192.93 524.032 190.33C524.639 189.333 525.05 188.293 525.267 187.21C525.787 184.61 525.375 182.53 524.032 180.97C523.599 180.537 523.035 180.168 522.342 179.865L517.857 178.63C514.564 177.763 512.549 177.135 511.812 176.745C508.865 175.055 507.327 172.368 507.197 168.685C507.11 167.125 507.349 165.522 507.912 163.875C509.255 159.802 511.877 156.638 515.777 154.385C516.297 154.082 516.839 153.8 517.402 153.54C518.875 152.847 520.24 152.435 521.497 152.305C521.67 152.262 521.909 152.24 522.212 152.24Z" fill="#C40000"/>
<path d="M132.37 209.19L132.565 208.995H151.87C164.87 208.995 171.478 209.125 171.695 209.385C171.782 209.602 171.413 212.202 170.59 217.185C169.723 222.298 169.268 224.877 169.225 224.92C169.052 225.137 168.532 225.245 167.665 225.245C166.755 225.245 166.257 225.115 166.17 224.855C166.083 224.682 166.105 224.14 166.235 223.23C166.885 219.287 167.015 216.643 166.625 215.3C166.235 214 164.87 213.155 162.53 212.765C162.14 212.722 160.883 212.7 158.76 212.7C156.29 212.657 154.947 212.765 154.73 213.025C154.643 213.112 153.127 219.113 150.18 231.03L145.695 248.905L145.89 249.035C146.453 249.252 148.598 249.36 152.325 249.36H154.34L154.6 249.555C154.73 249.728 154.795 249.88 154.795 250.01L154.21 252.61C154.08 252.87 153.647 252.978 152.91 252.935C152.65 252.935 152.022 252.935 151.025 252.935C141.968 252.762 134.905 252.783 129.835 253H128.86L128.665 252.805C128.448 252.588 128.427 252.09 128.6 251.31C128.6 251.223 128.622 251.137 128.665 251.05C128.882 250.097 129.077 249.577 129.25 249.49C129.38 249.403 130.138 249.36 131.525 249.36C134.428 249.36 136.313 249.295 137.18 249.165C137.873 249.122 138.35 248.97 138.61 248.71C138.697 248.58 140.213 242.578 143.16 230.705C146.15 218.788 147.645 212.808 147.645 212.765C147.472 212.678 146.128 212.635 143.615 212.635C141.622 212.678 140.408 212.743 139.975 212.83C137.462 213.22 135.62 214.13 134.45 215.56C133.323 216.947 132.11 219.568 130.81 223.425C130.463 224.378 130.29 224.877 130.29 224.92C130.117 225.137 129.597 225.245 128.73 225.245C127.863 225.245 127.343 225.093 127.17 224.79L127.105 224.595L129.575 216.99C131.308 211.92 132.24 209.32 132.37 209.19ZM176.894 208.67C176.981 208.627 180.794 208.605 188.334 208.605C196.221 208.648 200.532 208.735 201.269 208.865C201.356 208.908 201.551 208.952 201.854 208.995C205.841 209.732 208.722 211.443 210.499 214.13C211.496 215.603 211.972 217.207 211.929 218.94C211.886 220.153 211.561 221.388 210.954 222.645C210.347 223.858 209.502 224.985 208.419 226.025C206.296 228.148 203.371 229.86 199.644 231.16C199.601 231.16 199.666 231.225 199.839 231.355C199.926 231.442 200.012 231.507 200.099 231.55C201.616 232.59 202.677 233.977 203.284 235.71C203.674 236.923 203.782 238.613 203.609 240.78C203.566 241.257 203.501 241.863 203.414 242.6C203.197 244.853 203.089 246.5 203.089 247.54C203.132 249.143 203.436 250.227 203.999 250.79C204.389 251.137 204.974 251.31 205.754 251.31C206.231 251.31 206.577 251.267 206.794 251.18C207.314 250.963 207.834 250.552 208.354 249.945C208.917 249.122 209.351 248.277 209.654 247.41C209.871 246.717 210.131 246.327 210.434 246.24C210.607 246.197 210.932 246.175 211.409 246.175C212.232 246.175 212.731 246.283 212.904 246.5C213.207 246.847 212.991 247.757 212.254 249.23C210.954 251.96 209.177 253.628 206.924 254.235C206.577 254.322 205.927 254.365 204.974 254.365C203.847 254.365 203.111 254.343 202.764 254.3C198.561 253.737 196.026 252.003 195.159 249.1C194.899 248.233 194.856 247.258 195.029 246.175C195.246 245.092 195.549 243.77 195.939 242.21C196.372 240.477 196.676 239.177 196.849 238.31C197.066 237.14 196.892 235.992 196.329 234.865C196.112 234.475 195.831 234.107 195.484 233.76C194.747 233.067 193.837 232.612 192.754 232.395C192.581 232.352 191.107 232.33 188.334 232.33H184.304L184.239 232.59C184.239 232.547 183.546 235.298 182.159 240.845C180.816 246.262 180.166 248.992 180.209 249.035C180.296 249.122 180.447 249.165 180.664 249.165C181.184 249.295 182.484 249.36 184.564 249.36C185.647 249.36 186.276 249.512 186.449 249.815C186.492 249.988 186.427 250.487 186.254 251.31C186.037 252.133 185.842 252.632 185.669 252.805L185.474 253H184.499C179.776 252.783 174.359 252.762 168.249 252.935C166.819 252.978 166.017 252.848 165.844 252.545C165.801 252.415 165.866 251.917 166.039 251.05C166.299 250.183 166.472 249.685 166.559 249.555L166.819 249.36H169.029C171.456 249.317 172.821 249.143 173.124 248.84C173.254 248.753 174.814 242.73 177.804 230.77C180.794 218.81 182.289 212.787 182.289 212.7C182.289 212.657 182.246 212.592 182.159 212.505C181.986 212.418 180.816 212.332 178.649 212.245H176.439L176.179 211.985C176.049 211.855 175.984 211.725 175.984 211.595L176.699 208.93C176.699 208.887 176.764 208.8 176.894 208.67ZM198.929 212.375C198.669 212.332 197.152 212.288 194.379 212.245L190.089 212.31C189.656 212.353 189.374 212.483 189.244 212.7L185.084 229.275H189.439C192.602 229.232 194.336 229.188 194.639 229.145C198.582 228.582 201.204 226.978 202.504 224.335C203.197 222.905 203.761 221.042 204.194 218.745C204.367 217.618 204.367 216.665 204.194 215.885C203.674 213.978 201.919 212.808 198.929 212.375ZM225.955 208.93L226.15 208.8H244.35H262.485L262.745 208.995C262.875 209.168 262.94 209.342 262.94 209.515L261.055 224.335C261.055 224.552 260.969 224.725 260.795 224.855L260.6 225.05H259.495C258.715 225.05 258.26 225.007 258.13 224.92C257.914 224.79 257.849 224.27 257.935 223.36C257.935 223.273 257.935 223.165 257.935 223.035C258.152 221.258 258.26 219.785 258.26 218.615C258.13 216.015 257.264 214.303 255.66 213.48C254.88 213.133 254.079 212.895 253.255 212.765C252.042 212.548 249.355 212.462 245.195 212.505C241.035 212.505 238.847 212.635 238.63 212.895L234.73 228.235H238.175C241.035 228.192 242.877 228.018 243.7 227.715C244.654 227.412 245.434 226.87 246.04 226.09C246.647 225.31 247.21 223.902 247.73 221.865C247.904 221.302 248.055 220.955 248.185 220.825L248.38 220.63H249.485C250.395 220.63 250.937 220.782 251.11 221.085C251.154 221.258 250.46 224.27 249.03 230.12C247.514 236.057 246.734 239.047 246.69 239.09C246.604 239.35 246.084 239.48 245.13 239.48H244.025L243.765 239.285C243.592 239.068 243.592 238.57 243.765 237.79C244.285 235.58 244.35 234.063 243.96 233.24C243.657 232.59 242.79 232.178 241.36 232.005C241.1 231.962 239.757 231.94 237.33 231.94L233.82 231.875L231.675 240.39C230.245 246.153 229.53 249.057 229.53 249.1C229.53 249.143 229.574 249.208 229.66 249.295H241.425C243.982 249.165 246.17 248.688 247.99 247.865C249.074 247.302 250.049 246.63 250.915 245.85C252.605 244.16 254.404 241.018 256.31 236.425C256.657 235.515 256.917 234.973 257.09 234.8L257.285 234.605H258.455H259.625L259.82 234.8C259.994 234.973 259.994 235.32 259.82 235.84C259.604 236.49 258.52 239.22 256.57 244.03C254.187 249.75 252.995 252.632 252.995 252.675C252.909 252.848 252.28 252.935 251.11 252.935C249.724 252.978 244.025 253 234.015 253C221.579 253 215.274 252.87 215.1 252.61C215.014 252.48 215.057 251.982 215.23 251.115C215.447 250.162 215.664 249.62 215.88 249.49C216.097 249.403 216.877 249.36 218.22 249.36C220.647 249.317 222.012 249.143 222.315 248.84C222.445 248.753 224.005 242.73 226.995 230.77C229.985 218.81 231.437 212.808 231.35 212.765C231.264 212.678 231.112 212.635 230.895 212.635C230.159 212.505 228.902 212.44 227.125 212.44C225.999 212.44 225.37 212.31 225.24 212.05C225.154 211.92 225.197 211.422 225.37 210.555C225.587 209.645 225.782 209.103 225.955 208.93ZM295.654 206.525L297.149 206.46H297.214C298.384 206.46 299.012 206.59 299.099 206.85C299.142 207.023 299.727 214.043 300.854 227.91C301.937 241.863 302.522 248.883 302.609 248.97C302.652 249.013 302.804 249.078 303.064 249.165C303.584 249.295 304.84 249.36 306.834 249.36H308.134L308.394 249.555C308.524 249.772 308.589 249.923 308.589 250.01L308.004 252.61C307.874 252.87 307.397 252.978 306.574 252.935C306.4 252.935 306.075 252.935 305.599 252.935C299.315 252.762 294.18 252.783 290.194 253H289.414L289.219 252.805C289.045 252.632 288.959 252.458 288.959 252.285C288.959 251.592 289.175 250.747 289.609 249.75C289.695 249.49 290.324 249.36 291.494 249.36C292.534 249.273 293.227 249.23 293.574 249.23C294.57 249.057 295.112 248.883 295.199 248.71C295.242 248.667 295.155 247.237 294.939 244.42C294.722 241.907 294.614 240.477 294.614 240.13C294.614 240.043 292.144 240 287.204 240H279.729L277.779 243.445C276.392 245.785 275.677 247.063 275.634 247.28C275.46 247.713 275.525 248.082 275.829 248.385C276.262 248.905 277.194 249.23 278.624 249.36C279.23 249.36 279.62 249.512 279.794 249.815L279.859 250.01L279.534 251.31C279.36 252.133 279.187 252.632 279.014 252.805L278.819 253H278.039C274.442 252.827 271.04 252.783 267.834 252.87C265.624 252.957 264.497 253 264.454 253H263.999L263.804 252.805C263.63 252.632 263.544 252.48 263.544 252.35L264.129 249.75C264.302 249.49 264.8 249.36 265.624 249.36C268.657 249.23 270.759 248.363 271.929 246.76L283.694 226.61C291.234 213.567 295.09 206.958 295.264 206.785C295.307 206.742 295.437 206.655 295.654 206.525ZM293.574 227C293.097 220.803 292.859 217.662 292.859 217.575C292.859 217.402 291.905 218.983 289.999 222.32L284.539 231.745L281.874 236.295L288.049 236.36H294.289C294.289 236.403 294.05 233.283 293.574 227ZM340.959 207.24H343.819C347.372 207.587 350.167 209.125 352.204 211.855C352.42 212.115 352.55 212.267 352.594 212.31C352.55 212.31 353.265 211.617 354.739 210.23C356.602 208.453 357.49 207.608 357.404 207.695L357.924 207.175H358.444C359.007 207.175 359.332 207.305 359.419 207.565C359.462 207.652 358.747 210.728 357.274 216.795C355.714 223.035 354.934 226.09 354.934 225.96C354.847 226.22 354.24 226.35 353.114 226.35H351.749L351.554 226.155C351.38 225.982 351.337 225.592 351.424 224.985C351.424 224.942 351.445 224.725 351.489 224.335C351.922 221.215 351.662 218.442 350.709 216.015C349.669 213.155 347.805 211.465 345.119 210.945C344.339 210.772 343.147 210.75 341.544 210.88C341.414 210.923 341.305 210.945 341.219 210.945C337.362 211.508 333.83 213.025 330.624 215.495C326.29 219.048 323.3 224.617 321.654 232.2C321.09 234.497 320.809 236.707 320.809 238.83C320.809 240.823 321.069 242.492 321.589 243.835C321.762 244.398 322.109 245.07 322.629 245.85C324.535 248.71 327.59 250.335 331.794 250.725C334.264 250.985 336.647 250.53 338.944 249.36C342.627 247.583 345.487 244.658 347.524 240.585C348.044 239.502 348.477 238.397 348.824 237.27C349.04 236.577 349.257 236.208 349.474 236.165C349.604 236.122 349.972 236.1 350.579 236.1C351.575 236.1 352.117 236.23 352.204 236.49C352.247 236.663 352.204 236.967 352.074 237.4C351.337 239.957 350.189 242.318 348.629 244.485C347.415 246.218 346.072 247.692 344.599 248.905C340.915 252.155 336.82 253.975 332.314 254.365C331.014 254.538 329.67 254.495 328.284 254.235C324.037 253.715 320.614 252.047 318.014 249.23C315.5 246.587 313.984 243.293 313.464 239.35C313.204 237.573 313.225 235.558 313.529 233.305C314.309 227.715 316.735 222.558 320.809 217.835C322.325 216.188 323.582 214.975 324.579 214.195C328.912 210.598 333.57 208.367 338.554 207.5C338.77 207.457 339.572 207.37 340.959 207.24ZM369.288 208.67C369.375 208.627 369.765 208.605 370.458 208.605C375.702 208.822 381.162 208.843 386.838 208.67C388.225 208.627 389.005 208.757 389.178 209.06C389.265 209.19 389.2 209.688 388.983 210.555C388.767 211.378 388.615 211.877 388.528 212.05L388.333 212.245H386.058C383.892 212.288 382.635 212.397 382.288 212.57C382.028 212.657 381.855 212.873 381.768 213.22C381.552 213.74 380.902 216.188 379.818 220.565L377.933 228.105H387.033L396.133 228.04L398.083 220.435C399.34 215.408 399.968 212.83 399.968 212.7C399.968 212.657 399.925 212.592 399.838 212.505C399.665 212.418 398.495 212.332 396.328 212.245H394.118L393.858 211.985C393.728 211.855 393.663 211.725 393.663 211.595L394.378 208.93C394.508 208.713 395.072 208.627 396.068 208.67C396.242 208.67 396.588 208.67 397.108 208.67C400.662 208.843 405.168 208.865 410.628 208.735C411.148 208.692 411.582 208.67 411.928 208.67C413.445 208.627 414.29 208.757 414.463 209.06C414.55 209.19 414.485 209.688 414.268 210.555C414.052 211.378 413.9 211.877 413.813 212.05L413.618 212.245H411.343C409.177 212.288 407.92 212.397 407.573 212.57C407.357 212.657 407.227 212.787 407.183 212.96C406.923 213.61 405.385 219.568 402.568 230.835C399.578 242.795 398.062 248.797 398.018 248.84C397.975 249.013 398.17 249.122 398.603 249.165C399.123 249.252 400.142 249.317 401.658 249.36C403.262 249.36 404.15 249.512 404.323 249.815C404.367 249.945 404.302 250.443 404.128 251.31C403.912 252.133 403.717 252.632 403.543 252.805L403.348 253H402.308C397.585 252.783 392.125 252.762 385.928 252.935C384.498 252.978 383.697 252.848 383.523 252.545C383.48 252.415 383.545 251.917 383.718 251.05C383.978 250.183 384.152 249.685 384.238 249.555L384.498 249.36H386.708C389.135 249.317 390.5 249.143 390.803 248.84C390.933 248.753 391.713 245.893 393.143 240.26L395.223 231.81C395.223 231.767 392.19 231.745 386.123 231.745H377.023L374.878 240.325C373.448 246.088 372.755 248.992 372.798 249.035C372.885 249.122 373.037 249.165 373.253 249.165C373.773 249.295 375.073 249.36 377.153 249.36C378.237 249.36 378.865 249.512 379.038 249.815C379.082 249.988 379.017 250.487 378.843 251.31C378.627 252.133 378.432 252.632 378.258 252.805L378.063 253H377.023C372.3 252.783 366.84 252.762 360.643 252.935C359.213 252.978 358.412 252.848 358.238 252.545C358.195 252.415 358.26 251.917 358.433 251.05C358.693 250.183 358.867 249.685 358.953 249.555L359.213 249.36H361.423C363.85 249.317 365.215 249.143 365.518 248.84C365.648 248.753 367.208 242.73 370.198 230.77C373.188 218.81 374.683 212.787 374.683 212.7C374.683 212.657 374.64 212.592 374.553 212.505C374.38 212.418 373.21 212.332 371.043 212.245H368.833L368.573 211.985C368.443 211.855 368.378 211.725 368.378 211.595L369.093 208.93C369.093 208.887 369.158 208.8 369.288 208.67ZM423.177 208.93L423.372 208.8H441.572H459.707L459.967 208.995C460.097 209.168 460.162 209.342 460.162 209.515L458.277 224.335C458.277 224.552 458.19 224.725 458.017 224.855L457.822 225.05H456.717C455.937 225.05 455.482 225.007 455.352 224.92C455.135 224.79 455.07 224.27 455.157 223.36C455.157 223.273 455.157 223.165 455.157 223.035C455.374 221.258 455.482 219.785 455.482 218.615C455.352 216.015 454.485 214.303 452.882 213.48C452.102 213.133 451.3 212.895 450.477 212.765C449.264 212.548 446.577 212.462 442.417 212.505C438.257 212.505 436.069 212.635 435.852 212.895L431.952 228.235H435.397C438.257 228.192 440.099 228.018 440.922 227.715C441.875 227.412 442.655 226.87 443.262 226.09C443.869 225.31 444.432 223.902 444.952 221.865C445.125 221.302 445.277 220.955 445.407 220.825L445.602 220.63H446.707C447.617 220.63 448.159 220.782 448.332 221.085C448.375 221.258 447.682 224.27 446.252 230.12C444.735 236.057 443.955 239.047 443.912 239.09C443.825 239.35 443.305 239.48 442.352 239.48H441.247L440.987 239.285C440.814 239.068 440.814 238.57 440.987 237.79C441.507 235.58 441.572 234.063 441.182 233.24C440.879 232.59 440.012 232.178 438.582 232.005C438.322 231.962 436.979 231.94 434.552 231.94L431.042 231.875L428.897 240.39C427.467 246.153 426.752 249.057 426.752 249.1C426.752 249.143 426.795 249.208 426.882 249.295H438.647C441.204 249.165 443.392 248.688 445.212 247.865C446.295 247.302 447.27 246.63 448.137 245.85C449.827 244.16 451.625 241.018 453.532 236.425C453.879 235.515 454.139 234.973 454.312 234.8L454.507 234.605H455.677H456.847L457.042 234.8C457.215 234.973 457.215 235.32 457.042 235.84C456.825 236.49 455.742 239.22 453.792 244.03C451.409 249.75 450.217 252.632 450.217 252.675C450.13 252.848 449.502 252.935 448.332 252.935C446.945 252.978 441.247 253 431.237 253C418.8 253 412.495 252.87 412.322 252.61C412.235 252.48 412.279 251.982 412.452 251.115C412.669 250.162 412.885 249.62 413.102 249.49C413.319 249.403 414.099 249.36 415.442 249.36C417.869 249.317 419.234 249.143 419.537 248.84C419.667 248.753 421.227 242.73 424.217 230.77C427.207 218.81 428.659 212.808 428.572 212.765C428.485 212.678 428.334 212.635 428.117 212.635C427.38 212.505 426.124 212.44 424.347 212.44C423.22 212.44 422.592 212.31 422.462 212.05C422.375 211.92 422.419 211.422 422.592 210.555C422.809 209.645 423.004 209.103 423.177 208.93ZM471.425 208.67C471.512 208.627 475.325 208.605 482.865 208.605C490.752 208.648 495.064 208.735 495.8 208.865C495.887 208.908 496.082 208.952 496.385 208.995C500.372 209.732 503.254 211.443 505.03 214.13C506.027 215.603 506.504 217.207 506.46 218.94C506.417 220.153 506.092 221.388 505.485 222.645C504.879 223.858 504.034 224.985 502.95 226.025C500.827 228.148 497.902 229.86 494.175 231.16C494.132 231.16 494.197 231.225 494.37 231.355C494.457 231.442 494.544 231.507 494.63 231.55C496.147 232.59 497.209 233.977 497.815 235.71C498.205 236.923 498.314 238.613 498.14 240.78C498.097 241.257 498.032 241.863 497.945 242.6C497.729 244.853 497.62 246.5 497.62 247.54C497.664 249.143 497.967 250.227 498.53 250.79C498.92 251.137 499.505 251.31 500.285 251.31C500.762 251.31 501.109 251.267 501.325 251.18C501.845 250.963 502.365 250.552 502.885 249.945C503.449 249.122 503.882 248.277 504.185 247.41C504.402 246.717 504.662 246.327 504.965 246.24C505.139 246.197 505.464 246.175 505.94 246.175C506.764 246.175 507.262 246.283 507.435 246.5C507.739 246.847 507.522 247.757 506.785 249.23C505.485 251.96 503.709 253.628 501.455 254.235C501.109 254.322 500.459 254.365 499.505 254.365C498.379 254.365 497.642 254.343 497.295 254.3C493.092 253.737 490.557 252.003 489.69 249.1C489.43 248.233 489.387 247.258 489.56 246.175C489.777 245.092 490.08 243.77 490.47 242.21C490.904 240.477 491.207 239.177 491.38 238.31C491.597 237.14 491.424 235.992 490.86 234.865C490.644 234.475 490.362 234.107 490.015 233.76C489.279 233.067 488.369 232.612 487.285 232.395C487.112 232.352 485.639 232.33 482.865 232.33H478.835L478.77 232.59C478.77 232.547 478.077 235.298 476.69 240.845C475.347 246.262 474.697 248.992 474.74 249.035C474.827 249.122 474.979 249.165 475.195 249.165C475.715 249.295 477.015 249.36 479.095 249.36C480.179 249.36 480.807 249.512 480.98 249.815C481.024 249.988 480.959 250.487 480.785 251.31C480.569 252.133 480.374 252.632 480.2 252.805L480.005 253H479.03C474.307 252.783 468.89 252.762 462.78 252.935C461.35 252.978 460.549 252.848 460.375 252.545C460.332 252.415 460.397 251.917 460.57 251.05C460.83 250.183 461.004 249.685 461.09 249.555L461.35 249.36H463.56C465.987 249.317 467.352 249.143 467.655 248.84C467.785 248.753 469.345 242.73 472.335 230.77C475.325 218.81 476.82 212.787 476.82 212.7C476.82 212.657 476.777 212.592 476.69 212.505C476.517 212.418 475.347 212.332 473.18 212.245H470.97L470.71 211.985C470.58 211.855 470.515 211.725 470.515 211.595L471.23 208.93C471.23 208.887 471.295 208.8 471.425 208.67ZM493.46 212.375C493.2 212.332 491.684 212.288 488.91 212.245L484.62 212.31C484.187 212.353 483.905 212.483 483.775 212.7L479.615 229.275H483.97C487.134 229.232 488.867 229.188 489.17 229.145C493.114 228.582 495.735 226.978 497.035 224.335C497.729 222.905 498.292 221.042 498.725 218.745C498.899 217.618 498.899 216.665 498.725 215.885C498.205 213.978 496.45 212.808 493.46 212.375ZM537.647 207.24C538.73 207.153 540.138 207.175 541.872 207.305C545.598 207.825 548.675 209.342 551.102 211.855C553.485 214.238 554.98 217.293 555.587 221.02C556.54 226.653 555.435 232.373 552.272 238.18C551.665 239.263 550.993 240.325 550.257 241.365C547.787 244.918 544.797 247.8 541.287 250.01C538.947 251.527 536.628 252.632 534.332 253.325C528.308 255.188 523.043 254.733 518.537 251.96C517.627 251.397 516.782 250.747 516.002 250.01C513.402 247.453 511.777 244.095 511.127 239.935C510.953 238.548 510.932 236.793 511.062 234.67C511.105 234.497 511.127 234.345 511.127 234.215C511.907 228.278 514.42 222.818 518.667 217.835C519.88 216.448 521.18 215.148 522.567 213.935C527.377 209.948 532.403 207.717 537.647 207.24ZM540.572 210.62C539.488 210.447 538.383 210.403 537.257 210.49C534.44 210.837 531.862 211.92 529.522 213.74C526.098 216.34 523.477 219.958 521.657 224.595C520.313 227.932 519.36 231.68 518.797 235.84C518.623 237.53 518.602 239.35 518.732 241.3C518.775 241.473 518.797 241.603 518.797 241.69C519.447 245.807 521.267 248.623 524.257 250.14C527.16 251.613 530.497 251.44 534.267 249.62C539.12 247.237 542.868 242.752 545.512 236.165C547.028 232.265 548.003 228.365 548.437 224.465C548.61 223.035 548.61 221.518 548.437 219.915C548.437 219.828 548.437 219.742 548.437 219.655C547.96 216.882 547.007 214.78 545.577 213.35C544.19 211.92 542.522 211.01 540.572 210.62ZM562.327 208.67C562.413 208.627 562.803 208.605 563.497 208.605C568.74 208.822 574.2 208.843 579.877 208.67C581.263 208.627 582.043 208.757 582.217 209.06C582.303 209.19 582.238 209.688 582.022 210.555C581.805 211.378 581.653 211.877 581.567 212.05L581.372 212.245H579.097C576.93 212.288 575.673 212.397 575.327 212.57C575.11 212.657 574.958 212.808 574.872 213.025C574.612 213.632 573.463 218.052 571.427 226.285C569.173 235.342 568.025 240 567.982 240.26C567.115 244.68 567.808 247.713 570.062 249.36C570.755 249.923 571.817 250.357 573.247 250.66C574.59 250.833 575.955 250.812 577.342 250.595C581.285 249.945 584.492 247.995 586.962 244.745C588.088 243.228 588.977 241.517 589.627 239.61L595.997 214.195C595.997 213.545 595.65 213.09 594.957 212.83C594.177 212.44 592.942 212.245 591.252 212.245H590.537L590.277 212.05C590.147 211.877 590.082 211.725 590.082 211.595L590.797 208.93C590.927 208.713 591.512 208.627 592.552 208.67C592.682 208.67 592.877 208.67 593.137 208.67C596.083 208.843 599.788 208.865 604.252 208.735C604.685 208.692 605.032 208.67 605.292 208.67C606.592 208.627 607.328 208.757 607.502 209.06C607.588 209.19 607.523 209.688 607.307 210.555C607.09 211.422 606.917 211.92 606.787 212.05L606.592 212.245H605.877C602.713 212.245 600.677 212.938 599.767 214.325C599.55 214.975 598.51 219.113 596.647 226.74C594.48 235.19 593.397 239.437 593.397 239.48C592.01 243.727 589.583 247.237 586.117 250.01C582.217 253.087 578.165 254.56 573.962 254.43C571.578 254.3 569.477 253.78 567.657 252.87C566.487 252.263 565.49 251.548 564.667 250.725C562.89 248.992 561.742 246.933 561.222 244.55C560.875 242.99 560.853 241.3 561.157 239.48C561.157 239.393 562.262 234.843 564.472 225.83C566.638 217.337 567.722 212.96 567.722 212.7C567.722 212.657 567.678 212.592 567.592 212.505C567.418 212.418 566.248 212.332 564.082 212.245H561.872L561.612 211.985C561.482 211.855 561.417 211.725 561.417 211.595L562.132 208.93C562.132 208.887 562.197 208.8 562.327 208.67ZM628.212 207.24L631.592 207.305C632.805 207.522 633.954 207.89 635.037 208.41C636.164 208.93 637.139 209.71 637.962 210.75C638.135 210.923 638.244 211.032 638.287 211.075L640.172 209.19C641.429 207.933 642.079 207.283 642.122 207.24C642.339 207.067 642.772 207.067 643.422 207.24C643.552 207.37 643.639 207.478 643.682 207.565C643.725 207.738 643.119 210.338 641.862 215.365C640.562 220.478 639.869 223.078 639.782 223.165L639.587 223.36H638.417C637.42 223.36 636.879 223.23 636.792 222.97C636.749 222.84 636.77 222.558 636.857 222.125C637.247 219.092 637.009 216.6 636.142 214.65C635.102 212.483 633.282 211.183 630.682 210.75C629.642 210.577 628.494 210.577 627.237 210.75C625.59 211.097 624.052 211.963 622.622 213.35C620.152 215.777 619.155 218.355 619.632 221.085C619.892 222.948 620.889 224.227 622.622 224.92L627.107 226.155C628.797 226.588 630.4 227.022 631.917 227.455C633.044 227.932 634.084 228.647 635.037 229.6C635.73 230.293 636.294 231.095 636.727 232.005C637.94 234.562 638.157 237.4 637.377 240.52C636.38 244.767 634.04 248.32 630.357 251.18C630.054 251.397 629.75 251.613 629.447 251.83C627.93 252.74 626.652 253.368 625.612 253.715C624.009 254.235 622.362 254.473 620.672 254.43C617.985 254.3 615.732 253.78 613.912 252.87C613.045 252.48 612.157 251.852 611.247 250.985L610.662 250.4C610.619 250.4 609.99 251.05 608.777 252.35L606.762 254.365L606.112 254.43H606.047C605.7 254.43 605.462 254.365 605.332 254.235C605.202 254.105 605.137 253.997 605.137 253.91C605.137 253.78 606.394 248.688 608.907 238.635C608.994 238.375 609.535 238.245 610.532 238.245H611.702L611.897 238.44C612.07 238.613 612.092 239.068 611.962 239.805C611.962 239.892 611.94 240 611.897 240.13C611.594 241.733 611.55 243.077 611.767 244.16C612.634 248.363 615.819 250.573 621.322 250.79C622.449 250.79 623.402 250.66 624.182 250.4C626.609 249.62 628.559 247.93 630.032 245.33C630.639 244.333 631.05 243.293 631.267 242.21C631.787 239.61 631.375 237.53 630.032 235.97C629.599 235.537 629.035 235.168 628.342 234.865L623.857 233.63C620.564 232.763 618.549 232.135 617.812 231.745C614.865 230.055 613.327 227.368 613.197 223.685C613.11 222.125 613.349 220.522 613.912 218.875C615.255 214.802 617.877 211.638 621.777 209.385C622.297 209.082 622.839 208.8 623.402 208.54C624.875 207.847 626.24 207.435 627.497 207.305C627.67 207.262 627.909 207.24 628.212 207.24Z" fill="#C40000"/>
<path d="M9.67294 354L4.47053 335.818H8.66974L11.6793 348.451H11.8303L15.1506 335.818H18.7461L22.0575 348.478H22.2173L25.2269 335.818H29.4261L24.2237 354H20.4773L17.0149 342.113H16.8729L13.4194 354H9.67294ZM47.1663 344.909C47.1663 346.892 46.7905 348.579 46.0388 349.969C45.2931 351.36 44.2751 352.423 42.9848 353.157C41.7005 353.885 40.2564 354.249 38.6524 354.249C37.0367 354.249 35.5866 353.882 34.3023 353.148C33.018 352.414 32.0029 351.351 31.2572 349.961C30.5115 348.57 30.1386 346.886 30.1386 344.909C30.1386 342.926 30.5115 341.24 31.2572 339.849C32.0029 338.458 33.018 337.398 34.3023 336.67C35.5866 335.937 37.0367 335.57 38.6524 335.57C40.2564 335.57 41.7005 335.937 42.9848 336.67C44.2751 337.398 45.2931 338.458 46.0388 339.849C46.7905 341.24 47.1663 342.926 47.1663 344.909ZM43.2689 344.909C43.2689 343.625 43.0766 342.542 42.6919 341.66C42.3131 340.778 41.7774 340.109 41.085 339.653C40.3925 339.198 39.5816 338.97 38.6524 338.97C37.7232 338.97 36.9124 339.198 36.2199 339.653C35.5274 340.109 34.9888 340.778 34.6041 341.66C34.2253 342.542 34.036 343.625 34.036 344.909C34.036 346.193 34.2253 347.277 34.6041 348.158C34.9888 349.04 35.5274 349.709 36.2199 350.165C36.9124 350.621 37.7232 350.848 38.6524 350.848C39.5816 350.848 40.3925 350.621 41.085 350.165C41.7774 349.709 42.3131 349.04 42.6919 348.158C43.0766 347.277 43.2689 346.193 43.2689 344.909ZM50.0138 335.818H54.7546L59.7617 348.034H59.9748L64.9819 335.818H69.7227V354H65.994V342.166H65.843L61.1378 353.911H58.5987L53.8935 342.121H53.7425V354H50.0138V335.818ZM72.8898 354V335.818H85.1412V338.988H76.7339V343.32H84.5109V346.489H76.7339V350.831H85.1768V354H72.8898ZM103.405 335.818V354H100.085L92.1747 342.556H92.0415V354H88.1974V335.818H91.571L99.419 347.253H99.5788V335.818H103.405Z" fill="white"/>
</svg>
