<svg width="797" height="432" viewBox="0 0 797 432" fill="none" xmlns="http://www.w3.org/2000/svg">
<path d="M0 98.9174H194V151.775H0V98.9174ZM76.0701 1L103.906 10.965C87.1194 104.55 63.7459 220.664 46.5345 295.619L20.6112 276.555C37.6101 205.933 60.9836 89.8188 76.0701 1ZM135.566 124.913L163.614 137.911C146.616 318.148 107.306 380.971 15.299 408.7C12.7492 392.669 7.01205 370.573 1.91238 357.142C87.1194 337.212 121.542 284.787 135.566 124.913ZM34.6353 267.89L51.8467 227.163C97.1062 257.925 159.152 314.682 190.388 361.041L170.839 410C142.366 363.208 82.0197 302.551 34.6353 267.89Z" fill="#FF0000"/>
<path d="M9.58026 5.81818H14.321L19.3281 18.0341H19.5412L24.5483 5.81818H29.2891V24H25.5604V12.1658H25.4094L20.7042 23.9112H18.1651L13.4599 12.1214H13.3089V24H9.58026V5.81818ZM36.3003 5.81818V24H32.4562V5.81818H36.3003ZM49.3263 11.0472C49.2553 10.3311 48.9505 9.77474 48.4119 9.3782C47.8733 8.98165 47.1424 8.78338 46.2191 8.78338C45.5917 8.78338 45.062 8.87216 44.63 9.04972C44.1979 9.22135 43.8665 9.46106 43.6357 9.76882C43.4107 10.0766 43.2983 10.4258 43.2983 10.8164C43.2865 11.1419 43.3545 11.426 43.5025 11.6687C43.6564 11.9113 43.8665 12.1214 44.1328 12.299C44.3991 12.4706 44.7069 12.6216 45.0561 12.7518C45.4053 12.8761 45.7782 12.9826 46.1747 13.0714L47.8082 13.462C48.6013 13.6396 49.3293 13.8763 49.9922 14.1722C50.6551 14.4682 51.2292 14.8321 51.7145 15.2642C52.1998 15.6963 52.5756 16.2053 52.842 16.7912C53.1142 17.3771 53.2533 18.0489 53.2592 18.8065C53.2533 19.9192 52.9692 20.8839 52.407 21.7006C51.8506 22.5115 51.0457 23.1418 49.9922 23.5916C48.9446 24.0355 47.681 24.2575 46.2013 24.2575C44.7335 24.2575 43.4551 24.0326 42.3661 23.5827C41.283 23.1329 40.4367 22.4671 39.8271 21.5852C39.2234 20.6974 38.9067 19.5996 38.8771 18.2915H42.5969C42.6384 18.9012 42.813 19.4102 43.1207 19.8185C43.4344 20.221 43.8517 20.5258 44.3725 20.733C44.8993 20.9342 45.4941 21.0348 46.157 21.0348C46.808 21.0348 47.3732 20.9401 47.8526 20.7507C48.3379 20.5613 48.7138 20.2979 48.9801 19.9606C49.2464 19.6232 49.3796 19.2356 49.3796 18.7976C49.3796 18.3892 49.2583 18.0459 49.0156 17.7678C48.7789 17.4896 48.4297 17.2528 47.968 17.0575C47.5123 16.8622 46.953 16.6847 46.2901 16.5249L44.3104 16.0277C42.7775 15.6548 41.5671 15.0719 40.6793 14.2788C39.7915 13.4857 39.3506 12.4174 39.3565 11.0739C39.3506 9.97301 39.6436 9.01124 40.2354 8.18857C40.8332 7.36589 41.6529 6.72372 42.6946 6.26207C43.7363 5.80043 44.92 5.5696 46.2457 5.5696C47.5952 5.5696 48.773 5.80043 49.7791 6.26207C50.7912 6.72372 51.5784 7.36589 52.1406 8.18857C52.7029 9.01124 52.9929 9.96413 53.0107 11.0472H49.3263ZM72.553 14.9091C72.553 16.8918 72.1772 18.5786 71.4255 19.9695C70.6798 21.3603 69.6618 22.4227 68.3715 23.1566C67.0872 23.8846 65.6431 24.2486 64.0392 24.2486C62.4234 24.2486 60.9733 23.8816 59.689 23.1477C58.4047 22.4138 57.3896 21.3514 56.6439 19.9606C55.8982 18.5697 55.5253 16.8859 55.5253 14.9091C55.5253 12.9264 55.8982 11.2396 56.6439 9.84872C57.3896 8.45786 58.4047 7.39844 59.689 6.67045C60.9733 5.93655 62.4234 5.5696 64.0392 5.5696C65.6431 5.5696 67.0872 5.93655 68.3715 6.67045C69.6618 7.39844 70.6798 8.45786 71.4255 9.84872C72.1772 11.2396 72.553 12.9264 72.553 14.9091ZM68.6556 14.9091C68.6556 13.6248 68.4633 12.5417 68.0786 11.6598C67.6998 10.7779 67.1642 10.1091 66.4717 9.65341C65.7792 9.19768 64.9684 8.96982 64.0392 8.96982C63.1099 8.96982 62.2991 9.19768 61.6066 9.65341C60.9142 10.1091 60.3756 10.7779 59.9909 11.6598C59.6121 12.5417 59.4227 13.6248 59.4227 14.9091C59.4227 16.1934 59.6121 17.2765 59.9909 18.1584C60.3756 19.0402 60.9142 19.709 61.6066 20.1648C62.2991 20.6205 63.1099 20.8484 64.0392 20.8484C64.9684 20.8484 65.7792 20.6205 66.4717 20.1648C67.1642 19.709 67.6998 19.0402 68.0786 18.1584C68.4633 17.2765 68.6556 16.1934 68.6556 14.9091ZM87.4567 11.6953C87.3324 11.2633 87.1578 10.8815 86.9329 10.5501C86.708 10.2127 86.4328 9.92862 86.1072 9.6978C85.7876 9.46106 85.4207 9.28054 85.0064 9.15625C84.598 9.03196 84.1452 8.96982 83.6481 8.96982C82.7189 8.96982 81.9021 9.20064 81.1978 9.66229C80.4994 10.1239 79.9549 10.7957 79.5643 11.6776C79.1737 12.5535 78.9783 13.6248 78.9783 14.8913C78.9783 16.1579 79.1707 17.2351 79.5554 18.1229C79.9401 19.0107 80.4846 19.6883 81.1889 20.1559C81.8932 20.6175 82.7248 20.8484 83.6836 20.8484C84.5536 20.8484 85.2964 20.6945 85.9119 20.3867C86.5334 20.073 87.0069 19.6321 87.3324 19.0639C87.6638 18.4957 87.8295 17.824 87.8295 17.0487L88.6108 17.1641H83.9233V14.2699H91.5316V16.5604C91.5316 18.1584 91.1942 19.5315 90.5195 20.6797C89.8448 21.822 88.9156 22.7038 87.7319 23.3253C86.5482 23.9408 85.1928 24.2486 83.6658 24.2486C81.9613 24.2486 80.4639 23.8728 79.1737 23.1211C77.8834 22.3635 76.8772 21.2893 76.1552 19.8984C75.439 18.5017 75.081 16.8445 75.081 14.9268C75.081 13.4531 75.294 12.1392 75.7202 10.9851C76.1522 9.82505 76.7559 8.84257 77.5312 8.03764C78.3066 7.23272 79.2092 6.62015 80.239 6.19993C81.2688 5.77971 82.3845 5.5696 83.5859 5.5696C84.6158 5.5696 85.5746 5.72053 86.4624 6.02237C87.3501 6.3183 88.1373 6.73852 88.8239 7.28303C89.5163 7.82753 90.0816 8.47561 90.5195 9.22727C90.9575 9.97301 91.2386 10.7957 91.3629 11.6953H87.4567ZM92.6214 5.81818H96.9271L101.073 13.6484H101.251L105.397 5.81818H109.702L103.071 17.5724V24H99.2531V17.5724L92.6214 5.81818ZM127.01 5.81818V24H123.689L115.779 12.5565H115.646V24H111.802V5.81818H115.176L123.024 17.2528H123.183V5.81818H127.01ZM129.12 5.81818H133.426L137.572 13.6484H137.75L141.896 5.81818H146.201L139.57 17.5724V24H135.752V17.5724L129.12 5.81818ZM157.931 5.81818V24H154.087V5.81818H157.931ZM176.302 5.81818V24H172.981L165.071 12.5565H164.938V24H161.094V5.81818H164.468L172.316 17.2528H172.475V5.81818H176.302ZM25.6225 42.1836H21.734C21.663 41.6805 21.518 41.2337 21.299 40.843C21.08 40.4465 20.7989 40.1091 20.4556 39.831C20.1123 39.5528 19.7158 39.3397 19.266 39.1918C18.8221 39.0438 18.3397 38.9698 17.8189 38.9698C16.8778 38.9698 16.0581 39.2036 15.3597 39.6712C14.6613 40.1328 14.1198 40.8075 13.7351 41.6953C13.3504 42.5772 13.158 43.6484 13.158 44.9091C13.158 46.2053 13.3504 47.2943 13.7351 48.1761C14.1257 49.058 14.6702 49.7238 15.3686 50.1737C16.067 50.6235 16.8749 50.8484 17.7923 50.8484C18.3072 50.8484 18.7836 50.7803 19.2216 50.6442C19.6655 50.508 20.0591 50.3098 20.4023 50.0494C20.7456 49.783 21.0297 49.4605 21.2546 49.0817C21.4854 48.7029 21.6452 48.2708 21.734 47.7855L25.6225 47.8033C25.5219 48.6378 25.2704 49.4427 24.8679 50.218C24.4714 50.9875 23.9357 51.677 23.261 52.2866C22.5922 52.8903 21.7932 53.3697 20.864 53.7248C19.9407 54.074 18.8961 54.2486 17.7301 54.2486C16.1084 54.2486 14.6584 53.8816 13.38 53.1477C12.1075 52.4138 11.1013 51.3514 10.3615 49.9606C9.6276 48.5697 9.26065 46.8859 9.26065 44.9091C9.26065 42.9264 9.63352 41.2396 10.3793 39.8487C11.125 38.4579 12.1371 37.3984 13.4155 36.6705C14.6939 35.9366 16.1321 35.5696 17.7301 35.5696C18.7836 35.5696 19.7602 35.7176 20.6598 36.0135C21.5653 36.3094 22.3673 36.7415 23.0657 37.3097C23.7641 37.8719 24.3323 38.5614 24.7702 39.3782C25.2141 40.195 25.4982 41.1301 25.6225 42.1836ZM28.3791 54V35.8182H32.2232V43.32H40.0268V35.8182H43.862V54H40.0268V46.4893H32.2232V54H28.3791ZM50.8755 35.8182V54H47.0314V35.8182H50.8755ZM69.246 35.8182V54H65.9257L58.0155 42.5565H57.8824V54H54.0383V35.8182H57.4118L65.2599 47.2528H65.4197V35.8182H69.246ZM72.4221 54V35.8182H84.6735V38.9876H76.2662V43.32H84.0431V46.4893H76.2662V50.8306H84.709V54H72.4221ZM97.593 41.0472C97.5219 40.3311 97.2171 39.7747 96.6785 39.3782C96.1399 38.9817 95.409 38.7834 94.4857 38.7834C93.8583 38.7834 93.3286 38.8722 92.8966 39.0497C92.4645 39.2214 92.1331 39.4611 91.9023 39.7688C91.6773 40.0766 91.5649 40.4258 91.5649 40.8164C91.5531 41.1419 91.6211 41.426 91.7691 41.6687C91.923 41.9113 92.1331 42.1214 92.3994 42.299C92.6657 42.4706 92.9735 42.6216 93.3227 42.7518C93.6719 42.8761 94.0448 42.9826 94.4413 43.0714L96.0748 43.462C96.8679 43.6396 97.5959 43.8763 98.2588 44.1722C98.9217 44.4682 99.4958 44.8321 99.9811 45.2642C100.466 45.6963 100.842 46.2053 101.109 46.7912C101.381 47.3771 101.52 48.0489 101.526 48.8065C101.52 49.9192 101.236 50.8839 100.674 51.7006C100.117 52.5115 99.3123 53.1418 98.2588 53.5916C97.2112 54.0355 95.9476 54.2575 94.468 54.2575C93.0001 54.2575 91.7217 54.0326 90.6327 53.5827C89.5496 53.1329 88.7033 52.4671 88.0937 51.5852C87.49 50.6974 87.1733 49.5996 87.1437 48.2915H90.8635C90.905 48.9012 91.0796 49.4102 91.3873 49.8185C91.701 50.221 92.1183 50.5258 92.6391 50.733C93.1659 50.9342 93.7607 51.0348 94.4236 51.0348C95.0746 51.0348 95.6398 50.9401 96.1192 50.7507C96.6046 50.5613 96.9804 50.2979 97.2467 49.9606C97.5131 49.6232 97.6462 49.2356 97.6462 48.7976C97.6462 48.3892 97.5249 48.0459 97.2822 47.7678C97.0455 47.4896 96.6963 47.2528 96.2346 47.0575C95.7789 46.8622 95.2196 46.6847 94.5567 46.5249L92.577 46.0277C91.0441 45.6548 89.8337 45.0719 88.9459 44.2788C88.0581 43.4857 87.6172 42.4174 87.6231 41.0739C87.6172 39.973 87.9102 39.0112 88.502 38.1886C89.0998 37.3659 89.9195 36.7237 90.9612 36.2621C92.0029 35.8004 93.1866 35.5696 94.5123 35.5696C95.8618 35.5696 97.0396 35.8004 98.0457 36.2621C99.0578 36.7237 99.845 37.3659 100.407 38.1886C100.969 39.0112 101.259 39.9641 101.277 41.0472H97.593ZM104.112 54V35.8182H116.363V38.9876H107.956V43.32H115.733V46.4893H107.956V50.8306H116.398V54H104.112ZM25.6225 72.1836H21.734C21.663 71.6805 21.518 71.2337 21.299 70.843C21.08 70.4465 20.7989 70.1091 20.4556 69.831C20.1123 69.5528 19.7158 69.3397 19.266 69.1918C18.8221 69.0438 18.3397 68.9698 17.8189 68.9698C16.8778 68.9698 16.0581 69.2036 15.3597 69.6712C14.6613 70.1328 14.1198 70.8075 13.7351 71.6953C13.3504 72.5772 13.158 73.6484 13.158 74.9091C13.158 76.2053 13.3504 77.2943 13.7351 78.1761C14.1257 79.058 14.6702 79.7238 15.3686 80.1737C16.067 80.6235 16.8749 80.8484 17.7923 80.8484C18.3072 80.8484 18.7836 80.7803 19.2216 80.6442C19.6655 80.508 20.0591 80.3098 20.4023 80.0494C20.7456 79.783 21.0297 79.4605 21.2546 79.0817C21.4854 78.7029 21.6452 78.2708 21.734 77.7855L25.6225 77.8033C25.5219 78.6378 25.2704 79.4427 24.8679 80.218C24.4714 80.9875 23.9357 81.677 23.261 82.2866C22.5922 82.8903 21.7932 83.3697 20.864 83.7248C19.9407 84.074 18.8961 84.2486 17.7301 84.2486C16.1084 84.2486 14.6584 83.8816 13.38 83.1477C12.1075 82.4138 11.1013 81.3514 10.3615 79.9606C9.6276 78.5697 9.26065 76.8859 9.26065 74.9091C9.26065 72.9264 9.63352 71.2396 10.3793 69.8487C11.125 68.4579 12.1371 67.3984 13.4155 66.6705C14.6939 65.9366 16.1321 65.5696 17.7301 65.5696C18.7836 65.5696 19.7602 65.7176 20.6598 66.0135C21.5653 66.3094 22.3673 66.7415 23.0657 67.3097C23.7641 67.8719 24.3323 68.5614 24.7702 69.3782C25.2141 70.195 25.4982 71.1301 25.6225 72.1836ZM28.3791 84V65.8182H32.2232V73.32H40.0268V65.8182H43.862V84H40.0268V76.4893H32.2232V84H28.3791ZM50.1653 84H46.046L52.3226 65.8182H57.2765L63.5442 84H59.4249L54.8706 69.973H54.7285L50.1653 84ZM49.9078 76.8533H59.638V79.854H49.9078V76.8533ZM65.7326 84V65.8182H72.9059C74.279 65.8182 75.4509 66.0638 76.4215 66.555C77.3981 67.0404 78.1409 67.7299 78.6499 68.6236C79.1648 69.5114 79.4222 70.556 79.4222 71.7575C79.4222 72.9648 79.1618 74.0036 78.641 74.8736C78.1201 75.7377 77.3655 76.4006 76.3771 76.8622C75.3946 77.3239 74.205 77.5547 72.8082 77.5547H68.0053V74.4652H72.1868C72.9207 74.4652 73.5303 74.3646 74.0156 74.1634C74.5009 73.9621 74.862 73.6603 75.0987 73.2578C75.3414 72.8554 75.4627 72.3552 75.4627 71.7575C75.4627 71.1538 75.3414 70.6448 75.0987 70.2305C74.862 69.8162 74.498 69.5025 74.0067 69.2894C73.5214 69.0704 72.9089 68.9609 72.169 68.9609H69.5767V84H65.7326ZM75.5515 75.7259L80.0703 84H75.8267L71.4055 75.7259H75.5515ZM85.2727 84H81.1534L87.43 65.8182H92.3839L98.6516 84H94.5323L89.978 69.973H89.8359L85.2727 84ZM85.0153 76.8533H94.7454V79.854H85.0153V76.8533ZM116.028 72.1836H112.139C112.068 71.6805 111.923 71.2337 111.704 70.843C111.485 70.4465 111.204 70.1091 110.861 69.831C110.518 69.5528 110.121 69.3397 109.671 69.1918C109.227 69.0438 108.745 68.9698 108.224 68.9698C107.283 68.9698 106.463 69.2036 105.765 69.6712C105.067 70.1328 104.525 70.8075 104.14 71.6953C103.756 72.5772 103.563 73.6484 103.563 74.9091C103.563 76.2053 103.756 77.2943 104.14 78.1761C104.531 79.058 105.075 79.7238 105.774 80.1737C106.472 80.6235 107.28 80.8484 108.198 80.8484C108.712 80.8484 109.189 80.7803 109.627 80.6442C110.071 80.508 110.464 80.3098 110.808 80.0494C111.151 79.783 111.435 79.4605 111.66 79.0817C111.891 78.7029 112.051 78.2708 112.139 77.7855L116.028 77.8033C115.927 78.6378 115.676 79.4427 115.273 80.218C114.877 80.9875 114.341 81.677 113.666 82.2866C112.997 82.8903 112.198 83.3697 111.269 83.7248C110.346 84.074 109.301 84.2486 108.135 84.2486C106.514 84.2486 105.064 83.8816 103.785 83.1477C102.513 82.4138 101.507 81.3514 100.767 79.9606C100.033 78.5697 99.6659 76.8859 99.6659 74.9091C99.6659 72.9264 100.039 71.2396 100.785 69.8487C101.53 68.4579 102.542 67.3984 103.821 66.6705C105.099 65.9366 106.537 65.5696 108.135 65.5696C109.189 65.5696 110.165 65.7176 111.065 66.0135C111.971 66.3094 112.773 66.7415 113.471 67.3097C114.169 67.8719 114.738 68.5614 115.176 69.3782C115.619 70.195 115.903 71.1301 116.028 72.1836ZM118.092 68.9876V65.8182H133.024V68.9876H127.458V84H123.658V68.9876H118.092ZM135.484 84V65.8182H147.735V68.9876H139.328V73.32H147.105V76.4893H139.328V80.8306H147.771V84H135.484ZM150.791 84V65.8182H157.964C159.338 65.8182 160.509 66.0638 161.48 66.555C162.457 67.0404 163.199 67.7299 163.708 68.6236C164.223 69.5114 164.481 70.556 164.481 71.7575C164.481 72.9648 164.22 74.0036 163.7 74.8736C163.179 75.7377 162.424 76.4006 161.436 76.8622C160.453 77.3239 159.264 77.5547 157.867 77.5547H153.064V74.4652H157.245C157.979 74.4652 158.589 74.3646 159.074 74.1634C159.56 73.9621 159.921 73.6603 160.157 73.2578C160.4 72.8554 160.521 72.3552 160.521 71.7575C160.521 71.1538 160.4 70.6448 160.157 70.2305C159.921 69.8162 159.557 69.5025 159.065 69.2894C158.58 69.0704 157.967 68.9609 157.228 68.9609H154.635V84H150.791ZM160.61 75.7259L165.129 84H160.885L156.464 75.7259H160.61ZM177.061 71.0472C176.99 70.3311 176.685 69.7747 176.146 69.3782C175.608 68.9817 174.877 68.7834 173.953 68.7834C173.326 68.7834 172.796 68.8722 172.364 69.0497C171.932 69.2214 171.601 69.4611 171.37 69.7688C171.145 70.0766 171.033 70.4258 171.033 70.8164C171.021 71.1419 171.089 71.426 171.237 71.6687C171.391 71.9113 171.601 72.1214 171.867 72.299C172.134 72.4706 172.441 72.6216 172.79 72.7518C173.14 72.8761 173.513 72.9826 173.909 73.0714L175.543 73.462C176.336 73.6396 177.064 73.8763 177.727 74.1722C178.389 74.4682 178.964 74.8321 179.449 75.2642C179.934 75.6963 180.31 76.2053 180.576 76.7912C180.849 77.3771 180.988 78.0489 180.994 78.8065C180.988 79.9192 180.704 80.8839 180.141 81.7006C179.585 82.5115 178.78 83.1418 177.727 83.5916C176.679 84.0355 175.415 84.2575 173.936 84.2575C172.468 84.2575 171.19 84.0326 170.1 83.5827C169.017 83.1329 168.171 82.4671 167.561 81.5852C166.958 80.6974 166.641 79.5996 166.612 78.2915H170.331C170.373 78.9012 170.547 79.4102 170.855 79.8185C171.169 80.221 171.586 80.5258 172.107 80.733C172.634 80.9342 173.228 81.0348 173.891 81.0348C174.542 81.0348 175.108 80.9401 175.587 80.7507C176.072 80.5613 176.448 80.2979 176.714 79.9606C176.981 79.6232 177.114 79.2356 177.114 78.7976C177.114 78.3892 176.993 78.0459 176.75 77.7678C176.513 77.4896 176.164 77.2528 175.702 77.0575C175.247 76.8622 174.687 76.6847 174.025 76.5249L172.045 76.0277C170.512 75.6548 169.301 75.0719 168.414 74.2788C167.526 73.4857 167.085 72.4174 167.091 71.0739C167.085 69.973 167.378 69.0112 167.97 68.1886C168.568 67.3659 169.387 66.7237 170.429 66.2621C171.471 65.8004 172.654 65.5696 173.98 65.5696C175.33 65.5696 176.507 65.8004 177.513 66.2621C178.526 66.7237 179.313 67.3659 179.875 68.1886C180.437 69.0112 180.727 69.9641 180.745 71.0472H177.061Z" fill="white"/>
<path d="M13.8075 416L7.56463 394.182H12.6037L16.2152 409.342H16.3963L20.3807 394.182H24.6953L28.669 409.374H28.8608L32.4723 394.182H37.5114L31.2685 416H26.7727L22.6179 401.735H22.4474L18.3033 416H13.8075ZM58.7995 405.091C58.7995 407.47 58.3485 409.494 57.4466 411.163C56.5517 412.832 55.3301 414.107 53.7818 414.988C52.2406 415.862 50.5076 416.298 48.5829 416.298C46.644 416.298 44.9039 415.858 43.3627 414.977C41.8216 414.097 40.6035 412.822 39.7086 411.153C38.8137 409.484 38.3663 407.463 38.3663 405.091C38.3663 402.712 38.8137 400.688 39.7086 399.018C40.6035 397.349 41.8216 396.078 43.3627 395.205C44.9039 394.324 46.644 393.884 48.5829 393.884C50.5076 393.884 52.2406 394.324 53.7818 395.205C55.3301 396.078 56.5517 397.349 57.4466 399.018C58.3485 400.688 58.7995 402.712 58.7995 405.091ZM54.1227 405.091C54.1227 403.55 53.8919 402.25 53.4302 401.192C52.9757 400.134 52.3329 399.331 51.502 398.784C50.671 398.237 49.698 397.964 48.5829 397.964C47.4679 397.964 46.4949 398.237 45.6639 398.784C44.8329 399.331 44.1866 400.134 43.725 401.192C43.2704 402.25 43.0431 403.55 43.0431 405.091C43.0431 406.632 43.2704 407.932 43.725 408.99C44.1866 410.048 44.8329 410.851 45.6639 411.398C46.4949 411.945 47.4679 412.218 48.5829 412.218C49.698 412.218 50.671 411.945 51.502 411.398C52.3329 410.851 52.9757 410.048 53.4302 408.99C53.8919 407.932 54.1227 406.632 54.1227 405.091ZM62.2166 394.182H67.9055L73.9141 408.841H74.1697L80.1783 394.182H85.8672V416H81.3928V401.799H81.2116L75.5653 415.893H72.5185L66.8722 401.746H66.6911V416H62.2166V394.182ZM89.6678 416V394.182H104.369V397.985H94.2807V403.184H103.613V406.987H94.2807V412.197H104.412V416H89.6678ZM126.286 394.182V416H122.302L112.81 402.268H112.65V416H108.037V394.182H112.085L121.503 407.903H121.695V394.182H126.286Z" fill="white"/>
<path fill-rule="evenodd" clip-rule="evenodd" d="M446.425 9.69048H215.575V397.31H446.425V9.69048ZM194 0V407H468V0H194Z" fill="#FF0000"/>
<path d="M247.837 74.2214H281.547V163.699C281.547 228.845 275.929 326.171 244.359 387C238.473 378.366 224.026 363.453 216 358.352C245.162 302.232 247.837 220.996 247.837 163.699V74.2214ZM321.41 24.7733L353.247 13C359.133 30.2676 365.554 52.6369 368.765 67.5498L335.59 81.6779C332.914 66.3725 326.493 42.4334 321.41 24.7733ZM268.973 74.2214H441V244.542H408.093V118.175H268.973V74.2214ZM269.508 180.182H424.68V223.743H269.508V180.182Z" fill="white"/>
<path d="M350.391 102V86H360.984V88.7891H353.773V92.6016H360.281V95.3906H353.773V102H350.391ZM364.02 102H360.395L365.918 86H370.277L375.793 102H372.168L368.16 89.6562H368.035L364.02 102ZM363.793 95.7109H372.355V98.3516H363.793V95.7109ZM377.719 86H381.891L386.297 96.75H386.484L390.891 86H395.062V102H391.781V91.5859H391.648L387.508 101.922H385.273L381.133 91.5469H381V102H377.719V86ZM401.232 86V102H397.85V86H401.232ZM404.016 102V86H407.398V99.2109H414.258V102H404.016ZM413.52 86H417.309L420.957 92.8906H421.113L424.762 86H428.551L422.715 96.3437V102H419.355V96.3437L413.52 86Z" fill="black"/>
<path d="M97.55 181.98L97.82 181.8H123.02H148.13L148.49 182.07C148.67 182.31 148.76 182.55 148.76 182.79L146.15 203.31C146.15 203.61 146.03 203.85 145.79 204.03L145.52 204.3H143.99C142.91 204.3 142.28 204.24 142.1 204.12C141.8 203.94 141.71 203.22 141.83 201.96C141.83 201.84 141.83 201.69 141.83 201.51C142.13 199.05 142.28 197.01 142.28 195.39C142.1 191.79 140.9 189.42 138.68 188.28C137.6 187.8 136.49 187.47 135.35 187.29C133.67 186.99 129.95 186.87 124.19 186.93C118.43 186.93 115.4 187.11 115.1 187.47L109.7 208.71H114.47C118.43 208.65 120.98 208.41 122.12 207.99C123.44 207.57 124.52 206.82 125.36 205.74C126.2 204.66 126.98 202.71 127.7 199.89C127.94 199.11 128.15 198.63 128.33 198.45L128.6 198.18H130.13C131.39 198.18 132.14 198.39 132.38 198.81C132.44 199.05 131.48 203.22 129.5 211.32C127.4 219.54 126.32 223.68 126.26 223.74C126.14 224.1 125.42 224.28 124.1 224.28H122.57L122.21 224.01C121.97 223.71 121.97 223.02 122.21 221.94C122.93 218.88 123.02 216.78 122.48 215.64C122.06 214.74 120.86 214.17 118.88 213.93C118.52 213.87 116.66 213.84 113.3 213.84L108.44 213.75L105.47 225.54C103.49 233.52 102.5 237.54 102.5 237.6C102.5 237.66 102.56 237.75 102.68 237.87H118.97C122.51 237.69 125.54 237.03 128.06 235.89C129.56 235.11 130.91 234.18 132.11 233.1C134.45 230.76 136.94 226.41 139.58 220.05C140.06 218.79 140.42 218.04 140.66 217.8L140.93 217.53H142.55H144.17L144.44 217.8C144.68 218.04 144.68 218.52 144.44 219.24C144.14 220.14 142.64 223.92 139.94 230.58C136.64 238.5 134.99 242.49 134.99 242.55C134.87 242.79 134 242.91 132.38 242.91C130.46 242.97 122.57 243 108.71 243C91.49 243 82.76 242.82 82.52 242.46C82.4 242.28 82.46 241.59 82.7 240.39C83 239.07 83.3 238.32 83.6 238.14C83.9 238.02 84.98 237.96 86.84 237.96C90.2 237.9 92.09 237.66 92.51 237.24C92.69 237.12 94.85 228.78 98.99 212.22C103.13 195.66 105.14 187.35 105.02 187.29C104.9 187.17 104.69 187.11 104.39 187.11C103.37 186.93 101.63 186.84 99.17 186.84C97.61 186.84 96.74 186.66 96.56 186.3C96.44 186.12 96.5 185.43 96.74 184.23C97.04 182.97 97.31 182.22 97.55 181.98ZM164.175 181.62H182.535H182.715C182.955 181.74 183.075 181.83 183.075 181.89C183.195 182.13 186.345 189.57 192.525 204.21C198.765 219.09 201.885 226.38 201.885 226.08L211.065 189.27C211.065 188.37 210.585 187.74 209.625 187.38C208.545 186.84 206.835 186.57 204.495 186.57H203.505L203.145 186.3C202.965 186.06 202.875 185.85 202.875 185.67L203.865 181.98C204.045 181.68 204.855 181.56 206.295 181.62C206.475 181.62 206.745 181.62 207.105 181.62C211.185 181.86 216.255 181.89 222.315 181.71C222.915 181.65 223.395 181.62 223.755 181.62C225.495 181.56 226.485 181.74 226.725 182.16C226.845 182.34 226.755 183.03 226.455 184.23C226.155 185.43 225.915 186.12 225.735 186.3L225.465 186.57H224.475C220.095 186.57 217.275 187.53 216.015 189.45C215.775 190.11 213.555 198.96 209.355 216C204.915 233.76 202.695 242.55 202.695 242.37C202.215 242.79 201.435 243 200.355 243H198.645L198.375 242.73C198.135 242.49 194.355 233.64 187.035 216.18C179.595 198.6 175.875 189.9 175.875 190.08C175.815 190.14 173.925 197.64 170.205 212.58C166.485 227.58 164.625 235.17 164.625 235.35C164.625 236.91 166.575 237.78 170.475 237.96C171.735 237.96 172.485 238.17 172.725 238.59C172.785 238.77 172.695 239.46 172.455 240.66C172.155 241.8 171.885 242.49 171.645 242.73L171.375 243H170.205C164.685 242.7 158.535 242.67 151.755 242.91C150.075 242.97 149.115 242.79 148.875 242.37C148.815 242.19 148.905 241.5 149.145 240.3C149.445 239.16 149.715 238.47 149.955 238.23L150.225 237.96H151.215C154.815 237.96 157.335 237.33 158.775 236.07C159.195 235.65 159.525 235.05 159.765 234.27C160.185 233.01 162.195 225.18 165.795 210.78L171.825 186.75H171.555L167.415 186.57H163.545L163.185 186.21C163.005 186.03 162.915 185.85 162.915 185.67L163.905 181.98C163.905 181.92 163.995 181.8 164.175 181.62ZM224.271 181.71L224.541 181.53H225.801C231.441 181.83 238.341 181.86 246.501 181.62C248.481 181.56 249.591 181.74 249.831 182.16C249.951 182.34 249.861 183.03 249.561 184.23C249.201 185.55 248.901 186.27 248.661 186.39C248.481 186.45 247.791 186.51 246.591 186.57C245.151 186.69 244.191 186.75 243.711 186.75C242.451 186.99 241.701 187.2 241.461 187.38C241.401 187.44 242.151 194.61 243.711 208.89C245.271 223.23 246.081 230.49 246.141 230.67C246.141 230.73 246.231 230.64 246.411 230.4C246.951 229.62 251.031 223.02 258.651 210.6C267.111 196.56 271.311 189.63 271.251 189.81C271.491 189.21 271.581 188.73 271.521 188.37C271.221 187.35 269.901 186.75 267.561 186.57C266.661 186.57 266.091 186.36 265.851 185.94C265.791 185.76 265.881 185.07 266.121 183.87C266.421 182.73 266.691 182.04 266.931 181.8L267.201 181.53H268.281C273.261 181.77 277.911 181.83 282.231 181.71L286.641 181.53H287.271L287.541 181.8C287.781 182.04 287.901 182.28 287.901 182.52C287.901 183.48 287.601 184.65 287.001 186.03C286.881 186.39 286.221 186.57 285.021 186.57C282.021 186.75 279.681 187.44 278.001 188.64C277.521 189.06 276.951 189.69 276.291 190.53C275.871 191.13 270.351 200.13 259.731 217.53C248.871 235.29 243.411 244.2 243.351 244.26C243.351 244.32 243.111 244.5 242.631 244.8C242.331 244.92 241.521 244.98 240.201 244.98C238.941 244.98 238.161 244.89 237.861 244.71C237.681 244.53 237.591 244.38 237.591 244.26C237.591 243.9 236.511 234.39 234.351 215.73C232.311 196.77 231.231 187.23 231.111 187.11C231.051 187.05 230.841 186.96 230.481 186.84C229.761 186.66 228.141 186.57 225.621 186.57C224.181 186.57 223.401 186.39 223.281 186.03C223.161 185.85 223.221 185.16 223.461 183.96C223.761 182.7 224.031 181.95 224.271 181.71ZM274.942 181.62C275.062 181.56 275.512 181.53 276.292 181.53C280.432 181.77 285.892 181.83 292.672 181.71C297.352 181.59 299.662 181.53 299.602 181.53H300.592L300.862 181.8C301.102 182.04 301.222 182.25 301.222 182.43L300.412 185.94C300.292 186.36 299.692 186.57 298.612 186.57C295.672 186.57 294.082 186.81 293.842 187.29L302.302 212.04L319.582 191.52C320.722 190.14 321.322 189.39 321.382 189.27C321.562 188.91 321.712 188.55 321.832 188.19C321.832 187.89 321.712 187.62 321.472 187.38C321.052 186.9 320.242 186.63 319.042 186.57C318.202 186.57 317.692 186.36 317.512 185.94C317.392 185.76 317.482 185.07 317.782 183.87C318.022 182.73 318.262 182.04 318.502 181.8L318.772 181.53H320.032C325.912 181.83 331.672 181.86 337.312 181.62C338.692 181.56 339.472 181.71 339.652 182.07C339.772 182.25 339.712 182.94 339.472 184.14C339.112 185.58 338.752 186.36 338.392 186.48C338.272 186.48 337.792 186.51 336.952 186.57C333.292 186.75 330.442 187.5 328.402 188.82C327.502 189.48 325.162 192.03 321.382 196.47C320.062 198.03 317.752 200.79 314.452 204.75L302.932 218.43L300.592 227.7C299.032 234 298.252 237.18 298.252 237.24C298.252 237.36 298.312 237.48 298.432 237.6C298.672 237.72 300.292 237.84 303.292 237.96H306.352L306.622 238.23C306.982 238.47 306.982 239.25 306.622 240.57C306.442 241.47 306.262 242.1 306.082 242.46C305.902 242.82 305.332 242.97 304.372 242.91C304.072 242.91 303.382 242.91 302.302 242.91C297.442 242.67 291.202 242.64 283.582 242.82C282.862 242.88 282.292 242.91 281.872 242.91C279.772 242.97 278.602 242.79 278.362 242.37C278.302 242.19 278.392 241.5 278.632 240.3C278.992 239.1 279.232 238.41 279.352 238.23L279.712 237.96H282.772C286.312 237.9 288.262 237.6 288.622 237.06C288.742 236.94 288.832 236.76 288.892 236.52L291.232 227.16L293.392 218.34L288.172 202.86C284.632 192.54 282.592 187.23 282.052 186.93C281.512 186.75 279.892 186.63 277.192 186.57H274.312L273.952 186.21C273.652 185.91 273.682 185.1 274.042 183.78C274.402 182.52 274.702 181.8 274.942 181.62Z" fill="#C40000"/>
<path d="M252.55 242.98L252.82 242.8H278.02H303.13L303.49 243.07C303.67 243.31 303.76 243.55 303.76 243.79L301.15 264.31C301.15 264.61 301.03 264.85 300.79 265.03L300.52 265.3H298.99C297.91 265.3 297.28 265.24 297.1 265.12C296.8 264.94 296.71 264.22 296.83 262.96C296.83 262.84 296.83 262.69 296.83 262.51C297.13 260.05 297.28 258.01 297.28 256.39C297.1 252.79 295.9 250.42 293.68 249.28C292.6 248.8 291.49 248.47 290.35 248.29C288.67 247.99 284.95 247.87 279.19 247.93C273.43 247.93 270.4 248.11 270.1 248.47L264.7 269.71H269.47C273.43 269.65 275.98 269.41 277.12 268.99C278.44 268.57 279.52 267.82 280.36 266.74C281.2 265.66 281.98 263.71 282.7 260.89C282.94 260.11 283.15 259.63 283.33 259.45L283.6 259.18H285.13C286.39 259.18 287.14 259.39 287.38 259.81C287.44 260.05 286.48 264.22 284.5 272.32C282.4 280.54 281.32 284.68 281.26 284.74C281.14 285.1 280.42 285.28 279.1 285.28H277.57L277.21 285.01C276.97 284.71 276.97 284.02 277.21 282.94C277.93 279.88 278.02 277.78 277.48 276.64C277.06 275.74 275.86 275.17 273.88 274.93C273.52 274.87 271.66 274.84 268.3 274.84L263.44 274.75L260.47 286.54C258.49 294.52 257.5 298.54 257.5 298.6C257.5 298.66 257.56 298.75 257.68 298.87H273.97C277.51 298.69 280.54 298.03 283.06 296.89C284.56 296.11 285.91 295.18 287.11 294.1C289.45 291.76 291.94 287.41 294.58 281.05C295.06 279.79 295.42 279.04 295.66 278.8L295.93 278.53H297.55H299.17L299.44 278.8C299.68 279.04 299.68 279.52 299.44 280.24C299.14 281.14 297.64 284.92 294.94 291.58C291.64 299.5 289.99 303.49 289.99 303.55C289.87 303.79 289 303.91 287.38 303.91C285.46 303.97 277.57 304 263.71 304C246.49 304 237.76 303.82 237.52 303.46C237.4 303.28 237.46 302.59 237.7 301.39C238 300.07 238.3 299.32 238.6 299.14C238.9 299.02 239.98 298.96 241.84 298.96C245.2 298.9 247.09 298.66 247.51 298.24C247.69 298.12 249.85 289.78 253.99 273.22C258.13 256.66 260.14 248.35 260.02 248.29C259.9 248.17 259.69 248.11 259.39 248.11C258.37 247.93 256.63 247.84 254.17 247.84C252.61 247.84 251.74 247.66 251.56 247.3C251.44 247.12 251.5 246.43 251.74 245.23C252.04 243.97 252.31 243.22 252.55 242.98ZM319.175 242.62H337.535H337.715C337.955 242.74 338.075 242.83 338.075 242.89C338.195 243.13 341.345 250.57 347.525 265.21C353.765 280.09 356.885 287.38 356.885 287.08L366.065 250.27C366.065 249.37 365.585 248.74 364.625 248.38C363.545 247.84 361.835 247.57 359.495 247.57H358.505L358.145 247.3C357.965 247.06 357.875 246.85 357.875 246.67L358.865 242.98C359.045 242.68 359.855 242.56 361.295 242.62C361.475 242.62 361.745 242.62 362.105 242.62C366.185 242.86 371.255 242.89 377.315 242.71C377.915 242.65 378.395 242.62 378.755 242.62C380.495 242.56 381.485 242.74 381.725 243.16C381.845 243.34 381.755 244.03 381.455 245.23C381.155 246.43 380.915 247.12 380.735 247.3L380.465 247.57H379.475C375.095 247.57 372.275 248.53 371.015 250.45C370.775 251.11 368.555 259.96 364.355 277C359.915 294.76 357.695 303.55 357.695 303.37C357.215 303.79 356.435 304 355.355 304H353.645L353.375 303.73C353.135 303.49 349.355 294.64 342.035 277.18C334.595 259.6 330.875 250.9 330.875 251.08C330.815 251.14 328.925 258.64 325.205 273.58C321.485 288.58 319.625 296.17 319.625 296.35C319.625 297.91 321.575 298.78 325.475 298.96C326.735 298.96 327.485 299.17 327.725 299.59C327.785 299.77 327.695 300.46 327.455 301.66C327.155 302.8 326.885 303.49 326.645 303.73L326.375 304H325.205C319.685 303.7 313.535 303.67 306.755 303.91C305.075 303.97 304.115 303.79 303.875 303.37C303.815 303.19 303.905 302.5 304.145 301.3C304.445 300.16 304.715 299.47 304.955 299.23L305.225 298.96H306.215C309.815 298.96 312.335 298.33 313.775 297.07C314.195 296.65 314.525 296.05 314.765 295.27C315.185 294.01 317.195 286.18 320.795 271.78L326.825 247.75H326.555L322.415 247.57H318.545L318.185 247.21C318.005 247.03 317.915 246.85 317.915 246.67L318.905 242.98C318.905 242.92 318.995 242.8 319.175 242.62ZM379.271 242.71L379.541 242.53H380.801C386.441 242.83 393.341 242.86 401.501 242.62C403.481 242.56 404.591 242.74 404.831 243.16C404.951 243.34 404.861 244.03 404.561 245.23C404.201 246.55 403.901 247.27 403.661 247.39C403.481 247.45 402.791 247.51 401.591 247.57C400.151 247.69 399.191 247.75 398.711 247.75C397.451 247.99 396.701 248.2 396.461 248.38C396.401 248.44 397.151 255.61 398.711 269.89C400.271 284.23 401.081 291.49 401.141 291.67C401.141 291.73 401.231 291.64 401.411 291.4C401.951 290.62 406.031 284.02 413.651 271.6C422.111 257.56 426.311 250.63 426.251 250.81C426.491 250.21 426.581 249.73 426.521 249.37C426.221 248.35 424.901 247.75 422.561 247.57C421.661 247.57 421.091 247.36 420.851 246.94C420.791 246.76 420.881 246.07 421.121 244.87C421.421 243.73 421.691 243.04 421.931 242.8L422.201 242.53H423.281C428.261 242.77 432.911 242.83 437.231 242.71L441.641 242.53H442.271L442.541 242.8C442.781 243.04 442.901 243.28 442.901 243.52C442.901 244.48 442.601 245.65 442.001 247.03C441.881 247.39 441.221 247.57 440.021 247.57C437.021 247.75 434.681 248.44 433.001 249.64C432.521 250.06 431.951 250.69 431.291 251.53C430.871 252.13 425.351 261.13 414.731 278.53C403.871 296.29 398.411 305.2 398.351 305.26C398.351 305.32 398.111 305.5 397.631 305.8C397.331 305.92 396.521 305.98 395.201 305.98C393.941 305.98 393.161 305.89 392.861 305.71C392.681 305.53 392.591 305.38 392.591 305.26C392.591 304.9 391.511 295.39 389.351 276.73C387.311 257.77 386.231 248.23 386.111 248.11C386.051 248.05 385.841 247.96 385.481 247.84C384.761 247.66 383.141 247.57 380.621 247.57C379.181 247.57 378.401 247.39 378.281 247.03C378.161 246.85 378.221 246.16 378.461 244.96C378.761 243.7 379.031 242.95 379.271 242.71ZM429.942 242.62C430.062 242.56 430.512 242.53 431.292 242.53C435.432 242.77 440.892 242.83 447.672 242.71C452.352 242.59 454.662 242.53 454.602 242.53H455.592L455.862 242.8C456.102 243.04 456.222 243.25 456.222 243.43L455.412 246.94C455.292 247.36 454.692 247.57 453.612 247.57C450.672 247.57 449.082 247.81 448.842 248.29L457.302 273.04L474.582 252.52C475.722 251.14 476.322 250.39 476.382 250.27C476.562 249.91 476.712 249.55 476.832 249.19C476.832 248.89 476.712 248.62 476.472 248.38C476.052 247.9 475.242 247.63 474.042 247.57C473.202 247.57 472.692 247.36 472.512 246.94C472.392 246.76 472.482 246.07 472.782 244.87C473.022 243.73 473.262 243.04 473.502 242.8L473.772 242.53H475.032C480.912 242.83 486.672 242.86 492.312 242.62C493.692 242.56 494.472 242.71 494.652 243.07C494.772 243.25 494.712 243.94 494.472 245.14C494.112 246.58 493.752 247.36 493.392 247.48C493.272 247.48 492.792 247.51 491.952 247.57C488.292 247.75 485.442 248.5 483.402 249.82C482.502 250.48 480.162 253.03 476.382 257.47C475.062 259.03 472.752 261.79 469.452 265.75L457.932 279.43L455.592 288.7C454.032 295 453.252 298.18 453.252 298.24C453.252 298.36 453.312 298.48 453.432 298.6C453.672 298.72 455.292 298.84 458.292 298.96H461.352L461.622 299.23C461.982 299.47 461.982 300.25 461.622 301.57C461.442 302.47 461.262 303.1 461.082 303.46C460.902 303.82 460.332 303.97 459.372 303.91C459.072 303.91 458.382 303.91 457.302 303.91C452.442 303.67 446.202 303.64 438.582 303.82C437.862 303.88 437.292 303.91 436.872 303.91C434.772 303.97 433.602 303.79 433.362 303.37C433.302 303.19 433.392 302.5 433.632 301.3C433.992 300.1 434.232 299.41 434.352 299.23L434.712 298.96H437.772C441.312 298.9 443.262 298.6 443.622 298.06C443.742 297.94 443.832 297.76 443.892 297.52L446.232 288.16L448.392 279.34L443.172 263.86C439.632 253.54 437.592 248.23 437.052 247.93C436.512 247.75 434.892 247.63 432.192 247.57H429.312L428.952 247.21C428.652 246.91 428.682 246.1 429.042 244.78C429.402 243.52 429.702 242.8 429.942 242.62Z" fill="#C40000"/>
</svg>
