<svg width="762" height="483" viewBox="0 0 762 483" fill="none" xmlns="http://www.w3.org/2000/svg">
<path d="M258.802 108.675H485.265V159.408H258.802V108.675ZM250 237.733H493V288.911H250V237.733ZM400.975 138.047H434.05V437.55H400.975V138.047ZM308.683 138.492H340.692V234.618C340.692 308.047 332.689 390.377 272.139 442C267.872 429.539 257.202 409.958 250.267 400.168C302.281 357.445 308.683 291.581 308.683 233.283V138.492ZM292.412 37.0262L320.953 18.3351C331.356 41.4764 342.559 73.0733 347.36 93.9895L316.685 115.351C312.951 94.4345 302.281 61.0576 292.412 37.0262ZM420.714 17L457.257 34.356C446.054 63.2827 433.784 93.0995 424.181 112.236L395.907 95.7696C404.976 73.9633 415.379 41.4764 420.714 17Z" fill="white"/>
<path d="M0 110.648H218V169.839H0V110.648ZM85.4808 1L116.76 12.1589C97.897 116.956 71.632 246.981 52.2913 330.915L23.161 309.568C42.2629 230.485 68.5279 100.46 85.4808 1ZM152.337 139.758L183.855 154.314C164.754 356.144 120.581 426.494 17.1917 457.544C14.3264 439.593 7.87952 414.85 2.14896 399.809C97.897 377.492 136.578 318.786 152.337 139.758ZM38.92 299.864L58.2607 254.258C109.119 288.706 178.841 352.263 213.941 404.176L191.974 459C159.978 406.602 92.1665 338.678 38.92 299.864Z" fill="#FF0000"/>
<path d="M10.5803 5.81818H15.321L20.3281 18.0341H20.5412L25.5483 5.81818H30.2891V24H26.5604V12.1658H26.4094L21.7042 23.9112H19.1651L14.4599 12.1214H14.3089V24H10.5803V5.81818ZM37.3003 5.81818V24H33.4562V5.81818H37.3003ZM50.3263 11.0472C50.2553 10.3311 49.9505 9.77474 49.4119 9.3782C48.8733 8.98165 48.1424 8.78338 47.2191 8.78338C46.5917 8.78338 46.062 8.87216 45.63 9.04972C45.1979 9.22135 44.8665 9.46106 44.6357 9.76882C44.4107 10.0766 44.2983 10.4258 44.2983 10.8164C44.2865 11.1419 44.3545 11.426 44.5025 11.6687C44.6564 11.9113 44.8665 12.1214 45.1328 12.299C45.3991 12.4706 45.7069 12.6216 46.0561 12.7518C46.4053 12.8761 46.7782 12.9826 47.1747 13.0714L48.8082 13.462C49.6013 13.6396 50.3293 13.8763 50.9922 14.1722C51.6551 14.4682 52.2292 14.8321 52.7145 15.2642C53.1998 15.6963 53.5756 16.2053 53.842 16.7912C54.1142 17.3771 54.2533 18.0489 54.2592 18.8065C54.2533 19.9192 53.9692 20.8839 53.407 21.7006C52.8506 22.5115 52.0457 23.1418 50.9922 23.5916C49.9446 24.0355 48.681 24.2575 47.2013 24.2575C45.7335 24.2575 44.4551 24.0326 43.3661 23.5827C42.283 23.1329 41.4367 22.4671 40.8271 21.5852C40.2234 20.6974 39.9067 19.5996 39.8771 18.2915H43.5969C43.6384 18.9012 43.813 19.4102 44.1207 19.8185C44.4344 20.221 44.8517 20.5258 45.3725 20.733C45.8993 20.9342 46.4941 21.0348 47.157 21.0348C47.808 21.0348 48.3732 20.9401 48.8526 20.7507C49.3379 20.5613 49.7138 20.2979 49.9801 19.9606C50.2464 19.6232 50.3796 19.2356 50.3796 18.7976C50.3796 18.3892 50.2583 18.0459 50.0156 17.7678C49.7789 17.4896 49.4297 17.2528 48.968 17.0575C48.5123 16.8622 47.953 16.6847 47.2901 16.5249L45.3104 16.0277C43.7775 15.6548 42.5671 15.0719 41.6793 14.2788C40.7915 13.4857 40.3506 12.4174 40.3565 11.0739C40.3506 9.97301 40.6436 9.01124 41.2354 8.18857C41.8332 7.36589 42.6529 6.72372 43.6946 6.26207C44.7363 5.80043 45.92 5.5696 47.2457 5.5696C48.5952 5.5696 49.773 5.80043 50.7791 6.26207C51.7912 6.72372 52.5784 7.36589 53.1406 8.18857C53.7029 9.01124 53.9929 9.96413 54.0107 11.0472H50.3263ZM73.553 14.9091C73.553 16.8918 73.1772 18.5786 72.4255 19.9695C71.6798 21.3603 70.6618 22.4227 69.3715 23.1566C68.0872 23.8846 66.6431 24.2486 65.0392 24.2486C63.4234 24.2486 61.9733 23.8816 60.689 23.1477C59.4047 22.4138 58.3896 21.3514 57.6439 19.9606C56.8982 18.5697 56.5253 16.8859 56.5253 14.9091C56.5253 12.9264 56.8982 11.2396 57.6439 9.84872C58.3896 8.45786 59.4047 7.39844 60.689 6.67045C61.9733 5.93655 63.4234 5.5696 65.0392 5.5696C66.6431 5.5696 68.0872 5.93655 69.3715 6.67045C70.6618 7.39844 71.6798 8.45786 72.4255 9.84872C73.1772 11.2396 73.553 12.9264 73.553 14.9091ZM69.6556 14.9091C69.6556 13.6248 69.4633 12.5417 69.0786 11.6598C68.6998 10.7779 68.1642 10.1091 67.4717 9.65341C66.7792 9.19768 65.9684 8.96982 65.0392 8.96982C64.1099 8.96982 63.2991 9.19768 62.6066 9.65341C61.9142 10.1091 61.3756 10.7779 60.9909 11.6598C60.6121 12.5417 60.4227 13.6248 60.4227 14.9091C60.4227 16.1934 60.6121 17.2765 60.9909 18.1584C61.3756 19.0402 61.9142 19.709 62.6066 20.1648C63.2991 20.6205 64.1099 20.8484 65.0392 20.8484C65.9684 20.8484 66.7792 20.6205 67.4717 20.1648C68.1642 19.709 68.6998 19.0402 69.0786 18.1584C69.4633 17.2765 69.6556 16.1934 69.6556 14.9091ZM88.4567 11.6953C88.3324 11.2633 88.1578 10.8815 87.9329 10.5501C87.708 10.2127 87.4328 9.92862 87.1072 9.6978C86.7876 9.46106 86.4207 9.28054 86.0064 9.15625C85.598 9.03196 85.1452 8.96982 84.6481 8.96982C83.7189 8.96982 82.9021 9.20064 82.1978 9.66229C81.4994 10.1239 80.9549 10.7957 80.5643 11.6776C80.1737 12.5535 79.9783 13.6248 79.9783 14.8913C79.9783 16.1579 80.1707 17.2351 80.5554 18.1229C80.9401 19.0107 81.4846 19.6883 82.1889 20.1559C82.8932 20.6175 83.7248 20.8484 84.6836 20.8484C85.5536 20.8484 86.2964 20.6945 86.9119 20.3867C87.5334 20.073 88.0069 19.6321 88.3324 19.0639C88.6638 18.4957 88.8295 17.824 88.8295 17.0487L89.6108 17.1641H84.9233V14.2699H92.5316V16.5604C92.5316 18.1584 92.1942 19.5315 91.5195 20.6797C90.8448 21.822 89.9156 22.7038 88.7319 23.3253C87.5482 23.9408 86.1928 24.2486 84.6658 24.2486C82.9613 24.2486 81.4639 23.8728 80.1737 23.1211C78.8834 22.3635 77.8772 21.2893 77.1552 19.8984C76.439 18.5017 76.081 16.8445 76.081 14.9268C76.081 13.4531 76.294 12.1392 76.7202 10.9851C77.1522 9.82505 77.7559 8.84257 78.5312 8.03764C79.3066 7.23272 80.2092 6.62015 81.239 6.19993C82.2688 5.77971 83.3845 5.5696 84.5859 5.5696C85.6158 5.5696 86.5746 5.72053 87.4624 6.02237C88.3501 6.3183 89.1373 6.73852 89.8239 7.28303C90.5163 7.82753 91.0816 8.47561 91.5195 9.22727C91.9575 9.97301 92.2386 10.7957 92.3629 11.6953H88.4567ZM93.6214 5.81818H97.9271L102.073 13.6484H102.251L106.397 5.81818H110.702L104.071 17.5724V24H100.253V17.5724L93.6214 5.81818ZM128.01 5.81818V24H124.689L116.779 12.5565H116.646V24H112.802V5.81818H116.176L124.024 17.2528H124.183V5.81818H128.01ZM130.12 5.81818H134.426L138.572 13.6484H138.75L142.896 5.81818H147.201L140.57 17.5724V24H136.752V17.5724L130.12 5.81818ZM158.931 5.81818V24H155.087V5.81818H158.931ZM177.302 5.81818V24H173.981L166.071 12.5565H165.938V24H162.094V5.81818H165.468L173.316 17.2528H173.475V5.81818H177.302ZM26.6225 42.1836H22.734C22.663 41.6805 22.518 41.2337 22.299 40.843C22.08 40.4465 21.7989 40.1091 21.4556 39.831C21.1123 39.5528 20.7158 39.3397 20.266 39.1918C19.8221 39.0438 19.3397 38.9698 18.8189 38.9698C17.8778 38.9698 17.0581 39.2036 16.3597 39.6712C15.6613 40.1328 15.1198 40.8075 14.7351 41.6953C14.3504 42.5772 14.158 43.6484 14.158 44.9091C14.158 46.2053 14.3504 47.2943 14.7351 48.1761C15.1257 49.058 15.6702 49.7238 16.3686 50.1737C17.067 50.6235 17.8749 50.8484 18.7923 50.8484C19.3072 50.8484 19.7836 50.7803 20.2216 50.6442C20.6655 50.508 21.0591 50.3098 21.4023 50.0494C21.7456 49.783 22.0297 49.4605 22.2546 49.0817C22.4854 48.7029 22.6452 48.2708 22.734 47.7855L26.6225 47.8033C26.5219 48.6378 26.2704 49.4427 25.8679 50.218C25.4714 50.9875 24.9357 51.677 24.261 52.2866C23.5922 52.8903 22.7932 53.3697 21.864 53.7248C20.9407 54.074 19.8961 54.2486 18.7301 54.2486C17.1084 54.2486 15.6584 53.8816 14.38 53.1477C13.1075 52.4138 12.1013 51.3514 11.3615 49.9606C10.6276 48.5697 10.2607 46.8859 10.2607 44.9091C10.2607 42.9264 10.6335 41.2396 11.3793 39.8487C12.125 38.4579 13.1371 37.3984 14.4155 36.6705C15.6939 35.9366 17.1321 35.5696 18.7301 35.5696C19.7836 35.5696 20.7602 35.7176 21.6598 36.0135C22.5653 36.3094 23.3673 36.7415 24.0657 37.3097C24.7641 37.8719 25.3323 38.5614 25.7702 39.3782C26.2141 40.195 26.4982 41.1301 26.6225 42.1836ZM29.3791 54V35.8182H33.2232V43.32H41.0268V35.8182H44.862V54H41.0268V46.4893H33.2232V54H29.3791ZM51.8755 35.8182V54H48.0314V35.8182H51.8755ZM70.246 35.8182V54H66.9257L59.0155 42.5565H58.8824V54H55.0383V35.8182H58.4118L66.2599 47.2528H66.4197V35.8182H70.246ZM73.4221 54V35.8182H85.6735V38.9876H77.2662V43.32H85.0431V46.4893H77.2662V50.8306H85.709V54H73.4221ZM98.593 41.0472C98.5219 40.3311 98.2171 39.7747 97.6785 39.3782C97.1399 38.9817 96.409 38.7834 95.4857 38.7834C94.8583 38.7834 94.3286 38.8722 93.8966 39.0497C93.4645 39.2214 93.1331 39.4611 92.9023 39.7688C92.6773 40.0766 92.5649 40.4258 92.5649 40.8164C92.5531 41.1419 92.6211 41.426 92.7691 41.6687C92.923 41.9113 93.1331 42.1214 93.3994 42.299C93.6657 42.4706 93.9735 42.6216 94.3227 42.7518C94.6719 42.8761 95.0448 42.9826 95.4413 43.0714L97.0748 43.462C97.8679 43.6396 98.5959 43.8763 99.2588 44.1722C99.9217 44.4682 100.496 44.8321 100.981 45.2642C101.466 45.6963 101.842 46.2053 102.109 46.7912C102.381 47.3771 102.52 48.0489 102.526 48.8065C102.52 49.9192 102.236 50.8839 101.674 51.7006C101.117 52.5115 100.312 53.1418 99.2588 53.5916C98.2112 54.0355 96.9476 54.2575 95.468 54.2575C94.0001 54.2575 92.7217 54.0326 91.6327 53.5827C90.5496 53.1329 89.7033 52.4671 89.0937 51.5852C88.49 50.6974 88.1733 49.5996 88.1437 48.2915H91.8635C91.905 48.9012 92.0796 49.4102 92.3873 49.8185C92.701 50.221 93.1183 50.5258 93.6391 50.733C94.1659 50.9342 94.7607 51.0348 95.4236 51.0348C96.0746 51.0348 96.6398 50.9401 97.1192 50.7507C97.6046 50.5613 97.9804 50.2979 98.2467 49.9606C98.5131 49.6232 98.6462 49.2356 98.6462 48.7976C98.6462 48.3892 98.5249 48.0459 98.2822 47.7678C98.0455 47.4896 97.6963 47.2528 97.2346 47.0575C96.7789 46.8622 96.2196 46.6847 95.5567 46.5249L93.577 46.0277C92.0441 45.6548 90.8337 45.0719 89.9459 44.2788C89.0581 43.4857 88.6172 42.4174 88.6231 41.0739C88.6172 39.973 88.9102 39.0112 89.502 38.1886C90.0998 37.3659 90.9195 36.7237 91.9612 36.2621C93.0029 35.8004 94.1866 35.5696 95.5123 35.5696C96.8618 35.5696 98.0396 35.8004 99.0457 36.2621C100.058 36.7237 100.845 37.3659 101.407 38.1886C101.969 39.0112 102.259 39.9641 102.277 41.0472H98.593ZM105.112 54V35.8182H117.363V38.9876H108.956V43.32H116.733V46.4893H108.956V50.8306H117.398V54H105.112ZM26.6225 72.1836H22.734C22.663 71.6805 22.518 71.2337 22.299 70.843C22.08 70.4465 21.7989 70.1091 21.4556 69.831C21.1123 69.5528 20.7158 69.3397 20.266 69.1918C19.8221 69.0438 19.3397 68.9698 18.8189 68.9698C17.8778 68.9698 17.0581 69.2036 16.3597 69.6712C15.6613 70.1328 15.1198 70.8075 14.7351 71.6953C14.3504 72.5772 14.158 73.6484 14.158 74.9091C14.158 76.2053 14.3504 77.2943 14.7351 78.1761C15.1257 79.058 15.6702 79.7238 16.3686 80.1737C17.067 80.6235 17.8749 80.8484 18.7923 80.8484C19.3072 80.8484 19.7836 80.7803 20.2216 80.6442C20.6655 80.508 21.0591 80.3098 21.4023 80.0494C21.7456 79.783 22.0297 79.4605 22.2546 79.0817C22.4854 78.7029 22.6452 78.2708 22.734 77.7855L26.6225 77.8033C26.5219 78.6378 26.2704 79.4427 25.8679 80.218C25.4714 80.9875 24.9357 81.677 24.261 82.2866C23.5922 82.8903 22.7932 83.3697 21.864 83.7248C20.9407 84.074 19.8961 84.2486 18.7301 84.2486C17.1084 84.2486 15.6584 83.8816 14.38 83.1477C13.1075 82.4138 12.1013 81.3514 11.3615 79.9606C10.6276 78.5697 10.2607 76.8859 10.2607 74.9091C10.2607 72.9264 10.6335 71.2396 11.3793 69.8487C12.125 68.4579 13.1371 67.3984 14.4155 66.6705C15.6939 65.9366 17.1321 65.5696 18.7301 65.5696C19.7836 65.5696 20.7602 65.7176 21.6598 66.0135C22.5653 66.3094 23.3673 66.7415 24.0657 67.3097C24.7641 67.8719 25.3323 68.5614 25.7702 69.3782C26.2141 70.195 26.4982 71.1301 26.6225 72.1836ZM29.3791 84V65.8182H33.2232V73.32H41.0268V65.8182H44.862V84H41.0268V76.4893H33.2232V84H29.3791ZM51.1653 84H47.046L53.3226 65.8182H58.2765L64.5442 84H60.4249L55.8706 69.973H55.7285L51.1653 84ZM50.9078 76.8533H60.638V79.854H50.9078V76.8533ZM66.7326 84V65.8182H73.9059C75.279 65.8182 76.4509 66.0638 77.4215 66.555C78.3981 67.0404 79.1409 67.7299 79.6499 68.6236C80.1648 69.5114 80.4222 70.556 80.4222 71.7575C80.4222 72.9648 80.1618 74.0036 79.641 74.8736C79.1201 75.7377 78.3655 76.4006 77.3771 76.8622C76.3946 77.3239 75.205 77.5547 73.8082 77.5547H69.0053V74.4652H73.1868C73.9207 74.4652 74.5303 74.3646 75.0156 74.1634C75.5009 73.9621 75.862 73.6603 76.0987 73.2578C76.3414 72.8554 76.4627 72.3552 76.4627 71.7575C76.4627 71.1538 76.3414 70.6448 76.0987 70.2305C75.862 69.8162 75.498 69.5025 75.0067 69.2894C74.5214 69.0704 73.9089 68.9609 73.169 68.9609H70.5767V84H66.7326ZM76.5515 75.7259L81.0703 84H76.8267L72.4055 75.7259H76.5515ZM86.2727 84H82.1534L88.43 65.8182H93.3839L99.6516 84H95.5323L90.978 69.973H90.8359L86.2727 84ZM86.0153 76.8533H95.7454V79.854H86.0153V76.8533ZM117.028 72.1836H113.139C113.068 71.6805 112.923 71.2337 112.704 70.843C112.485 70.4465 112.204 70.1091 111.861 69.831C111.518 69.5528 111.121 69.3397 110.671 69.1918C110.227 69.0438 109.745 68.9698 109.224 68.9698C108.283 68.9698 107.463 69.2036 106.765 69.6712C106.067 70.1328 105.525 70.8075 105.14 71.6953C104.756 72.5772 104.563 73.6484 104.563 74.9091C104.563 76.2053 104.756 77.2943 105.14 78.1761C105.531 79.058 106.075 79.7238 106.774 80.1737C107.472 80.6235 108.28 80.8484 109.198 80.8484C109.712 80.8484 110.189 80.7803 110.627 80.6442C111.071 80.508 111.464 80.3098 111.808 80.0494C112.151 79.783 112.435 79.4605 112.66 79.0817C112.891 78.7029 113.051 78.2708 113.139 77.7855L117.028 77.8033C116.927 78.6378 116.676 79.4427 116.273 80.218C115.877 80.9875 115.341 81.677 114.666 82.2866C113.997 82.8903 113.198 83.3697 112.269 83.7248C111.346 84.074 110.301 84.2486 109.135 84.2486C107.514 84.2486 106.064 83.8816 104.785 83.1477C103.513 82.4138 102.507 81.3514 101.767 79.9606C101.033 78.5697 100.666 76.8859 100.666 74.9091C100.666 72.9264 101.039 71.2396 101.785 69.8487C102.53 68.4579 103.542 67.3984 104.821 66.6705C106.099 65.9366 107.537 65.5696 109.135 65.5696C110.189 65.5696 111.165 65.7176 112.065 66.0135C112.971 66.3094 113.773 66.7415 114.471 67.3097C115.169 67.8719 115.738 68.5614 116.176 69.3782C116.619 70.195 116.903 71.1301 117.028 72.1836ZM119.092 68.9876V65.8182H134.024V68.9876H128.458V84H124.658V68.9876H119.092ZM136.484 84V65.8182H148.735V68.9876H140.328V73.32H148.105V76.4893H140.328V80.8306H148.771V84H136.484ZM151.791 84V65.8182H158.964C160.338 65.8182 161.509 66.0638 162.48 66.555C163.457 67.0404 164.199 67.7299 164.708 68.6236C165.223 69.5114 165.481 70.556 165.481 71.7575C165.481 72.9648 165.22 74.0036 164.7 74.8736C164.179 75.7377 163.424 76.4006 162.436 76.8622C161.453 77.3239 160.264 77.5547 158.867 77.5547H154.064V74.4652H158.245C158.979 74.4652 159.589 74.3646 160.074 74.1634C160.56 73.9621 160.921 73.6603 161.157 73.2578C161.4 72.8554 161.521 72.3552 161.521 71.7575C161.521 71.1538 161.4 70.6448 161.157 70.2305C160.921 69.8162 160.557 69.5025 160.065 69.2894C159.58 69.0704 158.967 68.9609 158.228 68.9609H155.635V84H151.791ZM161.61 75.7259L166.129 84H161.885L157.464 75.7259H161.61ZM178.061 71.0472C177.99 70.3311 177.685 69.7747 177.146 69.3782C176.608 68.9817 175.877 68.7834 174.953 68.7834C174.326 68.7834 173.796 68.8722 173.364 69.0497C172.932 69.2214 172.601 69.4611 172.37 69.7688C172.145 70.0766 172.033 70.4258 172.033 70.8164C172.021 71.1419 172.089 71.426 172.237 71.6687C172.391 71.9113 172.601 72.1214 172.867 72.299C173.134 72.4706 173.441 72.6216 173.79 72.7518C174.14 72.8761 174.513 72.9826 174.909 73.0714L176.543 73.462C177.336 73.6396 178.064 73.8763 178.727 74.1722C179.389 74.4682 179.964 74.8321 180.449 75.2642C180.934 75.6963 181.31 76.2053 181.576 76.7912C181.849 77.3771 181.988 78.0489 181.994 78.8065C181.988 79.9192 181.704 80.8839 181.141 81.7006C180.585 82.5115 179.78 83.1418 178.727 83.5916C177.679 84.0355 176.415 84.2575 174.936 84.2575C173.468 84.2575 172.19 84.0326 171.1 83.5827C170.017 83.1329 169.171 82.4671 168.561 81.5852C167.958 80.6974 167.641 79.5996 167.612 78.2915H171.331C171.373 78.9012 171.547 79.4102 171.855 79.8185C172.169 80.221 172.586 80.5258 173.107 80.733C173.634 80.9342 174.228 81.0348 174.891 81.0348C175.542 81.0348 176.108 80.9401 176.587 80.7507C177.072 80.5613 177.448 80.2979 177.714 79.9606C177.981 79.6232 178.114 79.2356 178.114 78.7976C178.114 78.3892 177.993 78.0459 177.75 77.7678C177.513 77.4896 177.164 77.2528 176.702 77.0575C176.247 76.8622 175.687 76.6847 175.025 76.5249L173.045 76.0277C171.512 75.6548 170.301 75.0719 169.414 74.2788C168.526 73.4857 168.085 72.4174 168.091 71.0739C168.085 69.973 168.378 69.0112 168.97 68.1886C169.568 67.3659 170.387 66.7237 171.429 66.2621C172.471 65.8004 173.654 65.5696 174.98 65.5696C176.33 65.5696 177.507 65.8004 178.513 66.2621C179.526 66.7237 180.313 67.3659 180.875 68.1886C181.437 69.0112 181.727 69.9641 181.745 71.0472H178.061Z" fill="white"/>
<path d="M13.8075 462L7.56463 440.182H12.6037L16.2152 455.342H16.3963L20.3807 440.182H24.6953L28.669 455.374H28.8608L32.4723 440.182H37.5114L31.2685 462H26.7727L22.6179 447.735H22.4474L18.3033 462H13.8075ZM58.7995 451.091C58.7995 453.47 58.3485 455.494 57.4466 457.163C56.5517 458.832 55.3301 460.107 53.7818 460.988C52.2406 461.862 50.5076 462.298 48.5829 462.298C46.644 462.298 44.9039 461.858 43.3627 460.977C41.8216 460.097 40.6035 458.822 39.7086 457.153C38.8137 455.484 38.3663 453.463 38.3663 451.091C38.3663 448.712 38.8137 446.688 39.7086 445.018C40.6035 443.349 41.8216 442.078 43.3627 441.205C44.9039 440.324 46.644 439.884 48.5829 439.884C50.5076 439.884 52.2406 440.324 53.7818 441.205C55.3301 442.078 56.5517 443.349 57.4466 445.018C58.3485 446.688 58.7995 448.712 58.7995 451.091ZM54.1227 451.091C54.1227 449.55 53.8919 448.25 53.4302 447.192C52.9757 446.134 52.3329 445.331 51.502 444.784C50.671 444.237 49.698 443.964 48.5829 443.964C47.4679 443.964 46.4949 444.237 45.6639 444.784C44.8329 445.331 44.1866 446.134 43.725 447.192C43.2704 448.25 43.0431 449.55 43.0431 451.091C43.0431 452.632 43.2704 453.932 43.725 454.99C44.1866 456.048 44.8329 456.851 45.6639 457.398C46.4949 457.945 47.4679 458.218 48.5829 458.218C49.698 458.218 50.671 457.945 51.502 457.398C52.3329 456.851 52.9757 456.048 53.4302 454.99C53.8919 453.932 54.1227 452.632 54.1227 451.091ZM62.2166 440.182H67.9055L73.9141 454.841H74.1697L80.1783 440.182H85.8672V462H81.3928V447.799H81.2116L75.5653 461.893H72.5185L66.8722 447.746H66.6911V462H62.2166V440.182ZM89.6678 462V440.182H104.369V443.985H94.2807V449.184H103.613V452.987H94.2807V458.197H104.412V462H89.6678ZM126.286 440.182V462H122.302L112.81 448.268H112.65V462H108.037V440.182H112.085L121.503 453.903H121.695V440.182H126.286Z" fill="white"/>
<path fill-rule="evenodd" clip-rule="evenodd" d="M500.827 10.8571H242.173V445.143H500.827V10.8571ZM218 0V456H525V0H218Z" fill="#FF0000"/>
<path d="M383.896 119.182H389.585L395.594 133.841H395.849L401.858 119.182H407.547V141H403.072V126.799H402.891L397.245 140.893H394.198L388.552 126.746H388.371V141H383.896V119.182ZM411.347 141V119.182H426.049V122.985H415.96V128.184H425.293V131.987H415.96V137.197H426.092V141H411.347ZM429.717 141V119.182H438.325C439.972 119.182 441.379 119.477 442.543 120.066C443.715 120.648 444.607 121.476 445.217 122.548C445.835 123.614 446.144 124.867 446.144 126.309C446.144 127.758 445.832 129.004 445.207 130.048C444.582 131.085 443.676 131.881 442.49 132.435C441.311 132.989 439.884 133.266 438.207 133.266H432.444V129.558H437.462C438.342 129.558 439.074 129.437 439.656 129.196C440.239 128.955 440.672 128.592 440.956 128.109C441.247 127.626 441.393 127.026 441.393 126.309C441.393 125.585 441.247 124.974 440.956 124.477C440.672 123.979 440.235 123.603 439.646 123.347C439.063 123.085 438.328 122.953 437.44 122.953H434.33V141H429.717ZM441.499 131.071L446.922 141H441.83L436.524 131.071H441.499ZM463.871 126.234C463.722 125.716 463.513 125.258 463.243 124.86C462.973 124.455 462.643 124.114 462.252 123.837C461.869 123.553 461.428 123.337 460.931 123.188C460.441 123.038 459.898 122.964 459.301 122.964C458.186 122.964 457.206 123.241 456.361 123.795C455.523 124.349 454.869 125.155 454.401 126.213C453.932 127.264 453.697 128.55 453.697 130.07C453.697 131.589 453.928 132.882 454.39 133.947C454.852 135.013 455.505 135.826 456.35 136.387C457.195 136.941 458.193 137.218 459.344 137.218C460.388 137.218 461.279 137.033 462.018 136.664C462.763 136.288 463.332 135.759 463.722 135.077C464.12 134.395 464.319 133.589 464.319 132.658L465.256 132.797H459.631V129.324H468.761V132.072C468.761 133.99 468.357 135.638 467.547 137.016C466.737 138.386 465.622 139.445 464.202 140.19C462.781 140.929 461.155 141.298 459.322 141.298C457.277 141.298 455.48 140.847 453.932 139.945C452.384 139.036 451.176 137.747 450.31 136.078C449.45 134.402 449.021 132.413 449.021 130.112C449.021 128.344 449.276 126.767 449.788 125.382C450.306 123.99 451.031 122.811 451.961 121.845C452.891 120.879 453.974 120.144 455.21 119.64C456.446 119.136 457.785 118.884 459.227 118.884C460.462 118.884 461.613 119.065 462.678 119.427C463.744 119.782 464.688 120.286 465.512 120.94C466.343 121.593 467.021 122.371 467.547 123.273C468.072 124.168 468.41 125.155 468.559 126.234H463.871ZM472.226 141V119.182H486.928V122.985H476.839V128.184H486.172V131.987H476.839V137.197H486.971V141H472.226Z" fill="black"/>
<path d="M24.82 203.71C25 203.59 30.67 203.53 41.83 203.53C53.17 203.53 59.05 203.56 59.47 203.62C64.21 204.1 68.05 205.78 70.99 208.66C72.67 210.4 73.78 212.56 74.32 215.14C74.68 216.4 74.74 217.84 74.5 219.46C73.9 224.56 71.05 229.06 65.95 232.96C62.89 235.3 59.47 236.95 55.69 237.91C53.53 238.51 50.74 238.81 47.32 238.81C46.48 238.81 44.92 238.81 42.64 238.81H34.81L32.29 249.07C30.55 255.97 29.74 259.45 29.86 259.51C29.98 259.63 30.19 259.69 30.49 259.69C31.45 259.87 33.19 259.96 35.71 259.96C37.09 259.96 37.84 260.02 37.96 260.14C38.32 260.26 38.5 260.53 38.5 260.95L37.6 264.46C37.36 264.82 36.76 264.97 35.8 264.91C35.5 264.91 34.81 264.91 33.73 264.91C28.75 264.67 22.48 264.64 14.92 264.82C14.2 264.88 13.63 264.91 13.21 264.91C11.11 264.97 9.94 264.82 9.7 264.46C9.58 264.28 9.64 263.59 9.88 262.39C10.18 261.07 10.48 260.32 10.78 260.14C11.08 260.02 12.16 259.96 14.02 259.96C17.38 259.9 19.27 259.66 19.69 259.24C19.87 259.12 22.03 250.78 26.17 234.22C30.31 217.66 32.38 209.32 32.38 209.2C32.38 209.14 32.32 209.05 32.2 208.93C31.96 208.81 30.34 208.69 27.34 208.57H24.28L23.92 208.21C23.68 207.97 23.71 207.25 24.01 206.05C24.37 204.61 24.64 203.83 24.82 203.71ZM55.96 208.66H43.18C42.58 208.72 42.19 208.9 42.01 209.2L38.86 221.62C36.76 229.84 35.71 233.98 35.71 234.04C35.71 234.16 38.05 234.22 42.73 234.22C47.89 234.16 51.16 233.98 52.54 233.68C55.78 233.02 58.21 231.67 59.83 229.63C61.15 227.89 62.26 225.1 63.16 221.26C63.82 218.68 64.15 216.7 64.15 215.32C64.15 213.76 63.82 212.53 63.16 211.63C61.72 209.89 59.32 208.9 55.96 208.66ZM112.354 200.65L114.424 200.56H114.514C116.134 200.56 117.004 200.74 117.124 201.1C117.184 201.34 117.994 211.06 119.554 230.26C121.054 249.58 121.864 259.3 121.984 259.42C122.044 259.48 122.254 259.57 122.614 259.69C123.334 259.87 125.074 259.96 127.834 259.96H129.634L129.994 260.23C130.174 260.53 130.264 260.74 130.264 260.86L129.454 264.46C129.274 264.82 128.614 264.97 127.474 264.91C127.234 264.91 126.784 264.91 126.124 264.91C117.424 264.67 110.314 264.7 104.794 265H103.714L103.444 264.73C103.204 264.49 103.084 264.25 103.084 264.01C103.084 263.05 103.384 261.88 103.984 260.5C104.104 260.14 104.974 259.96 106.594 259.96C108.034 259.84 108.994 259.78 109.474 259.78C110.854 259.54 111.604 259.3 111.724 259.06C111.784 259 111.664 257.02 111.364 253.12C111.064 249.64 110.914 247.66 110.914 247.18C110.914 247.06 107.494 247 100.654 247H90.3041L87.6041 251.77C85.6841 255.01 84.6941 256.78 84.6341 257.08C84.3941 257.68 84.4841 258.19 84.9041 258.61C85.5041 259.33 86.7941 259.78 88.7741 259.96C89.6141 259.96 90.1541 260.17 90.3941 260.59L90.4841 260.86L90.0341 262.66C89.7941 263.8 89.5541 264.49 89.3141 264.73L89.0441 265H87.9641C82.9841 264.76 78.2741 264.7 73.8341 264.82C70.7741 264.94 69.2141 265 69.1541 265H68.5241L68.2541 264.73C68.0141 264.49 67.8941 264.28 67.8941 264.1L68.7041 260.5C68.9441 260.14 69.6341 259.96 70.7741 259.96C74.9741 259.78 77.8841 258.58 79.5041 256.36L95.7941 228.46C106.234 210.4 111.574 201.25 111.814 201.01C111.874 200.95 112.054 200.83 112.354 200.65ZM109.474 229C108.814 220.42 108.484 216.07 108.484 215.95C108.484 215.71 107.164 217.9 104.524 222.52L96.9641 235.57L93.2741 241.87L101.824 241.96H110.464C110.464 242.02 110.134 237.7 109.474 229ZM150.154 203.62C150.274 203.56 155.554 203.53 165.994 203.53C176.914 203.59 182.884 203.71 183.904 203.89C184.024 203.95 184.294 204.01 184.714 204.07C190.234 205.09 194.224 207.46 196.684 211.18C198.064 213.22 198.724 215.44 198.664 217.84C198.604 219.52 198.154 221.23 197.314 222.97C196.474 224.65 195.304 226.21 193.804 227.65C190.864 230.59 186.814 232.96 181.654 234.76C181.594 234.76 181.684 234.85 181.924 235.03C182.044 235.15 182.164 235.24 182.284 235.3C184.384 236.74 185.854 238.66 186.694 241.06C187.234 242.74 187.384 245.08 187.144 248.08C187.084 248.74 186.994 249.58 186.874 250.6C186.574 253.72 186.424 256 186.424 257.44C186.484 259.66 186.904 261.16 187.684 261.94C188.224 262.42 189.034 262.66 190.114 262.66C190.774 262.66 191.254 262.6 191.554 262.48C192.274 262.18 192.994 261.61 193.714 260.77C194.494 259.63 195.094 258.46 195.514 257.26C195.814 256.3 196.174 255.76 196.594 255.64C196.834 255.58 197.284 255.55 197.944 255.55C199.084 255.55 199.774 255.7 200.014 256C200.434 256.48 200.134 257.74 199.114 259.78C197.314 263.56 194.854 265.87 191.734 266.71C191.254 266.83 190.354 266.89 189.034 266.89C187.474 266.89 186.454 266.86 185.974 266.8C180.154 266.02 176.644 263.62 175.444 259.6C175.084 258.4 175.024 257.05 175.264 255.55C175.564 254.05 175.984 252.22 176.524 250.06C177.124 247.66 177.544 245.86 177.784 244.66C178.084 243.04 177.844 241.45 177.064 239.89C176.764 239.35 176.374 238.84 175.894 238.36C174.874 237.4 173.614 236.77 172.114 236.47C171.874 236.41 169.834 236.38 165.994 236.38H160.414L160.324 236.74C160.324 236.68 159.364 240.49 157.444 248.17C155.584 255.67 154.684 259.45 154.744 259.51C154.864 259.63 155.074 259.69 155.374 259.69C156.094 259.87 157.894 259.96 160.774 259.96C162.274 259.96 163.144 260.17 163.384 260.59C163.444 260.83 163.354 261.52 163.114 262.66C162.814 263.8 162.544 264.49 162.304 264.73L162.034 265H160.684C154.144 264.7 146.644 264.67 138.184 264.91C136.204 264.97 135.094 264.79 134.854 264.37C134.794 264.19 134.884 263.5 135.124 262.3C135.484 261.1 135.724 260.41 135.844 260.23L136.204 259.96H139.264C142.624 259.9 144.514 259.66 144.934 259.24C145.114 259.12 147.274 250.78 151.414 234.22C155.554 217.66 157.624 209.32 157.624 209.2C157.624 209.14 157.564 209.05 157.444 208.93C157.204 208.81 155.584 208.69 152.584 208.57H149.524L149.164 208.21C148.984 208.03 148.894 207.85 148.894 207.67L149.884 203.98C149.884 203.92 149.974 203.8 150.154 203.62ZM180.664 208.75C180.304 208.69 178.204 208.63 174.364 208.57L168.424 208.66C167.824 208.72 167.434 208.9 167.254 209.2L161.494 232.15H167.524C171.904 232.09 174.304 232.03 174.724 231.97C180.184 231.19 183.814 228.97 185.614 225.31C186.574 223.33 187.354 220.75 187.954 217.57C188.194 216.01 188.194 214.69 187.954 213.61C187.234 210.97 184.804 209.35 180.664 208.75ZM248.145 200.65L250.215 200.56H250.305C251.925 200.56 252.795 200.74 252.915 201.1C252.975 201.34 253.785 211.06 255.345 230.26C256.845 249.58 257.655 259.3 257.775 259.42C257.835 259.48 258.045 259.57 258.405 259.69C259.125 259.87 260.865 259.96 263.625 259.96H265.425L265.785 260.23C265.965 260.53 266.055 260.74 266.055 260.86L265.245 264.46C265.065 264.82 264.405 264.97 263.265 264.91C263.025 264.91 262.575 264.91 261.915 264.91C253.215 264.67 246.105 264.7 240.585 265H239.505L239.235 264.73C238.995 264.49 238.875 264.25 238.875 264.01C238.875 263.05 239.175 261.88 239.775 260.5C239.895 260.14 240.765 259.96 242.385 259.96C243.825 259.84 244.785 259.78 245.265 259.78C246.645 259.54 247.395 259.3 247.515 259.06C247.575 259 247.455 257.02 247.155 253.12C246.855 249.64 246.705 247.66 246.705 247.18C246.705 247.06 243.285 247 236.445 247H226.095L223.395 251.77C221.475 255.01 220.485 256.78 220.425 257.08C220.185 257.68 220.275 258.19 220.695 258.61C221.295 259.33 222.585 259.78 224.565 259.96C225.405 259.96 225.945 260.17 226.185 260.59L226.275 260.86L225.825 262.66C225.585 263.8 225.345 264.49 225.105 264.73L224.835 265H223.755C218.775 264.76 214.065 264.7 209.625 264.82C206.565 264.94 205.005 265 204.945 265H204.315L204.045 264.73C203.805 264.49 203.685 264.28 203.685 264.1L204.495 260.5C204.735 260.14 205.425 259.96 206.565 259.96C210.765 259.78 213.675 258.58 215.295 256.36L231.585 228.46C242.025 210.4 247.365 201.25 247.605 201.01C247.665 200.95 247.845 200.83 248.145 200.65ZM245.265 229C244.605 220.42 244.275 216.07 244.275 215.95C244.275 215.71 242.955 217.9 240.315 222.52L232.755 235.57L229.065 241.87L237.615 241.96H246.255C246.255 242.02 245.925 237.7 245.265 229ZM286.035 203.71C286.215 203.59 289.515 203.53 295.935 203.53C302.295 203.53 305.565 203.59 305.745 203.71C305.925 203.83 306.075 203.98 306.195 204.16C306.315 204.4 307.335 212.59 309.255 228.73L312.225 253.03L327.435 228.73C337.335 212.59 342.435 204.37 342.735 204.07L343.275 203.71H343.365C343.605 203.59 346.845 203.53 353.085 203.53C359.325 203.53 362.535 203.59 362.715 203.71C362.835 203.77 362.955 203.92 363.075 204.16C363.135 204.46 363.015 205.15 362.715 206.23C362.415 207.37 362.205 208.06 362.085 208.3L361.815 208.57H358.665C355.665 208.63 353.925 208.78 353.445 209.02C353.145 209.14 352.965 209.32 352.905 209.56C352.545 210.46 350.415 218.71 346.515 234.31C342.375 250.87 340.275 259.18 340.215 259.24C340.155 259.42 340.425 259.57 341.025 259.69C341.685 259.81 343.125 259.9 345.345 259.96C347.205 259.96 348.255 260.02 348.495 260.14C348.855 260.26 349.035 260.53 349.035 260.95L348.135 264.46C347.895 264.82 347.265 264.97 346.245 264.91C345.945 264.91 345.315 264.91 344.355 264.91C339.555 264.67 333.465 264.64 326.085 264.82C325.365 264.88 324.795 264.91 324.375 264.91C322.335 264.97 321.195 264.82 320.955 264.46C320.835 264.28 320.895 263.59 321.135 262.39C321.435 261.07 321.735 260.32 322.035 260.14C322.335 260.02 323.415 259.96 325.275 259.96C328.635 259.9 330.525 259.66 330.945 259.24C331.125 259.12 333.285 250.78 337.425 234.22L343.545 209.56L326.625 236.74C315.405 254.92 309.705 264.1 309.525 264.28C309.285 264.52 309.075 264.67 308.895 264.73C308.595 264.91 307.965 265 307.005 265C305.745 265 305.055 264.79 304.935 264.37C304.875 264.19 303.765 255.19 301.605 237.37C299.385 219.49 298.275 210.52 298.275 210.46L287.385 254.02C286.845 256.12 286.575 257.23 286.575 257.35C286.575 258.91 288.525 259.78 292.425 259.96C293.385 259.96 293.985 260.02 294.225 260.14C294.585 260.26 294.765 260.53 294.765 260.95L293.865 264.46C293.625 264.82 293.025 264.97 292.065 264.91C291.825 264.91 291.315 264.91 290.535 264.91C286.455 264.67 281.385 264.64 275.325 264.82C274.725 264.88 274.245 264.91 273.885 264.91C272.145 264.97 271.155 264.82 270.915 264.46C270.795 264.28 270.855 263.59 271.095 262.39C271.395 261.13 271.665 260.38 271.905 260.14C272.085 260.02 272.505 259.96 273.165 259.96C275.745 259.96 277.905 259.57 279.645 258.79C280.785 258.13 281.445 257.5 281.625 256.9L293.595 209.2C293.595 209.14 293.535 209.05 293.415 208.93C293.175 208.81 291.555 208.69 288.555 208.57H285.495L285.135 208.21C284.895 207.97 284.925 207.25 285.225 206.05C285.585 204.61 285.855 203.83 286.035 203.71ZM396.621 201.64C398.121 201.52 400.071 201.55 402.471 201.73C407.631 202.45 411.891 204.55 415.251 208.03C418.551 211.33 420.621 215.56 421.461 220.72C422.781 228.52 421.251 236.44 416.871 244.48C416.031 245.98 415.101 247.45 414.081 248.89C410.661 253.81 406.521 257.8 401.661 260.86C398.421 262.96 395.211 264.49 392.031 265.45C383.691 268.03 376.401 267.4 370.161 263.56C368.901 262.78 367.731 261.88 366.651 260.86C363.051 257.32 360.801 252.67 359.901 246.91C359.661 244.99 359.631 242.56 359.811 239.62C359.871 239.38 359.901 239.17 359.901 238.99C360.981 230.77 364.461 223.21 370.341 216.31C372.021 214.39 373.821 212.59 375.741 210.91C382.401 205.39 389.361 202.3 396.621 201.64ZM400.671 206.32C399.171 206.08 397.641 206.02 396.081 206.14C392.181 206.62 388.611 208.12 385.371 210.64C380.631 214.24 377.001 219.25 374.481 225.67C372.621 230.29 371.301 235.48 370.521 241.24C370.281 243.58 370.251 246.1 370.431 248.8C370.491 249.04 370.521 249.22 370.521 249.34C371.421 255.04 373.941 258.94 378.081 261.04C382.101 263.08 386.721 262.84 391.941 260.32C398.661 257.02 403.851 250.81 407.511 241.69C409.611 236.29 410.961 230.89 411.561 225.49C411.801 223.51 411.801 221.41 411.561 219.19C411.561 219.07 411.561 218.95 411.561 218.83C410.901 214.99 409.581 212.08 407.601 210.1C405.681 208.12 403.371 206.86 400.671 206.32ZM430.793 203.62C430.913 203.56 431.453 203.53 432.413 203.53C439.673 203.83 447.233 203.86 455.093 203.62C457.013 203.56 458.093 203.74 458.333 204.16C458.453 204.34 458.363 205.03 458.063 206.23C457.763 207.37 457.553 208.06 457.433 208.3L457.163 208.57H454.013C451.013 208.63 449.273 208.78 448.793 209.02C448.493 209.14 448.283 209.35 448.163 209.65C447.803 210.49 446.213 216.61 443.393 228.01C440.273 240.55 438.683 247 438.623 247.36C437.423 253.48 438.383 257.68 441.503 259.96C442.463 260.74 443.933 261.34 445.913 261.76C447.773 262 449.663 261.97 451.583 261.67C457.043 260.77 461.483 258.07 464.903 253.57C466.463 251.47 467.693 249.1 468.593 246.46L477.413 211.27C477.413 210.37 476.933 209.74 475.973 209.38C474.893 208.84 473.183 208.57 470.843 208.57H469.853L469.493 208.3C469.313 208.06 469.223 207.85 469.223 207.67L470.213 203.98C470.393 203.68 471.203 203.56 472.643 203.62C472.823 203.62 473.093 203.62 473.453 203.62C477.533 203.86 482.663 203.89 488.843 203.71C489.443 203.65 489.923 203.62 490.283 203.62C492.083 203.56 493.103 203.74 493.343 204.16C493.463 204.34 493.373 205.03 493.073 206.23C492.773 207.43 492.533 208.12 492.353 208.3L492.083 208.57H491.093C486.713 208.57 483.893 209.53 482.633 211.45C482.333 212.35 480.893 218.08 478.313 228.64C475.313 240.34 473.813 246.22 473.813 246.28C471.893 252.16 468.533 257.02 463.733 260.86C458.333 265.12 452.723 267.16 446.903 266.98C443.603 266.8 440.693 266.08 438.173 264.82C436.553 263.98 435.173 262.99 434.033 261.85C431.573 259.45 429.983 256.6 429.263 253.3C428.783 251.14 428.753 248.8 429.173 246.28C429.173 246.16 430.703 239.86 433.763 227.38C436.763 215.62 438.263 209.56 438.263 209.2C438.263 209.14 438.203 209.05 438.083 208.93C437.843 208.81 436.223 208.69 433.223 208.57H430.163L429.803 208.21C429.623 208.03 429.533 207.85 429.533 207.67L430.523 203.98C430.523 203.92 430.613 203.8 430.793 203.62ZM503.299 203.62C503.419 203.56 508.699 203.53 519.139 203.53C530.059 203.59 536.029 203.71 537.049 203.89C537.169 203.95 537.439 204.01 537.859 204.07C543.379 205.09 547.369 207.46 549.829 211.18C551.209 213.22 551.869 215.44 551.809 217.84C551.749 219.52 551.299 221.23 550.459 222.97C549.619 224.65 548.449 226.21 546.949 227.65C544.009 230.59 539.959 232.96 534.799 234.76C534.739 234.76 534.829 234.85 535.069 235.03C535.189 235.15 535.309 235.24 535.429 235.3C537.529 236.74 538.999 238.66 539.839 241.06C540.379 242.74 540.529 245.08 540.289 248.08C540.229 248.74 540.139 249.58 540.019 250.6C539.719 253.72 539.569 256 539.569 257.44C539.629 259.66 540.049 261.16 540.829 261.94C541.369 262.42 542.179 262.66 543.259 262.66C543.919 262.66 544.399 262.6 544.699 262.48C545.419 262.18 546.139 261.61 546.859 260.77C547.639 259.63 548.239 258.46 548.659 257.26C548.959 256.3 549.319 255.76 549.739 255.64C549.979 255.58 550.429 255.55 551.089 255.55C552.229 255.55 552.919 255.7 553.159 256C553.579 256.48 553.279 257.74 552.259 259.78C550.459 263.56 547.999 265.87 544.879 266.71C544.399 266.83 543.499 266.89 542.179 266.89C540.619 266.89 539.599 266.86 539.119 266.8C533.299 266.02 529.789 263.62 528.589 259.6C528.229 258.4 528.169 257.05 528.409 255.55C528.709 254.05 529.129 252.22 529.669 250.06C530.269 247.66 530.689 245.86 530.929 244.66C531.229 243.04 530.989 241.45 530.209 239.89C529.909 239.35 529.519 238.84 529.039 238.36C528.019 237.4 526.759 236.77 525.259 236.47C525.019 236.41 522.979 236.38 519.139 236.38H513.559L513.469 236.74C513.469 236.68 512.509 240.49 510.589 248.17C508.729 255.67 507.829 259.45 507.889 259.51C508.009 259.63 508.219 259.69 508.519 259.69C509.239 259.87 511.039 259.96 513.919 259.96C515.419 259.96 516.289 260.17 516.529 260.59C516.589 260.83 516.499 261.52 516.259 262.66C515.959 263.8 515.689 264.49 515.449 264.73L515.179 265H513.829C507.289 264.7 499.789 264.67 491.329 264.91C489.349 264.97 488.239 264.79 487.999 264.37C487.939 264.19 488.029 263.5 488.269 262.3C488.629 261.1 488.869 260.41 488.989 260.23L489.349 259.96H492.409C495.769 259.9 497.659 259.66 498.079 259.24C498.259 259.12 500.419 250.78 504.559 234.22C508.699 217.66 510.769 209.32 510.769 209.2C510.769 209.14 510.709 209.05 510.589 208.93C510.349 208.81 508.729 208.69 505.729 208.57H502.669L502.309 208.21C502.129 208.03 502.039 207.85 502.039 207.67L503.029 203.98C503.029 203.92 503.119 203.8 503.299 203.62ZM533.809 208.75C533.449 208.69 531.349 208.63 527.509 208.57L521.569 208.66C520.969 208.72 520.579 208.9 520.399 209.2L514.639 232.15H520.669C525.049 232.09 527.449 232.03 527.869 231.97C533.329 231.19 536.959 228.97 538.759 225.31C539.719 223.33 540.499 220.75 541.099 217.57C541.339 216.01 541.339 214.69 541.099 213.61C540.379 210.97 537.949 209.35 533.809 208.75Z" fill="#C40000"/>
<path d="M150.82 282.71C151 282.59 156.67 282.53 167.83 282.53C179.17 282.53 185.05 282.56 185.47 282.62C190.21 283.1 194.05 284.78 196.99 287.66C198.67 289.4 199.78 291.56 200.32 294.14C200.68 295.4 200.74 296.84 200.5 298.46C199.9 303.56 197.05 308.06 191.95 311.96C188.89 314.3 185.47 315.95 181.69 316.91C179.53 317.51 176.74 317.81 173.32 317.81C172.48 317.81 170.92 317.81 168.64 317.81H160.81L158.29 328.07C156.55 334.97 155.74 338.45 155.86 338.51C155.98 338.63 156.19 338.69 156.49 338.69C157.45 338.87 159.19 338.96 161.71 338.96C163.09 338.96 163.84 339.02 163.96 339.14C164.32 339.26 164.5 339.53 164.5 339.95L163.6 343.46C163.36 343.82 162.76 343.97 161.8 343.91C161.5 343.91 160.81 343.91 159.73 343.91C154.75 343.67 148.48 343.64 140.92 343.82C140.2 343.88 139.63 343.91 139.21 343.91C137.11 343.97 135.94 343.82 135.7 343.46C135.58 343.28 135.64 342.59 135.88 341.39C136.18 340.07 136.48 339.32 136.78 339.14C137.08 339.02 138.16 338.96 140.02 338.96C143.38 338.9 145.27 338.66 145.69 338.24C145.87 338.12 148.03 329.78 152.17 313.22C156.31 296.66 158.38 288.32 158.38 288.2C158.38 288.14 158.32 288.05 158.2 287.93C157.96 287.81 156.34 287.69 153.34 287.57H150.28L149.92 287.21C149.68 286.97 149.71 286.25 150.01 285.05C150.37 283.61 150.64 282.83 150.82 282.71ZM181.96 287.66H169.18C168.58 287.72 168.19 287.9 168.01 288.2L164.86 300.62C162.76 308.84 161.71 312.98 161.71 313.04C161.71 313.16 164.05 313.22 168.73 313.22C173.89 313.16 177.16 312.98 178.54 312.68C181.78 312.02 184.21 310.67 185.83 308.63C187.15 306.89 188.26 304.1 189.16 300.26C189.82 297.68 190.15 295.7 190.15 294.32C190.15 292.76 189.82 291.53 189.16 290.63C187.72 288.89 185.32 287.9 181.96 287.66ZM238.354 279.65L240.424 279.56H240.514C242.134 279.56 243.004 279.74 243.124 280.1C243.184 280.34 243.994 290.06 245.554 309.26C247.054 328.58 247.864 338.3 247.984 338.42C248.044 338.48 248.254 338.57 248.614 338.69C249.334 338.87 251.074 338.96 253.834 338.96H255.634L255.994 339.23C256.174 339.53 256.264 339.74 256.264 339.86L255.454 343.46C255.274 343.82 254.614 343.97 253.474 343.91C253.234 343.91 252.784 343.91 252.124 343.91C243.424 343.67 236.314 343.7 230.794 344H229.714L229.444 343.73C229.204 343.49 229.084 343.25 229.084 343.01C229.084 342.05 229.384 340.88 229.984 339.5C230.104 339.14 230.974 338.96 232.594 338.96C234.034 338.84 234.994 338.78 235.474 338.78C236.854 338.54 237.604 338.3 237.724 338.06C237.784 338 237.664 336.02 237.364 332.12C237.064 328.64 236.914 326.66 236.914 326.18C236.914 326.06 233.494 326 226.654 326H216.304L213.604 330.77C211.684 334.01 210.694 335.78 210.634 336.08C210.394 336.68 210.484 337.19 210.904 337.61C211.504 338.33 212.794 338.78 214.774 338.96C215.614 338.96 216.154 339.17 216.394 339.59L216.484 339.86L216.034 341.66C215.794 342.8 215.554 343.49 215.314 343.73L215.044 344H213.964C208.984 343.76 204.274 343.7 199.834 343.82C196.774 343.94 195.214 344 195.154 344H194.524L194.254 343.73C194.014 343.49 193.894 343.28 193.894 343.1L194.704 339.5C194.944 339.14 195.634 338.96 196.774 338.96C200.974 338.78 203.884 337.58 205.504 335.36L221.794 307.46C232.234 289.4 237.574 280.25 237.814 280.01C237.874 279.95 238.054 279.83 238.354 279.65ZM235.474 308C234.814 299.42 234.484 295.07 234.484 294.95C234.484 294.71 233.164 296.9 230.524 301.52L222.964 314.57L219.274 320.87L227.824 320.96H236.464C236.464 321.02 236.134 316.7 235.474 308ZM276.154 282.62C276.274 282.56 281.554 282.53 291.994 282.53C302.914 282.59 308.884 282.71 309.904 282.89C310.024 282.95 310.294 283.01 310.714 283.07C316.234 284.09 320.224 286.46 322.684 290.18C324.064 292.22 324.724 294.44 324.664 296.84C324.604 298.52 324.154 300.23 323.314 301.97C322.474 303.65 321.304 305.21 319.804 306.65C316.864 309.59 312.814 311.96 307.654 313.76C307.594 313.76 307.684 313.85 307.924 314.03C308.044 314.15 308.164 314.24 308.284 314.3C310.384 315.74 311.854 317.66 312.694 320.06C313.234 321.74 313.384 324.08 313.144 327.08C313.084 327.74 312.994 328.58 312.874 329.6C312.574 332.72 312.424 335 312.424 336.44C312.484 338.66 312.904 340.16 313.684 340.94C314.224 341.42 315.034 341.66 316.114 341.66C316.774 341.66 317.254 341.6 317.554 341.48C318.274 341.18 318.994 340.61 319.714 339.77C320.494 338.63 321.094 337.46 321.514 336.26C321.814 335.3 322.174 334.76 322.594 334.64C322.834 334.58 323.284 334.55 323.944 334.55C325.084 334.55 325.774 334.7 326.014 335C326.434 335.48 326.134 336.74 325.114 338.78C323.314 342.56 320.854 344.87 317.734 345.71C317.254 345.83 316.354 345.89 315.034 345.89C313.474 345.89 312.454 345.86 311.974 345.8C306.154 345.02 302.644 342.62 301.444 338.6C301.084 337.4 301.024 336.05 301.264 334.55C301.564 333.05 301.984 331.22 302.524 329.06C303.124 326.66 303.544 324.86 303.784 323.66C304.084 322.04 303.844 320.45 303.064 318.89C302.764 318.35 302.374 317.84 301.894 317.36C300.874 316.4 299.614 315.77 298.114 315.47C297.874 315.41 295.834 315.38 291.994 315.38H286.414L286.324 315.74C286.324 315.68 285.364 319.49 283.444 327.17C281.584 334.67 280.684 338.45 280.744 338.51C280.864 338.63 281.074 338.69 281.374 338.69C282.094 338.87 283.894 338.96 286.774 338.96C288.274 338.96 289.144 339.17 289.384 339.59C289.444 339.83 289.354 340.52 289.114 341.66C288.814 342.8 288.544 343.49 288.304 343.73L288.034 344H286.684C280.144 343.7 272.644 343.67 264.184 343.91C262.204 343.97 261.094 343.79 260.854 343.37C260.794 343.19 260.884 342.5 261.124 341.3C261.484 340.1 261.724 339.41 261.844 339.23L262.204 338.96H265.264C268.624 338.9 270.514 338.66 270.934 338.24C271.114 338.12 273.274 329.78 277.414 313.22C281.554 296.66 283.624 288.32 283.624 288.2C283.624 288.14 283.564 288.05 283.444 287.93C283.204 287.81 281.584 287.69 278.584 287.57H275.524L275.164 287.21C274.984 287.03 274.894 286.85 274.894 286.67L275.884 282.98C275.884 282.92 275.974 282.8 276.154 282.62ZM306.664 287.75C306.304 287.69 304.204 287.63 300.364 287.57L294.424 287.66C293.824 287.72 293.434 287.9 293.254 288.2L287.494 311.15H293.524C297.904 311.09 300.304 311.03 300.724 310.97C306.184 310.19 309.814 307.97 311.614 304.31C312.574 302.33 313.354 299.75 313.954 296.57C314.194 295.01 314.194 293.69 313.954 292.61C313.234 289.97 310.804 288.35 306.664 287.75ZM374.145 279.65L376.215 279.56H376.305C377.925 279.56 378.795 279.74 378.915 280.1C378.975 280.34 379.785 290.06 381.345 309.26C382.845 328.58 383.655 338.3 383.775 338.42C383.835 338.48 384.045 338.57 384.405 338.69C385.125 338.87 386.865 338.96 389.625 338.96H391.425L391.785 339.23C391.965 339.53 392.055 339.74 392.055 339.86L391.245 343.46C391.065 343.82 390.405 343.97 389.265 343.91C389.025 343.91 388.575 343.91 387.915 343.91C379.215 343.67 372.105 343.7 366.585 344H365.505L365.235 343.73C364.995 343.49 364.875 343.25 364.875 343.01C364.875 342.05 365.175 340.88 365.775 339.5C365.895 339.14 366.765 338.96 368.385 338.96C369.825 338.84 370.785 338.78 371.265 338.78C372.645 338.54 373.395 338.3 373.515 338.06C373.575 338 373.455 336.02 373.155 332.12C372.855 328.64 372.705 326.66 372.705 326.18C372.705 326.06 369.285 326 362.445 326H352.095L349.395 330.77C347.475 334.01 346.485 335.78 346.425 336.08C346.185 336.68 346.275 337.19 346.695 337.61C347.295 338.33 348.585 338.78 350.565 338.96C351.405 338.96 351.945 339.17 352.185 339.59L352.275 339.86L351.825 341.66C351.585 342.8 351.345 343.49 351.105 343.73L350.835 344H349.755C344.775 343.76 340.065 343.7 335.625 343.82C332.565 343.94 331.005 344 330.945 344H330.315L330.045 343.73C329.805 343.49 329.685 343.28 329.685 343.1L330.495 339.5C330.735 339.14 331.425 338.96 332.565 338.96C336.765 338.78 339.675 337.58 341.295 335.36L357.585 307.46C368.025 289.4 373.365 280.25 373.605 280.01C373.665 279.95 373.845 279.83 374.145 279.65ZM371.265 308C370.605 299.42 370.275 295.07 370.275 294.95C370.275 294.71 368.955 296.9 366.315 301.52L358.755 314.57L355.065 320.87L363.615 320.96H372.255C372.255 321.02 371.925 316.7 371.265 308ZM412.035 282.71C412.215 282.59 415.515 282.53 421.935 282.53C428.295 282.53 431.565 282.59 431.745 282.71C431.925 282.83 432.075 282.98 432.195 283.16C432.315 283.4 433.335 291.59 435.255 307.73L438.225 332.03L453.435 307.73C463.335 291.59 468.435 283.37 468.735 283.07L469.275 282.71H469.365C469.605 282.59 472.845 282.53 479.085 282.53C485.325 282.53 488.535 282.59 488.715 282.71C488.835 282.77 488.955 282.92 489.075 283.16C489.135 283.46 489.015 284.15 488.715 285.23C488.415 286.37 488.205 287.06 488.085 287.3L487.815 287.57H484.665C481.665 287.63 479.925 287.78 479.445 288.02C479.145 288.14 478.965 288.32 478.905 288.56C478.545 289.46 476.415 297.71 472.515 313.31C468.375 329.87 466.275 338.18 466.215 338.24C466.155 338.42 466.425 338.57 467.025 338.69C467.685 338.81 469.125 338.9 471.345 338.96C473.205 338.96 474.255 339.02 474.495 339.14C474.855 339.26 475.035 339.53 475.035 339.95L474.135 343.46C473.895 343.82 473.265 343.97 472.245 343.91C471.945 343.91 471.315 343.91 470.355 343.91C465.555 343.67 459.465 343.64 452.085 343.82C451.365 343.88 450.795 343.91 450.375 343.91C448.335 343.97 447.195 343.82 446.955 343.46C446.835 343.28 446.895 342.59 447.135 341.39C447.435 340.07 447.735 339.32 448.035 339.14C448.335 339.02 449.415 338.96 451.275 338.96C454.635 338.9 456.525 338.66 456.945 338.24C457.125 338.12 459.285 329.78 463.425 313.22L469.545 288.56L452.625 315.74C441.405 333.92 435.705 343.1 435.525 343.28C435.285 343.52 435.075 343.67 434.895 343.73C434.595 343.91 433.965 344 433.005 344C431.745 344 431.055 343.79 430.935 343.37C430.875 343.19 429.765 334.19 427.605 316.37C425.385 298.49 424.275 289.52 424.275 289.46L413.385 333.02C412.845 335.12 412.575 336.23 412.575 336.35C412.575 337.91 414.525 338.78 418.425 338.96C419.385 338.96 419.985 339.02 420.225 339.14C420.585 339.26 420.765 339.53 420.765 339.95L419.865 343.46C419.625 343.82 419.025 343.97 418.065 343.91C417.825 343.91 417.315 343.91 416.535 343.91C412.455 343.67 407.385 343.64 401.325 343.82C400.725 343.88 400.245 343.91 399.885 343.91C398.145 343.97 397.155 343.82 396.915 343.46C396.795 343.28 396.855 342.59 397.095 341.39C397.395 340.13 397.665 339.38 397.905 339.14C398.085 339.02 398.505 338.96 399.165 338.96C401.745 338.96 403.905 338.57 405.645 337.79C406.785 337.13 407.445 336.5 407.625 335.9L419.595 288.2C419.595 288.14 419.535 288.05 419.415 287.93C419.175 287.81 417.555 287.69 414.555 287.57H411.495L411.135 287.21C410.895 286.97 410.925 286.25 411.225 285.05C411.585 283.61 411.855 282.83 412.035 282.71ZM522.621 280.64C524.121 280.52 526.071 280.55 528.471 280.73C533.631 281.45 537.891 283.55 541.251 287.03C544.551 290.33 546.621 294.56 547.461 299.72C548.781 307.52 547.251 315.44 542.871 323.48C542.031 324.98 541.101 326.45 540.081 327.89C536.661 332.81 532.521 336.8 527.661 339.86C524.421 341.96 521.211 343.49 518.031 344.45C509.691 347.03 502.401 346.4 496.161 342.56C494.901 341.78 493.731 340.88 492.651 339.86C489.051 336.32 486.801 331.67 485.901 325.91C485.661 323.99 485.631 321.56 485.811 318.62C485.871 318.38 485.901 318.17 485.901 317.99C486.981 309.77 490.461 302.21 496.341 295.31C498.021 293.39 499.821 291.59 501.741 289.91C508.401 284.39 515.361 281.3 522.621 280.64ZM526.671 285.32C525.171 285.08 523.641 285.02 522.081 285.14C518.181 285.62 514.611 287.12 511.371 289.64C506.631 293.24 503.001 298.25 500.481 304.67C498.621 309.29 497.301 314.48 496.521 320.24C496.281 322.58 496.251 325.1 496.431 327.8C496.491 328.04 496.521 328.22 496.521 328.34C497.421 334.04 499.941 337.94 504.081 340.04C508.101 342.08 512.721 341.84 517.941 339.32C524.661 336.02 529.851 329.81 533.511 320.69C535.611 315.29 536.961 309.89 537.561 304.49C537.801 302.51 537.801 300.41 537.561 298.19C537.561 298.07 537.561 297.95 537.561 297.83C536.901 293.99 535.581 291.08 533.601 289.1C531.681 287.12 529.371 285.86 526.671 285.32ZM556.793 282.62C556.913 282.56 557.453 282.53 558.413 282.53C565.673 282.83 573.233 282.86 581.093 282.62C583.013 282.56 584.093 282.74 584.333 283.16C584.453 283.34 584.363 284.03 584.063 285.23C583.763 286.37 583.553 287.06 583.433 287.3L583.163 287.57H580.013C577.013 287.63 575.273 287.78 574.793 288.02C574.493 288.14 574.283 288.35 574.163 288.65C573.803 289.49 572.213 295.61 569.393 307.01C566.273 319.55 564.683 326 564.623 326.36C563.423 332.48 564.383 336.68 567.503 338.96C568.463 339.74 569.933 340.34 571.913 340.76C573.773 341 575.663 340.97 577.583 340.67C583.043 339.77 587.483 337.07 590.903 332.57C592.463 330.47 593.693 328.1 594.593 325.46L603.413 290.27C603.413 289.37 602.933 288.74 601.973 288.38C600.893 287.84 599.183 287.57 596.843 287.57H595.853L595.493 287.3C595.313 287.06 595.223 286.85 595.223 286.67L596.213 282.98C596.393 282.68 597.203 282.56 598.643 282.62C598.823 282.62 599.093 282.62 599.453 282.62C603.533 282.86 608.663 282.89 614.843 282.71C615.443 282.65 615.923 282.62 616.283 282.62C618.083 282.56 619.103 282.74 619.343 283.16C619.463 283.34 619.373 284.03 619.073 285.23C618.773 286.43 618.533 287.12 618.353 287.3L618.083 287.57H617.093C612.713 287.57 609.893 288.53 608.633 290.45C608.333 291.35 606.893 297.08 604.313 307.64C601.313 319.34 599.813 325.22 599.813 325.28C597.893 331.16 594.533 336.02 589.733 339.86C584.333 344.12 578.723 346.16 572.903 345.98C569.603 345.8 566.693 345.08 564.173 343.82C562.553 342.98 561.173 341.99 560.033 340.85C557.573 338.45 555.983 335.6 555.263 332.3C554.783 330.14 554.753 327.8 555.173 325.28C555.173 325.16 556.703 318.86 559.763 306.38C562.763 294.62 564.263 288.56 564.263 288.2C564.263 288.14 564.203 288.05 564.083 287.93C563.843 287.81 562.223 287.69 559.223 287.57H556.163L555.803 287.21C555.623 287.03 555.533 286.85 555.533 286.67L556.523 282.98C556.523 282.92 556.613 282.8 556.793 282.62ZM629.299 282.62C629.419 282.56 634.699 282.53 645.139 282.53C656.059 282.59 662.029 282.71 663.049 282.89C663.169 282.95 663.439 283.01 663.859 283.07C669.379 284.09 673.369 286.46 675.829 290.18C677.209 292.22 677.869 294.44 677.809 296.84C677.749 298.52 677.299 300.23 676.459 301.97C675.619 303.65 674.449 305.21 672.949 306.65C670.009 309.59 665.959 311.96 660.799 313.76C660.739 313.76 660.829 313.85 661.069 314.03C661.189 314.15 661.309 314.24 661.429 314.3C663.529 315.74 664.999 317.66 665.839 320.06C666.379 321.74 666.529 324.08 666.289 327.08C666.229 327.74 666.139 328.58 666.019 329.6C665.719 332.72 665.569 335 665.569 336.44C665.629 338.66 666.049 340.16 666.829 340.94C667.369 341.42 668.179 341.66 669.259 341.66C669.919 341.66 670.399 341.6 670.699 341.48C671.419 341.18 672.139 340.61 672.859 339.77C673.639 338.63 674.239 337.46 674.659 336.26C674.959 335.3 675.319 334.76 675.739 334.64C675.979 334.58 676.429 334.55 677.089 334.55C678.229 334.55 678.919 334.7 679.159 335C679.579 335.48 679.279 336.74 678.259 338.78C676.459 342.56 673.999 344.87 670.879 345.71C670.399 345.83 669.499 345.89 668.179 345.89C666.619 345.89 665.599 345.86 665.119 345.8C659.299 345.02 655.789 342.62 654.589 338.6C654.229 337.4 654.169 336.05 654.409 334.55C654.709 333.05 655.129 331.22 655.669 329.06C656.269 326.66 656.689 324.86 656.929 323.66C657.229 322.04 656.989 320.45 656.209 318.89C655.909 318.35 655.519 317.84 655.039 317.36C654.019 316.4 652.759 315.77 651.259 315.47C651.019 315.41 648.979 315.38 645.139 315.38H639.559L639.469 315.74C639.469 315.68 638.509 319.49 636.589 327.17C634.729 334.67 633.829 338.45 633.889 338.51C634.009 338.63 634.219 338.69 634.519 338.69C635.239 338.87 637.039 338.96 639.919 338.96C641.419 338.96 642.289 339.17 642.529 339.59C642.589 339.83 642.499 340.52 642.259 341.66C641.959 342.8 641.689 343.49 641.449 343.73L641.179 344H639.829C633.289 343.7 625.789 343.67 617.329 343.91C615.349 343.97 614.239 343.79 613.999 343.37C613.939 343.19 614.029 342.5 614.269 341.3C614.629 340.1 614.869 339.41 614.989 339.23L615.349 338.96H618.409C621.769 338.9 623.659 338.66 624.079 338.24C624.259 338.12 626.419 329.78 630.559 313.22C634.699 296.66 636.769 288.32 636.769 288.2C636.769 288.14 636.709 288.05 636.589 287.93C636.349 287.81 634.729 287.69 631.729 287.57H628.669L628.309 287.21C628.129 287.03 628.039 286.85 628.039 286.67L629.029 282.98C629.029 282.92 629.119 282.8 629.299 282.62ZM659.809 287.75C659.449 287.69 657.349 287.63 653.509 287.57L647.569 287.66C646.969 287.72 646.579 287.9 646.399 288.2L640.639 311.15H646.669C651.049 311.09 653.449 311.03 653.869 310.97C659.329 310.19 662.959 307.97 664.759 304.31C665.719 302.33 666.499 299.75 667.099 296.57C667.339 295.01 667.339 293.69 667.099 292.61C666.379 289.97 663.949 288.35 659.809 287.75Z" fill="#C40000"/>
</svg>
