<svg width="904" height="646" viewBox="0 0 904 646" fill="none" xmlns="http://www.w3.org/2000/svg">
<path d="M0 129.322H231V198.593H0V129.322ZM90.5783 1L123.723 14.0593C103.735 136.703 75.9036 288.873 55.4096 387.102L24.5422 362.119C44.7831 269.568 72.6145 117.398 90.5783 1ZM161.422 163.39L194.819 180.424C174.578 416.627 127.771 498.958 18.2169 535.297C15.1807 514.288 8.3494 485.331 2.27711 467.729C103.735 441.61 144.723 372.907 161.422 163.39ZM41.241 350.763L61.7349 297.39C115.627 337.703 189.506 412.085 226.699 472.839L203.422 537C169.518 475.678 97.6627 396.186 41.241 350.763Z" fill="#FF0000"/>
<path d="M12.5803 5.81818H17.321L22.3281 18.0341H22.5412L27.5483 5.81818H32.2891V24H28.5604V12.1658H28.4094L23.7042 23.9112H21.1651L16.4599 12.1214H16.3089V24H12.5803V5.81818ZM39.3003 5.81818V24H35.4562V5.81818H39.3003ZM52.3263 11.0472C52.2553 10.3311 51.9505 9.77474 51.4119 9.3782C50.8733 8.98165 50.1424 8.78338 49.2191 8.78338C48.5917 8.78338 48.062 8.87216 47.63 9.04972C47.1979 9.22135 46.8665 9.46106 46.6357 9.76882C46.4107 10.0766 46.2983 10.4258 46.2983 10.8164C46.2865 11.1419 46.3545 11.426 46.5025 11.6687C46.6564 11.9113 46.8665 12.1214 47.1328 12.299C47.3991 12.4706 47.7069 12.6216 48.0561 12.7518C48.4053 12.8761 48.7782 12.9826 49.1747 13.0714L50.8082 13.462C51.6013 13.6396 52.3293 13.8763 52.9922 14.1722C53.6551 14.4682 54.2292 14.8321 54.7145 15.2642C55.1998 15.6963 55.5756 16.2053 55.842 16.7912C56.1142 17.3771 56.2533 18.0489 56.2592 18.8065C56.2533 19.9192 55.9692 20.8839 55.407 21.7006C54.8506 22.5115 54.0457 23.1418 52.9922 23.5916C51.9446 24.0355 50.681 24.2575 49.2013 24.2575C47.7335 24.2575 46.4551 24.0326 45.3661 23.5827C44.283 23.1329 43.4367 22.4671 42.8271 21.5852C42.2234 20.6974 41.9067 19.5996 41.8771 18.2915H45.5969C45.6384 18.9012 45.813 19.4102 46.1207 19.8185C46.4344 20.221 46.8517 20.5258 47.3725 20.733C47.8993 20.9342 48.4941 21.0348 49.157 21.0348C49.808 21.0348 50.3732 20.9401 50.8526 20.7507C51.3379 20.5613 51.7138 20.2979 51.9801 19.9606C52.2464 19.6232 52.3796 19.2356 52.3796 18.7976C52.3796 18.3892 52.2583 18.0459 52.0156 17.7678C51.7789 17.4896 51.4297 17.2528 50.968 17.0575C50.5123 16.8622 49.953 16.6847 49.2901 16.5249L47.3104 16.0277C45.7775 15.6548 44.5671 15.0719 43.6793 14.2788C42.7915 13.4857 42.3506 12.4174 42.3565 11.0739C42.3506 9.97301 42.6436 9.01124 43.2354 8.18857C43.8332 7.36589 44.6529 6.72372 45.6946 6.26207C46.7363 5.80043 47.92 5.5696 49.2457 5.5696C50.5952 5.5696 51.773 5.80043 52.7791 6.26207C53.7912 6.72372 54.5784 7.36589 55.1406 8.18857C55.7029 9.01124 55.9929 9.96413 56.0107 11.0472H52.3263ZM75.553 14.9091C75.553 16.8918 75.1772 18.5786 74.4255 19.9695C73.6798 21.3603 72.6618 22.4227 71.3715 23.1566C70.0872 23.8846 68.6431 24.2486 67.0392 24.2486C65.4234 24.2486 63.9733 23.8816 62.689 23.1477C61.4047 22.4138 60.3896 21.3514 59.6439 19.9606C58.8982 18.5697 58.5253 16.8859 58.5253 14.9091C58.5253 12.9264 58.8982 11.2396 59.6439 9.84872C60.3896 8.45786 61.4047 7.39844 62.689 6.67045C63.9733 5.93655 65.4234 5.5696 67.0392 5.5696C68.6431 5.5696 70.0872 5.93655 71.3715 6.67045C72.6618 7.39844 73.6798 8.45786 74.4255 9.84872C75.1772 11.2396 75.553 12.9264 75.553 14.9091ZM71.6556 14.9091C71.6556 13.6248 71.4633 12.5417 71.0786 11.6598C70.6998 10.7779 70.1642 10.1091 69.4717 9.65341C68.7792 9.19768 67.9684 8.96982 67.0392 8.96982C66.1099 8.96982 65.2991 9.19768 64.6066 9.65341C63.9142 10.1091 63.3756 10.7779 62.9909 11.6598C62.6121 12.5417 62.4227 13.6248 62.4227 14.9091C62.4227 16.1934 62.6121 17.2765 62.9909 18.1584C63.3756 19.0402 63.9142 19.709 64.6066 20.1648C65.2991 20.6205 66.1099 20.8484 67.0392 20.8484C67.9684 20.8484 68.7792 20.6205 69.4717 20.1648C70.1642 19.709 70.6998 19.0402 71.0786 18.1584C71.4633 17.2765 71.6556 16.1934 71.6556 14.9091ZM90.4567 11.6953C90.3324 11.2633 90.1578 10.8815 89.9329 10.5501C89.708 10.2127 89.4328 9.92862 89.1072 9.6978C88.7876 9.46106 88.4207 9.28054 88.0064 9.15625C87.598 9.03196 87.1452 8.96982 86.6481 8.96982C85.7189 8.96982 84.9021 9.20064 84.1978 9.66229C83.4994 10.1239 82.9549 10.7957 82.5643 11.6776C82.1737 12.5535 81.9783 13.6248 81.9783 14.8913C81.9783 16.1579 82.1707 17.2351 82.5554 18.1229C82.9401 19.0107 83.4846 19.6883 84.1889 20.1559C84.8932 20.6175 85.7248 20.8484 86.6836 20.8484C87.5536 20.8484 88.2964 20.6945 88.9119 20.3867C89.5334 20.073 90.0069 19.6321 90.3324 19.0639C90.6638 18.4957 90.8295 17.824 90.8295 17.0487L91.6108 17.1641H86.9233V14.2699H94.5316V16.5604C94.5316 18.1584 94.1942 19.5315 93.5195 20.6797C92.8448 21.822 91.9156 22.7038 90.7319 23.3253C89.5482 23.9408 88.1928 24.2486 86.6658 24.2486C84.9613 24.2486 83.4639 23.8728 82.1737 23.1211C80.8834 22.3635 79.8772 21.2893 79.1552 19.8984C78.439 18.5017 78.081 16.8445 78.081 14.9268C78.081 13.4531 78.294 12.1392 78.7202 10.9851C79.1522 9.82505 79.7559 8.84257 80.5312 8.03764C81.3066 7.23272 82.2092 6.62015 83.239 6.19993C84.2688 5.77971 85.3845 5.5696 86.5859 5.5696C87.6158 5.5696 88.5746 5.72053 89.4624 6.02237C90.3501 6.3183 91.1373 6.73852 91.8239 7.28303C92.5163 7.82753 93.0816 8.47561 93.5195 9.22727C93.9575 9.97301 94.2386 10.7957 94.3629 11.6953H90.4567ZM95.6214 5.81818H99.9271L104.073 13.6484H104.251L108.397 5.81818H112.702L106.071 17.5724V24H102.253V17.5724L95.6214 5.81818ZM130.01 5.81818V24H126.689L118.779 12.5565H118.646V24H114.802V5.81818H118.176L126.024 17.2528H126.183V5.81818H130.01ZM132.12 5.81818H136.426L140.572 13.6484H140.75L144.896 5.81818H149.201L142.57 17.5724V24H138.752V17.5724L132.12 5.81818ZM160.931 5.81818V24H157.087V5.81818H160.931ZM179.302 5.81818V24H175.981L168.071 12.5565H167.938V24H164.094V5.81818H167.468L175.316 17.2528H175.475V5.81818H179.302ZM28.6225 42.1836H24.734C24.663 41.6805 24.518 41.2337 24.299 40.843C24.08 40.4465 23.7989 40.1091 23.4556 39.831C23.1123 39.5528 22.7158 39.3397 22.266 39.1918C21.8221 39.0438 21.3397 38.9698 20.8189 38.9698C19.8778 38.9698 19.0581 39.2036 18.3597 39.6712C17.6613 40.1328 17.1198 40.8075 16.7351 41.6953C16.3504 42.5772 16.158 43.6484 16.158 44.9091C16.158 46.2053 16.3504 47.2943 16.7351 48.1761C17.1257 49.058 17.6702 49.7238 18.3686 50.1737C19.067 50.6235 19.8749 50.8484 20.7923 50.8484C21.3072 50.8484 21.7836 50.7803 22.2216 50.6442C22.6655 50.508 23.0591 50.3098 23.4023 50.0494C23.7456 49.783 24.0297 49.4605 24.2546 49.0817C24.4854 48.7029 24.6452 48.2708 24.734 47.7855L28.6225 47.8033C28.5219 48.6378 28.2704 49.4427 27.8679 50.218C27.4714 50.9875 26.9357 51.677 26.261 52.2866C25.5922 52.8903 24.7932 53.3697 23.864 53.7248C22.9407 54.074 21.8961 54.2486 20.7301 54.2486C19.1084 54.2486 17.6584 53.8816 16.38 53.1477C15.1075 52.4138 14.1013 51.3514 13.3615 49.9606C12.6276 48.5697 12.2607 46.8859 12.2607 44.9091C12.2607 42.9264 12.6335 41.2396 13.3793 39.8487C14.125 38.4579 15.1371 37.3984 16.4155 36.6705C17.6939 35.9366 19.1321 35.5696 20.7301 35.5696C21.7836 35.5696 22.7602 35.7176 23.6598 36.0135C24.5653 36.3094 25.3673 36.7415 26.0657 37.3097C26.7641 37.8719 27.3323 38.5614 27.7702 39.3782C28.2141 40.195 28.4982 41.1301 28.6225 42.1836ZM31.3791 54V35.8182H35.2232V43.32H43.0268V35.8182H46.862V54H43.0268V46.4893H35.2232V54H31.3791ZM53.8755 35.8182V54H50.0314V35.8182H53.8755ZM72.246 35.8182V54H68.9257L61.0155 42.5565H60.8824V54H57.0383V35.8182H60.4118L68.2599 47.2528H68.4197V35.8182H72.246ZM75.4221 54V35.8182H87.6735V38.9876H79.2662V43.32H87.0431V46.4893H79.2662V50.8306H87.709V54H75.4221ZM100.593 41.0472C100.522 40.3311 100.217 39.7747 99.6785 39.3782C99.1399 38.9817 98.409 38.7834 97.4857 38.7834C96.8583 38.7834 96.3286 38.8722 95.8966 39.0497C95.4645 39.2214 95.1331 39.4611 94.9023 39.7688C94.6773 40.0766 94.5649 40.4258 94.5649 40.8164C94.5531 41.1419 94.6211 41.426 94.7691 41.6687C94.923 41.9113 95.1331 42.1214 95.3994 42.299C95.6657 42.4706 95.9735 42.6216 96.3227 42.7518C96.6719 42.8761 97.0448 42.9826 97.4413 43.0714L99.0748 43.462C99.8679 43.6396 100.596 43.8763 101.259 44.1722C101.922 44.4682 102.496 44.8321 102.981 45.2642C103.466 45.6963 103.842 46.2053 104.109 46.7912C104.381 47.3771 104.52 48.0489 104.526 48.8065C104.52 49.9192 104.236 50.8839 103.674 51.7006C103.117 52.5115 102.312 53.1418 101.259 53.5916C100.211 54.0355 98.9476 54.2575 97.468 54.2575C96.0001 54.2575 94.7217 54.0326 93.6327 53.5827C92.5496 53.1329 91.7033 52.4671 91.0937 51.5852C90.49 50.6974 90.1733 49.5996 90.1437 48.2915H93.8635C93.905 48.9012 94.0796 49.4102 94.3873 49.8185C94.701 50.221 95.1183 50.5258 95.6391 50.733C96.1659 50.9342 96.7607 51.0348 97.4236 51.0348C98.0746 51.0348 98.6398 50.9401 99.1192 50.7507C99.6046 50.5613 99.9804 50.2979 100.247 49.9606C100.513 49.6232 100.646 49.2356 100.646 48.7976C100.646 48.3892 100.525 48.0459 100.282 47.7678C100.045 47.4896 99.6963 47.2528 99.2346 47.0575C98.7789 46.8622 98.2196 46.6847 97.5567 46.5249L95.577 46.0277C94.0441 45.6548 92.8337 45.0719 91.9459 44.2788C91.0581 43.4857 90.6172 42.4174 90.6231 41.0739C90.6172 39.973 90.9102 39.0112 91.502 38.1886C92.0998 37.3659 92.9195 36.7237 93.9612 36.2621C95.0029 35.8004 96.1866 35.5696 97.5123 35.5696C98.8618 35.5696 100.04 35.8004 101.046 36.2621C102.058 36.7237 102.845 37.3659 103.407 38.1886C103.969 39.0112 104.259 39.9641 104.277 41.0472H100.593ZM107.112 54V35.8182H119.363V38.9876H110.956V43.32H118.733V46.4893H110.956V50.8306H119.398V54H107.112ZM28.6225 72.1836H24.734C24.663 71.6805 24.518 71.2337 24.299 70.843C24.08 70.4465 23.7989 70.1091 23.4556 69.831C23.1123 69.5528 22.7158 69.3397 22.266 69.1918C21.8221 69.0438 21.3397 68.9698 20.8189 68.9698C19.8778 68.9698 19.0581 69.2036 18.3597 69.6712C17.6613 70.1328 17.1198 70.8075 16.7351 71.6953C16.3504 72.5772 16.158 73.6484 16.158 74.9091C16.158 76.2053 16.3504 77.2943 16.7351 78.1761C17.1257 79.058 17.6702 79.7238 18.3686 80.1737C19.067 80.6235 19.8749 80.8484 20.7923 80.8484C21.3072 80.8484 21.7836 80.7803 22.2216 80.6442C22.6655 80.508 23.0591 80.3098 23.4023 80.0494C23.7456 79.783 24.0297 79.4605 24.2546 79.0817C24.4854 78.7029 24.6452 78.2708 24.734 77.7855L28.6225 77.8033C28.5219 78.6378 28.2704 79.4427 27.8679 80.218C27.4714 80.9875 26.9357 81.677 26.261 82.2866C25.5922 82.8903 24.7932 83.3697 23.864 83.7248C22.9407 84.074 21.8961 84.2486 20.7301 84.2486C19.1084 84.2486 17.6584 83.8816 16.38 83.1477C15.1075 82.4138 14.1013 81.3514 13.3615 79.9606C12.6276 78.5697 12.2607 76.8859 12.2607 74.9091C12.2607 72.9264 12.6335 71.2396 13.3793 69.8487C14.125 68.4579 15.1371 67.3984 16.4155 66.6705C17.6939 65.9366 19.1321 65.5696 20.7301 65.5696C21.7836 65.5696 22.7602 65.7176 23.6598 66.0135C24.5653 66.3094 25.3673 66.7415 26.0657 67.3097C26.7641 67.8719 27.3323 68.5614 27.7702 69.3782C28.2141 70.195 28.4982 71.1301 28.6225 72.1836ZM31.3791 84V65.8182H35.2232V73.32H43.0268V65.8182H46.862V84H43.0268V76.4893H35.2232V84H31.3791ZM53.1653 84H49.046L55.3226 65.8182H60.2765L66.5442 84H62.4249L57.8706 69.973H57.7285L53.1653 84ZM52.9078 76.8533H62.638V79.854H52.9078V76.8533ZM68.7326 84V65.8182H75.9059C77.279 65.8182 78.4509 66.0638 79.4215 66.555C80.3981 67.0404 81.1409 67.7299 81.6499 68.6236C82.1648 69.5114 82.4222 70.556 82.4222 71.7575C82.4222 72.9648 82.1618 74.0036 81.641 74.8736C81.1201 75.7377 80.3655 76.4006 79.3771 76.8622C78.3946 77.3239 77.205 77.5547 75.8082 77.5547H71.0053V74.4652H75.1868C75.9207 74.4652 76.5303 74.3646 77.0156 74.1634C77.5009 73.9621 77.862 73.6603 78.0987 73.2578C78.3414 72.8554 78.4627 72.3552 78.4627 71.7575C78.4627 71.1538 78.3414 70.6448 78.0987 70.2305C77.862 69.8162 77.498 69.5025 77.0067 69.2894C76.5214 69.0704 75.9089 68.9609 75.169 68.9609H72.5767V84H68.7326ZM78.5515 75.7259L83.0703 84H78.8267L74.4055 75.7259H78.5515ZM88.2727 84H84.1534L90.43 65.8182H95.3839L101.652 84H97.5323L92.978 69.973H92.8359L88.2727 84ZM88.0153 76.8533H97.7454V79.854H88.0153V76.8533ZM119.028 72.1836H115.139C115.068 71.6805 114.923 71.2337 114.704 70.843C114.485 70.4465 114.204 70.1091 113.861 69.831C113.518 69.5528 113.121 69.3397 112.671 69.1918C112.227 69.0438 111.745 68.9698 111.224 68.9698C110.283 68.9698 109.463 69.2036 108.765 69.6712C108.067 70.1328 107.525 70.8075 107.14 71.6953C106.756 72.5772 106.563 73.6484 106.563 74.9091C106.563 76.2053 106.756 77.2943 107.14 78.1761C107.531 79.058 108.075 79.7238 108.774 80.1737C109.472 80.6235 110.28 80.8484 111.198 80.8484C111.712 80.8484 112.189 80.7803 112.627 80.6442C113.071 80.508 113.464 80.3098 113.808 80.0494C114.151 79.783 114.435 79.4605 114.66 79.0817C114.891 78.7029 115.051 78.2708 115.139 77.7855L119.028 77.8033C118.927 78.6378 118.676 79.4427 118.273 80.218C117.877 80.9875 117.341 81.677 116.666 82.2866C115.997 82.8903 115.198 83.3697 114.269 83.7248C113.346 84.074 112.301 84.2486 111.135 84.2486C109.514 84.2486 108.064 83.8816 106.785 83.1477C105.513 82.4138 104.507 81.3514 103.767 79.9606C103.033 78.5697 102.666 76.8859 102.666 74.9091C102.666 72.9264 103.039 71.2396 103.785 69.8487C104.53 68.4579 105.542 67.3984 106.821 66.6705C108.099 65.9366 109.537 65.5696 111.135 65.5696C112.189 65.5696 113.165 65.7176 114.065 66.0135C114.971 66.3094 115.773 66.7415 116.471 67.3097C117.169 67.8719 117.738 68.5614 118.176 69.3782C118.619 70.195 118.903 71.1301 119.028 72.1836ZM121.092 68.9876V65.8182H136.024V68.9876H130.458V84H126.658V68.9876H121.092ZM138.484 84V65.8182H150.735V68.9876H142.328V73.32H150.105V76.4893H142.328V80.8306H150.771V84H138.484ZM153.791 84V65.8182H160.964C162.338 65.8182 163.509 66.0638 164.48 66.555C165.457 67.0404 166.199 67.7299 166.708 68.6236C167.223 69.5114 167.481 70.556 167.481 71.7575C167.481 72.9648 167.22 74.0036 166.7 74.8736C166.179 75.7377 165.424 76.4006 164.436 76.8622C163.453 77.3239 162.264 77.5547 160.867 77.5547H156.064V74.4652H160.245C160.979 74.4652 161.589 74.3646 162.074 74.1634C162.56 73.9621 162.921 73.6603 163.157 73.2578C163.4 72.8554 163.521 72.3552 163.521 71.7575C163.521 71.1538 163.4 70.6448 163.157 70.2305C162.921 69.8162 162.557 69.5025 162.065 69.2894C161.58 69.0704 160.967 68.9609 160.228 68.9609H157.635V84H153.791ZM163.61 75.7259L168.129 84H163.885L159.464 75.7259H163.61ZM180.061 71.0472C179.99 70.3311 179.685 69.7747 179.146 69.3782C178.608 68.9817 177.877 68.7834 176.953 68.7834C176.326 68.7834 175.796 68.8722 175.364 69.0497C174.932 69.2214 174.601 69.4611 174.37 69.7688C174.145 70.0766 174.033 70.4258 174.033 70.8164C174.021 71.1419 174.089 71.426 174.237 71.6687C174.391 71.9113 174.601 72.1214 174.867 72.299C175.134 72.4706 175.441 72.6216 175.79 72.7518C176.14 72.8761 176.513 72.9826 176.909 73.0714L178.543 73.462C179.336 73.6396 180.064 73.8763 180.727 74.1722C181.389 74.4682 181.964 74.8321 182.449 75.2642C182.934 75.6963 183.31 76.2053 183.576 76.7912C183.849 77.3771 183.988 78.0489 183.994 78.8065C183.988 79.9192 183.704 80.8839 183.141 81.7006C182.585 82.5115 181.78 83.1418 180.727 83.5916C179.679 84.0355 178.415 84.2575 176.936 84.2575C175.468 84.2575 174.19 84.0326 173.1 83.5827C172.017 83.1329 171.171 82.4671 170.561 81.5852C169.958 80.6974 169.641 79.5996 169.612 78.2915H173.331C173.373 78.9012 173.547 79.4102 173.855 79.8185C174.169 80.221 174.586 80.5258 175.107 80.733C175.634 80.9342 176.228 81.0348 176.891 81.0348C177.542 81.0348 178.108 80.9401 178.587 80.7507C179.072 80.5613 179.448 80.2979 179.714 79.9606C179.981 79.6232 180.114 79.2356 180.114 78.7976C180.114 78.3892 179.993 78.0459 179.75 77.7678C179.513 77.4896 179.164 77.2528 178.702 77.0575C178.247 76.8622 177.687 76.6847 177.025 76.5249L175.045 76.0277C173.512 75.6548 172.301 75.0719 171.414 74.2788C170.526 73.4857 170.085 72.4174 170.091 71.0739C170.085 69.973 170.378 69.0112 170.97 68.1886C171.568 67.3659 172.387 66.7237 173.429 66.2621C174.471 65.8004 175.654 65.5696 176.98 65.5696C178.33 65.5696 179.507 65.8004 180.513 66.2621C181.526 66.7237 182.313 67.3659 182.875 68.1886C183.437 69.0112 183.727 69.9641 183.745 71.0472H180.061Z" fill="white"/>
<path d="M12.8075 534L6.56463 512.182H11.6037L15.2152 527.342H15.3963L19.3807 512.182H23.6953L27.669 527.374H27.8608L31.4723 512.182H36.5114L30.2685 534H25.7727L21.6179 519.735H21.4474L17.3033 534H12.8075ZM57.7995 523.091C57.7995 525.47 57.3485 527.494 56.4466 529.163C55.5517 530.832 54.3301 532.107 52.7818 532.988C51.2406 533.862 49.5076 534.298 47.5829 534.298C45.644 534.298 43.9039 533.858 42.3627 532.977C40.8216 532.097 39.6035 530.822 38.7086 529.153C37.8137 527.484 37.3663 525.463 37.3663 523.091C37.3663 520.712 37.8137 518.688 38.7086 517.018C39.6035 515.349 40.8216 514.078 42.3627 513.205C43.9039 512.324 45.644 511.884 47.5829 511.884C49.5076 511.884 51.2406 512.324 52.7818 513.205C54.3301 514.078 55.5517 515.349 56.4466 517.018C57.3485 518.688 57.7995 520.712 57.7995 523.091ZM53.1227 523.091C53.1227 521.55 52.8919 520.25 52.4302 519.192C51.9757 518.134 51.3329 517.331 50.502 516.784C49.671 516.237 48.698 515.964 47.5829 515.964C46.4679 515.964 45.4949 516.237 44.6639 516.784C43.8329 517.331 43.1866 518.134 42.725 519.192C42.2704 520.25 42.0431 521.55 42.0431 523.091C42.0431 524.632 42.2704 525.932 42.725 526.99C43.1866 528.048 43.8329 528.851 44.6639 529.398C45.4949 529.945 46.4679 530.218 47.5829 530.218C48.698 530.218 49.671 529.945 50.502 529.398C51.3329 528.851 51.9757 528.048 52.4302 526.99C52.8919 525.932 53.1227 524.632 53.1227 523.091ZM61.2166 512.182H66.9055L72.9141 526.841H73.1697L79.1783 512.182H84.8672V534H80.3928V519.799H80.2116L74.5653 533.893H71.5185L65.8722 519.746H65.6911V534H61.2166V512.182ZM88.6678 534V512.182H103.369V515.985H93.2807V521.184H102.613V524.987H93.2807V530.197H103.412V534H88.6678ZM125.286 512.182V534H121.302L111.81 520.268H111.65V534H107.037V512.182H111.085L120.503 525.903H120.695V512.182H125.286Z" fill="white"/>
<path fill-rule="evenodd" clip-rule="evenodd" d="M534.094 12.7143H256.906V521.286H534.094V12.7143ZM231 0V534H560V0H231Z" fill="#FF0000"/>
<path d="M408.397 231.781C424.962 340.436 461.461 414.806 528 443.288C520.139 457.002 510.032 484.957 505.259 502.89C433.666 464.914 397.729 379.467 376.391 244.968L408.397 231.781ZM266.896 205.936H521.823V270.813H266.896V205.936ZM473.814 15L501.328 71.437C442.369 97.8095 360.95 107.831 292.445 108.886C291.603 91.4801 287.11 63.5253 283.461 48.2293C350.842 46.1195 427.489 35.5705 473.814 15ZM376.672 88.8428H413.17C410.363 269.758 405.59 429.575 282.618 505C278.407 487.067 269.142 462.277 261 448.563C375.549 384.214 374.145 249.187 376.672 88.8428Z" fill="white"/>
<path d="M395.065 229.985V226.182H412.984V229.985H406.305V248H401.745V229.985H395.065ZM415.935 248V226.182H430.637V229.985H420.548V235.184H429.881V238.987H420.548V244.197H430.68V248H415.935ZM452.554 226.182V248H448.569L439.077 234.268H438.917V248H434.305V226.182H438.353L447.77 239.903H447.962V226.182H452.554ZM464.099 248H456.365V226.182H464.163C466.358 226.182 468.247 226.619 469.831 227.492C471.415 228.359 472.633 229.605 473.485 231.232C474.344 232.858 474.774 234.804 474.774 237.07C474.774 239.342 474.344 241.295 473.485 242.929C472.633 244.562 471.408 245.816 469.81 246.69C468.219 247.563 466.315 248 464.099 248ZM460.978 244.048H463.908C465.271 244.048 466.418 243.806 467.349 243.323C468.286 242.833 468.989 242.077 469.458 241.054C469.934 240.024 470.172 238.696 470.172 237.07C470.172 235.457 469.934 234.14 469.458 233.117C468.989 232.094 468.29 231.342 467.359 230.859C466.429 230.376 465.282 230.134 463.918 230.134H460.978V244.048ZM478.191 248V226.182H492.893V229.985H482.804V235.184H492.137V238.987H482.804V244.197H492.936V248H478.191ZM496.56 248V226.182H505.168C506.816 226.182 508.222 226.477 509.387 227.066C510.559 227.648 511.45 228.476 512.061 229.548C512.679 230.614 512.988 231.867 512.988 233.309C512.988 234.758 512.675 236.004 512.05 237.048C511.425 238.085 510.52 238.881 509.334 239.435C508.155 239.989 506.727 240.266 505.051 240.266H499.288V236.558H504.305C505.186 236.558 505.918 236.437 506.5 236.196C507.082 235.955 507.516 235.592 507.8 235.109C508.091 234.626 508.237 234.026 508.237 233.309C508.237 232.585 508.091 231.974 507.8 231.477C507.516 230.979 507.079 230.603 506.489 230.347C505.907 230.085 505.172 229.953 504.284 229.953H501.173V248H496.56ZM508.343 238.071L513.766 248H508.673L503.368 238.071H508.343Z" fill="black"/>
<path d="M93.88 265.16C94.04 265.08 102.08 265.04 118 265.04C134.4 265.12 143.16 265.28 144.28 265.52C144.36 265.52 144.8 265.64 145.6 265.88C148.88 266.6 151.68 267.8 154 269.48C161.52 274.52 165.64 282.12 166.36 292.28C166.52 293.64 166.56 295.04 166.48 296.48C166.08 308.16 161.8 318.88 153.64 328.64C151.72 331.04 149.4 333.4 146.68 335.72C139.16 341.8 131.2 345.48 122.8 346.76C122 346.84 113.72 346.92 97.96 347C82.12 347 74 346.76 73.6 346.28C73.44 346.04 73.52 345.12 73.84 343.52C74.24 341.76 74.64 340.76 75.04 340.52C75.44 340.36 76.88 340.28 79.36 340.28C83.84 340.2 86.36 339.88 86.92 339.32C87.16 339.16 90.04 328.04 95.56 305.96C101.08 283.88 103.84 272.76 103.84 272.6C103.84 272.52 103.76 272.4 103.6 272.24C103.28 272.08 101.12 271.92 97.12 271.76H93.04L92.56 271.28C92.24 270.96 92.28 269.92 92.68 268.16C93.16 266.32 93.56 265.32 93.88 265.16ZM136 271.88H118.24C117.44 271.96 116.92 272.2 116.68 272.6L99.88 339.8C99.88 339.96 100.04 340.08 100.36 340.16L119.8 340.04C119.96 340.04 120.08 340.04 120.16 340.04C125.6 339.32 130.32 337.6 134.32 334.88C135.92 333.84 137.52 332.52 139.12 330.92C143.6 326.44 147.12 319.64 149.68 310.52C151.28 304.76 152.36 299.88 152.92 295.88C153.4 292.12 153.4 288.92 152.92 286.28C152.2 282.6 150.72 279.56 148.48 277.16C145.28 274.12 141.12 272.36 136 271.88ZM192.775 265.64L193.135 265.4H226.735H260.215L260.695 265.76C260.935 266.08 261.055 266.4 261.055 266.72L257.575 294.08C257.575 294.48 257.415 294.8 257.095 295.04L256.735 295.4H254.695C253.255 295.4 252.415 295.32 252.175 295.16C251.775 294.92 251.655 293.96 251.815 292.28C251.815 292.12 251.815 291.92 251.815 291.68C252.215 288.4 252.415 285.68 252.415 283.52C252.175 278.72 250.575 275.56 247.615 274.04C246.175 273.4 244.695 272.96 243.175 272.72C240.935 272.32 235.975 272.16 228.295 272.24C220.615 272.24 216.575 272.48 216.175 272.96L208.975 301.28H215.335C220.615 301.2 224.015 300.88 225.535 300.32C227.295 299.76 228.735 298.76 229.855 297.32C230.975 295.88 232.015 293.28 232.975 289.52C233.295 288.48 233.575 287.84 233.815 287.6L234.175 287.24H236.215C237.895 287.24 238.895 287.52 239.215 288.08C239.295 288.4 238.015 293.96 235.375 304.76C232.575 315.72 231.135 321.24 231.055 321.32C230.895 321.8 229.935 322.04 228.175 322.04H226.135L225.655 321.68C225.335 321.28 225.335 320.36 225.655 318.92C226.615 314.84 226.735 312.04 226.015 310.52C225.455 309.32 223.855 308.56 221.215 308.24C220.735 308.16 218.255 308.12 213.775 308.12L207.295 308L203.335 323.72C200.695 334.36 199.375 339.72 199.375 339.8C199.375 339.88 199.455 340 199.615 340.16H221.335C226.055 339.92 230.095 339.04 233.455 337.52C235.455 336.48 237.255 335.24 238.855 333.8C241.975 330.68 245.295 324.88 248.815 316.4C249.455 314.72 249.935 313.72 250.255 313.4L250.615 313.04H252.775H254.935L255.295 313.4C255.615 313.72 255.615 314.36 255.295 315.32C254.895 316.52 252.895 321.56 249.295 330.44C244.895 341 242.695 346.32 242.695 346.4C242.535 346.72 241.375 346.88 239.215 346.88C236.655 346.96 226.135 347 207.655 347C184.695 347 173.055 346.76 172.735 346.28C172.575 346.04 172.655 345.12 172.975 343.52C173.375 341.76 173.775 340.76 174.175 340.52C174.575 340.36 176.015 340.28 178.495 340.28C182.975 340.2 185.495 339.88 186.055 339.32C186.295 339.16 189.175 328.04 194.695 305.96C200.215 283.88 202.895 272.8 202.735 272.72C202.575 272.56 202.295 272.48 201.895 272.48C200.535 272.24 198.215 272.12 194.935 272.12C192.855 272.12 191.695 271.88 191.455 271.4C191.295 271.16 191.375 270.24 191.695 268.64C192.095 266.96 192.455 265.96 192.775 265.64ZM265.409 265.28L265.769 265.04H267.449C274.969 265.44 284.169 265.48 295.049 265.16C297.689 265.08 299.169 265.32 299.489 265.88C299.649 266.12 299.529 267.04 299.129 268.64C298.649 270.4 298.249 271.36 297.929 271.52C297.689 271.6 296.769 271.68 295.169 271.76C293.249 271.92 291.969 272 291.329 272C289.649 272.32 288.649 272.6 288.329 272.84C288.249 272.92 289.249 282.48 291.329 301.52C293.409 320.64 294.489 330.32 294.569 330.56C294.569 330.64 294.689 330.52 294.929 330.2C295.649 329.16 301.089 320.36 311.249 303.8C322.529 285.08 328.129 275.84 328.049 276.08C328.369 275.28 328.489 274.64 328.409 274.16C328.009 272.8 326.249 272 323.129 271.76C321.929 271.76 321.169 271.48 320.849 270.92C320.769 270.68 320.889 269.76 321.209 268.16C321.609 266.64 321.969 265.72 322.289 265.4L322.649 265.04H324.089C330.729 265.36 336.929 265.44 342.689 265.28L348.569 265.04H349.409L349.769 265.4C350.089 265.72 350.249 266.04 350.249 266.36C350.249 267.64 349.849 269.2 349.049 271.04C348.889 271.52 348.009 271.76 346.409 271.76C342.409 272 339.289 272.92 337.049 274.52C336.409 275.08 335.649 275.92 334.769 277.04C334.209 277.84 326.849 289.84 312.689 313.04C298.209 336.72 290.929 348.6 290.849 348.68C290.849 348.76 290.529 349 289.889 349.4C289.489 349.56 288.409 349.64 286.649 349.64C284.969 349.64 283.929 349.52 283.529 349.28C283.289 349.04 283.169 348.84 283.169 348.68C283.169 348.2 281.729 335.52 278.849 310.64C276.129 285.36 274.689 272.64 274.529 272.48C274.449 272.4 274.169 272.28 273.689 272.12C272.729 271.88 270.569 271.76 267.209 271.76C265.289 271.76 264.249 271.52 264.089 271.04C263.929 270.8 264.009 269.88 264.329 268.28C264.729 266.6 265.089 265.6 265.409 265.28ZM350.85 265.28C351.09 265.12 351.77 265.04 352.89 265.04C360.33 265.36 368.61 265.44 377.73 265.28L386.85 265.04H388.17L388.53 265.4C388.85 265.72 389.01 266.04 389.01 266.36C389.01 267.64 388.61 269.2 387.81 271.04C387.65 271.52 386.49 271.76 384.33 271.76C383.93 271.76 383.45 271.76 382.89 271.76C378.17 271.84 375.53 272.16 374.97 272.72L374.49 273.08L366.33 306.2C360.81 328.12 358.05 339.2 358.05 339.44C357.97 339.68 358.33 339.84 359.13 339.92C360.17 340.08 362.17 340.2 365.13 340.28C368.17 340.28 369.85 340.56 370.17 341.12C370.25 341.36 370.13 342.28 369.81 343.88C369.41 345.4 369.05 346.32 368.73 346.64L368.37 347H366.45C357.25 346.6 346.81 346.56 335.13 346.88C332.41 346.96 330.89 346.72 330.57 346.16C330.49 345.92 330.61 345 330.93 343.4C331.41 341.8 331.73 340.88 331.89 340.64L332.37 340.28H336.57C340.81 340.2 343.33 339.96 344.13 339.56C344.37 339.48 344.65 339.28 344.97 338.96L361.53 272.6C361.53 272.52 361.45 272.4 361.29 272.24C360.65 272 358.41 271.84 354.57 271.76C351.45 271.76 349.77 271.52 349.53 271.04C349.37 270.8 349.45 269.88 349.77 268.28C350.17 266.6 350.53 265.6 350.85 265.28ZM404.421 265.16C404.581 265.08 405.221 265.04 406.341 265.04C412.581 265.36 421.021 265.44 431.661 265.28C438.701 265.12 442.181 265.04 442.101 265.04H443.541L443.901 265.4C444.301 265.8 444.341 266.72 444.021 268.16C444.021 268.32 443.981 268.48 443.901 268.64C443.501 270.4 443.141 271.36 442.821 271.52C442.581 271.68 441.341 271.76 439.101 271.76C434.381 271.76 431.301 271.88 429.861 272.12C428.581 272.28 427.781 272.6 427.461 273.08L410.781 339.8C410.781 339.96 410.941 340.08 411.261 340.16H419.301C425.221 340.16 429.101 339.92 430.941 339.44C431.101 339.44 431.261 339.4 431.421 339.32C436.861 338.04 441.341 335.2 444.861 330.8C447.101 328 449.501 323.16 452.061 316.28C452.781 314.36 453.261 313.36 453.501 313.28C454.061 312.88 455.381 312.84 457.461 313.16C457.781 313.16 457.981 313.2 458.061 313.28C458.541 313.44 458.781 313.8 458.781 314.36L447.381 346.4C447.221 346.72 446.181 346.88 444.261 346.88C441.861 346.96 432.341 347 415.701 347C395.141 347 384.741 346.92 384.501 346.76C384.261 346.52 384.101 346.32 384.021 346.16C383.941 345.84 384.061 344.92 384.381 343.4C384.861 341.8 385.181 340.88 385.341 340.64L385.821 340.28H389.901C394.381 340.2 396.901 339.88 397.461 339.32C397.701 339.16 400.581 328.04 406.101 305.96C411.621 283.88 414.381 272.76 414.381 272.6C414.381 272.52 414.301 272.4 414.141 272.24C413.821 272.08 411.661 271.92 407.661 271.76H403.581L403.221 271.4C402.741 271.08 402.741 269.96 403.221 268.04C403.621 266.36 404.021 265.4 404.421 265.16Z" fill="#C40000"/>
<path d="M254.88 364.16C255.04 364.08 263.08 364.04 279 364.04C295.4 364.12 304.16 364.28 305.28 364.52C305.36 364.52 305.8 364.64 306.6 364.88C309.88 365.6 312.68 366.8 315 368.48C322.52 373.52 326.64 381.12 327.36 391.28C327.52 392.64 327.56 394.04 327.48 395.48C327.08 407.16 322.8 417.88 314.64 427.64C312.72 430.04 310.4 432.4 307.68 434.72C300.16 440.8 292.2 444.48 283.8 445.76C283 445.84 274.72 445.92 258.96 446C243.12 446 235 445.76 234.6 445.28C234.44 445.04 234.52 444.12 234.84 442.52C235.24 440.76 235.64 439.76 236.04 439.52C236.44 439.36 237.88 439.28 240.36 439.28C244.84 439.2 247.36 438.88 247.92 438.32C248.16 438.16 251.04 427.04 256.56 404.96C262.08 382.88 264.84 371.76 264.84 371.6C264.84 371.52 264.76 371.4 264.6 371.24C264.28 371.08 262.12 370.92 258.12 370.76H254.04L253.56 370.28C253.24 369.96 253.28 368.92 253.68 367.16C254.16 365.32 254.56 364.32 254.88 364.16ZM297 370.88H279.24C278.44 370.96 277.92 371.2 277.68 371.6L260.88 438.8C260.88 438.96 261.04 439.08 261.36 439.16L280.8 439.04C280.96 439.04 281.08 439.04 281.16 439.04C286.6 438.32 291.32 436.6 295.32 433.88C296.92 432.84 298.52 431.52 300.12 429.92C304.6 425.44 308.12 418.64 310.68 409.52C312.28 403.76 313.36 398.88 313.92 394.88C314.4 391.12 314.4 387.92 313.92 385.28C313.2 381.6 311.72 378.56 309.48 376.16C306.28 373.12 302.12 371.36 297 370.88ZM353.775 364.64L354.135 364.4H387.735H421.215L421.695 364.76C421.935 365.08 422.055 365.4 422.055 365.72L418.575 393.08C418.575 393.48 418.415 393.8 418.095 394.04L417.735 394.4H415.695C414.255 394.4 413.415 394.32 413.175 394.16C412.775 393.92 412.655 392.96 412.815 391.28C412.815 391.12 412.815 390.92 412.815 390.68C413.215 387.4 413.415 384.68 413.415 382.52C413.175 377.72 411.575 374.56 408.615 373.04C407.175 372.4 405.695 371.96 404.175 371.72C401.935 371.32 396.975 371.16 389.295 371.24C381.615 371.24 377.575 371.48 377.175 371.96L369.975 400.28H376.335C381.615 400.2 385.015 399.88 386.535 399.32C388.295 398.76 389.735 397.76 390.855 396.32C391.975 394.88 393.015 392.28 393.975 388.52C394.295 387.48 394.575 386.84 394.815 386.6L395.175 386.24H397.215C398.895 386.24 399.895 386.52 400.215 387.08C400.295 387.4 399.015 392.96 396.375 403.76C393.575 414.72 392.135 420.24 392.055 420.32C391.895 420.8 390.935 421.04 389.175 421.04H387.135L386.655 420.68C386.335 420.28 386.335 419.36 386.655 417.92C387.615 413.84 387.735 411.04 387.015 409.52C386.455 408.32 384.855 407.56 382.215 407.24C381.735 407.16 379.255 407.12 374.775 407.12L368.295 407L364.335 422.72C361.695 433.36 360.375 438.72 360.375 438.8C360.375 438.88 360.455 439 360.615 439.16H382.335C387.055 438.92 391.095 438.04 394.455 436.52C396.455 435.48 398.255 434.24 399.855 432.8C402.975 429.68 406.295 423.88 409.815 415.4C410.455 413.72 410.935 412.72 411.255 412.4L411.615 412.04H413.775H415.935L416.295 412.4C416.615 412.72 416.615 413.36 416.295 414.32C415.895 415.52 413.895 420.56 410.295 429.44C405.895 440 403.695 445.32 403.695 445.4C403.535 445.72 402.375 445.88 400.215 445.88C397.655 445.96 387.135 446 368.655 446C345.695 446 334.055 445.76 333.735 445.28C333.575 445.04 333.655 444.12 333.975 442.52C334.375 440.76 334.775 439.76 335.175 439.52C335.575 439.36 337.015 439.28 339.495 439.28C343.975 439.2 346.495 438.88 347.055 438.32C347.295 438.16 350.175 427.04 355.695 404.96C361.215 382.88 363.895 371.8 363.735 371.72C363.575 371.56 363.295 371.48 362.895 371.48C361.535 371.24 359.215 371.12 355.935 371.12C353.855 371.12 352.695 370.88 352.455 370.4C352.295 370.16 352.375 369.24 352.695 367.64C353.095 365.96 353.455 364.96 353.775 364.64ZM426.409 364.28L426.769 364.04H428.449C435.969 364.44 445.169 364.48 456.049 364.16C458.689 364.08 460.169 364.32 460.489 364.88C460.649 365.12 460.529 366.04 460.129 367.64C459.649 369.4 459.249 370.36 458.929 370.52C458.689 370.6 457.769 370.68 456.169 370.76C454.249 370.92 452.969 371 452.329 371C450.649 371.32 449.649 371.6 449.329 371.84C449.249 371.92 450.249 381.48 452.329 400.52C454.409 419.64 455.489 429.32 455.569 429.56C455.569 429.64 455.689 429.52 455.929 429.2C456.649 428.16 462.089 419.36 472.249 402.8C483.529 384.08 489.129 374.84 489.049 375.08C489.369 374.28 489.489 373.64 489.409 373.16C489.009 371.8 487.249 371 484.129 370.76C482.929 370.76 482.169 370.48 481.849 369.92C481.769 369.68 481.889 368.76 482.209 367.16C482.609 365.64 482.969 364.72 483.289 364.4L483.649 364.04H485.089C491.729 364.36 497.929 364.44 503.689 364.28L509.569 364.04H510.409L510.769 364.4C511.089 364.72 511.249 365.04 511.249 365.36C511.249 366.64 510.849 368.2 510.049 370.04C509.889 370.52 509.009 370.76 507.409 370.76C503.409 371 500.289 371.92 498.049 373.52C497.409 374.08 496.649 374.92 495.769 376.04C495.209 376.84 487.849 388.84 473.689 412.04C459.209 435.72 451.929 447.6 451.849 447.68C451.849 447.76 451.529 448 450.889 448.4C450.489 448.56 449.409 448.64 447.649 448.64C445.969 448.64 444.929 448.52 444.529 448.28C444.289 448.04 444.169 447.84 444.169 447.68C444.169 447.2 442.729 434.52 439.849 409.64C437.129 384.36 435.689 371.64 435.529 371.48C435.449 371.4 435.169 371.28 434.689 371.12C433.729 370.88 431.569 370.76 428.209 370.76C426.289 370.76 425.249 370.52 425.089 370.04C424.929 369.8 425.009 368.88 425.329 367.28C425.729 365.6 426.089 364.6 426.409 364.28ZM511.85 364.28C512.09 364.12 512.77 364.04 513.89 364.04C521.33 364.36 529.61 364.44 538.73 364.28L547.85 364.04H549.17L549.53 364.4C549.85 364.72 550.01 365.04 550.01 365.36C550.01 366.64 549.61 368.2 548.81 370.04C548.65 370.52 547.49 370.76 545.33 370.76C544.93 370.76 544.45 370.76 543.89 370.76C539.17 370.84 536.53 371.16 535.97 371.72L535.49 372.08L527.33 405.2C521.81 427.12 519.05 438.2 519.05 438.44C518.97 438.68 519.33 438.84 520.13 438.92C521.17 439.08 523.17 439.2 526.13 439.28C529.17 439.28 530.85 439.56 531.17 440.12C531.25 440.36 531.13 441.28 530.81 442.88C530.41 444.4 530.05 445.32 529.73 445.64L529.37 446H527.45C518.25 445.6 507.81 445.56 496.13 445.88C493.41 445.96 491.89 445.72 491.57 445.16C491.49 444.92 491.61 444 491.93 442.4C492.41 440.8 492.73 439.88 492.89 439.64L493.37 439.28H497.57C501.81 439.2 504.33 438.96 505.13 438.56C505.37 438.48 505.65 438.28 505.97 437.96L522.53 371.6C522.53 371.52 522.45 371.4 522.29 371.24C521.65 371 519.41 370.84 515.57 370.76C512.45 370.76 510.77 370.52 510.53 370.04C510.37 369.8 510.45 368.88 510.77 367.28C511.17 365.6 511.53 364.6 511.85 364.28ZM565.421 364.16C565.581 364.08 566.221 364.04 567.341 364.04C573.581 364.36 582.021 364.44 592.661 364.28C599.701 364.12 603.181 364.04 603.101 364.04H604.541L604.901 364.4C605.301 364.8 605.341 365.72 605.021 367.16C605.021 367.32 604.981 367.48 604.901 367.64C604.501 369.4 604.141 370.36 603.821 370.52C603.581 370.68 602.341 370.76 600.101 370.76C595.381 370.76 592.301 370.88 590.861 371.12C589.581 371.28 588.781 371.6 588.461 372.08L571.781 438.8C571.781 438.96 571.941 439.08 572.261 439.16H580.301C586.221 439.16 590.101 438.92 591.941 438.44C592.101 438.44 592.261 438.4 592.421 438.32C597.861 437.04 602.341 434.2 605.861 429.8C608.101 427 610.501 422.16 613.061 415.28C613.781 413.36 614.261 412.36 614.501 412.28C615.061 411.88 616.381 411.84 618.461 412.16C618.781 412.16 618.981 412.2 619.061 412.28C619.541 412.44 619.781 412.8 619.781 413.36L608.381 445.4C608.221 445.72 607.181 445.88 605.261 445.88C602.861 445.96 593.341 446 576.701 446C556.141 446 545.741 445.92 545.501 445.76C545.261 445.52 545.101 445.32 545.021 445.16C544.941 444.84 545.061 443.92 545.381 442.4C545.861 440.8 546.181 439.88 546.341 439.64L546.821 439.28H550.901C555.381 439.2 557.901 438.88 558.461 438.32C558.701 438.16 561.581 427.04 567.101 404.96C572.621 382.88 575.381 371.76 575.381 371.6C575.381 371.52 575.301 371.4 575.141 371.24C574.821 371.08 572.661 370.92 568.661 370.76H564.581L564.221 370.4C563.741 370.08 563.741 368.96 564.221 367.04C564.621 365.36 565.021 364.4 565.421 364.16Z" fill="#C40000"/>
</svg>
