<svg width="1222" height="688" viewBox="0 0 1222 688" fill="none" xmlns="http://www.w3.org/2000/svg">
<path d="M444.715 187.021V223.768H593.995V187.021H444.715ZM444.715 90.1411V127.557H593.995V90.1411H444.715ZM392.899 26H648.278V287.91H392.899V26ZM360 322.653H682V631.332H627.305V391.471H412.227V632H360V322.653ZM386.319 430.223H653.625V495.7H386.319V430.223ZM386.319 536.456H653.625V604.606H386.319V536.456Z" fill="white"/>
<path d="M0 156.572H304V241.093H0V156.572ZM119.203 0L162.821 15.9343C136.517 165.578 99.8905 351.248 72.92 471.102L32.2979 440.619C58.9354 327.693 95.5619 142.023 119.203 0ZM212.434 198.14L256.386 218.924C229.748 507.127 168.149 607.583 23.9737 651.922C19.9781 626.288 10.988 590.956 2.99671 569.479C136.517 537.61 190.458 453.782 212.434 198.14ZM54.2738 426.763L81.2442 361.64C152.166 410.828 249.393 501.585 298.34 575.714L267.706 654C223.089 579.178 128.526 482.186 54.2738 426.763Z" fill="#FF0000"/>
<path d="M14.5284 9.90909H22.1136L30.125 29.4545H30.4659L38.4773 9.90909H46.0625V39H40.0966V20.0653H39.8551L32.3267 38.858H28.2642L20.7358 19.9943H20.4943V39H14.5284V9.90909ZM57.2805 9.90909V39H51.13V9.90909H57.2805ZM78.1222 18.2756C78.0085 17.1297 77.5208 16.2396 76.6591 15.6051C75.7973 14.9706 74.6278 14.6534 73.1506 14.6534C72.1468 14.6534 71.2992 14.7955 70.608 15.0795C69.9167 15.3542 69.3864 15.7377 69.017 16.2301C68.6572 16.7225 68.4773 17.2812 68.4773 17.9062C68.4583 18.4271 68.5672 18.8816 68.804 19.2699C69.0502 19.6581 69.3864 19.9943 69.8125 20.2784C70.2386 20.553 70.7311 20.7945 71.2898 21.0028C71.8485 21.2017 72.4451 21.3722 73.0795 21.5142L75.6932 22.1392C76.9621 22.4233 78.1269 22.8021 79.1875 23.2756C80.2481 23.7491 81.1667 24.3314 81.9432 25.0227C82.7197 25.714 83.321 26.5284 83.7472 27.4659C84.1828 28.4034 84.4053 29.4782 84.4148 30.6903C84.4053 32.4706 83.9508 34.0142 83.0511 35.321C82.161 36.6184 80.8731 37.6269 79.1875 38.3466C77.5114 39.0568 75.4896 39.4119 73.1222 39.4119C70.7737 39.4119 68.7282 39.0521 66.9858 38.3324C65.2528 37.6127 63.8987 36.5473 62.9233 35.1364C61.9574 33.7159 61.4508 31.9593 61.4034 29.8665H67.3551C67.4214 30.8419 67.7008 31.6562 68.1932 32.3097C68.6951 32.9536 69.3627 33.4413 70.196 33.7727C71.0388 34.0947 71.9905 34.2557 73.0511 34.2557C74.0928 34.2557 74.9972 34.1042 75.7642 33.8011C76.5407 33.4981 77.142 33.0767 77.5682 32.5369C77.9943 31.9972 78.2074 31.3769 78.2074 30.6761C78.2074 30.0227 78.0133 29.4735 77.625 29.0284C77.2462 28.5833 76.6875 28.2045 75.9489 27.892C75.2197 27.5795 74.3248 27.2955 73.2642 27.0398L70.0966 26.2443C67.6439 25.6477 65.7074 24.715 64.2869 23.446C62.8665 22.1771 62.161 20.4678 62.1705 18.3182C62.161 16.5568 62.6297 15.018 63.5767 13.7017C64.5331 12.3854 65.8447 11.358 67.5114 10.6193C69.178 9.88068 71.072 9.51136 73.1932 9.51136C75.3523 9.51136 77.2367 9.88068 78.8466 10.6193C80.4659 11.358 81.7254 12.3854 82.625 13.7017C83.5246 15.018 83.9886 16.5426 84.017 18.2756H78.1222ZM115.285 24.4545C115.285 27.6269 114.683 30.3258 113.481 32.5511C112.288 34.7765 110.659 36.4763 108.594 37.6506C106.54 38.8153 104.229 39.3977 101.663 39.3977C99.0774 39.3977 96.7573 38.8106 94.7024 37.6364C92.6475 36.4621 91.0234 34.7623 89.8303 32.5369C88.6371 30.3116 88.0405 27.6174 88.0405 24.4545C88.0405 21.2822 88.6371 18.5833 89.8303 16.358C91.0234 14.1326 92.6475 12.4375 94.7024 11.2727C96.7573 10.0985 99.0774 9.51136 101.663 9.51136C104.229 9.51136 106.54 10.0985 108.594 11.2727C110.659 12.4375 112.288 14.1326 113.481 16.358C114.683 18.5833 115.285 21.2822 115.285 24.4545ZM109.049 24.4545C109.049 22.3996 108.741 20.6667 108.126 19.2557C107.52 17.8447 106.663 16.7746 105.555 16.0455C104.447 15.3163 103.149 14.9517 101.663 14.9517C100.176 14.9517 98.8786 15.3163 97.7706 16.0455C96.6626 16.7746 95.8009 17.8447 95.1854 19.2557C94.5793 20.6667 94.2763 22.3996 94.2763 24.4545C94.2763 26.5095 94.5793 28.2424 95.1854 29.6534C95.8009 31.0644 96.6626 32.1345 97.7706 32.8636C98.8786 33.5928 100.176 33.9574 101.663 33.9574C103.149 33.9574 104.447 33.5928 105.555 32.8636C106.663 32.1345 107.52 31.0644 108.126 29.6534C108.741 28.2424 109.049 26.5095 109.049 24.4545ZM139.131 19.3125C138.932 18.6212 138.652 18.0104 138.293 17.4801C137.933 16.9403 137.492 16.4858 136.972 16.1165C136.46 15.7377 135.873 15.4489 135.21 15.25C134.557 15.0511 133.832 14.9517 133.037 14.9517C131.55 14.9517 130.243 15.321 129.116 16.0597C127.999 16.7983 127.128 17.8731 126.503 19.2841C125.878 20.6856 125.565 22.3996 125.565 24.4261C125.565 26.4527 125.873 28.1761 126.489 29.5966C127.104 31.017 127.975 32.1013 129.102 32.8494C130.229 33.5881 131.56 33.9574 133.094 33.9574C134.486 33.9574 135.674 33.7112 136.659 33.2188C137.653 32.7169 138.411 32.0114 138.932 31.1023C139.462 30.1932 139.727 29.1184 139.727 27.8778L140.977 28.0625H133.477V23.4318H145.651V27.0966C145.651 29.6534 145.111 31.8504 144.031 33.6875C142.952 35.5152 141.465 36.9261 139.571 37.9205C137.677 38.9053 135.509 39.3977 133.065 39.3977C130.338 39.3977 127.942 38.7964 125.878 37.5938C123.813 36.3816 122.204 34.6629 121.048 32.4375C119.902 30.2027 119.33 27.5511 119.33 24.483C119.33 22.125 119.67 20.0227 120.352 18.1761C121.044 16.3201 122.009 14.7481 123.25 13.4602C124.491 12.1723 125.935 11.1922 127.582 10.5199C129.23 9.84754 131.015 9.51136 132.938 9.51136C134.585 9.51136 136.119 9.75284 137.54 10.2358C138.96 10.7093 140.22 11.3816 141.318 12.2528C142.426 13.1241 143.33 14.161 144.031 15.3636C144.732 16.5568 145.182 17.8731 145.381 19.3125H139.131ZM147.394 9.90909H154.283L160.917 22.4375H161.201L167.835 9.90909H174.724L164.113 28.7159V39H158.005V28.7159L147.394 9.90909ZM202.415 9.90909V39H197.103L184.447 20.6903H184.234V39H178.083V9.90909H183.481L196.038 28.2045H196.293V9.90909H202.415ZM205.793 9.90909H212.682L219.315 22.4375H219.599L226.233 9.90909H233.122L222.511 28.7159V39H216.403V28.7159L205.793 9.90909ZM251.89 9.90909V39H245.739V9.90909H251.89ZM281.283 9.90909V39H275.97L263.314 20.6903H263.101V39H256.95V9.90909H262.348L274.905 28.2045H275.161V9.90909H281.283ZM40.196 68.0938H33.9744C33.8608 67.2888 33.6288 66.5739 33.2784 65.9489C32.928 65.3144 32.4782 64.7746 31.929 64.3295C31.3797 63.8845 30.7453 63.5436 30.0256 63.3068C29.3153 63.0701 28.5436 62.9517 27.7102 62.9517C26.2045 62.9517 24.893 63.3258 23.7756 64.0739C22.6581 64.8125 21.7917 65.892 21.1761 67.3125C20.5606 68.7235 20.2528 70.4375 20.2528 72.4545C20.2528 74.5284 20.5606 76.2708 21.1761 77.6818C21.8011 79.0928 22.6723 80.1581 23.7898 80.8778C24.9072 81.5975 26.1998 81.9574 27.6676 81.9574C28.4915 81.9574 29.2538 81.8485 29.9545 81.6307C30.6648 81.4129 31.2945 81.0956 31.8438 80.679C32.393 80.2528 32.8475 79.7367 33.2074 79.1307C33.5767 78.5246 33.8324 77.8333 33.9744 77.0568L40.196 77.0852C40.035 78.4205 39.6326 79.7083 38.9886 80.9489C38.3542 82.1799 37.4972 83.2831 36.4176 84.2585C35.3475 85.2244 34.0691 85.9915 32.5824 86.5597C31.1051 87.1184 29.4337 87.3977 27.5682 87.3977C24.9735 87.3977 22.6534 86.8106 20.608 85.6364C18.572 84.4621 16.9621 82.7623 15.7784 80.5369C14.6042 78.3116 14.017 75.6174 14.017 72.4545C14.017 69.2822 14.6136 66.5833 15.8068 64.358C17 62.1326 18.6193 60.4375 20.6648 59.2727C22.7102 58.0985 25.0114 57.5114 27.5682 57.5114C29.2538 57.5114 30.8163 57.7481 32.2557 58.2216C33.7045 58.6951 34.9877 59.3864 36.1051 60.2955C37.2225 61.1951 38.1316 62.2983 38.8324 63.6051C39.5426 64.9119 39.9972 66.4081 40.196 68.0938ZM44.6065 87V57.9091H50.7571V69.9119H63.2429V57.9091H69.3793V87H63.2429V74.983H50.7571V87H44.6065ZM80.6009 57.9091V87H74.4503V57.9091H80.6009ZM109.994 57.9091V87H104.681L92.0249 68.6903H91.8118V87H85.6612V57.9091H91.0589L103.616 76.2045H103.871V57.9091H109.994ZM115.075 87V57.9091H134.678V62.9801H121.226V69.9119H133.669V74.983H121.226V81.929H134.734V87H115.075ZM155.349 66.2756C155.235 65.1297 154.747 64.2396 153.886 63.6051C153.024 62.9706 151.854 62.6534 150.377 62.6534C149.373 62.6534 148.526 62.7955 147.835 63.0795C147.143 63.3542 146.613 63.7377 146.244 64.2301C145.884 64.7225 145.704 65.2812 145.704 65.9062C145.685 66.4271 145.794 66.8816 146.031 67.2699C146.277 67.6581 146.613 67.9943 147.039 68.2784C147.465 68.553 147.958 68.7945 148.516 69.0028C149.075 69.2017 149.672 69.3722 150.306 69.5142L152.92 70.1392C154.189 70.4233 155.353 70.8021 156.414 71.2756C157.475 71.7491 158.393 72.3314 159.17 73.0227C159.946 73.714 160.548 74.5284 160.974 75.4659C161.409 76.4034 161.632 77.4782 161.641 78.6903C161.632 80.4706 161.177 82.0142 160.278 83.321C159.388 84.6184 158.1 85.6269 156.414 86.3466C154.738 87.0568 152.716 87.4119 150.349 87.4119C148 87.4119 145.955 87.0521 144.212 86.3324C142.479 85.6127 141.125 84.5473 140.15 83.1364C139.184 81.7159 138.677 79.9593 138.63 77.8665H144.582C144.648 78.8419 144.927 79.6562 145.42 80.3097C145.922 80.9536 146.589 81.4413 147.423 81.7727C148.265 82.0947 149.217 82.2557 150.278 82.2557C151.319 82.2557 152.224 82.1042 152.991 81.8011C153.767 81.4981 154.369 81.0767 154.795 80.5369C155.221 79.9972 155.434 79.3769 155.434 78.6761C155.434 78.0227 155.24 77.4735 154.852 77.0284C154.473 76.5833 153.914 76.2045 153.175 75.892C152.446 75.5795 151.551 75.2955 150.491 75.0398L147.323 74.2443C144.871 73.6477 142.934 72.715 141.513 71.446C140.093 70.1771 139.388 68.4678 139.397 66.3182C139.388 64.5568 139.856 63.018 140.803 61.7017C141.76 60.3854 143.071 59.358 144.738 58.6193C146.405 57.8807 148.299 57.5114 150.42 57.5114C152.579 57.5114 154.463 57.8807 156.073 58.6193C157.692 59.358 158.952 60.3854 159.852 61.7017C160.751 63.018 161.215 64.5426 161.244 66.2756H155.349ZM165.778 87V57.9091H185.381V62.9801H171.929V69.9119H184.372V74.983H171.929V81.929H185.438V87H165.778ZM40.196 116.094H33.9744C33.8608 115.289 33.6288 114.574 33.2784 113.949C32.928 113.314 32.4782 112.775 31.929 112.33C31.3797 111.884 30.7453 111.544 30.0256 111.307C29.3153 111.07 28.5436 110.952 27.7102 110.952C26.2045 110.952 24.893 111.326 23.7756 112.074C22.6581 112.812 21.7917 113.892 21.1761 115.312C20.5606 116.723 20.2528 118.437 20.2528 120.455C20.2528 122.528 20.5606 124.271 21.1761 125.682C21.8011 127.093 22.6723 128.158 23.7898 128.878C24.9072 129.598 26.1998 129.957 27.6676 129.957C28.4915 129.957 29.2538 129.848 29.9545 129.631C30.6648 129.413 31.2945 129.096 31.8438 128.679C32.393 128.253 32.8475 127.737 33.2074 127.131C33.5767 126.525 33.8324 125.833 33.9744 125.057L40.196 125.085C40.035 126.42 39.6326 127.708 38.9886 128.949C38.3542 130.18 37.4972 131.283 36.4176 132.259C35.3475 133.224 34.0691 133.991 32.5824 134.56C31.1051 135.118 29.4337 135.398 27.5682 135.398C24.9735 135.398 22.6534 134.811 20.608 133.636C18.572 132.462 16.9621 130.762 15.7784 128.537C14.6042 126.312 14.017 123.617 14.017 120.455C14.017 117.282 14.6136 114.583 15.8068 112.358C17 110.133 18.6193 108.437 20.6648 107.273C22.7102 106.098 25.0114 105.511 27.5682 105.511C29.2538 105.511 30.8163 105.748 32.2557 106.222C33.7045 106.695 34.9877 107.386 36.1051 108.295C37.2225 109.195 38.1316 110.298 38.8324 111.605C39.5426 112.912 39.9972 114.408 40.196 116.094ZM44.6065 135V105.909H50.7571V117.912H63.2429V105.909H69.3793V135H63.2429V122.983H50.7571V135H44.6065ZM79.4645 135H72.8736L82.9162 105.909H90.8423L100.871 135H94.2798L86.9929 112.557H86.7656L79.4645 135ZM79.0526 123.565H94.6207V128.366H79.0526V123.565ZM104.372 135V105.909H115.849C118.046 105.909 119.921 106.302 121.474 107.088C123.037 107.865 124.225 108.968 125.04 110.398C125.864 111.818 126.276 113.49 126.276 115.412C126.276 117.344 125.859 119.006 125.026 120.398C124.192 121.78 122.985 122.841 121.403 123.58C119.831 124.318 117.928 124.688 115.693 124.688H108.009V119.744H114.699C115.873 119.744 116.848 119.583 117.625 119.261C118.402 118.939 118.979 118.456 119.358 117.812C119.746 117.169 119.94 116.368 119.94 115.412C119.94 114.446 119.746 113.632 119.358 112.969C118.979 112.306 118.397 111.804 117.611 111.463C116.834 111.113 115.854 110.938 114.67 110.938H110.523V135H104.372ZM120.082 121.761L127.312 135H120.523L113.449 121.761H120.082ZM135.636 135H129.045L139.088 105.909H147.014L157.043 135H150.452L143.165 112.557H142.938L135.636 135ZM135.224 123.565H150.793V128.366H135.224V123.565ZM184.844 116.094H178.623C178.509 115.289 178.277 114.574 177.927 113.949C177.576 113.314 177.127 112.775 176.577 112.33C176.028 111.884 175.394 111.544 174.674 111.307C173.964 111.07 173.192 110.952 172.359 110.952C170.853 110.952 169.541 111.326 168.424 112.074C167.307 112.812 166.44 113.892 165.825 115.312C165.209 116.723 164.901 118.437 164.901 120.455C164.901 122.528 165.209 124.271 165.825 125.682C166.45 127.093 167.321 128.158 168.438 128.878C169.556 129.598 170.848 129.957 172.316 129.957C173.14 129.957 173.902 129.848 174.603 129.631C175.313 129.413 175.943 129.096 176.492 128.679C177.041 128.253 177.496 127.737 177.856 127.131C178.225 126.525 178.481 125.833 178.623 125.057L184.844 125.085C184.683 126.42 184.281 127.708 183.637 128.949C183.003 130.18 182.146 131.283 181.066 132.259C179.996 133.224 178.718 133.991 177.231 134.56C175.754 135.118 174.082 135.398 172.217 135.398C169.622 135.398 167.302 134.811 165.256 133.636C163.22 132.462 161.611 130.762 160.427 128.537C159.253 126.312 158.665 123.617 158.665 120.455C158.665 117.282 159.262 114.583 160.455 112.358C161.648 110.133 163.268 108.437 165.313 107.273C167.359 106.098 169.66 105.511 172.217 105.511C173.902 105.511 175.465 105.748 176.904 106.222C178.353 106.695 179.636 107.386 180.754 108.295C181.871 109.195 182.78 110.298 183.481 111.605C184.191 112.912 184.646 114.408 184.844 116.094ZM188.147 110.98V105.909H212.039V110.98H203.133V135H197.053V110.98H188.147ZM215.974 135V105.909H235.576V110.98H222.124V117.912H234.567V122.983H222.124V129.929H235.633V135H215.974ZM240.466 135V105.909H251.943C254.14 105.909 256.015 106.302 257.568 107.088C259.131 107.865 260.319 108.968 261.134 110.398C261.957 111.818 262.369 113.49 262.369 115.412C262.369 117.344 261.953 119.006 261.119 120.398C260.286 121.78 259.079 122.841 257.497 123.58C255.925 124.318 254.022 124.688 251.787 124.688H244.102V119.744H250.793C251.967 119.744 252.942 119.583 253.719 119.261C254.495 118.939 255.073 118.456 255.452 117.812C255.84 117.169 256.034 116.368 256.034 115.412C256.034 114.446 255.84 113.632 255.452 112.969C255.073 112.306 254.491 111.804 253.705 111.463C252.928 111.113 251.948 110.938 250.764 110.938H246.616V135H240.466ZM256.176 121.761L263.406 135H256.616L249.543 121.761H256.176ZM282.497 114.276C282.384 113.13 281.896 112.24 281.034 111.605C280.172 110.971 279.003 110.653 277.526 110.653C276.522 110.653 275.674 110.795 274.983 111.08C274.292 111.354 273.761 111.738 273.392 112.23C273.032 112.723 272.852 113.281 272.852 113.906C272.833 114.427 272.942 114.882 273.179 115.27C273.425 115.658 273.761 115.994 274.188 116.278C274.614 116.553 275.106 116.795 275.665 117.003C276.223 117.202 276.82 117.372 277.455 117.514L280.068 118.139C281.337 118.423 282.502 118.802 283.562 119.276C284.623 119.749 285.542 120.331 286.318 121.023C287.095 121.714 287.696 122.528 288.122 123.466C288.558 124.403 288.78 125.478 288.79 126.69C288.78 128.471 288.326 130.014 287.426 131.321C286.536 132.618 285.248 133.627 283.562 134.347C281.886 135.057 279.865 135.412 277.497 135.412C275.149 135.412 273.103 135.052 271.361 134.332C269.628 133.613 268.274 132.547 267.298 131.136C266.332 129.716 265.826 127.959 265.778 125.866H271.73C271.796 126.842 272.076 127.656 272.568 128.31C273.07 128.954 273.738 129.441 274.571 129.773C275.414 130.095 276.366 130.256 277.426 130.256C278.468 130.256 279.372 130.104 280.139 129.801C280.916 129.498 281.517 129.077 281.943 128.537C282.369 127.997 282.582 127.377 282.582 126.676C282.582 126.023 282.388 125.473 282 125.028C281.621 124.583 281.063 124.205 280.324 123.892C279.595 123.58 278.7 123.295 277.639 123.04L274.472 122.244C272.019 121.648 270.082 120.715 268.662 119.446C267.241 118.177 266.536 116.468 266.545 114.318C266.536 112.557 267.005 111.018 267.952 109.702C268.908 108.385 270.22 107.358 271.886 106.619C273.553 105.881 275.447 105.511 277.568 105.511C279.727 105.511 281.612 105.881 283.222 106.619C284.841 107.358 286.1 108.385 287 109.702C287.9 111.018 288.364 112.543 288.392 114.276H282.497Z" fill="white"/>
<path d="M20.6229 653L12.7152 625.364H19.098L23.6726 644.566H23.902L28.9489 625.364H34.4141L39.4474 644.607H39.6903L44.2649 625.364H50.6477L42.7401 653H37.0455L31.7827 634.931H31.5668L26.3175 653H20.6229ZM77.6127 639.182C77.6127 642.196 77.0415 644.759 75.899 646.874C74.7654 648.988 73.2181 650.603 71.2569 651.718C69.3047 652.825 67.1097 653.378 64.6717 653.378C62.2157 653.378 60.0117 652.82 58.0595 651.705C56.1073 650.589 54.5645 648.974 53.4309 646.86C52.2974 644.746 51.7306 642.187 51.7306 639.182C51.7306 636.168 52.2974 633.604 53.4309 631.49C54.5645 629.376 56.1073 627.766 58.0595 626.659C60.0117 625.544 62.2157 624.986 64.6717 624.986C67.1097 624.986 69.3047 625.544 71.2569 626.659C73.2181 627.766 74.7654 629.376 75.899 631.49C77.0415 633.604 77.6127 636.168 77.6127 639.182ZM71.6887 639.182C71.6887 637.23 71.3964 635.583 70.8116 634.243C70.2359 632.902 69.4217 631.886 68.3691 631.193C67.3166 630.5 66.0841 630.154 64.6717 630.154C63.2593 630.154 62.0268 630.5 60.9743 631.193C59.9217 631.886 59.103 632.902 58.5183 634.243C57.9425 635.583 57.6547 637.23 57.6547 639.182C57.6547 641.134 57.9425 642.78 58.5183 644.121C59.103 645.461 59.9217 646.478 60.9743 647.17C62.0268 647.863 63.2593 648.21 64.6717 648.21C66.0841 648.21 67.3166 647.863 68.3691 647.17C69.4217 646.478 70.2359 645.461 70.8116 644.121C71.3964 642.78 71.6887 641.134 71.6887 639.182ZM81.9411 625.364H89.147L96.7578 643.932H97.0817L104.692 625.364H111.898V653H106.231V635.012H106.001L98.8494 652.865H94.9901L87.8381 634.945H87.6087V653H81.9411V625.364ZM116.713 653V625.364H135.335V630.181H122.556V636.766H134.377V641.584H122.556V648.183H135.389V653H116.713ZM163.096 625.364V653H158.049L146.026 635.606H145.823V653H139.98V625.364H145.108L157.037 642.744H157.28V625.364H163.096Z" fill="white"/>
<path fill-rule="evenodd" clip-rule="evenodd" d="M700.142 15.4524H337.858V633.548H700.142V15.4524ZM304 0V649H734V0H304Z" fill="#FF0000"/>
<path d="M435.896 60V38.1818H450.342V41.9851H440.509V47.1839H449.384V50.9872H440.509V60H435.896ZM453.445 60V38.1818H458.058V56.1967H467.412V60H453.445ZM489.667 49.0909C489.667 51.4702 489.216 53.4943 488.314 55.1634C487.419 56.8324 486.197 58.1072 484.649 58.9879C483.108 59.8615 481.375 60.2983 479.45 60.2983C477.511 60.2983 475.771 59.858 474.23 58.9773C472.689 58.0966 471.471 56.8217 470.576 55.1527C469.681 53.4837 469.233 51.4631 469.233 49.0909C469.233 46.7116 469.681 44.6875 470.576 43.0185C471.471 41.3494 472.689 40.0781 474.23 39.2045C475.771 38.3239 477.511 37.8835 479.45 37.8835C481.375 37.8835 483.108 38.3239 484.649 39.2045C486.197 40.0781 487.419 41.3494 488.314 43.0185C489.216 44.6875 489.667 46.7116 489.667 49.0909ZM484.99 49.0909C484.99 47.5497 484.759 46.25 484.297 45.1918C483.843 44.1335 483.2 43.331 482.369 42.7841C481.538 42.2372 480.565 41.9638 479.45 41.9638C478.335 41.9638 477.362 42.2372 476.531 42.7841C475.7 43.331 475.054 44.1335 474.592 45.1918C474.138 46.25 473.91 47.5497 473.91 49.0909C473.91 50.6321 474.138 51.9318 474.592 52.9901C475.054 54.0483 475.7 54.8509 476.531 55.3977C477.362 55.9446 478.335 56.218 479.45 56.218C480.565 56.218 481.538 55.9446 482.369 55.3977C483.2 54.8509 483.843 54.0483 484.297 52.9901C484.759 51.9318 484.99 50.6321 484.99 49.0909ZM506.56 38.1818H511.173V52.3509C511.173 53.9418 510.793 55.3338 510.033 56.527C509.281 57.7202 508.226 58.6506 506.869 59.3182C505.513 59.9787 503.933 60.3089 502.129 60.3089C500.317 60.3089 498.734 59.9787 497.377 59.3182C496.021 58.6506 494.966 57.7202 494.213 56.527C493.46 55.3338 493.084 53.9418 493.084 52.3509V38.1818H497.697V51.9567C497.697 52.7876 497.878 53.5263 498.24 54.1726C498.609 54.8189 499.128 55.3267 499.795 55.696C500.463 56.0653 501.241 56.25 502.129 56.25C503.023 56.25 503.801 56.0653 504.462 55.696C505.129 55.3267 505.644 54.8189 506.006 54.1726C506.376 53.5263 506.56 52.7876 506.56 51.9567V38.1818ZM514.969 60V38.1818H523.577C525.224 38.1818 526.631 38.4766 527.795 39.0661C528.967 39.6484 529.858 40.4759 530.469 41.5483C531.087 42.6136 531.396 43.8672 531.396 45.3089C531.396 46.7578 531.084 48.0043 530.459 49.0483C529.834 50.0852 528.928 50.8807 527.742 51.4347C526.563 51.9886 525.135 52.2656 523.459 52.2656H517.696V48.5582H522.714C523.594 48.5582 524.326 48.4375 524.908 48.196C525.491 47.9545 525.924 47.5923 526.208 47.1094C526.499 46.6264 526.645 46.0263 526.645 45.3089C526.645 44.5845 526.499 43.9737 526.208 43.4766C525.924 42.9794 525.487 42.603 524.898 42.3473C524.315 42.0845 523.58 41.9531 522.692 41.9531H519.581V60H514.969ZM526.751 50.071L532.174 60H527.081L521.776 50.071H526.751ZM539.269 38.1818V60H534.656V38.1818H539.269ZM554.9 44.4567C554.815 43.5973 554.449 42.9297 553.803 42.4538C553.157 41.978 552.279 41.7401 551.172 41.7401C550.419 41.7401 549.783 41.8466 549.265 42.0597C548.746 42.2656 548.348 42.5533 548.071 42.9226C547.801 43.2919 547.667 43.7109 547.667 44.1797C547.652 44.5703 547.734 44.9112 547.912 45.2024C548.096 45.4936 548.348 45.7457 548.668 45.9588C548.988 46.1648 549.357 46.3459 549.776 46.5021C550.195 46.6513 550.642 46.7791 551.118 46.8857L553.078 47.3544C554.03 47.5675 554.904 47.8516 555.699 48.2067C556.495 48.5618 557.184 48.9986 557.766 49.517C558.348 50.0355 558.799 50.6463 559.119 51.3494C559.446 52.0526 559.613 52.8587 559.62 53.7678C559.613 55.103 559.272 56.2607 558.597 57.2408C557.929 58.2138 556.963 58.9702 555.699 59.5099C554.442 60.0426 552.926 60.3089 551.15 60.3089C549.389 60.3089 547.855 60.0391 546.548 59.4993C545.248 58.9595 544.233 58.1605 543.501 57.1023C542.777 56.0369 542.397 54.7195 542.361 53.1499H546.825C546.875 53.8814 547.084 54.4922 547.453 54.9822C547.83 55.4652 548.331 55.831 548.956 56.0795C549.588 56.321 550.301 56.4418 551.097 56.4418C551.878 56.4418 552.556 56.3281 553.132 56.1009C553.714 55.8736 554.165 55.5575 554.485 55.1527C554.804 54.7479 554.964 54.2827 554.964 53.7571C554.964 53.267 554.819 52.8551 554.527 52.5213C554.243 52.1875 553.824 51.9034 553.27 51.669C552.723 51.4347 552.052 51.2216 551.257 51.0298L548.881 50.4332C547.042 49.9858 545.589 49.2862 544.524 48.3345C543.458 47.3828 542.929 46.1009 542.936 44.4886C542.929 43.1676 543.281 42.0135 543.991 41.0263C544.708 40.0391 545.692 39.2685 546.942 38.7145C548.192 38.1605 549.613 37.8835 551.203 37.8835C552.823 37.8835 554.236 38.1605 555.444 38.7145C556.658 39.2685 557.603 40.0391 558.277 41.0263C558.952 42.0135 559.3 43.157 559.321 44.4567H554.9ZM562.722 60V38.1818H567.335V47.1839H576.7V38.1818H581.302V60H576.7V50.9872H567.335V60H562.722ZM589.718 38.1818V60H585.105V38.1818H589.718ZM611.763 38.1818V60H607.778L598.286 46.2678H598.126V60H593.513V38.1818H597.562L606.979 51.9034H607.171V38.1818H611.763ZM630.041 45.2344C629.892 44.7159 629.683 44.2578 629.413 43.8601C629.143 43.4553 628.813 43.1143 628.422 42.8374C628.039 42.5533 627.598 42.3366 627.101 42.1875C626.611 42.0384 626.068 41.9638 625.471 41.9638C624.356 41.9638 623.376 42.2408 622.531 42.7947C621.693 43.3487 621.039 44.1548 620.57 45.2131C620.102 46.2642 619.867 47.5497 619.867 49.0696C619.867 50.5895 620.098 51.8821 620.56 52.9474C621.021 54.0128 621.675 54.826 622.52 55.3871C623.365 55.9411 624.363 56.218 625.514 56.218C626.558 56.218 627.449 56.0334 628.188 55.6641C628.933 55.2876 629.502 54.7585 629.892 54.0767C630.29 53.3949 630.489 52.5888 630.489 51.6584L631.426 51.7969H625.801V48.3239H634.931V51.0724C634.931 52.9901 634.526 54.6378 633.717 56.0156C632.907 57.3864 631.792 58.4446 630.372 59.1903C628.951 59.929 627.325 60.2983 625.492 60.2983C623.447 60.2983 621.65 59.8473 620.102 58.9453C618.553 58.0362 617.346 56.7472 616.48 55.0781C615.62 53.402 615.191 51.4134 615.191 49.1122C615.191 47.3437 615.446 45.767 615.958 44.3821C616.476 42.9901 617.2 41.8111 618.131 40.8452C619.061 39.8793 620.144 39.1442 621.38 38.6399C622.616 38.1357 623.955 37.8835 625.396 37.8835C626.632 37.8835 627.783 38.0646 628.848 38.4268C629.914 38.782 630.858 39.2862 631.682 39.9396C632.513 40.593 633.191 41.3707 633.717 42.2727C634.242 43.1676 634.58 44.1548 634.729 45.2344H630.041Z" fill="black"/>
<path d="M41.7 283.85C42 283.65 51.45 283.55 70.05 283.55C88.95 283.55 98.75 283.6 99.45 283.7C107.35 284.5 113.75 287.3 118.65 292.1C121.45 295 123.3 298.6 124.2 302.9C124.8 305 124.9 307.4 124.5 310.1C123.5 318.6 118.75 326.1 110.25 332.6C105.15 336.5 99.45 339.25 93.15 340.85C89.55 341.85 84.9 342.35 79.2 342.35C77.8 342.35 75.2 342.35 71.4 342.35H58.35L54.15 359.45C51.25 370.95 49.9 376.75 50.1 376.85C50.3 377.05 50.65 377.15 51.15 377.15C52.75 377.45 55.65 377.6 59.85 377.6C62.15 377.6 63.4 377.7 63.6 377.9C64.2 378.1 64.5 378.55 64.5 379.25L63 385.1C62.6 385.7 61.6 385.95 60 385.85C59.5 385.85 58.35 385.85 56.55 385.85C48.25 385.45 37.8 385.4 25.2 385.7C24 385.8 23.05 385.85 22.35 385.85C18.85 385.95 16.9 385.7 16.5 385.1C16.3 384.8 16.4 383.65 16.8 381.65C17.3 379.45 17.8 378.2 18.3 377.9C18.8 377.7 20.6 377.6 23.7 377.6C29.3 377.5 32.45 377.1 33.15 376.4C33.45 376.2 37.05 362.3 43.95 334.7C50.85 307.1 54.3 293.2 54.3 293C54.3 292.9 54.2 292.75 54 292.55C53.6 292.35 50.9 292.15 45.9 291.95H40.8L40.2 291.35C39.8 290.95 39.85 289.75 40.35 287.75C40.95 285.35 41.4 284.05 41.7 283.85ZM93.6 292.1H72.3C71.3 292.2 70.65 292.5 70.35 293L65.1 313.7C61.6 327.4 59.85 334.3 59.85 334.4C59.85 334.6 63.75 334.7 71.55 334.7C80.15 334.6 85.6 334.3 87.9 333.8C93.3 332.7 97.35 330.45 100.05 327.05C102.25 324.15 104.1 319.5 105.6 313.1C106.7 308.8 107.25 305.5 107.25 303.2C107.25 300.6 106.7 298.55 105.6 297.05C103.2 294.15 99.2 292.5 93.6 292.1ZM138.09 283.7C138.29 283.6 147.09 283.55 164.49 283.55C182.69 283.65 192.64 283.85 194.34 284.15C194.54 284.25 194.99 284.35 195.69 284.45C204.89 286.15 211.54 290.1 215.64 296.3C217.94 299.7 219.04 303.4 218.94 307.4C218.84 310.2 218.09 313.05 216.69 315.95C215.29 318.75 213.34 321.35 210.84 323.75C205.94 328.65 199.19 332.6 190.59 335.6C190.49 335.6 190.64 335.75 191.04 336.05C191.24 336.25 191.44 336.4 191.64 336.5C195.14 338.9 197.59 342.1 198.99 346.1C199.89 348.9 200.14 352.8 199.74 357.8C199.64 358.9 199.49 360.3 199.29 362C198.79 367.2 198.54 371 198.54 373.4C198.64 377.1 199.34 379.6 200.64 380.9C201.54 381.7 202.89 382.1 204.69 382.1C205.79 382.1 206.59 382 207.09 381.8C208.29 381.3 209.49 380.35 210.69 378.95C211.99 377.05 212.99 375.1 213.69 373.1C214.19 371.5 214.79 370.6 215.49 370.4C215.89 370.3 216.64 370.25 217.74 370.25C219.64 370.25 220.79 370.5 221.19 371C221.89 371.8 221.39 373.9 219.69 377.3C216.69 383.6 212.59 387.45 207.39 388.85C206.59 389.05 205.09 389.15 202.89 389.15C200.29 389.15 198.59 389.1 197.79 389C188.09 387.7 182.24 383.7 180.24 377C179.64 375 179.54 372.75 179.94 370.25C180.44 367.75 181.14 364.7 182.04 361.1C183.04 357.1 183.74 354.1 184.14 352.1C184.64 349.4 184.24 346.75 182.94 344.15C182.44 343.25 181.79 342.4 180.99 341.6C179.29 340 177.19 338.95 174.69 338.45C174.29 338.35 170.89 338.3 164.49 338.3H155.19L155.04 338.9C155.04 338.8 153.44 345.15 150.24 357.95C147.14 370.45 145.64 376.75 145.74 376.85C145.94 377.05 146.29 377.15 146.79 377.15C147.99 377.45 150.99 377.6 155.79 377.6C158.29 377.6 159.74 377.95 160.14 378.65C160.24 379.05 160.09 380.2 159.69 382.1C159.19 384 158.74 385.15 158.34 385.55L157.89 386H155.64C144.74 385.5 132.24 385.45 118.14 385.85C114.84 385.95 112.99 385.65 112.59 384.95C112.49 384.65 112.64 383.5 113.04 381.5C113.64 379.5 114.04 378.35 114.24 378.05L114.84 377.6H119.94C125.54 377.5 128.69 377.1 129.39 376.4C129.69 376.2 133.29 362.3 140.19 334.7C147.09 307.1 150.54 293.2 150.54 293C150.54 292.9 150.44 292.75 150.24 292.55C149.84 292.35 147.14 292.15 142.14 291.95H137.04L136.44 291.35C136.14 291.05 135.99 290.75 135.99 290.45L137.64 284.3C137.64 284.2 137.79 284 138.09 283.7ZM188.94 292.25C188.34 292.15 184.84 292.05 178.44 291.95L168.54 292.1C167.54 292.2 166.89 292.5 166.59 293L156.99 331.25H167.04C174.34 331.15 178.34 331.05 179.04 330.95C188.14 329.65 194.19 325.95 197.19 319.85C198.79 316.55 200.09 312.25 201.09 306.95C201.49 304.35 201.49 302.15 201.09 300.35C199.89 295.95 195.84 293.25 188.94 292.25ZM290.909 280.4C293.409 280.2 296.659 280.25 300.659 280.55C309.259 281.75 316.359 285.25 321.959 291.05C327.459 296.55 330.909 303.6 332.309 312.2C334.509 325.2 331.959 338.4 324.659 351.8C323.259 354.3 321.709 356.75 320.009 359.15C314.309 367.35 307.409 374 299.309 379.1C293.909 382.6 288.559 385.15 283.259 386.75C269.359 391.05 257.209 390 246.809 383.6C244.709 382.3 242.759 380.8 240.959 379.1C234.959 373.2 231.209 365.45 229.709 355.85C229.309 352.65 229.259 348.6 229.559 343.7C229.659 343.3 229.709 342.95 229.709 342.65C231.509 328.95 237.309 316.35 247.109 304.85C249.909 301.65 252.909 298.65 256.109 295.85C267.209 286.65 278.809 281.5 290.909 280.4ZM297.659 288.2C295.159 287.8 292.609 287.7 290.009 287.9C283.509 288.7 277.559 291.2 272.159 295.4C264.259 301.4 258.209 309.75 254.009 320.45C250.909 328.15 248.709 336.8 247.409 346.4C247.009 350.3 246.959 354.5 247.259 359C247.359 359.4 247.409 359.7 247.409 359.9C248.909 369.4 253.109 375.9 260.009 379.4C266.709 382.8 274.409 382.4 283.109 378.2C294.309 372.7 302.959 362.35 309.059 347.15C312.559 338.15 314.809 329.15 315.809 320.15C316.209 316.85 316.209 313.35 315.809 309.65C315.809 309.45 315.809 309.25 315.809 309.05C314.709 302.65 312.509 297.8 309.209 294.5C306.009 291.2 302.159 289.1 297.659 288.2ZM397.513 280.4L405.313 280.55C408.113 281.05 410.763 281.9 413.263 283.1C415.863 284.3 418.113 286.1 420.013 288.5C420.413 288.9 420.663 289.15 420.763 289.25L425.113 284.9C428.013 282 429.513 280.5 429.613 280.4C430.113 280 431.113 280 432.613 280.4C432.913 280.7 433.113 280.95 433.213 281.15C433.313 281.55 431.913 287.55 429.013 299.15C426.013 310.95 424.413 316.95 424.213 317.15L423.763 317.6H421.063C418.763 317.6 417.513 317.3 417.313 316.7C417.213 316.4 417.263 315.75 417.463 314.75C418.363 307.75 417.813 302 415.813 297.5C413.413 292.5 409.213 289.5 403.213 288.5C400.813 288.1 398.163 288.1 395.263 288.5C391.463 289.3 387.913 291.3 384.613 294.5C378.913 300.1 376.613 306.05 377.713 312.35C378.313 316.65 380.613 319.6 384.613 321.2L394.963 324.05C398.863 325.05 402.563 326.05 406.063 327.05C408.663 328.15 411.063 329.8 413.263 332C414.863 333.6 416.163 335.45 417.163 337.55C419.963 343.45 420.463 350 418.663 357.2C416.363 367 410.963 375.2 402.463 381.8C401.763 382.3 401.063 382.8 400.363 383.3C396.863 385.4 393.913 386.85 391.513 387.65C387.813 388.85 384.013 389.4 380.113 389.3C373.913 389 368.713 387.8 364.513 385.7C362.513 384.8 360.463 383.35 358.363 381.35L357.013 380C356.913 380 355.463 381.5 352.663 384.5L348.013 389.15L346.513 389.3H346.363C345.563 389.3 345.013 389.15 344.713 388.85C344.413 388.55 344.263 388.3 344.263 388.1C344.263 387.8 347.163 376.05 352.963 352.85C353.163 352.25 354.413 351.95 356.713 351.95H359.413L359.863 352.4C360.263 352.8 360.313 353.85 360.013 355.55C360.013 355.75 359.963 356 359.863 356.3C359.163 360 359.063 363.1 359.563 365.6C361.563 375.3 368.913 380.4 381.613 380.9C384.213 380.9 386.413 380.6 388.213 380C393.813 378.2 398.313 374.3 401.713 368.3C403.113 366 404.063 363.6 404.563 361.1C405.763 355.1 404.813 350.3 401.713 346.7C400.713 345.7 399.413 344.85 397.813 344.15L387.463 341.3C379.863 339.3 375.213 337.85 373.513 336.95C366.713 333.05 363.163 326.85 362.863 318.35C362.663 314.75 363.213 311.05 364.513 307.25C367.613 297.85 373.663 290.55 382.663 285.35C383.863 284.65 385.113 284 386.413 283.4C389.813 281.8 392.963 280.85 395.863 280.55C396.263 280.45 396.813 280.4 397.513 280.4ZM443.155 284.9L443.605 284.45H488.155C518.155 284.45 533.405 284.75 533.905 285.35C534.105 285.85 533.255 291.85 531.355 303.35C529.355 315.15 528.305 321.1 528.205 321.2C527.805 321.7 526.605 321.95 524.605 321.95C522.505 321.95 521.355 321.65 521.155 321.05C520.955 320.65 521.005 319.4 521.305 317.3C522.805 308.2 523.105 302.1 522.205 299C521.305 296 518.155 294.05 512.755 293.15C511.855 293.05 508.955 293 504.055 293C498.355 292.9 495.255 293.15 494.755 293.75C494.555 293.95 491.055 307.8 484.255 335.3L473.905 376.55L474.355 376.85C475.655 377.35 480.605 377.6 489.205 377.6H493.855L494.455 378.05C494.755 378.45 494.905 378.8 494.905 379.1L493.555 385.1C493.255 385.7 492.255 385.95 490.555 385.85C489.955 385.85 488.505 385.85 486.205 385.85C465.305 385.45 449.005 385.5 437.305 386H435.055L434.605 385.55C434.105 385.05 434.055 383.9 434.455 382.1C434.455 381.9 434.505 381.7 434.605 381.5C435.105 379.3 435.555 378.1 435.955 377.9C436.255 377.7 438.005 377.6 441.205 377.6C447.905 377.6 452.255 377.45 454.255 377.15C455.855 377.05 456.955 376.7 457.555 376.1C457.755 375.8 461.255 361.95 468.055 334.55C474.955 307.05 478.405 293.25 478.405 293.15C478.005 292.95 474.905 292.85 469.105 292.85C464.505 292.95 461.705 293.1 460.705 293.3C454.905 294.2 450.655 296.3 447.955 299.6C445.355 302.8 442.555 308.85 439.555 317.75C438.755 319.95 438.355 321.1 438.355 321.2C437.955 321.7 436.755 321.95 434.755 321.95C432.755 321.95 431.555 321.6 431.155 320.9L431.005 320.45L436.705 302.9C440.705 291.2 442.855 285.2 443.155 284.9ZM544.703 283.85C545.003 283.65 545.853 283.55 547.253 283.55C556.553 283.95 566.903 284.05 578.303 283.85L589.703 283.55H591.353L591.803 284C592.203 284.4 592.403 284.8 592.403 285.2C592.403 286.8 591.903 288.75 590.903 291.05C590.703 291.65 589.253 291.95 586.553 291.95C586.053 291.95 585.453 291.95 584.753 291.95C578.853 292.05 575.553 292.45 574.853 293.15L574.253 293.6L564.053 335C557.153 362.4 553.703 376.25 553.703 376.55C553.603 376.85 554.053 377.05 555.053 377.15C556.353 377.35 558.853 377.5 562.553 377.6C566.353 377.6 568.453 377.95 568.853 378.65C568.953 378.95 568.803 380.1 568.403 382.1C567.903 384 567.453 385.15 567.053 385.55L566.603 386H564.203C552.703 385.5 539.653 385.45 525.053 385.85C521.653 385.95 519.753 385.65 519.353 384.95C519.253 384.65 519.403 383.5 519.803 381.5C520.403 379.5 520.803 378.35 521.003 378.05L521.603 377.6H526.853C532.153 377.5 535.303 377.2 536.303 376.7C536.603 376.6 536.953 376.35 537.353 375.95L558.053 293C558.053 292.9 557.953 292.75 557.753 292.55C556.953 292.25 554.153 292.05 549.353 291.95C545.453 291.95 543.353 291.65 543.053 291.05C542.853 290.75 542.953 289.6 543.353 287.6C543.853 285.5 544.303 284.25 544.703 283.85ZM596.817 284.9L597.267 284.45H641.817C671.817 284.45 687.067 284.75 687.567 285.35C687.767 285.85 686.917 291.85 685.017 303.35C683.017 315.15 681.967 321.1 681.867 321.2C681.467 321.7 680.267 321.95 678.267 321.95C676.167 321.95 675.017 321.65 674.817 321.05C674.617 320.65 674.667 319.4 674.967 317.3C676.467 308.2 676.767 302.1 675.867 299C674.967 296 671.817 294.05 666.417 293.15C665.517 293.05 662.617 293 657.717 293C652.017 292.9 648.917 293.15 648.417 293.75C648.217 293.95 644.717 307.8 637.917 335.3L627.567 376.55L628.017 376.85C629.317 377.35 634.267 377.6 642.867 377.6H647.517L648.117 378.05C648.417 378.45 648.567 378.8 648.567 379.1L647.217 385.1C646.917 385.7 645.917 385.95 644.217 385.85C643.617 385.85 642.167 385.85 639.867 385.85C618.967 385.45 602.667 385.5 590.967 386H588.717L588.267 385.55C587.767 385.05 587.717 383.9 588.117 382.1C588.117 381.9 588.167 381.7 588.267 381.5C588.767 379.3 589.217 378.1 589.617 377.9C589.917 377.7 591.667 377.6 594.867 377.6C601.567 377.6 605.917 377.45 607.917 377.15C609.517 377.05 610.617 376.7 611.217 376.1C611.417 375.8 614.917 361.95 621.717 334.55C628.617 307.05 632.067 293.25 632.067 293.15C631.667 292.95 628.567 292.85 622.767 292.85C618.167 292.95 615.367 293.1 614.367 293.3C608.567 294.2 604.317 296.3 601.617 299.6C599.017 302.8 596.217 308.85 593.217 317.75C592.417 319.95 592.017 321.1 592.017 321.2C591.617 321.7 590.417 321.95 588.417 321.95C586.417 321.95 585.217 321.6 584.817 320.9L584.667 320.45L590.367 302.9C594.367 291.2 596.517 285.2 596.817 284.9ZM681.115 283.7C681.315 283.6 682.215 283.55 683.815 283.55C695.915 284.05 708.515 284.1 721.615 283.7C724.815 283.6 726.615 283.9 727.015 284.6C727.215 284.9 727.065 286.05 726.565 288.05C726.065 289.95 725.715 291.1 725.515 291.5L725.065 291.95H719.815C714.815 292.05 711.915 292.3 711.115 292.7C710.615 292.9 710.265 293.25 710.065 293.75C709.465 295.15 706.815 305.35 702.115 324.35C696.915 345.25 694.265 356 694.165 356.6C692.165 366.8 693.765 373.8 698.965 377.6C700.565 378.9 703.015 379.9 706.315 380.6C709.415 381 712.565 380.95 715.765 380.45C724.865 378.95 732.265 374.45 737.965 366.95C740.565 363.45 742.615 359.5 744.115 355.1L758.815 296.45C758.815 294.95 758.015 293.9 756.415 293.3C754.615 292.4 751.765 291.95 747.865 291.95H746.215L745.615 291.5C745.315 291.1 745.165 290.75 745.165 290.45L746.815 284.3C747.115 283.8 748.465 283.6 750.865 283.7C751.165 283.7 751.615 283.7 752.215 283.7C759.015 284.1 767.565 284.15 777.865 283.85C778.865 283.75 779.665 283.7 780.265 283.7C783.265 283.6 784.965 283.9 785.365 284.6C785.565 284.9 785.415 286.05 784.915 288.05C784.415 290.05 784.015 291.2 783.715 291.5L783.265 291.95H781.615C774.315 291.95 769.615 293.55 767.515 296.75C767.015 298.25 764.615 307.8 760.315 325.4C755.315 344.9 752.815 354.7 752.815 354.8C749.615 364.6 744.015 372.7 736.015 379.1C727.015 386.2 717.665 389.6 707.965 389.3C702.465 389 697.615 387.8 693.415 385.7C690.715 384.3 688.415 382.65 686.515 380.75C682.415 376.75 679.765 372 678.565 366.5C677.765 362.9 677.715 359 678.415 354.8C678.415 354.6 680.965 344.1 686.065 323.3C691.065 303.7 693.565 293.6 693.565 293C693.565 292.9 693.465 292.75 693.265 292.55C692.865 292.35 690.165 292.15 685.165 291.95H680.065L679.465 291.35C679.165 291.05 679.015 290.75 679.015 290.45L680.665 284.3C680.665 284.2 680.815 284 681.115 283.7ZM786.807 284.9L787.257 284.45H831.807C861.807 284.45 877.057 284.75 877.557 285.35C877.757 285.85 876.907 291.85 875.007 303.35C873.007 315.15 871.957 321.1 871.857 321.2C871.457 321.7 870.257 321.95 868.257 321.95C866.157 321.95 865.007 321.65 864.807 321.05C864.607 320.65 864.657 319.4 864.957 317.3C866.457 308.2 866.757 302.1 865.857 299C864.957 296 861.807 294.05 856.407 293.15C855.507 293.05 852.607 293 847.707 293C842.007 292.9 838.907 293.15 838.407 293.75C838.207 293.95 834.707 307.8 827.907 335.3L817.557 376.55L818.007 376.85C819.307 377.35 824.257 377.6 832.857 377.6H837.507L838.107 378.05C838.407 378.45 838.557 378.8 838.557 379.1L837.207 385.1C836.907 385.7 835.907 385.95 834.207 385.85C833.607 385.85 832.157 385.85 829.857 385.85C808.957 385.45 792.657 385.5 780.957 386H778.707L778.257 385.55C777.757 385.05 777.707 383.9 778.107 382.1C778.107 381.9 778.157 381.7 778.257 381.5C778.757 379.3 779.207 378.1 779.607 377.9C779.907 377.7 781.657 377.6 784.857 377.6C791.557 377.6 795.907 377.45 797.907 377.15C799.507 377.05 800.607 376.7 801.207 376.1C801.407 375.8 804.907 361.95 811.707 334.55C818.607 307.05 822.057 293.25 822.057 293.15C821.657 292.95 818.557 292.85 812.757 292.85C808.157 292.95 805.357 293.1 804.357 293.3C798.557 294.2 794.307 296.3 791.607 299.6C789.007 302.8 786.207 308.85 783.207 317.75C782.407 319.95 782.007 321.1 782.007 321.2C781.607 321.7 780.407 321.95 778.407 321.95C776.407 321.95 775.207 321.6 774.807 320.9L774.657 320.45L780.357 302.9C784.357 291.2 786.507 285.2 786.807 284.9ZM888.955 284.3L889.405 284H931.405H973.255L973.855 284.45C974.155 284.85 974.305 285.25 974.305 285.65L969.955 319.85C969.955 320.35 969.755 320.75 969.355 321.05L968.905 321.5H966.355C964.555 321.5 963.505 321.4 963.205 321.2C962.705 320.9 962.555 319.7 962.755 317.6C962.755 317.4 962.755 317.15 962.755 316.85C963.255 312.75 963.505 309.35 963.505 306.65C963.205 300.65 961.205 296.7 957.505 294.8C955.705 294 953.855 293.45 951.955 293.15C949.155 292.65 942.955 292.45 933.355 292.55C923.755 292.55 918.705 292.85 918.205 293.45L909.205 328.85H917.155C923.755 328.75 928.005 328.35 929.905 327.65C932.105 326.95 933.905 325.7 935.305 323.9C936.705 322.1 938.005 318.85 939.205 314.15C939.605 312.85 939.955 312.05 940.255 311.75L940.705 311.3H943.255C945.355 311.3 946.605 311.65 947.005 312.35C947.105 312.75 945.505 319.7 942.205 333.2C938.705 346.9 936.905 353.8 936.805 353.9C936.605 354.5 935.405 354.8 933.205 354.8H930.655L930.055 354.35C929.655 353.85 929.655 352.7 930.055 350.9C931.255 345.8 931.405 342.3 930.505 340.4C929.805 338.9 927.805 337.95 924.505 337.55C923.905 337.45 920.805 337.4 915.205 337.4L907.105 337.25L902.155 356.9C898.855 370.2 897.205 376.9 897.205 377C897.205 377.1 897.305 377.25 897.505 377.45H924.655C930.555 377.15 935.605 376.05 939.805 374.15C942.305 372.85 944.555 371.3 946.555 369.5C950.455 365.6 954.605 358.35 959.005 347.75C959.805 345.65 960.405 344.4 960.805 344L961.255 343.55H963.955H966.655L967.105 344C967.505 344.4 967.505 345.2 967.105 346.4C966.605 347.9 964.105 354.2 959.605 365.3C954.105 378.5 951.355 385.15 951.355 385.25C951.155 385.65 949.705 385.85 947.005 385.85C943.805 385.95 930.655 386 907.555 386C878.855 386 864.305 385.7 863.905 385.1C863.705 384.8 863.805 383.65 864.205 381.65C864.705 379.45 865.205 378.2 865.705 377.9C866.205 377.7 868.005 377.6 871.105 377.6C876.705 377.5 879.855 377.1 880.555 376.4C880.855 376.2 884.455 362.3 891.355 334.7C898.255 307.1 901.605 293.25 901.405 293.15C901.205 292.95 900.855 292.85 900.355 292.85C898.655 292.55 895.755 292.4 891.655 292.4C889.055 292.4 887.605 292.1 887.305 291.5C887.105 291.2 887.205 290.05 887.605 288.05C888.105 285.95 888.555 284.7 888.955 284.3Z" fill="#C40000"/>
<path d="M181.7 425.85C182 425.65 191.45 425.55 210.05 425.55C228.95 425.55 238.75 425.6 239.45 425.7C247.35 426.5 253.75 429.3 258.65 434.1C261.45 437 263.3 440.6 264.2 444.9C264.8 447 264.9 449.4 264.5 452.1C263.5 460.6 258.75 468.1 250.25 474.6C245.15 478.5 239.45 481.25 233.15 482.85C229.55 483.85 224.9 484.35 219.2 484.35C217.8 484.35 215.2 484.35 211.4 484.35H198.35L194.15 501.45C191.25 512.95 189.9 518.75 190.1 518.85C190.3 519.05 190.65 519.15 191.15 519.15C192.75 519.45 195.65 519.6 199.85 519.6C202.15 519.6 203.4 519.7 203.6 519.9C204.2 520.1 204.5 520.55 204.5 521.25L203 527.1C202.6 527.7 201.6 527.95 200 527.85C199.5 527.85 198.35 527.85 196.55 527.85C188.25 527.45 177.8 527.4 165.2 527.7C164 527.8 163.05 527.85 162.35 527.85C158.85 527.95 156.9 527.7 156.5 527.1C156.3 526.8 156.4 525.65 156.8 523.65C157.3 521.45 157.8 520.2 158.3 519.9C158.8 519.7 160.6 519.6 163.7 519.6C169.3 519.5 172.45 519.1 173.15 518.4C173.45 518.2 177.05 504.3 183.95 476.7C190.85 449.1 194.3 435.2 194.3 435C194.3 434.9 194.2 434.75 194 434.55C193.6 434.35 190.9 434.15 185.9 433.95H180.8L180.2 433.35C179.8 432.95 179.85 431.75 180.35 429.75C180.95 427.35 181.4 426.05 181.7 425.85ZM233.6 434.1H212.3C211.3 434.2 210.65 434.5 210.35 435L205.1 455.7C201.6 469.4 199.85 476.3 199.85 476.4C199.85 476.6 203.75 476.7 211.55 476.7C220.15 476.6 225.6 476.3 227.9 475.8C233.3 474.7 237.35 472.45 240.05 469.05C242.25 466.15 244.1 461.5 245.6 455.1C246.7 450.8 247.25 447.5 247.25 445.2C247.25 442.6 246.7 440.55 245.6 439.05C243.2 436.15 239.2 434.5 233.6 434.1ZM278.09 425.7C278.29 425.6 287.09 425.55 304.49 425.55C322.69 425.65 332.64 425.85 334.34 426.15C334.54 426.25 334.99 426.35 335.69 426.45C344.89 428.15 351.54 432.1 355.64 438.3C357.94 441.7 359.04 445.4 358.94 449.4C358.84 452.2 358.09 455.05 356.69 457.95C355.29 460.75 353.34 463.35 350.84 465.75C345.94 470.65 339.19 474.6 330.59 477.6C330.49 477.6 330.64 477.75 331.04 478.05C331.24 478.25 331.44 478.4 331.64 478.5C335.14 480.9 337.59 484.1 338.99 488.1C339.89 490.9 340.14 494.8 339.74 499.8C339.64 500.9 339.49 502.3 339.29 504C338.79 509.2 338.54 513 338.54 515.4C338.64 519.1 339.34 521.6 340.64 522.9C341.54 523.7 342.89 524.1 344.69 524.1C345.79 524.1 346.59 524 347.09 523.8C348.29 523.3 349.49 522.35 350.69 520.95C351.99 519.05 352.99 517.1 353.69 515.1C354.19 513.5 354.79 512.6 355.49 512.4C355.89 512.3 356.64 512.25 357.74 512.25C359.64 512.25 360.79 512.5 361.19 513C361.89 513.8 361.39 515.9 359.69 519.3C356.69 525.6 352.59 529.45 347.39 530.85C346.59 531.05 345.09 531.15 342.89 531.15C340.29 531.15 338.59 531.1 337.79 531C328.09 529.7 322.24 525.7 320.24 519C319.64 517 319.54 514.75 319.94 512.25C320.44 509.75 321.14 506.7 322.04 503.1C323.04 499.1 323.74 496.1 324.14 494.1C324.64 491.4 324.24 488.75 322.94 486.15C322.44 485.25 321.79 484.4 320.99 483.6C319.29 482 317.19 480.95 314.69 480.45C314.29 480.35 310.89 480.3 304.49 480.3H295.19L295.04 480.9C295.04 480.8 293.44 487.15 290.24 499.95C287.14 512.45 285.64 518.75 285.74 518.85C285.94 519.05 286.29 519.15 286.79 519.15C287.99 519.45 290.99 519.6 295.79 519.6C298.29 519.6 299.74 519.95 300.14 520.65C300.24 521.05 300.09 522.2 299.69 524.1C299.19 526 298.74 527.15 298.34 527.55L297.89 528H295.64C284.74 527.5 272.24 527.45 258.14 527.85C254.84 527.95 252.99 527.65 252.59 526.95C252.49 526.65 252.64 525.5 253.04 523.5C253.64 521.5 254.04 520.35 254.24 520.05L254.84 519.6H259.94C265.54 519.5 268.69 519.1 269.39 518.4C269.69 518.2 273.29 504.3 280.19 476.7C287.09 449.1 290.54 435.2 290.54 435C290.54 434.9 290.44 434.75 290.24 434.55C289.84 434.35 287.14 434.15 282.14 433.95H277.04L276.44 433.35C276.14 433.05 275.99 432.75 275.99 432.45L277.64 426.3C277.64 426.2 277.79 426 278.09 425.7ZM328.94 434.25C328.34 434.15 324.84 434.05 318.44 433.95L308.54 434.1C307.54 434.2 306.89 434.5 306.59 435L296.99 473.25H307.04C314.34 473.15 318.34 473.05 319.04 472.95C328.14 471.65 334.19 467.95 337.19 461.85C338.79 458.55 340.09 454.25 341.09 448.95C341.49 446.35 341.49 444.15 341.09 442.35C339.89 437.95 335.84 435.25 328.94 434.25ZM430.909 422.4C433.409 422.2 436.659 422.25 440.659 422.55C449.259 423.75 456.359 427.25 461.959 433.05C467.459 438.55 470.909 445.6 472.309 454.2C474.509 467.2 471.959 480.4 464.659 493.8C463.259 496.3 461.709 498.75 460.009 501.15C454.309 509.35 447.409 516 439.309 521.1C433.909 524.6 428.559 527.15 423.259 528.75C409.359 533.05 397.209 532 386.809 525.6C384.709 524.3 382.759 522.8 380.959 521.1C374.959 515.2 371.209 507.45 369.709 497.85C369.309 494.65 369.259 490.6 369.559 485.7C369.659 485.3 369.709 484.95 369.709 484.65C371.509 470.95 377.309 458.35 387.109 446.85C389.909 443.65 392.909 440.65 396.109 437.85C407.209 428.65 418.809 423.5 430.909 422.4ZM437.659 430.2C435.159 429.8 432.609 429.7 430.009 429.9C423.509 430.7 417.559 433.2 412.159 437.4C404.259 443.4 398.209 451.75 394.009 462.45C390.909 470.15 388.709 478.8 387.409 488.4C387.009 492.3 386.959 496.5 387.259 501C387.359 501.4 387.409 501.7 387.409 501.9C388.909 511.4 393.109 517.9 400.009 521.4C406.709 524.8 414.409 524.4 423.109 520.2C434.309 514.7 442.959 504.35 449.059 489.15C452.559 480.15 454.809 471.15 455.809 462.15C456.209 458.85 456.209 455.35 455.809 451.65C455.809 451.45 455.809 451.25 455.809 451.05C454.709 444.65 452.509 439.8 449.209 436.5C446.009 433.2 442.159 431.1 437.659 430.2ZM537.513 422.4L545.313 422.55C548.113 423.05 550.763 423.9 553.263 425.1C555.863 426.3 558.113 428.1 560.013 430.5C560.413 430.9 560.663 431.15 560.763 431.25L565.113 426.9C568.013 424 569.513 422.5 569.613 422.4C570.113 422 571.113 422 572.613 422.4C572.913 422.7 573.113 422.95 573.213 423.15C573.313 423.55 571.913 429.55 569.013 441.15C566.013 452.95 564.413 458.95 564.213 459.15L563.763 459.6H561.063C558.763 459.6 557.513 459.3 557.313 458.7C557.213 458.4 557.263 457.75 557.463 456.75C558.363 449.75 557.813 444 555.813 439.5C553.413 434.5 549.213 431.5 543.213 430.5C540.813 430.1 538.163 430.1 535.263 430.5C531.463 431.3 527.913 433.3 524.613 436.5C518.913 442.1 516.613 448.05 517.713 454.35C518.313 458.65 520.613 461.6 524.613 463.2L534.963 466.05C538.863 467.05 542.563 468.05 546.063 469.05C548.663 470.15 551.063 471.8 553.263 474C554.863 475.6 556.163 477.45 557.163 479.55C559.963 485.45 560.463 492 558.663 499.2C556.363 509 550.963 517.2 542.463 523.8C541.763 524.3 541.063 524.8 540.363 525.3C536.863 527.4 533.913 528.85 531.513 529.65C527.813 530.85 524.013 531.4 520.113 531.3C513.913 531 508.713 529.8 504.513 527.7C502.513 526.8 500.463 525.35 498.363 523.35L497.013 522C496.913 522 495.463 523.5 492.663 526.5L488.013 531.15L486.513 531.3H486.363C485.563 531.3 485.013 531.15 484.713 530.85C484.413 530.55 484.263 530.3 484.263 530.1C484.263 529.8 487.163 518.05 492.963 494.85C493.163 494.25 494.413 493.95 496.713 493.95H499.413L499.863 494.4C500.263 494.8 500.313 495.85 500.013 497.55C500.013 497.75 499.963 498 499.863 498.3C499.163 502 499.063 505.1 499.563 507.6C501.563 517.3 508.913 522.4 521.613 522.9C524.213 522.9 526.413 522.6 528.213 522C533.813 520.2 538.313 516.3 541.713 510.3C543.113 508 544.063 505.6 544.563 503.1C545.763 497.1 544.813 492.3 541.713 488.7C540.713 487.7 539.413 486.85 537.813 486.15L527.463 483.3C519.863 481.3 515.213 479.85 513.513 478.95C506.713 475.05 503.163 468.85 502.863 460.35C502.663 456.75 503.213 453.05 504.513 449.25C507.613 439.85 513.663 432.55 522.663 427.35C523.863 426.65 525.113 426 526.413 425.4C529.813 423.8 532.963 422.85 535.863 422.55C536.263 422.45 536.813 422.4 537.513 422.4ZM583.155 426.9L583.605 426.45H628.155C658.155 426.45 673.405 426.75 673.905 427.35C674.105 427.85 673.255 433.85 671.355 445.35C669.355 457.15 668.305 463.1 668.205 463.2C667.805 463.7 666.605 463.95 664.605 463.95C662.505 463.95 661.355 463.65 661.155 463.05C660.955 462.65 661.005 461.4 661.305 459.3C662.805 450.2 663.105 444.1 662.205 441C661.305 438 658.155 436.05 652.755 435.15C651.855 435.05 648.955 435 644.055 435C638.355 434.9 635.255 435.15 634.755 435.75C634.555 435.95 631.055 449.8 624.255 477.3L613.905 518.55L614.355 518.85C615.655 519.35 620.605 519.6 629.205 519.6H633.855L634.455 520.05C634.755 520.45 634.905 520.8 634.905 521.1L633.555 527.1C633.255 527.7 632.255 527.95 630.555 527.85C629.955 527.85 628.505 527.85 626.205 527.85C605.305 527.45 589.005 527.5 577.305 528H575.055L574.605 527.55C574.105 527.05 574.055 525.9 574.455 524.1C574.455 523.9 574.505 523.7 574.605 523.5C575.105 521.3 575.555 520.1 575.955 519.9C576.255 519.7 578.005 519.6 581.205 519.6C587.905 519.6 592.255 519.45 594.255 519.15C595.855 519.05 596.955 518.7 597.555 518.1C597.755 517.8 601.255 503.95 608.055 476.55C614.955 449.05 618.405 435.25 618.405 435.15C618.005 434.95 614.905 434.85 609.105 434.85C604.505 434.95 601.705 435.1 600.705 435.3C594.905 436.2 590.655 438.3 587.955 441.6C585.355 444.8 582.555 450.85 579.555 459.75C578.755 461.95 578.355 463.1 578.355 463.2C577.955 463.7 576.755 463.95 574.755 463.95C572.755 463.95 571.555 463.6 571.155 462.9L571.005 462.45L576.705 444.9C580.705 433.2 582.855 427.2 583.155 426.9ZM684.703 425.85C685.003 425.65 685.853 425.55 687.253 425.55C696.553 425.95 706.903 426.05 718.303 425.85L729.703 425.55H731.353L731.803 426C732.203 426.4 732.403 426.8 732.403 427.2C732.403 428.8 731.903 430.75 730.903 433.05C730.703 433.65 729.253 433.95 726.553 433.95C726.053 433.95 725.453 433.95 724.753 433.95C718.853 434.05 715.553 434.45 714.853 435.15L714.253 435.6L704.053 477C697.153 504.4 693.703 518.25 693.703 518.55C693.603 518.85 694.053 519.05 695.053 519.15C696.353 519.35 698.853 519.5 702.553 519.6C706.353 519.6 708.453 519.95 708.853 520.65C708.953 520.95 708.803 522.1 708.403 524.1C707.903 526 707.453 527.15 707.053 527.55L706.603 528H704.203C692.703 527.5 679.653 527.45 665.053 527.85C661.653 527.95 659.753 527.65 659.353 526.95C659.253 526.65 659.403 525.5 659.803 523.5C660.403 521.5 660.803 520.35 661.003 520.05L661.603 519.6H666.853C672.153 519.5 675.303 519.2 676.303 518.7C676.603 518.6 676.953 518.35 677.353 517.95L698.053 435C698.053 434.9 697.953 434.75 697.753 434.55C696.953 434.25 694.153 434.05 689.353 433.95C685.453 433.95 683.353 433.65 683.053 433.05C682.853 432.75 682.953 431.6 683.353 429.6C683.853 427.5 684.303 426.25 684.703 425.85ZM736.817 426.9L737.267 426.45H781.817C811.817 426.45 827.067 426.75 827.567 427.35C827.767 427.85 826.917 433.85 825.017 445.35C823.017 457.15 821.967 463.1 821.867 463.2C821.467 463.7 820.267 463.95 818.267 463.95C816.167 463.95 815.017 463.65 814.817 463.05C814.617 462.65 814.667 461.4 814.967 459.3C816.467 450.2 816.767 444.1 815.867 441C814.967 438 811.817 436.05 806.417 435.15C805.517 435.05 802.617 435 797.717 435C792.017 434.9 788.917 435.15 788.417 435.75C788.217 435.95 784.717 449.8 777.917 477.3L767.567 518.55L768.017 518.85C769.317 519.35 774.267 519.6 782.867 519.6H787.517L788.117 520.05C788.417 520.45 788.567 520.8 788.567 521.1L787.217 527.1C786.917 527.7 785.917 527.95 784.217 527.85C783.617 527.85 782.167 527.85 779.867 527.85C758.967 527.45 742.667 527.5 730.967 528H728.717L728.267 527.55C727.767 527.05 727.717 525.9 728.117 524.1C728.117 523.9 728.167 523.7 728.267 523.5C728.767 521.3 729.217 520.1 729.617 519.9C729.917 519.7 731.667 519.6 734.867 519.6C741.567 519.6 745.917 519.45 747.917 519.15C749.517 519.05 750.617 518.7 751.217 518.1C751.417 517.8 754.917 503.95 761.717 476.55C768.617 449.05 772.067 435.25 772.067 435.15C771.667 434.95 768.567 434.85 762.767 434.85C758.167 434.95 755.367 435.1 754.367 435.3C748.567 436.2 744.317 438.3 741.617 441.6C739.017 444.8 736.217 450.85 733.217 459.75C732.417 461.95 732.017 463.1 732.017 463.2C731.617 463.7 730.417 463.95 728.417 463.95C726.417 463.95 725.217 463.6 724.817 462.9L724.667 462.45L730.367 444.9C734.367 433.2 736.517 427.2 736.817 426.9ZM821.115 425.7C821.315 425.6 822.215 425.55 823.815 425.55C835.915 426.05 848.515 426.1 861.615 425.7C864.815 425.6 866.615 425.9 867.015 426.6C867.215 426.9 867.065 428.05 866.565 430.05C866.065 431.95 865.715 433.1 865.515 433.5L865.065 433.95H859.815C854.815 434.05 851.915 434.3 851.115 434.7C850.615 434.9 850.265 435.25 850.065 435.75C849.465 437.15 846.815 447.35 842.115 466.35C836.915 487.25 834.265 498 834.165 498.6C832.165 508.8 833.765 515.8 838.965 519.6C840.565 520.9 843.015 521.9 846.315 522.6C849.415 523 852.565 522.95 855.765 522.45C864.865 520.95 872.265 516.45 877.965 508.95C880.565 505.45 882.615 501.5 884.115 497.1L898.815 438.45C898.815 436.95 898.015 435.9 896.415 435.3C894.615 434.4 891.765 433.95 887.865 433.95H886.215L885.615 433.5C885.315 433.1 885.165 432.75 885.165 432.45L886.815 426.3C887.115 425.8 888.465 425.6 890.865 425.7C891.165 425.7 891.615 425.7 892.215 425.7C899.015 426.1 907.565 426.15 917.865 425.85C918.865 425.75 919.665 425.7 920.265 425.7C923.265 425.6 924.965 425.9 925.365 426.6C925.565 426.9 925.415 428.05 924.915 430.05C924.415 432.05 924.015 433.2 923.715 433.5L923.265 433.95H921.615C914.315 433.95 909.615 435.55 907.515 438.75C907.015 440.25 904.615 449.8 900.315 467.4C895.315 486.9 892.815 496.7 892.815 496.8C889.615 506.6 884.015 514.7 876.015 521.1C867.015 528.2 857.665 531.6 847.965 531.3C842.465 531 837.615 529.8 833.415 527.7C830.715 526.3 828.415 524.65 826.515 522.75C822.415 518.75 819.765 514 818.565 508.5C817.765 504.9 817.715 501 818.415 496.8C818.415 496.6 820.965 486.1 826.065 465.3C831.065 445.7 833.565 435.6 833.565 435C833.565 434.9 833.465 434.75 833.265 434.55C832.865 434.35 830.165 434.15 825.165 433.95H820.065L819.465 433.35C819.165 433.05 819.015 432.75 819.015 432.45L820.665 426.3C820.665 426.2 820.815 426 821.115 425.7ZM926.807 426.9L927.257 426.45H971.807C1001.81 426.45 1017.06 426.75 1017.56 427.35C1017.76 427.85 1016.91 433.85 1015.01 445.35C1013.01 457.15 1011.96 463.1 1011.86 463.2C1011.46 463.7 1010.26 463.95 1008.26 463.95C1006.16 463.95 1005.01 463.65 1004.81 463.05C1004.61 462.65 1004.66 461.4 1004.96 459.3C1006.46 450.2 1006.76 444.1 1005.86 441C1004.96 438 1001.81 436.05 996.407 435.15C995.507 435.05 992.607 435 987.707 435C982.007 434.9 978.907 435.15 978.407 435.75C978.207 435.95 974.707 449.8 967.907 477.3L957.557 518.55L958.007 518.85C959.307 519.35 964.257 519.6 972.857 519.6H977.507L978.107 520.05C978.407 520.45 978.557 520.8 978.557 521.1L977.207 527.1C976.907 527.7 975.907 527.95 974.207 527.85C973.607 527.85 972.157 527.85 969.857 527.85C948.957 527.45 932.657 527.5 920.957 528H918.707L918.257 527.55C917.757 527.05 917.707 525.9 918.107 524.1C918.107 523.9 918.157 523.7 918.257 523.5C918.757 521.3 919.207 520.1 919.607 519.9C919.907 519.7 921.657 519.6 924.857 519.6C931.557 519.6 935.907 519.45 937.907 519.15C939.507 519.05 940.607 518.7 941.207 518.1C941.407 517.8 944.907 503.95 951.707 476.55C958.607 449.05 962.057 435.25 962.057 435.15C961.657 434.95 958.557 434.85 952.757 434.85C948.157 434.95 945.357 435.1 944.357 435.3C938.557 436.2 934.307 438.3 931.607 441.6C929.007 444.8 926.207 450.85 923.207 459.75C922.407 461.95 922.007 463.1 922.007 463.2C921.607 463.7 920.407 463.95 918.407 463.95C916.407 463.95 915.207 463.6 914.807 462.9L914.657 462.45L920.357 444.9C924.357 433.2 926.507 427.2 926.807 426.9ZM1028.96 426.3L1029.41 426H1071.41H1113.26L1113.86 426.45C1114.16 426.85 1114.31 427.25 1114.31 427.65L1109.96 461.85C1109.96 462.35 1109.76 462.75 1109.36 463.05L1108.91 463.5H1106.36C1104.56 463.5 1103.51 463.4 1103.21 463.2C1102.71 462.9 1102.56 461.7 1102.76 459.6C1102.76 459.4 1102.76 459.15 1102.76 458.85C1103.26 454.75 1103.51 451.35 1103.51 448.65C1103.21 442.65 1101.21 438.7 1097.51 436.8C1095.71 436 1093.86 435.45 1091.96 435.15C1089.16 434.65 1082.96 434.45 1073.36 434.55C1063.76 434.55 1058.71 434.85 1058.21 435.45L1049.21 470.85H1057.16C1063.76 470.75 1068.01 470.35 1069.91 469.65C1072.11 468.95 1073.91 467.7 1075.31 465.9C1076.71 464.1 1078.01 460.85 1079.21 456.15C1079.61 454.85 1079.96 454.05 1080.26 453.75L1080.71 453.3H1083.26C1085.36 453.3 1086.61 453.65 1087.01 454.35C1087.11 454.75 1085.51 461.7 1082.21 475.2C1078.71 488.9 1076.91 495.8 1076.81 495.9C1076.61 496.5 1075.41 496.8 1073.21 496.8H1070.66L1070.06 496.35C1069.66 495.85 1069.66 494.7 1070.06 492.9C1071.26 487.8 1071.41 484.3 1070.51 482.4C1069.81 480.9 1067.81 479.95 1064.51 479.55C1063.91 479.45 1060.81 479.4 1055.21 479.4L1047.11 479.25L1042.16 498.9C1038.86 512.2 1037.21 518.9 1037.21 519C1037.21 519.1 1037.31 519.25 1037.51 519.45H1064.66C1070.56 519.15 1075.61 518.05 1079.81 516.15C1082.31 514.85 1084.56 513.3 1086.56 511.5C1090.46 507.6 1094.61 500.35 1099.01 489.75C1099.81 487.65 1100.41 486.4 1100.81 486L1101.26 485.55H1103.96H1106.66L1107.11 486C1107.51 486.4 1107.51 487.2 1107.11 488.4C1106.61 489.9 1104.11 496.2 1099.61 507.3C1094.11 520.5 1091.36 527.15 1091.36 527.25C1091.16 527.65 1089.71 527.85 1087.01 527.85C1083.81 527.95 1070.66 528 1047.56 528C1018.86 528 1004.31 527.7 1003.91 527.1C1003.71 526.8 1003.81 525.65 1004.21 523.65C1004.71 521.45 1005.21 520.2 1005.71 519.9C1006.21 519.7 1008.01 519.6 1011.11 519.6C1016.71 519.5 1019.86 519.1 1020.56 518.4C1020.86 518.2 1024.46 504.3 1031.36 476.7C1038.26 449.1 1041.61 435.25 1041.41 435.15C1041.21 434.95 1040.86 434.85 1040.36 434.85C1038.66 434.55 1035.76 434.4 1031.66 434.4C1029.06 434.4 1027.61 434.1 1027.31 433.5C1027.11 433.2 1027.21 432.05 1027.61 430.05C1028.11 427.95 1028.56 426.7 1028.96 426.3Z" fill="#C40000"/>
</svg>
