<svg width="1341" height="780" viewBox="0 0 1341 780" fill="none" xmlns="http://www.w3.org/2000/svg">
<path d="M0 179.119H357V275.271H0V179.119ZM139.985 1L191.208 19.1271C160.318 189.364 117.306 400.585 85.6331 536.932L37.9288 502.254C69.2103 373.788 112.222 162.568 139.985 1ZM249.47 226.407L301.084 250.051C269.803 577.915 197.464 692.195 28.1533 742.636C23.4611 713.475 12.9036 673.28 3.51917 648.847C160.318 612.593 223.663 517.229 249.47 226.407ZM63.736 486.492L95.4085 412.407C178.696 468.364 292.873 571.61 350.353 655.941L314.379 745C261.982 659.881 150.933 549.542 63.736 486.492Z" fill="#FF0000"/>
<path d="M17.8445 10.2727H26.3778L35.3906 32.2614H35.7741L44.7869 10.2727H53.3203V43H46.6087V21.6985H46.337L37.8675 42.8402H33.2972L24.8278 21.6186H24.5561V43H17.8445V10.2727ZM65.9406 10.2727V43H59.0212V10.2727H65.9406ZM89.3874 19.685C89.2596 18.396 88.7109 17.3945 87.7415 16.6808C86.772 15.967 85.4563 15.6101 83.7944 15.6101C82.6651 15.6101 81.7116 15.7699 80.9339 16.0895C80.1563 16.3984 79.5597 16.8299 79.1442 17.3839C78.7393 17.9379 78.5369 18.5664 78.5369 19.2695C78.5156 19.8555 78.6381 20.3668 78.9045 20.8036C79.1815 21.2404 79.5597 21.6186 80.0391 21.9382C80.5185 22.2472 81.0724 22.5188 81.701 22.7532C82.3295 22.9769 83.0007 23.1687 83.7145 23.3285L86.6548 24.0316C88.0824 24.3512 89.3928 24.7773 90.5859 25.31C91.7791 25.8427 92.8125 26.4979 93.6861 27.2756C94.5597 28.0533 95.2362 28.9695 95.7156 30.0241C96.2056 31.0788 96.456 32.288 96.4666 33.6516C96.456 35.6545 95.9446 37.391 94.9325 38.8612C93.9311 40.3207 92.4822 41.4553 90.5859 42.2649C88.7003 43.0639 86.4258 43.4634 83.7624 43.4634C81.1204 43.4634 78.8192 43.0586 76.859 42.2489C74.9094 41.4393 73.386 40.2408 72.2887 38.6534C71.2021 37.0554 70.6321 35.0792 70.5788 32.7248H77.2745C77.3491 33.8221 77.6634 34.7383 78.2173 35.4734C78.782 36.1978 79.533 36.7464 80.4705 37.1193C81.4187 37.4815 82.4893 37.6626 83.6825 37.6626C84.8544 37.6626 85.8718 37.4922 86.7347 37.1513C87.6083 36.8104 88.2848 36.3363 88.7642 35.729C89.2436 35.1218 89.4833 34.424 89.4833 33.6357C89.4833 32.9006 89.2649 32.2827 88.8281 31.782C88.402 31.2812 87.7734 30.8551 86.9425 30.5036C86.1222 30.152 85.1154 29.8324 83.9222 29.5447L80.3587 28.6499C77.5994 27.9787 75.4208 26.9293 73.8228 25.5018C72.2248 24.0742 71.4311 22.1513 71.4418 19.733C71.4311 17.7514 71.9585 16.0202 73.0238 14.5394C74.0998 13.0586 75.5753 11.9027 77.4503 11.0717C79.3253 10.2408 81.456 9.82528 83.8423 9.82528C86.2713 9.82528 88.3913 10.2408 90.2024 11.0717C92.0241 11.9027 93.4411 13.0586 94.4531 14.5394C95.4652 16.0202 95.9872 17.7354 96.0192 19.685H89.3874ZM131.195 26.6364C131.195 30.2053 130.519 33.2415 129.166 35.745C127.824 38.2486 125.991 40.1609 123.669 41.4819C121.357 42.7923 118.758 43.4474 115.87 43.4474C112.962 43.4474 110.352 42.7869 108.04 41.4659C105.728 40.1449 103.901 38.2326 102.559 35.729C101.217 33.2255 100.546 30.1946 100.546 26.6364C100.546 23.0675 101.217 20.0312 102.559 17.5277C103.901 15.0241 105.728 13.1172 108.04 11.8068C110.352 10.4858 112.962 9.82528 115.87 9.82528C118.758 9.82528 121.357 10.4858 123.669 11.8068C125.991 13.1172 127.824 15.0241 129.166 17.5277C130.519 20.0312 131.195 23.0675 131.195 26.6364ZM124.18 26.6364C124.18 24.3246 123.834 22.375 123.141 20.7876C122.46 19.2003 121.495 17.9964 120.249 17.1761C119.003 16.3558 117.543 15.9457 115.87 15.9457C114.198 15.9457 112.738 16.3558 111.492 17.1761C110.245 17.9964 109.276 19.2003 108.584 20.7876C107.902 22.375 107.561 24.3246 107.561 26.6364C107.561 28.9482 107.902 30.8977 108.584 32.4851C109.276 34.0724 110.245 35.2763 111.492 36.0966C112.738 36.9169 114.198 37.3271 115.87 37.3271C117.543 37.3271 119.003 36.9169 120.249 36.0966C121.495 35.2763 122.46 34.0724 123.141 32.4851C123.834 30.8977 124.18 28.9482 124.18 26.6364ZM158.022 20.8516C157.798 20.0739 157.484 19.3867 157.079 18.7901C156.674 18.1829 156.179 17.6715 155.593 17.256C155.018 16.8299 154.357 16.505 153.612 16.2812C152.876 16.0575 152.061 15.9457 151.167 15.9457C149.494 15.9457 148.024 16.3612 146.756 17.1921C145.499 18.0231 144.519 19.2322 143.816 20.8196C143.113 22.3963 142.761 24.3246 142.761 26.6044C142.761 28.8842 143.107 30.8232 143.8 32.4212C144.492 34.0192 145.472 35.239 146.74 36.0806C148.008 36.9116 149.505 37.3271 151.23 37.3271C152.797 37.3271 154.134 37.0501 155.241 36.4961C156.36 35.9315 157.212 35.1378 157.798 34.1151C158.395 33.0923 158.693 31.8832 158.693 30.4876L160.099 30.6953H151.662V25.4858H165.357V29.6087C165.357 32.4851 164.75 34.9567 163.535 37.0234C162.321 39.0795 160.648 40.6669 158.517 41.7855C156.387 42.8935 153.947 43.4474 151.199 43.4474C148.13 43.4474 145.435 42.771 143.113 41.418C140.79 40.0543 138.979 38.1207 137.679 35.6172C136.39 33.103 135.746 30.12 135.746 26.6683C135.746 24.0156 136.129 21.6506 136.896 19.5732C137.674 17.4851 138.761 15.7166 140.156 14.2678C141.552 12.8189 143.176 11.7163 145.03 10.9599C146.884 10.2035 148.892 9.82528 151.055 9.82528C152.908 9.82528 154.634 10.0969 156.232 10.6403C157.83 11.1729 159.247 11.9293 160.483 12.9094C161.729 13.8896 162.747 15.0561 163.535 16.4091C164.324 17.7514 164.83 19.2322 165.053 20.8516H158.022ZM167.318 10.2727H175.069L182.532 24.3672H182.851L190.314 10.2727H198.064L186.127 31.4304V43H179.256V31.4304L167.318 10.2727ZM229.217 10.2727V43H223.241L209.003 22.4016H208.763V43H201.843V10.2727H207.916L222.042 30.8551H222.33V10.2727H229.217ZM233.017 10.2727H240.767L248.23 24.3672H248.549L256.012 10.2727H263.762L251.825 31.4304V43H244.954V31.4304L233.017 10.2727ZM284.876 10.2727V43H277.957V10.2727H284.876ZM317.943 10.2727V43H311.966L297.728 22.4016H297.488V43H290.569V10.2727H296.642L310.768 30.8551H311.056V10.2727H317.943ZM46.7205 75.7305H39.7212C39.5934 74.8249 39.3324 74.0206 38.9382 73.3175C38.544 72.6037 38.038 71.9964 37.4201 71.4957C36.8022 70.995 36.0884 70.6115 35.2788 70.3452C34.4798 70.0788 33.6115 69.9457 32.674 69.9457C30.9801 69.9457 29.5046 70.3665 28.2475 71.2081C26.9904 72.0391 26.0156 73.2536 25.3232 74.8516C24.6307 76.4389 24.2844 78.3672 24.2844 80.6364C24.2844 82.9695 24.6307 84.9297 25.3232 86.517C26.0263 88.1044 27.0064 89.3029 28.2635 90.1126C29.5206 90.9222 30.9748 91.3271 32.6261 91.3271C33.5529 91.3271 34.4105 91.2045 35.1989 90.9595C35.9979 90.7145 36.7063 90.3576 37.3242 89.8888C37.9421 89.4094 38.4535 88.8288 38.8583 88.147C39.2738 87.4652 39.5614 86.6875 39.7212 85.8139L46.7205 85.8459C46.5394 87.348 46.0866 88.7969 45.3622 90.1925C44.6484 91.5774 43.6843 92.8185 42.4698 93.9158C41.266 95.0025 39.8278 95.8654 38.1552 96.5046C36.4933 97.1332 34.6129 97.4474 32.5142 97.4474C29.5952 97.4474 26.9851 96.7869 24.6839 95.4659C22.3935 94.1449 20.5824 92.2326 19.2507 89.729C17.9297 87.2255 17.2692 84.1946 17.2692 80.6364C17.2692 77.0675 17.9403 74.0312 19.2827 71.5277C20.625 69.0241 22.4467 67.1172 24.7479 65.8068C27.049 64.4858 29.6378 63.8253 32.5142 63.8253C34.4105 63.8253 36.1683 64.0916 37.7876 64.6243C39.4176 65.157 40.8612 65.9347 42.1183 66.9574C43.3754 67.9695 44.3981 69.2106 45.1864 70.6808C45.9854 72.1509 46.4968 73.8342 46.7205 75.7305ZM51.6824 97V64.2727H58.6017V77.7759H72.6483V64.2727H79.5517V97H72.6483V83.4808H58.6017V97H51.6824ZM92.176 64.2727V97H85.2566V64.2727H92.176ZM125.243 64.2727V97H119.266L105.028 76.4016H104.788V97H97.8689V64.2727H103.941L118.068 84.8551H118.355V64.2727H125.243ZM130.96 97V64.2727H153.012V69.9776H137.879V77.7759H151.878V83.4808H137.879V91.2951H153.076V97H130.96ZM176.267 73.685C176.139 72.396 175.591 71.3945 174.621 70.6808C173.652 69.967 172.336 69.6101 170.674 69.6101C169.545 69.6101 168.592 69.7699 167.814 70.0895C167.036 70.3984 166.44 70.8299 166.024 71.3839C165.619 71.9379 165.417 72.5664 165.417 73.2695C165.396 73.8555 165.518 74.3668 165.784 74.8036C166.061 75.2404 166.44 75.6186 166.919 75.9382C167.398 76.2472 167.952 76.5188 168.581 76.7532C169.209 76.9769 169.881 77.1687 170.594 77.3285L173.535 78.0316C174.962 78.3512 176.273 78.7773 177.466 79.31C178.659 79.8427 179.692 80.4979 180.566 81.2756C181.44 82.0533 182.116 82.9695 182.595 84.0241C183.085 85.0788 183.336 86.288 183.347 87.6516C183.336 89.6545 182.824 91.391 181.812 92.8612C180.811 94.3207 179.362 95.4553 177.466 96.2649C175.58 97.0639 173.306 97.4634 170.642 97.4634C168 97.4634 165.699 97.0586 163.739 96.2489C161.789 95.4393 160.266 94.2408 159.169 92.6534C158.082 91.0554 157.512 89.0792 157.459 86.7248H164.154C164.229 87.8221 164.543 88.7383 165.097 89.4734C165.662 90.1978 166.413 90.7464 167.35 91.1193C168.299 91.4815 169.369 91.6626 170.562 91.6626C171.734 91.6626 172.752 91.4922 173.615 91.1513C174.488 90.8104 175.165 90.3363 175.644 89.729C176.123 89.1218 176.363 88.424 176.363 87.6357C176.363 86.9006 176.145 86.2827 175.708 85.782C175.282 85.2812 174.653 84.8551 173.822 84.5036C173.002 84.152 171.995 83.8324 170.802 83.5447L167.239 82.6499C164.479 81.9787 162.301 80.9293 160.703 79.5018C159.105 78.0742 158.311 76.1513 158.322 73.733C158.311 71.7514 158.838 70.0202 159.904 68.5394C160.98 67.0586 162.455 65.9027 164.33 65.0717C166.205 64.2408 168.336 63.8253 170.722 63.8253C173.151 63.8253 175.271 64.2408 177.082 65.0717C178.904 65.9027 180.321 67.0586 181.333 68.5394C182.345 70.0202 182.867 71.7354 182.899 73.685H176.267ZM188.001 97V64.2727H210.053V69.9776H194.92V77.7759H208.919V83.4808H194.92V91.2951H210.117V97H188.001ZM46.7205 129.73H39.7212C39.5934 128.825 39.3324 128.021 38.9382 127.317C38.544 126.604 38.038 125.996 37.4201 125.496C36.8022 124.995 36.0884 124.612 35.2788 124.345C34.4798 124.079 33.6115 123.946 32.674 123.946C30.9801 123.946 29.5046 124.366 28.2475 125.208C26.9904 126.039 26.0156 127.254 25.3232 128.852C24.6307 130.439 24.2844 132.367 24.2844 134.636C24.2844 136.969 24.6307 138.93 25.3232 140.517C26.0263 142.104 27.0064 143.303 28.2635 144.113C29.5206 144.922 30.9748 145.327 32.6261 145.327C33.5529 145.327 34.4105 145.205 35.1989 144.96C35.9979 144.714 36.7063 144.358 37.3242 143.889C37.9421 143.409 38.4535 142.829 38.8583 142.147C39.2738 141.465 39.5614 140.687 39.7212 139.814L46.7205 139.846C46.5394 141.348 46.0866 142.797 45.3622 144.192C44.6484 145.577 43.6843 146.819 42.4698 147.916C41.266 149.002 39.8278 149.865 38.1552 150.505C36.4933 151.133 34.6129 151.447 32.5142 151.447C29.5952 151.447 26.9851 150.787 24.6839 149.466C22.3935 148.145 20.5824 146.233 19.2507 143.729C17.9297 141.225 17.2692 138.195 17.2692 134.636C17.2692 131.067 17.9403 128.031 19.2827 125.528C20.625 123.024 22.4467 121.117 24.7479 119.807C27.049 118.486 29.6378 117.825 32.5142 117.825C34.4105 117.825 36.1683 118.092 37.7876 118.624C39.4176 119.157 40.8612 119.935 42.1183 120.957C43.3754 121.969 44.3981 123.211 45.1864 124.681C45.9854 126.151 46.4968 127.834 46.7205 129.73ZM51.6824 151V118.273H58.6017V131.776H72.6483V118.273H79.5517V151H72.6483V137.481H58.6017V151H51.6824ZM90.8975 151H83.4828L94.7807 118.273H103.698L114.98 151H107.565L99.367 125.751H99.1113L90.8975 151ZM90.4341 138.136H107.948V143.537H90.4341V138.136ZM118.919 151V118.273H131.831C134.302 118.273 136.412 118.715 138.159 119.599C139.917 120.473 141.254 121.714 142.17 123.322C143.097 124.92 143.56 126.801 143.56 128.963C143.56 131.137 143.091 133.006 142.154 134.572C141.216 136.128 139.858 137.321 138.079 138.152C136.31 138.983 134.169 139.398 131.655 139.398H123.01V133.837H130.536C131.857 133.837 132.955 133.656 133.828 133.294C134.702 132.932 135.352 132.388 135.778 131.664C136.214 130.94 136.433 130.039 136.433 128.963C136.433 127.877 136.214 126.961 135.778 126.215C135.352 125.469 134.696 124.904 133.812 124.521C132.939 124.127 131.836 123.93 130.504 123.93H125.838V151H118.919ZM136.593 136.107L144.727 151H137.088L129.13 136.107H136.593ZM154.091 151H146.676L157.974 118.273H166.891L178.173 151H170.758L162.56 125.751H162.305L154.091 151ZM153.627 138.136H171.142V143.537H153.627V138.136ZM209.45 129.73H202.451C202.323 128.825 202.062 128.021 201.668 127.317C201.274 126.604 200.767 125.996 200.15 125.496C199.532 124.995 198.818 124.612 198.008 124.345C197.209 124.079 196.341 123.946 195.403 123.946C193.71 123.946 192.234 124.366 190.977 125.208C189.72 126.039 188.745 127.254 188.053 128.852C187.36 130.439 187.014 132.367 187.014 134.636C187.014 136.969 187.36 138.93 188.053 140.517C188.756 142.104 189.736 143.303 190.993 144.113C192.25 144.922 193.704 145.327 195.356 145.327C196.282 145.327 197.14 145.205 197.928 144.96C198.727 144.714 199.436 144.358 200.054 143.889C200.672 143.409 201.183 142.829 201.588 142.147C202.003 141.465 202.291 140.687 202.451 139.814L209.45 139.846C209.269 141.348 208.816 142.797 208.092 144.192C207.378 145.577 206.414 146.819 205.199 147.916C203.995 149.002 202.557 149.865 200.885 150.505C199.223 151.133 197.342 151.447 195.244 151.447C192.325 151.447 189.715 150.787 187.413 149.466C185.123 148.145 183.312 146.233 181.98 143.729C180.659 141.225 179.999 138.195 179.999 134.636C179.999 131.067 180.67 128.031 182.012 125.528C183.354 123.024 185.176 121.117 187.477 119.807C189.778 118.486 192.367 117.825 195.244 117.825C197.14 117.825 198.898 118.092 200.517 118.624C202.147 119.157 203.591 119.935 204.848 120.957C206.105 121.969 207.128 123.211 207.916 124.681C208.715 126.151 209.226 127.834 209.45 129.73ZM213.165 123.978V118.273H240.044V123.978H230.024V151H223.185V123.978H213.165ZM244.47 151V118.273H266.523V123.978H251.39V131.776H265.388V137.481H251.39V145.295H266.587V151H244.47ZM272.024 151V118.273H284.936C287.408 118.273 289.517 118.715 291.264 119.599C293.022 120.473 294.359 121.714 295.275 123.322C296.202 124.92 296.665 126.801 296.665 128.963C296.665 131.137 296.197 133.006 295.259 134.572C294.322 136.128 292.963 137.321 291.184 138.152C289.416 138.983 287.275 139.398 284.76 139.398H276.115V133.837H283.642C284.963 133.837 286.06 133.656 286.934 133.294C287.807 132.932 288.457 132.388 288.883 131.664C289.32 130.94 289.538 130.039 289.538 128.963C289.538 127.877 289.32 126.961 288.883 126.215C288.457 125.469 287.802 124.904 286.918 124.521C286.044 124.127 284.941 123.93 283.61 123.93H278.944V151H272.024ZM289.698 136.107L297.832 151H290.194L282.235 136.107H289.698ZM319.309 127.685C319.181 126.396 318.633 125.395 317.663 124.681C316.694 123.967 315.378 123.61 313.716 123.61C312.587 123.61 311.634 123.77 310.856 124.089C310.078 124.398 309.482 124.83 309.066 125.384C308.661 125.938 308.459 126.566 308.459 127.27C308.438 127.855 308.56 128.367 308.826 128.804C309.103 129.24 309.482 129.619 309.961 129.938C310.44 130.247 310.994 130.519 311.623 130.753C312.251 130.977 312.923 131.169 313.636 131.328L316.577 132.032C318.004 132.351 319.315 132.777 320.508 133.31C321.701 133.843 322.734 134.498 323.608 135.276C324.482 136.053 325.158 136.969 325.637 138.024C326.127 139.079 326.378 140.288 326.388 141.652C326.378 143.654 325.866 145.391 324.854 146.861C323.853 148.321 322.404 149.455 320.508 150.265C318.622 151.064 316.348 151.463 313.684 151.463C311.042 151.463 308.741 151.059 306.781 150.249C304.831 149.439 303.308 148.241 302.211 146.653C301.124 145.055 300.554 143.079 300.501 140.725H307.196C307.271 141.822 307.585 142.738 308.139 143.473C308.704 144.198 309.455 144.746 310.392 145.119C311.341 145.482 312.411 145.663 313.604 145.663C314.776 145.663 315.794 145.492 316.657 145.151C317.53 144.81 318.207 144.336 318.686 143.729C319.165 143.122 319.405 142.424 319.405 141.636C319.405 140.901 319.187 140.283 318.75 139.782C318.324 139.281 317.695 138.855 316.864 138.504C316.044 138.152 315.037 137.832 313.844 137.545L310.281 136.65C307.521 135.979 305.343 134.929 303.745 133.502C302.147 132.074 301.353 130.151 301.364 127.733C301.353 125.751 301.88 124.02 302.946 122.539C304.022 121.059 305.497 119.903 307.372 119.072C309.247 118.241 311.378 117.825 313.764 117.825C316.193 117.825 318.313 118.241 320.124 119.072C321.946 119.903 323.363 121.059 324.375 122.539C325.387 124.02 325.909 125.735 325.941 127.685H319.309Z" fill="white"/>
<path fill-rule="evenodd" clip-rule="evenodd" d="M843.425 17.619H398.575V722.381H843.425V17.619ZM357 0V740H885V0H357Z" fill="#FF0000"/>
<path d="M431.459 74.6205H807.757V149.761H431.459V74.6205ZM452.595 187.332H789.838V258.052H452.595V187.332ZM414.459 298.569H822.459V373.71H414.459V298.569ZM589.514 26H645.568V361.923H589.514V26ZM589.973 326.563L637.757 362.66C588.595 447.377 507.27 521.781 432.378 559.352C424.108 537.988 408.486 505.575 397 487.158C469.595 456.954 549.541 393.6 589.973 326.563ZM669.459 340.56C693.351 487.158 744.351 593.975 839 637.439C826.595 655.119 810.973 691.953 803.162 716.263C700.243 658.803 649.243 536.515 619.378 356.03L669.459 340.56ZM775.595 384.76L821.081 440.011C786.622 479.791 745.27 520.308 713.568 545.355L678.649 498.208C709.432 469.478 750.784 422.331 775.595 384.76ZM445.703 634.492C501.297 619.022 585.838 591.029 664.405 563.772L669.459 643.333C597.324 669.853 519.216 697.11 462.243 717L445.703 634.492ZM508.649 484.948L544.946 426.751L563.784 434.854V647.016H508.649V484.948Z" fill="white"/>
<path d="M608.598 104.685C608.471 103.396 607.922 102.395 606.952 101.681C605.983 100.967 604.667 100.61 603.005 100.61C601.876 100.61 600.923 100.77 600.145 101.089C599.367 101.398 598.771 101.83 598.355 102.384C597.95 102.938 597.748 103.566 597.748 104.27C597.727 104.855 597.849 105.367 598.115 105.804C598.392 106.24 598.771 106.619 599.25 106.938C599.729 107.247 600.283 107.519 600.912 107.753C601.54 107.977 602.212 108.169 602.925 108.328L605.866 109.032C607.293 109.351 608.604 109.777 609.797 110.31C610.99 110.843 612.023 111.498 612.897 112.276C613.771 113.053 614.447 113.969 614.926 115.024C615.417 116.079 615.667 117.288 615.678 118.652C615.667 120.654 615.156 122.391 614.143 123.861C613.142 125.321 611.693 126.455 609.797 127.265C607.911 128.064 605.637 128.463 602.973 128.463C600.331 128.463 598.03 128.059 596.07 127.249C594.12 126.439 592.597 125.241 591.5 123.653C590.413 122.055 589.843 120.079 589.79 117.725H596.485C596.56 118.822 596.874 119.738 597.428 120.473C597.993 121.198 598.744 121.746 599.681 122.119C600.63 122.482 601.7 122.663 602.893 122.663C604.065 122.663 605.083 122.492 605.946 122.151C606.819 121.81 607.496 121.336 607.975 120.729C608.455 120.122 608.694 119.424 608.694 118.636C608.694 117.901 608.476 117.283 608.039 116.782C607.613 116.281 606.984 115.855 606.153 115.504C605.333 115.152 604.326 114.832 603.133 114.545L599.57 113.65C596.81 112.979 594.632 111.929 593.034 110.502C591.436 109.074 590.642 107.151 590.653 104.733C590.642 102.751 591.169 101.02 592.235 99.5394C593.311 98.0586 594.786 96.9027 596.661 96.0717C598.536 95.2408 600.667 94.8253 603.053 94.8253C605.482 94.8253 607.602 95.2408 609.413 96.0717C611.235 96.9027 612.652 98.0586 613.664 99.5394C614.676 101.02 615.198 102.735 615.23 104.685H608.598ZM640.547 95.2727H647.466V116.526C647.466 118.913 646.896 121.001 645.756 122.79C644.627 124.58 643.045 125.976 641.01 126.977C638.975 127.968 636.605 128.463 633.899 128.463C631.182 128.463 628.807 127.968 626.772 126.977C624.737 125.976 623.155 124.58 622.026 122.79C620.896 121.001 620.332 118.913 620.332 116.526V95.2727H627.251V115.935C627.251 117.181 627.523 118.289 628.066 119.259C628.62 120.228 629.398 120.99 630.399 121.544C631.401 122.098 632.567 122.375 633.899 122.375C635.241 122.375 636.408 122.098 637.399 121.544C638.4 120.99 639.172 120.228 639.716 119.259C640.27 118.289 640.547 117.181 640.547 115.935V95.2727ZM653.159 128V95.2727H666.071C668.542 95.2727 670.652 95.7148 672.399 96.5991C674.157 97.4727 675.494 98.7138 676.41 100.322C677.337 101.92 677.8 103.801 677.8 105.963C677.8 108.137 677.332 110.006 676.394 111.572C675.457 113.128 674.098 114.321 672.319 115.152C670.551 115.983 668.409 116.398 665.895 116.398H657.25V110.837H664.776C666.097 110.837 667.195 110.656 668.068 110.294C668.942 109.932 669.592 109.388 670.018 108.664C670.455 107.94 670.673 107.039 670.673 105.963C670.673 104.877 670.455 103.961 670.018 103.215C669.592 102.469 668.937 101.904 668.052 101.521C667.179 101.127 666.076 100.93 664.744 100.93H660.078V128H653.159ZM670.833 113.107L678.967 128H671.328L663.37 113.107H670.833ZM682.69 128V95.2727H704.359V100.978H689.61V108.776H702.921V114.481H689.61V128H682.69ZM710.567 128H703.153L714.451 95.2727H723.368L734.65 128H727.235L719.037 102.751H718.781L710.567 128ZM710.104 115.136H727.618V120.537H710.104V115.136ZM765.927 106.73H758.927C758.799 105.825 758.538 105.021 758.144 104.317C757.75 103.604 757.244 102.996 756.626 102.496C756.008 101.995 755.294 101.612 754.485 101.345C753.686 101.079 752.818 100.946 751.88 100.946C750.186 100.946 748.711 101.366 747.454 102.208C746.196 103.039 745.222 104.254 744.529 105.852C743.837 107.439 743.491 109.367 743.491 111.636C743.491 113.969 743.837 115.93 744.529 117.517C745.232 119.104 746.212 120.303 747.47 121.113C748.727 121.922 750.181 122.327 751.832 122.327C752.759 122.327 753.617 122.205 754.405 121.96C755.204 121.714 755.912 121.358 756.53 120.889C757.148 120.409 757.66 119.829 758.064 119.147C758.48 118.465 758.767 117.687 758.927 116.814L765.927 116.846C765.745 118.348 765.293 119.797 764.568 121.192C763.854 122.577 762.89 123.819 761.676 124.916C760.472 126.002 759.034 126.865 757.361 127.505C755.699 128.133 753.819 128.447 751.72 128.447C748.801 128.447 746.191 127.787 743.89 126.466C741.6 125.145 739.788 123.233 738.457 120.729C737.136 118.225 736.475 115.195 736.475 111.636C736.475 108.067 737.146 105.031 738.489 102.528C739.831 100.024 741.653 98.1172 743.954 96.8068C746.255 95.4858 748.844 94.8253 751.72 94.8253C753.617 94.8253 755.374 95.0916 756.994 95.6243C758.624 96.157 760.067 96.9347 761.324 97.9574C762.581 98.9695 763.604 100.211 764.392 101.681C765.191 103.151 765.703 104.834 765.927 106.73ZM770.888 128V95.2727H792.941V100.978H777.808V108.776H791.806V114.481H777.808V122.295H793.005V128H770.888Z" fill="black"/>
<path d="M69.37 330.4L69.88 329.89H72.09C82.1767 330.457 94.9833 330.513 110.51 330.06C114.25 329.947 116.347 330.287 116.8 331.08C116.913 331.42 116.687 332.723 116.12 334.99C115.667 337.143 115.213 338.447 114.76 338.9L114.25 339.41H111.87C106.543 339.41 102.86 339.863 100.82 340.77L100.14 341.11V342.3C100.253 342.753 101.16 355.787 102.86 381.4L105.24 419.65L143.15 352.84L142.13 340.6V340.43C142.13 340.317 141.847 340.147 141.28 339.92C140.033 339.58 137.2 339.41 132.78 339.41C130.287 339.41 128.87 339.013 128.53 338.22C128.303 337.88 128.473 336.577 129.04 334.31C129.72 331.93 130.173 330.627 130.4 330.4L130.91 329.89H133.12C143.093 330.457 155.9 330.513 171.54 330.06C175.28 329.947 177.377 330.287 177.83 331.08C177.943 331.42 177.773 332.723 177.32 334.99C176.753 337.143 176.243 338.447 175.79 338.9L175.28 339.41H172.9C167.687 339.41 164.06 339.863 162.02 340.77L161.17 341.11V342.13C161.283 342.583 162.19 355.617 163.89 381.23C165.477 405.597 166.27 418.403 166.27 419.65C166.497 420.103 178.907 398.287 203.5 354.2C206.673 348.307 208.317 345.247 208.43 345.02C208.883 344 208.657 343.037 207.75 342.13C205.71 340.317 202.48 339.41 198.06 339.41C196.927 339.41 196.19 339.013 195.85 338.22C195.623 337.88 195.793 336.577 196.36 334.31C197.04 331.93 197.493 330.627 197.72 330.4L198.23 329.89H200.44L211.66 330.23C217.78 330.343 222.993 330.343 227.3 330.23L234.95 329.89C235.63 329.89 236.14 330.06 236.48 330.4C236.933 330.853 237.16 331.25 237.16 331.59L235.46 338.22V338.39C235.12 339.07 234.327 339.41 233.08 339.41C229.113 339.41 225.657 340.09 222.71 341.45C220.33 342.583 218.347 344.34 216.76 346.72C216.307 347.4 206.73 364.287 188.03 397.38C169.33 430.473 159.753 447.36 159.3 448.04C158.847 448.72 158.393 449.117 157.94 449.23C157.373 449.57 156.07 449.74 154.03 449.74C151.877 449.74 150.63 449.627 150.29 449.4L149.61 448.72C149.497 448.607 148.533 435.063 146.72 408.09C145.02 380.437 144.17 366.893 144.17 367.46C144.17 367.347 142.583 370.01 139.41 375.45C136.123 381.23 130.06 391.94 121.22 407.58C105.693 434.78 97.8167 448.493 97.59 448.72C96.91 449.4 95.21 449.74 92.49 449.74L89.43 449.57L88.92 449.06C88.58 448.72 88.41 448.267 88.41 447.7C88.2967 447.473 87.1067 429.567 84.84 393.98C82.6867 358.733 81.4967 340.94 81.27 340.6C81.1567 340.373 80.8167 340.147 80.25 339.92C78.21 339.58 75.3767 339.41 71.75 339.41C69.2567 339.41 67.7833 339.013 67.33 338.22L67.16 337.71L68.01 334.31C68.4633 332.157 68.9167 330.853 69.37 330.4ZM253.027 330.06C253.254 329.947 254.274 329.89 256.087 329.89C269.8 330.457 284.08 330.513 298.927 330.06C302.554 329.947 304.594 330.287 305.047 331.08C305.274 331.42 305.104 332.723 304.537 334.99C303.97 337.143 303.574 338.447 303.347 338.9L302.837 339.41H296.887C291.22 339.523 287.934 339.807 287.027 340.26C286.347 340.487 285.894 341.053 285.667 341.96C285.1 343.32 283.4 349.723 280.567 361.17L275.637 380.89H299.437L323.237 380.72L328.337 360.83C331.624 347.683 333.267 340.94 333.267 340.6C333.267 340.487 333.154 340.317 332.927 340.09C332.474 339.863 329.414 339.637 323.747 339.41H317.967L317.287 338.73C316.947 338.39 316.777 338.05 316.777 337.71L318.647 330.74C318.987 330.173 320.46 329.947 323.067 330.06C323.52 330.06 324.427 330.06 325.787 330.06C335.08 330.513 346.867 330.57 361.147 330.23C362.507 330.117 363.64 330.06 364.547 330.06C368.514 329.947 370.724 330.287 371.177 331.08C371.404 331.42 371.234 332.723 370.667 334.99C370.1 337.143 369.704 338.447 369.477 338.9L368.967 339.41H363.017C357.35 339.523 354.064 339.807 353.157 340.26C352.59 340.487 352.25 340.827 352.137 341.28C351.457 342.98 347.434 358.563 340.067 388.03C332.247 419.31 328.28 435.007 328.167 435.12C328.054 435.573 328.564 435.857 329.697 435.97C331.057 436.197 333.72 436.367 337.687 436.48C341.88 436.48 344.204 436.877 344.657 437.67C344.77 438.01 344.6 439.313 344.147 441.58C343.58 443.733 343.07 445.037 342.617 445.49L342.107 446H339.387C327.034 445.433 312.754 445.377 296.547 445.83C292.807 445.943 290.71 445.603 290.257 444.81C290.144 444.47 290.314 443.167 290.767 440.9C291.447 438.633 291.9 437.33 292.127 436.99L292.807 436.48H298.587C304.934 436.367 308.504 435.913 309.297 435.12C309.637 434.893 311.677 427.413 315.417 412.68L320.857 390.58C320.857 390.467 312.924 390.41 297.057 390.41H273.257L267.647 412.85C263.907 427.923 262.094 435.517 262.207 435.63C262.434 435.857 262.83 435.97 263.397 435.97C264.757 436.31 268.157 436.48 273.597 436.48C276.43 436.48 278.074 436.877 278.527 437.67C278.64 438.123 278.47 439.427 278.017 441.58C277.45 443.733 276.94 445.037 276.487 445.49L275.977 446H273.257C260.904 445.433 246.624 445.377 230.417 445.83C226.677 445.943 224.58 445.603 224.127 444.81C224.014 444.47 224.184 443.167 224.637 440.9C225.317 438.633 225.77 437.33 225.997 436.99L226.677 436.48H232.457C238.804 436.367 242.374 435.913 243.167 435.12C243.507 434.893 247.587 419.14 255.407 387.86C263.227 356.58 267.137 340.827 267.137 340.6C267.137 340.487 267.024 340.317 266.797 340.09C266.344 339.863 263.284 339.637 257.617 339.41H251.837L251.157 338.73C250.817 338.39 250.647 338.05 250.647 337.71L252.517 330.74C252.517 330.627 252.687 330.4 253.027 330.06ZM438.846 326.32C441.68 326.093 445.363 326.15 449.896 326.49C459.643 327.85 467.69 331.817 474.036 338.39C480.27 344.623 484.18 352.613 485.766 362.36C488.26 377.093 485.37 392.053 477.096 407.24C475.51 410.073 473.753 412.85 471.826 415.57C465.366 424.863 457.546 432.4 448.366 438.18C442.246 442.147 436.183 445.037 430.176 446.85C414.423 451.723 400.653 450.533 388.866 443.28C386.486 441.807 384.276 440.107 382.236 438.18C375.436 431.493 371.186 422.71 369.486 411.83C369.033 408.203 368.976 403.613 369.316 398.06C369.43 397.607 369.486 397.21 369.486 396.87C371.526 381.343 378.1 367.063 389.206 354.03C392.38 350.403 395.78 347.003 399.406 343.83C411.986 333.403 425.133 327.567 438.846 326.32ZM446.496 335.16C443.663 334.707 440.773 334.593 437.826 334.82C430.46 335.727 423.716 338.56 417.596 343.32C408.643 350.12 401.786 359.583 397.026 371.71C393.513 380.437 391.02 390.24 389.546 401.12C389.093 405.54 389.036 410.3 389.376 415.4C389.49 415.853 389.546 416.193 389.546 416.42C391.246 427.187 396.006 434.553 403.826 438.52C411.42 442.373 420.146 441.92 430.006 437.16C442.7 430.927 452.503 419.197 459.416 401.97C463.383 391.77 465.933 381.57 467.066 371.37C467.52 367.63 467.52 363.663 467.066 359.47C467.066 359.243 467.066 359.017 467.066 358.79C465.82 351.537 463.326 346.04 459.586 342.3C455.96 338.56 451.596 336.18 446.496 335.16ZM524.305 330.06C524.531 329.947 534.505 329.89 554.225 329.89C574.851 330.003 586.128 330.23 588.055 330.57C588.281 330.683 588.791 330.797 589.585 330.91C600.011 332.837 607.548 337.313 612.195 344.34C614.801 348.193 616.048 352.387 615.935 356.92C615.821 360.093 614.971 363.323 613.385 366.61C611.798 369.783 609.588 372.73 606.755 375.45C601.201 381.003 593.551 385.48 583.805 388.88C583.691 388.88 583.861 389.05 584.315 389.39C584.541 389.617 584.768 389.787 584.995 389.9C588.961 392.62 591.738 396.247 593.325 400.78C594.345 403.953 594.628 408.373 594.175 414.04C594.061 415.287 593.891 416.873 593.665 418.8C593.098 424.693 592.815 429 592.815 431.72C592.928 435.913 593.721 438.747 595.195 440.22C596.215 441.127 597.745 441.58 599.785 441.58C601.031 441.58 601.938 441.467 602.505 441.24C603.865 440.673 605.225 439.597 606.585 438.01C608.058 435.857 609.191 433.647 609.985 431.38C610.551 429.567 611.231 428.547 612.025 428.32C612.478 428.207 613.328 428.15 614.575 428.15C616.728 428.15 618.031 428.433 618.485 429C619.278 429.907 618.711 432.287 616.785 436.14C613.385 443.28 608.738 447.643 602.845 449.23C601.938 449.457 600.238 449.57 597.745 449.57C594.798 449.57 592.871 449.513 591.965 449.4C580.971 447.927 574.341 443.393 572.075 435.8C571.395 433.533 571.281 430.983 571.735 428.15C572.301 425.317 573.095 421.86 574.115 417.78C575.248 413.247 576.041 409.847 576.495 407.58C577.061 404.52 576.608 401.517 575.135 398.57C574.568 397.55 573.831 396.587 572.925 395.68C570.998 393.867 568.618 392.677 565.785 392.11C565.331 391.997 561.478 391.94 554.225 391.94H543.685L543.515 392.62C543.515 392.507 541.701 399.703 538.075 414.21C534.561 428.377 532.861 435.517 532.975 435.63C533.201 435.857 533.598 435.97 534.165 435.97C535.525 436.31 538.925 436.48 544.365 436.48C547.198 436.48 548.841 436.877 549.295 437.67C549.408 438.123 549.238 439.427 548.785 441.58C548.218 443.733 547.708 445.037 547.255 445.49L546.745 446H544.195C531.841 445.433 517.675 445.377 501.695 445.83C497.955 445.943 495.858 445.603 495.405 444.81C495.291 444.47 495.461 443.167 495.915 440.9C496.595 438.633 497.048 437.33 497.275 436.99L497.955 436.48H503.735C510.081 436.367 513.651 435.913 514.445 435.12C514.785 434.893 518.865 419.14 526.685 387.86C534.505 356.58 538.415 340.827 538.415 340.6C538.415 340.487 538.301 340.317 538.075 340.09C537.621 339.863 534.561 339.637 528.895 339.41H523.115L522.435 338.73C522.095 338.39 521.925 338.05 521.925 337.71L523.795 330.74C523.795 330.627 523.965 330.4 524.305 330.06ZM581.935 339.75C581.255 339.637 577.288 339.523 570.035 339.41L558.815 339.58C557.681 339.693 556.945 340.033 556.605 340.6L545.725 383.95H557.115C565.388 383.837 569.921 383.723 570.715 383.61C581.028 382.137 587.885 377.943 591.285 371.03C593.098 367.29 594.571 362.417 595.705 356.41C596.158 353.463 596.158 350.97 595.705 348.93C594.345 343.943 589.755 340.883 581.935 339.75ZM652.619 330.74L653.129 330.4H700.729H748.159L748.839 330.91C749.179 331.363 749.349 331.817 749.349 332.27L744.419 371.03C744.419 371.597 744.192 372.05 743.739 372.39L743.229 372.9H740.339C738.299 372.9 737.109 372.787 736.769 372.56C736.202 372.22 736.032 370.86 736.259 368.48C736.259 368.253 736.259 367.97 736.259 367.63C736.825 362.983 737.109 359.13 737.109 356.07C736.769 349.27 734.502 344.793 730.309 342.64C728.269 341.733 726.172 341.11 724.019 340.77C720.845 340.203 713.819 339.977 702.939 340.09C692.059 340.09 686.335 340.43 685.769 341.11L675.569 381.23H684.579C692.059 381.117 696.875 380.663 699.029 379.87C701.522 379.077 703.562 377.66 705.149 375.62C706.735 373.58 708.209 369.897 709.569 364.57C710.022 363.097 710.419 362.19 710.759 361.85L711.269 361.34H714.159C716.539 361.34 717.955 361.737 718.409 362.53C718.522 362.983 716.709 370.86 712.969 386.16C709.002 401.687 706.962 409.507 706.849 409.62C706.622 410.3 705.262 410.64 702.769 410.64H699.879L699.199 410.13C698.745 409.563 698.745 408.26 699.199 406.22C700.559 400.44 700.729 396.473 699.709 394.32C698.915 392.62 696.649 391.543 692.909 391.09C692.229 390.977 688.715 390.92 682.369 390.92L673.189 390.75L667.579 413.02C663.839 428.093 661.969 435.687 661.969 435.8C661.969 435.913 662.082 436.083 662.309 436.31H693.079C699.765 435.97 705.489 434.723 710.249 432.57C713.082 431.097 715.632 429.34 717.899 427.3C722.319 422.88 727.022 414.663 732.009 402.65C732.915 400.27 733.595 398.853 734.049 398.4L734.559 397.89H737.619H740.679L741.189 398.4C741.642 398.853 741.642 399.76 741.189 401.12C740.622 402.82 737.789 409.96 732.689 422.54C726.455 437.5 723.339 445.037 723.339 445.15C723.112 445.603 721.469 445.83 718.409 445.83C714.782 445.943 699.879 446 673.699 446C641.172 446 624.682 445.66 624.229 444.98C624.002 444.64 624.115 443.337 624.569 441.07C625.135 438.577 625.702 437.16 626.269 436.82C626.835 436.593 628.875 436.48 632.389 436.48C638.735 436.367 642.305 435.913 643.099 435.12C643.439 434.893 647.519 419.14 655.339 387.86C663.159 356.58 666.955 340.883 666.729 340.77C666.502 340.543 666.105 340.43 665.539 340.43C663.612 340.09 660.325 339.92 655.679 339.92C652.732 339.92 651.089 339.58 650.749 338.9C650.522 338.56 650.635 337.257 651.089 334.99C651.655 332.61 652.165 331.193 652.619 330.74Z" fill="#C40000"/>
<path d="M321.37 480.4L321.88 479.89H324.09C334.177 480.457 346.983 480.513 362.51 480.06C366.25 479.947 368.347 480.287 368.8 481.08C368.913 481.42 368.687 482.723 368.12 484.99C367.667 487.143 367.213 488.447 366.76 488.9L366.25 489.41H363.87C358.543 489.41 354.86 489.863 352.82 490.77L352.14 491.11V492.3C352.253 492.753 353.16 505.787 354.86 531.4L357.24 569.65L395.15 502.84L394.13 490.6V490.43C394.13 490.317 393.847 490.147 393.28 489.92C392.033 489.58 389.2 489.41 384.78 489.41C382.287 489.41 380.87 489.013 380.53 488.22C380.303 487.88 380.473 486.577 381.04 484.31C381.72 481.93 382.173 480.627 382.4 480.4L382.91 479.89H385.12C395.093 480.457 407.9 480.513 423.54 480.06C427.28 479.947 429.377 480.287 429.83 481.08C429.943 481.42 429.773 482.723 429.32 484.99C428.753 487.143 428.243 488.447 427.79 488.9L427.28 489.41H424.9C419.687 489.41 416.06 489.863 414.02 490.77L413.17 491.11V492.13C413.283 492.583 414.19 505.617 415.89 531.23C417.477 555.597 418.27 568.403 418.27 569.65C418.497 570.103 430.907 548.287 455.5 504.2C458.673 498.307 460.317 495.247 460.43 495.02C460.883 494 460.657 493.037 459.75 492.13C457.71 490.317 454.48 489.41 450.06 489.41C448.927 489.41 448.19 489.013 447.85 488.22C447.623 487.88 447.793 486.577 448.36 484.31C449.04 481.93 449.493 480.627 449.72 480.4L450.23 479.89H452.44L463.66 480.23C469.78 480.343 474.993 480.343 479.3 480.23L486.95 479.89C487.63 479.89 488.14 480.06 488.48 480.4C488.933 480.853 489.16 481.25 489.16 481.59L487.46 488.22V488.39C487.12 489.07 486.327 489.41 485.08 489.41C481.113 489.41 477.657 490.09 474.71 491.45C472.33 492.583 470.347 494.34 468.76 496.72C468.307 497.4 458.73 514.287 440.03 547.38C421.33 580.473 411.753 597.36 411.3 598.04C410.847 598.72 410.393 599.117 409.94 599.23C409.373 599.57 408.07 599.74 406.03 599.74C403.877 599.74 402.63 599.627 402.29 599.4L401.61 598.72C401.497 598.607 400.533 585.063 398.72 558.09C397.02 530.437 396.17 516.893 396.17 517.46C396.17 517.347 394.583 520.01 391.41 525.45C388.123 531.23 382.06 541.94 373.22 557.58C357.693 584.78 349.817 598.493 349.59 598.72C348.91 599.4 347.21 599.74 344.49 599.74L341.43 599.57L340.92 599.06C340.58 598.72 340.41 598.267 340.41 597.7C340.297 597.473 339.107 579.567 336.84 543.98C334.687 508.733 333.497 490.94 333.27 490.6C333.157 490.373 332.817 490.147 332.25 489.92C330.21 489.58 327.377 489.41 323.75 489.41C321.257 489.41 319.783 489.013 319.33 488.22L319.16 487.71L320.01 484.31C320.463 482.157 320.917 480.853 321.37 480.4ZM505.027 480.06C505.254 479.947 506.274 479.89 508.087 479.89C521.8 480.457 536.08 480.513 550.927 480.06C554.554 479.947 556.594 480.287 557.047 481.08C557.274 481.42 557.104 482.723 556.537 484.99C555.97 487.143 555.574 488.447 555.347 488.9L554.837 489.41H548.887C543.22 489.523 539.934 489.807 539.027 490.26C538.347 490.487 537.894 491.053 537.667 491.96C537.1 493.32 535.4 499.723 532.567 511.17L527.637 530.89H551.437L575.237 530.72L580.337 510.83C583.624 497.683 585.267 490.94 585.267 490.6C585.267 490.487 585.154 490.317 584.927 490.09C584.474 489.863 581.414 489.637 575.747 489.41H569.967L569.287 488.73C568.947 488.39 568.777 488.05 568.777 487.71L570.647 480.74C570.987 480.173 572.46 479.947 575.067 480.06C575.52 480.06 576.427 480.06 577.787 480.06C587.08 480.513 598.867 480.57 613.147 480.23C614.507 480.117 615.64 480.06 616.547 480.06C620.514 479.947 622.724 480.287 623.177 481.08C623.404 481.42 623.234 482.723 622.667 484.99C622.1 487.143 621.704 488.447 621.477 488.9L620.967 489.41H615.017C609.35 489.523 606.064 489.807 605.157 490.26C604.59 490.487 604.25 490.827 604.137 491.28C603.457 492.98 599.434 508.563 592.067 538.03C584.247 569.31 580.28 585.007 580.167 585.12C580.054 585.573 580.564 585.857 581.697 585.97C583.057 586.197 585.72 586.367 589.687 586.48C593.88 586.48 596.204 586.877 596.657 587.67C596.77 588.01 596.6 589.313 596.147 591.58C595.58 593.733 595.07 595.037 594.617 595.49L594.107 596H591.387C579.034 595.433 564.754 595.377 548.547 595.83C544.807 595.943 542.71 595.603 542.257 594.81C542.144 594.47 542.314 593.167 542.767 590.9C543.447 588.633 543.9 587.33 544.127 586.99L544.807 586.48H550.587C556.934 586.367 560.504 585.913 561.297 585.12C561.637 584.893 563.677 577.413 567.417 562.68L572.857 540.58C572.857 540.467 564.924 540.41 549.057 540.41H525.257L519.647 562.85C515.907 577.923 514.094 585.517 514.207 585.63C514.434 585.857 514.83 585.97 515.397 585.97C516.757 586.31 520.157 586.48 525.597 586.48C528.43 586.48 530.074 586.877 530.527 587.67C530.64 588.123 530.47 589.427 530.017 591.58C529.45 593.733 528.94 595.037 528.487 595.49L527.977 596H525.257C512.904 595.433 498.624 595.377 482.417 595.83C478.677 595.943 476.58 595.603 476.127 594.81C476.014 594.47 476.184 593.167 476.637 590.9C477.317 588.633 477.77 587.33 477.997 586.99L478.677 586.48H484.457C490.804 586.367 494.374 585.913 495.167 585.12C495.507 584.893 499.587 569.14 507.407 537.86C515.227 506.58 519.137 490.827 519.137 490.6C519.137 490.487 519.024 490.317 518.797 490.09C518.344 489.863 515.284 489.637 509.617 489.41H503.837L503.157 488.73C502.817 488.39 502.647 488.05 502.647 487.71L504.517 480.74C504.517 480.627 504.687 480.4 505.027 480.06ZM690.846 476.32C693.68 476.093 697.363 476.15 701.896 476.49C711.643 477.85 719.69 481.817 726.036 488.39C732.27 494.623 736.18 502.613 737.766 512.36C740.26 527.093 737.37 542.053 729.096 557.24C727.51 560.073 725.753 562.85 723.826 565.57C717.366 574.863 709.546 582.4 700.366 588.18C694.246 592.147 688.183 595.037 682.176 596.85C666.423 601.723 652.653 600.533 640.866 593.28C638.486 591.807 636.276 590.107 634.236 588.18C627.436 581.493 623.186 572.71 621.486 561.83C621.033 558.203 620.976 553.613 621.316 548.06C621.43 547.607 621.486 547.21 621.486 546.87C623.526 531.343 630.1 517.063 641.206 504.03C644.38 500.403 647.78 497.003 651.406 493.83C663.986 483.403 677.133 477.567 690.846 476.32ZM698.496 485.16C695.663 484.707 692.773 484.593 689.826 484.82C682.46 485.727 675.716 488.56 669.596 493.32C660.643 500.12 653.786 509.583 649.026 521.71C645.513 530.437 643.02 540.24 641.546 551.12C641.093 555.54 641.036 560.3 641.376 565.4C641.49 565.853 641.546 566.193 641.546 566.42C643.246 577.187 648.006 584.553 655.826 588.52C663.42 592.373 672.146 591.92 682.006 587.16C694.7 580.927 704.503 569.197 711.416 551.97C715.383 541.77 717.933 531.57 719.066 521.37C719.52 517.63 719.52 513.663 719.066 509.47C719.066 509.243 719.066 509.017 719.066 508.79C717.82 501.537 715.326 496.04 711.586 492.3C707.96 488.56 703.596 486.18 698.496 485.16ZM776.305 480.06C776.531 479.947 786.505 479.89 806.225 479.89C826.851 480.003 838.128 480.23 840.055 480.57C840.281 480.683 840.791 480.797 841.585 480.91C852.011 482.837 859.548 487.313 864.195 494.34C866.801 498.193 868.048 502.387 867.935 506.92C867.821 510.093 866.971 513.323 865.385 516.61C863.798 519.783 861.588 522.73 858.755 525.45C853.201 531.003 845.551 535.48 835.805 538.88C835.691 538.88 835.861 539.05 836.315 539.39C836.541 539.617 836.768 539.787 836.995 539.9C840.961 542.62 843.738 546.247 845.325 550.78C846.345 553.953 846.628 558.373 846.175 564.04C846.061 565.287 845.891 566.873 845.665 568.8C845.098 574.693 844.815 579 844.815 581.72C844.928 585.913 845.721 588.747 847.195 590.22C848.215 591.127 849.745 591.58 851.785 591.58C853.031 591.58 853.938 591.467 854.505 591.24C855.865 590.673 857.225 589.597 858.585 588.01C860.058 585.857 861.191 583.647 861.985 581.38C862.551 579.567 863.231 578.547 864.025 578.32C864.478 578.207 865.328 578.15 866.575 578.15C868.728 578.15 870.031 578.433 870.485 579C871.278 579.907 870.711 582.287 868.785 586.14C865.385 593.28 860.738 597.643 854.845 599.23C853.938 599.457 852.238 599.57 849.745 599.57C846.798 599.57 844.871 599.513 843.965 599.4C832.971 597.927 826.341 593.393 824.075 585.8C823.395 583.533 823.281 580.983 823.735 578.15C824.301 575.317 825.095 571.86 826.115 567.78C827.248 563.247 828.041 559.847 828.495 557.58C829.061 554.52 828.608 551.517 827.135 548.57C826.568 547.55 825.831 546.587 824.925 545.68C822.998 543.867 820.618 542.677 817.785 542.11C817.331 541.997 813.478 541.94 806.225 541.94H795.685L795.515 542.62C795.515 542.507 793.701 549.703 790.075 564.21C786.561 578.377 784.861 585.517 784.975 585.63C785.201 585.857 785.598 585.97 786.165 585.97C787.525 586.31 790.925 586.48 796.365 586.48C799.198 586.48 800.841 586.877 801.295 587.67C801.408 588.123 801.238 589.427 800.785 591.58C800.218 593.733 799.708 595.037 799.255 595.49L798.745 596H796.195C783.841 595.433 769.675 595.377 753.695 595.83C749.955 595.943 747.858 595.603 747.405 594.81C747.291 594.47 747.461 593.167 747.915 590.9C748.595 588.633 749.048 587.33 749.275 586.99L749.955 586.48H755.735C762.081 586.367 765.651 585.913 766.445 585.12C766.785 584.893 770.865 569.14 778.685 537.86C786.505 506.58 790.415 490.827 790.415 490.6C790.415 490.487 790.301 490.317 790.075 490.09C789.621 489.863 786.561 489.637 780.895 489.41H775.115L774.435 488.73C774.095 488.39 773.925 488.05 773.925 487.71L775.795 480.74C775.795 480.627 775.965 480.4 776.305 480.06ZM833.935 489.75C833.255 489.637 829.288 489.523 822.035 489.41L810.815 489.58C809.681 489.693 808.945 490.033 808.605 490.6L797.725 533.95H809.115C817.388 533.837 821.921 533.723 822.715 533.61C833.028 532.137 839.885 527.943 843.285 521.03C845.098 517.29 846.571 512.417 847.705 506.41C848.158 503.463 848.158 500.97 847.705 498.93C846.345 493.943 841.755 490.883 833.935 489.75ZM904.619 480.74L905.129 480.4H952.729H1000.16L1000.84 480.91C1001.18 481.363 1001.35 481.817 1001.35 482.27L996.419 521.03C996.419 521.597 996.192 522.05 995.739 522.39L995.229 522.9H992.339C990.299 522.9 989.109 522.787 988.769 522.56C988.202 522.22 988.032 520.86 988.259 518.48C988.259 518.253 988.259 517.97 988.259 517.63C988.825 512.983 989.109 509.13 989.109 506.07C988.769 499.27 986.502 494.793 982.309 492.64C980.269 491.733 978.172 491.11 976.019 490.77C972.845 490.203 965.819 489.977 954.939 490.09C944.059 490.09 938.335 490.43 937.769 491.11L927.569 531.23H936.579C944.059 531.117 948.875 530.663 951.029 529.87C953.522 529.077 955.562 527.66 957.149 525.62C958.735 523.58 960.209 519.897 961.569 514.57C962.022 513.097 962.419 512.19 962.759 511.85L963.269 511.34H966.159C968.539 511.34 969.955 511.737 970.409 512.53C970.522 512.983 968.709 520.86 964.969 536.16C961.002 551.687 958.962 559.507 958.849 559.62C958.622 560.3 957.262 560.64 954.769 560.64H951.879L951.199 560.13C950.745 559.563 950.745 558.26 951.199 556.22C952.559 550.44 952.729 546.473 951.709 544.32C950.915 542.62 948.649 541.543 944.909 541.09C944.229 540.977 940.715 540.92 934.369 540.92L925.189 540.75L919.579 563.02C915.839 578.093 913.969 585.687 913.969 585.8C913.969 585.913 914.082 586.083 914.309 586.31H945.079C951.765 585.97 957.489 584.723 962.249 582.57C965.082 581.097 967.632 579.34 969.899 577.3C974.319 572.88 979.022 564.663 984.009 552.65C984.915 550.27 985.595 548.853 986.049 548.4L986.559 547.89H989.619H992.679L993.189 548.4C993.642 548.853 993.642 549.76 993.189 551.12C992.622 552.82 989.789 559.96 984.689 572.54C978.455 587.5 975.339 595.037 975.339 595.15C975.112 595.603 973.469 595.83 970.409 595.83C966.782 595.943 951.879 596 925.699 596C893.172 596 876.682 595.66 876.229 594.98C876.002 594.64 876.115 593.337 876.569 591.07C877.135 588.577 877.702 587.16 878.269 586.82C878.835 586.593 880.875 586.48 884.389 586.48C890.735 586.367 894.305 585.913 895.099 585.12C895.439 584.893 899.519 569.14 907.339 537.86C915.159 506.58 918.955 490.883 918.729 490.77C918.502 490.543 918.105 490.43 917.539 490.43C915.612 490.09 912.325 489.92 907.679 489.92C904.732 489.92 903.089 489.58 902.749 488.9C902.522 488.56 902.635 487.257 903.089 484.99C903.655 482.61 904.165 481.193 904.619 480.74Z" fill="#C40000"/>
<path d="M22.6229 746L14.7152 718.364H21.098L25.6726 737.566H25.902L30.9489 718.364H36.4141L41.4474 737.607H41.6903L46.2649 718.364H52.6477L44.7401 746H39.0455L33.7827 727.931H33.5668L28.3175 746H22.6229ZM79.6127 732.182C79.6127 735.196 79.0415 737.759 77.899 739.874C76.7654 741.988 75.2181 743.603 73.2569 744.718C71.3047 745.825 69.1097 746.378 66.6717 746.378C64.2157 746.378 62.0117 745.82 60.0595 744.705C58.1073 743.589 56.5645 741.974 55.4309 739.86C54.2974 737.746 53.7306 735.187 53.7306 732.182C53.7306 729.168 54.2974 726.604 55.4309 724.49C56.5645 722.376 58.1073 720.766 60.0595 719.659C62.0117 718.544 64.2157 717.986 66.6717 717.986C69.1097 717.986 71.3047 718.544 73.2569 719.659C75.2181 720.766 76.7654 722.376 77.899 724.49C79.0415 726.604 79.6127 729.168 79.6127 732.182ZM73.6887 732.182C73.6887 730.23 73.3964 728.583 72.8116 727.243C72.2359 725.902 71.4217 724.886 70.3691 724.193C69.3166 723.5 68.0841 723.154 66.6717 723.154C65.2593 723.154 64.0268 723.5 62.9743 724.193C61.9217 724.886 61.103 725.902 60.5183 727.243C59.9425 728.583 59.6547 730.23 59.6547 732.182C59.6547 734.134 59.9425 735.78 60.5183 737.121C61.103 738.461 61.9217 739.478 62.9743 740.17C64.0268 740.863 65.2593 741.21 66.6717 741.21C68.0841 741.21 69.3166 740.863 70.3691 740.17C71.4217 739.478 72.2359 738.461 72.8116 737.121C73.3964 735.78 73.6887 734.134 73.6887 732.182ZM83.9411 718.364H91.147L98.7578 736.932H99.0817L106.692 718.364H113.898V746H108.231V728.012H108.001L100.849 745.865H96.9901L89.8381 727.945H89.6087V746H83.9411V718.364ZM118.713 746V718.364H137.335V723.181H124.556V729.766H136.377V734.584H124.556V741.183H137.389V746H118.713ZM165.096 718.364V746H160.049L148.026 728.606H147.823V746H141.98V718.364H147.108L159.037 735.744H159.28V718.364H165.096Z" fill="white"/>
</svg>
