<svg width="904" height="646" viewBox="0 0 904 646" fill="none" xmlns="http://www.w3.org/2000/svg">
<path d="M0 129.322H231V198.593H0V129.322ZM90.5783 1L123.723 14.0593C103.735 136.703 75.9036 288.873 55.4096 387.102L24.5422 362.119C44.7831 269.568 72.6145 117.398 90.5783 1ZM161.422 163.39L194.819 180.424C174.578 416.627 127.771 498.958 18.2169 535.297C15.1807 514.288 8.3494 485.331 2.27711 467.729C103.735 441.61 144.723 372.907 161.422 163.39ZM41.241 350.763L61.7349 297.39C115.627 337.703 189.506 412.085 226.699 472.839L203.422 537C169.518 475.678 97.6627 396.186 41.241 350.763Z" fill="#FF0000"/>
<path d="M12.8963 7.18182H18.5852L24.5938 21.8409H24.8494L30.858 7.18182H36.5469V29H32.0724V14.799H31.8913L26.245 28.8935H23.1982L17.5518 14.7457H17.3707V29H12.8963V7.18182ZM44.9604 7.18182V29H40.3475V7.18182H44.9604ZM60.5916 13.4567C60.5064 12.5973 60.1406 11.9297 59.4943 11.4538C58.848 10.978 57.9709 10.7401 56.8629 10.7401C56.1101 10.7401 55.4744 10.8466 54.956 11.0597C54.4375 11.2656 54.0398 11.5533 53.7628 11.9226C53.4929 12.2919 53.358 12.7109 53.358 13.1797C53.3438 13.5703 53.4254 13.9112 53.603 14.2024C53.7876 14.4936 54.0398 14.7457 54.3594 14.9588C54.679 15.1648 55.0483 15.3459 55.4673 15.5021C55.8864 15.6513 56.3338 15.7791 56.8097 15.8857L58.7699 16.3544C59.7216 16.5675 60.5952 16.8516 61.3906 17.2067C62.1861 17.5618 62.875 17.9986 63.4574 18.517C64.0398 19.0355 64.4908 19.6463 64.8104 20.3494C65.1371 21.0526 65.304 21.8587 65.3111 22.7678C65.304 24.103 64.9631 25.2607 64.2884 26.2408C63.6207 27.2138 62.6548 27.9702 61.3906 28.5099C60.1335 29.0426 58.6172 29.3089 56.8416 29.3089C55.0803 29.3089 53.5462 29.0391 52.2393 28.4993C50.9396 27.9595 49.924 27.1605 49.1925 26.1023C48.468 25.0369 48.0881 23.7195 48.0526 22.1499H52.5163C52.5661 22.8814 52.7756 23.4922 53.1449 23.9822C53.5213 24.4652 54.022 24.831 54.647 25.0795C55.2791 25.321 55.9929 25.4418 56.7884 25.4418C57.5696 25.4418 58.2479 25.3281 58.8232 25.1009C59.4055 24.8736 59.8565 24.5575 60.1761 24.1527C60.4957 23.7479 60.6555 23.2827 60.6555 22.7571C60.6555 22.267 60.5099 21.8551 60.2188 21.5213C59.9347 21.1875 59.5156 20.9034 58.9616 20.669C58.4148 20.4347 57.7436 20.2216 56.9482 20.0298L54.5724 19.4332C52.733 18.9858 51.2805 18.2862 50.2152 17.3345C49.1499 16.3828 48.6207 15.1009 48.6278 13.4886C48.6207 12.1676 48.9723 11.0135 49.6825 10.0263C50.3999 9.03906 51.3835 8.26847 52.6335 7.71449C53.8835 7.16051 55.304 6.88352 56.8949 6.88352C58.5142 6.88352 59.9276 7.16051 61.1349 7.71449C62.3494 8.26847 63.294 9.03906 63.9688 10.0263C64.6435 11.0135 64.9915 12.157 65.0128 13.4567H60.5916ZM88.4636 18.0909C88.4636 20.4702 88.0126 22.4943 87.1106 24.1634C86.2157 25.8324 84.9941 27.1072 83.4458 27.9879C81.9047 28.8615 80.1717 29.2983 78.247 29.2983C76.3081 29.2983 74.568 28.858 73.0268 27.9773C71.4856 27.0966 70.2676 25.8217 69.3727 24.1527C68.4778 22.4837 68.0304 20.4631 68.0304 18.0909C68.0304 15.7116 68.4778 13.6875 69.3727 12.0185C70.2676 10.3494 71.4856 9.07812 73.0268 8.20455C74.568 7.32386 76.3081 6.88352 78.247 6.88352C80.1717 6.88352 81.9047 7.32386 83.4458 8.20455C84.9941 9.07812 86.2157 10.3494 87.1106 12.0185C88.0126 13.6875 88.4636 15.7116 88.4636 18.0909ZM83.7868 18.0909C83.7868 16.5497 83.5559 15.25 83.0943 14.1918C82.6397 13.1335 81.997 12.331 81.166 11.7841C80.335 11.2372 79.362 10.9638 78.247 10.9638C77.1319 10.9638 76.1589 11.2372 75.3279 11.7841C74.497 12.331 73.8507 13.1335 73.389 14.1918C72.9345 15.25 72.7072 16.5497 72.7072 18.0909C72.7072 19.6321 72.9345 20.9318 73.389 21.9901C73.8507 23.0483 74.497 23.8509 75.3279 24.3977C76.1589 24.9446 77.1319 25.218 78.247 25.218C79.362 25.218 80.335 24.9446 81.166 24.3977C81.997 23.8509 82.6397 23.0483 83.0943 21.9901C83.5559 20.9318 83.7868 19.6321 83.7868 18.0909ZM106.348 14.2344C106.199 13.7159 105.989 13.2578 105.719 12.8601C105.45 12.4553 105.119 12.1143 104.729 11.8374C104.345 11.5533 103.905 11.3366 103.408 11.1875C102.918 11.0384 102.374 10.9638 101.778 10.9638C100.663 10.9638 99.6825 11.2408 98.8374 11.7947C97.9993 12.3487 97.3459 13.1548 96.8771 14.2131C96.4084 15.2642 96.174 16.5497 96.174 18.0696C96.174 19.5895 96.4048 20.8821 96.8665 21.9474C97.3281 23.0128 97.9815 23.826 98.8267 24.3871C99.6719 24.9411 100.67 25.218 101.82 25.218C102.864 25.218 103.756 25.0334 104.494 24.6641C105.24 24.2876 105.808 23.7585 106.199 23.0767C106.597 22.3949 106.795 21.5888 106.795 20.6584L107.733 20.7969H102.108V17.3239H111.238V20.0724C111.238 21.9901 110.833 23.6378 110.023 25.0156C109.214 26.3864 108.099 27.4446 106.678 28.1903C105.258 28.929 103.631 29.2983 101.799 29.2983C99.7536 29.2983 97.9567 28.8473 96.4084 27.9453C94.8601 27.0362 93.6527 25.7472 92.7862 24.0781C91.9268 22.402 91.4972 20.4134 91.4972 18.1122C91.4972 16.3437 91.7528 14.767 92.2642 13.3821C92.7827 11.9901 93.5071 10.8111 94.4375 9.84517C95.3679 8.87926 96.451 8.14418 97.6868 7.63991C98.9226 7.13565 100.261 6.88352 101.703 6.88352C102.939 6.88352 104.089 7.06463 105.155 7.42685C106.22 7.78196 107.165 8.28622 107.989 8.93963C108.82 9.59304 109.498 10.3707 110.023 11.2727C110.549 12.1676 110.886 13.1548 111.036 14.2344H106.348ZM112.546 7.18182H117.713L122.688 16.5781H122.901L127.876 7.18182H133.043L125.085 21.2869V29H120.504V21.2869L112.546 7.18182ZM153.812 7.18182V29H149.827L140.335 15.2678H140.175V29H135.562V7.18182H139.611L149.028 20.9034H149.22V7.18182H153.812ZM156.344 7.18182H161.511L166.487 16.5781H166.7L171.675 7.18182H176.842L168.884 21.2869V29H164.303V21.2869L156.344 7.18182ZM190.917 7.18182V29H186.305V7.18182H190.917ZM212.962 7.18182V29H208.978L199.485 15.2678H199.326V29H194.713V7.18182H198.761L208.179 20.9034H208.37V7.18182H212.962ZM32.147 50.8203H27.4808C27.3956 50.2166 27.2216 49.6804 26.9588 49.2116C26.696 48.7358 26.3587 48.331 25.9467 47.9972C25.5348 47.6634 25.0589 47.4077 24.5192 47.2301C23.9865 47.0526 23.4077 46.9638 22.7827 46.9638C21.6534 46.9638 20.6697 47.2443 19.8317 47.8054C18.9936 48.3594 18.3438 49.169 17.8821 50.2344C17.4205 51.2926 17.1896 52.5781 17.1896 54.0909C17.1896 55.6463 17.4205 56.9531 17.8821 58.0114C18.3509 59.0696 19.0043 59.8686 19.8423 60.4084C20.6804 60.9482 21.6499 61.218 22.7507 61.218C23.3686 61.218 23.9403 61.1364 24.4659 60.973C24.9986 60.8097 25.4709 60.5717 25.8828 60.2592C26.2947 59.9396 26.6357 59.5526 26.9055 59.098C27.1825 58.6435 27.3743 58.125 27.4808 57.5426L32.147 57.5639C32.0263 58.5653 31.7244 59.5312 31.2415 60.4616C30.7656 61.3849 30.1229 62.2124 29.3132 62.9439C28.5107 63.6683 27.5518 64.2436 26.4368 64.6697C25.3288 65.0888 24.0753 65.2983 22.6761 65.2983C20.7301 65.2983 18.9901 64.858 17.456 63.9773C15.929 63.0966 14.7216 61.8217 13.8338 60.1527C12.9531 58.4837 12.5128 56.4631 12.5128 54.0909C12.5128 51.7116 12.9602 49.6875 13.8551 48.0185C14.75 46.3494 15.9645 45.0781 17.4986 44.2045C19.0327 43.3239 20.7585 42.8835 22.6761 42.8835C23.9403 42.8835 25.1122 43.0611 26.1918 43.4162C27.2784 43.7713 28.2408 44.2898 29.0788 44.9716C29.9169 45.6463 30.5987 46.4737 31.1243 47.4538C31.657 48.4339 31.9979 49.5561 32.147 50.8203ZM35.4549 65V43.1818H40.0678V52.1839H49.4322V43.1818H54.0344V65H49.4322V55.9872H40.0678V65H35.4549ZM62.4506 43.1818V65H57.8377V43.1818H62.4506ZM84.4952 43.1818V65H80.5108L71.0186 51.2678H70.8588V65H66.2459V43.1818H70.2942L79.7118 56.9034H79.9036V43.1818H84.4952ZM88.3065 65V43.1818H103.008V46.9851H92.9194V52.1839H102.252V55.9872H92.9194V61.1967H103.051V65H88.3065ZM118.512 49.4567C118.426 48.5973 118.061 47.9297 117.414 47.4538C116.768 46.978 115.891 46.7401 114.783 46.7401C114.03 46.7401 113.394 46.8466 112.876 47.0597C112.357 47.2656 111.96 47.5533 111.683 47.9226C111.413 48.2919 111.278 48.7109 111.278 49.1797C111.264 49.5703 111.345 49.9112 111.523 50.2024C111.708 50.4936 111.96 50.7457 112.279 50.9588C112.599 51.1648 112.968 51.3459 113.387 51.5021C113.806 51.6513 114.254 51.7791 114.73 51.8857L116.69 52.3544C117.642 52.5675 118.515 52.8516 119.311 53.2067C120.106 53.5618 120.795 53.9986 121.377 54.517C121.96 55.0355 122.411 55.6463 122.73 56.3494C123.057 57.0526 123.224 57.8587 123.231 58.7678C123.224 60.103 122.883 61.2607 122.208 62.2408C121.541 63.2138 120.575 63.9702 119.311 64.5099C118.053 65.0426 116.537 65.3089 114.762 65.3089C113 65.3089 111.466 65.0391 110.159 64.4993C108.86 63.9595 107.844 63.1605 107.112 62.1023C106.388 61.0369 106.008 59.7195 105.972 58.1499H110.436C110.486 58.8814 110.695 59.4922 111.065 59.9822C111.441 60.4652 111.942 60.831 112.567 61.0795C113.199 61.321 113.913 61.4418 114.708 61.4418C115.49 61.4418 116.168 61.3281 116.743 61.1009C117.325 60.8736 117.776 60.5575 118.096 60.1527C118.416 59.7479 118.575 59.2827 118.575 58.7571C118.575 58.267 118.43 57.8551 118.139 57.5213C117.855 57.1875 117.436 56.9034 116.882 56.669C116.335 56.4347 115.664 56.2216 114.868 56.0298L112.492 55.4332C110.653 54.9858 109.2 54.2862 108.135 53.3345C107.07 52.3828 106.541 51.1009 106.548 49.4886C106.541 48.1676 106.892 47.0135 107.602 46.0263C108.32 45.0391 109.303 44.2685 110.553 43.7145C111.803 43.1605 113.224 42.8835 114.815 42.8835C116.434 42.8835 117.847 43.1605 119.055 43.7145C120.269 44.2685 121.214 45.0391 121.889 46.0263C122.563 47.0135 122.911 48.157 122.933 49.4567H118.512ZM126.334 65V43.1818H141.036V46.9851H130.947V52.1839H140.279V55.9872H130.947V61.1967H141.078V65H126.334ZM32.147 86.8203H27.4808C27.3956 86.2166 27.2216 85.6804 26.9588 85.2116C26.696 84.7358 26.3587 84.331 25.9467 83.9972C25.5348 83.6634 25.0589 83.4077 24.5192 83.2301C23.9865 83.0526 23.4077 82.9638 22.7827 82.9638C21.6534 82.9638 20.6697 83.2443 19.8317 83.8054C18.9936 84.3594 18.3438 85.169 17.8821 86.2344C17.4205 87.2926 17.1896 88.5781 17.1896 90.0909C17.1896 91.6463 17.4205 92.9531 17.8821 94.0114C18.3509 95.0696 19.0043 95.8686 19.8423 96.4084C20.6804 96.9482 21.6499 97.218 22.7507 97.218C23.3686 97.218 23.9403 97.1364 24.4659 96.973C24.9986 96.8097 25.4709 96.5717 25.8828 96.2592C26.2947 95.9396 26.6357 95.5526 26.9055 95.098C27.1825 94.6435 27.3743 94.125 27.4808 93.5426L32.147 93.5639C32.0263 94.5653 31.7244 95.5312 31.2415 96.4616C30.7656 97.3849 30.1229 98.2124 29.3132 98.9439C28.5107 99.6683 27.5518 100.244 26.4368 100.67C25.3288 101.089 24.0753 101.298 22.6761 101.298C20.7301 101.298 18.9901 100.858 17.456 99.9773C15.929 99.0966 14.7216 97.8217 13.8338 96.1527C12.9531 94.4837 12.5128 92.4631 12.5128 90.0909C12.5128 87.7116 12.9602 85.6875 13.8551 84.0185C14.75 82.3494 15.9645 81.0781 17.4986 80.2045C19.0327 79.3239 20.7585 78.8835 22.6761 78.8835C23.9403 78.8835 25.1122 79.0611 26.1918 79.4162C27.2784 79.7713 28.2408 80.2898 29.0788 80.9716C29.9169 81.6463 30.5987 82.4737 31.1243 83.4538C31.657 84.4339 31.9979 85.5561 32.147 86.8203ZM35.4549 101V79.1818H40.0678V88.1839H49.4322V79.1818H54.0344V101H49.4322V91.9872H40.0678V101H35.4549ZM61.5984 101H56.6552L64.1871 79.1818H70.1317L77.6531 101H72.7099L67.2447 84.1676H67.0742L61.5984 101ZM61.2894 92.424H72.9656V96.0249H61.2894V92.424ZM80.2791 101V79.1818H88.8871C90.5348 79.1818 91.9411 79.4766 93.1058 80.0661C94.2777 80.6484 95.169 81.4759 95.7798 82.5483C96.3977 83.6136 96.7067 84.8672 96.7067 86.3089C96.7067 87.7578 96.3942 89.0043 95.7692 90.0483C95.1442 91.0852 94.2386 91.8807 93.0526 92.4347C91.8736 92.9886 90.446 93.2656 88.7699 93.2656H83.0064V89.5582H88.0241C88.9048 89.5582 89.6364 89.4375 90.2188 89.196C90.8011 88.9545 91.2344 88.5923 91.5185 88.1094C91.8097 87.6264 91.9553 87.0263 91.9553 86.3089C91.9553 85.5845 91.8097 84.9737 91.5185 84.4766C91.2344 83.9794 90.7976 83.603 90.2081 83.3473C89.6257 83.0845 88.8906 82.9531 88.0028 82.9531H84.892V101H80.2791ZM92.0618 91.071L97.4844 101H92.392L87.0866 91.071H92.0618ZM103.727 101H98.7841L106.316 79.1818H112.261L119.782 101H114.839L109.374 84.1676H109.203L103.727 101ZM103.418 92.424H115.094V96.0249H103.418V92.424ZM140.633 86.8203H135.967C135.882 86.2166 135.708 85.6804 135.445 85.2116C135.182 84.7358 134.845 84.331 134.433 83.9972C134.021 83.6634 133.545 83.4077 133.006 83.2301C132.473 83.0526 131.894 82.9638 131.269 82.9638C130.14 82.9638 129.156 83.2443 128.318 83.8054C127.48 84.3594 126.83 85.169 126.368 86.2344C125.907 87.2926 125.676 88.5781 125.676 90.0909C125.676 91.6463 125.907 92.9531 126.368 94.0114C126.837 95.0696 127.491 95.8686 128.329 96.4084C129.167 96.9482 130.136 97.218 131.237 97.218C131.855 97.218 132.427 97.1364 132.952 96.973C133.485 96.8097 133.957 96.5717 134.369 96.2592C134.781 95.9396 135.122 95.5526 135.392 95.098C135.669 94.6435 135.861 94.125 135.967 93.5426L140.633 93.5639C140.513 94.5653 140.211 95.5312 139.728 96.4616C139.252 97.3849 138.609 98.2124 137.8 98.9439C136.997 99.6683 136.038 100.244 134.923 100.67C133.815 101.089 132.562 101.298 131.162 101.298C129.216 101.298 127.476 100.858 125.942 99.9773C124.415 99.0966 123.208 97.8217 122.32 96.1527C121.439 94.4837 120.999 92.4631 120.999 90.0909C120.999 87.7116 121.447 85.6875 122.341 84.0185C123.236 82.3494 124.451 81.0781 125.985 80.2045C127.519 79.3239 129.245 78.8835 131.162 78.8835C132.427 78.8835 133.599 79.0611 134.678 79.4162C135.765 79.7713 136.727 80.2898 137.565 80.9716C138.403 81.6463 139.085 82.4737 139.611 83.4538C140.143 84.4339 140.484 85.5561 140.633 86.8203ZM143.11 82.9851V79.1818H161.029V82.9851H154.35V101H149.79V82.9851H143.11ZM163.98 101V79.1818H178.682V82.9851H168.593V88.1839H177.926V91.9872H168.593V97.1967H178.725V101H163.98ZM182.349 101V79.1818H190.957C192.605 79.1818 194.011 79.4766 195.176 80.0661C196.348 80.6484 197.239 81.4759 197.85 82.5483C198.468 83.6136 198.777 84.8672 198.777 86.3089C198.777 87.7578 198.464 89.0043 197.839 90.0483C197.214 91.0852 196.309 91.8807 195.123 92.4347C193.944 92.9886 192.516 93.2656 190.84 93.2656H185.077V89.5582H190.094C190.975 89.5582 191.707 89.4375 192.289 89.196C192.871 88.9545 193.305 88.5923 193.589 88.1094C193.88 87.6264 194.026 87.0263 194.026 86.3089C194.026 85.5845 193.88 84.9737 193.589 84.4766C193.305 83.9794 192.868 83.603 192.278 83.3473C191.696 83.0845 190.961 82.9531 190.073 82.9531H186.962V101H182.349ZM194.132 91.071L199.555 101H194.462L189.157 91.071H194.132ZM213.873 85.4567C213.788 84.5973 213.422 83.9297 212.776 83.4538C212.129 82.978 211.252 82.7401 210.144 82.7401C209.391 82.7401 208.756 82.8466 208.237 83.0597C207.719 83.2656 207.321 83.5533 207.044 83.9226C206.774 84.2919 206.639 84.7109 206.639 85.1797C206.625 85.5703 206.707 85.9112 206.884 86.2024C207.069 86.4936 207.321 86.7457 207.641 86.9588C207.96 87.1648 208.33 87.3459 208.749 87.5021C209.168 87.6513 209.615 87.7791 210.091 87.8857L212.051 88.3544C213.003 88.5675 213.876 88.8516 214.672 89.2067C215.467 89.5618 216.156 89.9986 216.739 90.517C217.321 91.0355 217.772 91.6463 218.092 92.3494C218.418 93.0526 218.585 93.8587 218.592 94.7678C218.585 96.103 218.244 97.2607 217.57 98.2408C216.902 99.2138 215.936 99.9702 214.672 100.51C213.415 101.043 211.898 101.309 210.123 101.309C208.362 101.309 206.827 101.039 205.521 100.499C204.221 99.9595 203.205 99.1605 202.474 98.1023C201.749 97.0369 201.369 95.7195 201.334 94.1499H205.798C205.847 94.8814 206.057 95.4922 206.426 95.9822C206.803 96.4652 207.303 96.831 207.928 97.0795C208.56 97.321 209.274 97.4418 210.07 97.4418C210.851 97.4418 211.529 97.3281 212.104 97.1009C212.687 96.8736 213.138 96.5575 213.457 96.1527C213.777 95.7479 213.937 95.2827 213.937 94.7571C213.937 94.267 213.791 93.8551 213.5 93.5213C213.216 93.1875 212.797 92.9034 212.243 92.669C211.696 92.4347 211.025 92.2216 210.229 92.0298L207.854 91.4332C206.014 90.9858 204.562 90.2862 203.496 89.3345C202.431 88.3828 201.902 87.1009 201.909 85.4886C201.902 84.1676 202.254 83.0135 202.964 82.0263C203.681 81.0391 204.665 80.2685 205.915 79.7145C207.165 79.1605 208.585 78.8835 210.176 78.8835C211.795 78.8835 213.209 79.1605 214.416 79.7145C215.631 80.2685 216.575 81.0391 217.25 82.0263C217.925 83.0135 218.273 84.157 218.294 85.4567H213.873Z" fill="white"/>
<path d="M18.9421 586L11.6587 560.545H17.5376L21.7511 578.232H21.9624L26.6108 560.545H31.6445L36.2805 578.269H36.5043L40.7177 560.545H46.5966L39.3132 586H34.0682L29.2209 569.358H29.022L24.1871 586H18.9421ZM71.4328 573.273C71.4328 576.049 70.9066 578.41 69.8543 580.357C68.8103 582.304 67.3851 583.792 65.5787 584.819C63.7807 585.838 61.7589 586.348 59.5134 586.348C57.2513 586.348 55.2213 585.834 53.4232 584.807C51.6251 583.779 50.2041 582.292 49.1601 580.345C48.116 578.398 47.594 576.04 47.594 573.273C47.594 570.497 48.116 568.135 49.1601 566.188C50.2041 564.241 51.6251 562.758 53.4232 561.739C55.2213 560.711 57.2513 560.197 59.5134 560.197C61.7589 560.197 63.7807 560.711 65.5787 561.739C67.3851 562.758 68.8103 564.241 69.8543 566.188C70.9066 568.135 71.4328 570.497 71.4328 573.273ZM65.9765 573.273C65.9765 571.475 65.7072 569.958 65.1686 568.724C64.6383 567.489 63.8884 566.553 62.9189 565.915C61.9495 565.277 60.8143 564.958 59.5134 564.958C58.2125 564.958 57.0773 565.277 56.1079 565.915C55.1384 566.553 54.3844 567.489 53.8458 568.724C53.3155 569.958 53.0503 571.475 53.0503 573.273C53.0503 575.071 53.3155 576.587 53.8458 577.822C54.3844 579.056 55.1384 579.993 56.1079 580.631C57.0773 581.269 58.2125 581.588 59.5134 581.588C60.8143 581.588 61.9495 581.269 62.9189 580.631C63.8884 579.993 64.6383 579.056 65.1686 577.822C65.7072 576.587 65.9765 575.071 65.9765 573.273ZM75.4194 560.545H82.0565L89.0664 577.648H89.3647L96.3746 560.545H103.012V586H97.7915V569.432H97.5803L90.9929 585.876H87.4382L80.8509 569.37H80.6396V586H75.4194V560.545ZM107.446 586V560.545H124.598V564.983H112.828V571.048H123.715V575.485H112.828V581.563H124.647V586H107.446ZM150.167 560.545V586H145.519L134.445 569.979H134.258V586H128.876V560.545H133.599L144.587 576.554H144.81V560.545H150.167Z" fill="white"/>
<path fill-rule="evenodd" clip-rule="evenodd" d="M534.094 12.7143H256.906V521.286H534.094V12.7143ZM231 0V534H560V0H231Z" fill="#FF0000"/>
<path d="M408.397 231.781C424.962 340.436 461.461 414.806 528 443.288C520.139 457.002 510.032 484.957 505.259 502.89C433.666 464.914 397.729 379.467 376.391 244.968L408.397 231.781ZM266.896 205.936H521.823V270.813H266.896V205.936ZM473.814 15L501.328 71.437C442.369 97.8095 360.95 107.831 292.445 108.886C291.603 91.4801 287.11 63.5253 283.461 48.2293C350.842 46.1195 427.489 35.5705 473.814 15ZM376.672 88.8428H413.17C410.363 269.758 405.59 429.575 282.618 505C278.407 487.067 269.142 462.277 261 448.563C375.549 384.214 374.145 249.187 376.672 88.8428Z" fill="white"/>
<path d="M412.065 221.985V218.182H429.984V221.985H423.305V240H418.745V221.985H412.065ZM432.935 240V218.182H447.637V221.985H437.548V227.184H446.881V230.987H437.548V236.197H447.68V240H432.935ZM469.554 218.182V240H465.569L456.077 226.268H455.917V240H451.305V218.182H455.353L464.77 231.903H464.962V218.182H469.554ZM481.099 240H473.365V218.182H481.163C483.358 218.182 485.247 218.619 486.831 219.492C488.415 220.359 489.633 221.605 490.485 223.232C491.344 224.858 491.774 226.804 491.774 229.07C491.774 231.342 491.344 233.295 490.485 234.929C489.633 236.562 488.408 237.816 486.81 238.69C485.219 239.563 483.315 240 481.099 240ZM477.978 236.048H480.908C482.271 236.048 483.418 235.806 484.349 235.323C485.286 234.833 485.989 234.077 486.458 233.054C486.934 232.024 487.172 230.696 487.172 229.07C487.172 227.457 486.934 226.14 486.458 225.117C485.989 224.094 485.29 223.342 484.359 222.859C483.429 222.376 482.282 222.134 480.918 222.134H477.978V236.048ZM495.191 240V218.182H509.893V221.985H499.804V227.184H509.137V230.987H499.804V236.197H509.936V240H495.191ZM513.56 240V218.182H522.168C523.816 218.182 525.222 218.477 526.387 219.066C527.559 219.648 528.45 220.476 529.061 221.548C529.679 222.614 529.988 223.867 529.988 225.309C529.988 226.758 529.675 228.004 529.05 229.048C528.425 230.085 527.52 230.881 526.334 231.435C525.155 231.989 523.727 232.266 522.051 232.266H516.288V228.558H521.305C522.186 228.558 522.918 228.437 523.5 228.196C524.082 227.955 524.516 227.592 524.8 227.109C525.091 226.626 525.237 226.026 525.237 225.309C525.237 224.585 525.091 223.974 524.8 223.477C524.516 222.979 524.079 222.603 523.489 222.347C522.907 222.085 522.172 221.953 521.284 221.953H518.173V240H513.56ZM525.343 230.071L530.766 240H525.673L520.368 230.071H525.343Z" fill="black"/>
<path d="M93.88 265.16C94.04 265.08 102.08 265.04 118 265.04C134.4 265.12 143.16 265.28 144.28 265.52C144.36 265.52 144.8 265.64 145.6 265.88C148.88 266.6 151.68 267.8 154 269.48C161.52 274.52 165.64 282.12 166.36 292.28C166.52 293.64 166.56 295.04 166.48 296.48C166.08 308.16 161.8 318.88 153.64 328.64C151.72 331.04 149.4 333.4 146.68 335.72C139.16 341.8 131.2 345.48 122.8 346.76C122 346.84 113.72 346.92 97.96 347C82.12 347 74 346.76 73.6 346.28C73.44 346.04 73.52 345.12 73.84 343.52C74.24 341.76 74.64 340.76 75.04 340.52C75.44 340.36 76.88 340.28 79.36 340.28C83.84 340.2 86.36 339.88 86.92 339.32C87.16 339.16 90.04 328.04 95.56 305.96C101.08 283.88 103.84 272.76 103.84 272.6C103.84 272.52 103.76 272.4 103.6 272.24C103.28 272.08 101.12 271.92 97.12 271.76H93.04L92.56 271.28C92.24 270.96 92.28 269.92 92.68 268.16C93.16 266.32 93.56 265.32 93.88 265.16ZM136 271.88H118.24C117.44 271.96 116.92 272.2 116.68 272.6L99.88 339.8C99.88 339.96 100.04 340.08 100.36 340.16L119.8 340.04C119.96 340.04 120.08 340.04 120.16 340.04C125.6 339.32 130.32 337.6 134.32 334.88C135.92 333.84 137.52 332.52 139.12 330.92C143.6 326.44 147.12 319.64 149.68 310.52C151.28 304.76 152.36 299.88 152.92 295.88C153.4 292.12 153.4 288.92 152.92 286.28C152.2 282.6 150.72 279.56 148.48 277.16C145.28 274.12 141.12 272.36 136 271.88ZM192.775 265.64L193.135 265.4H226.735H260.215L260.695 265.76C260.935 266.08 261.055 266.4 261.055 266.72L257.575 294.08C257.575 294.48 257.415 294.8 257.095 295.04L256.735 295.4H254.695C253.255 295.4 252.415 295.32 252.175 295.16C251.775 294.92 251.655 293.96 251.815 292.28C251.815 292.12 251.815 291.92 251.815 291.68C252.215 288.4 252.415 285.68 252.415 283.52C252.175 278.72 250.575 275.56 247.615 274.04C246.175 273.4 244.695 272.96 243.175 272.72C240.935 272.32 235.975 272.16 228.295 272.24C220.615 272.24 216.575 272.48 216.175 272.96L208.975 301.28H215.335C220.615 301.2 224.015 300.88 225.535 300.32C227.295 299.76 228.735 298.76 229.855 297.32C230.975 295.88 232.015 293.28 232.975 289.52C233.295 288.48 233.575 287.84 233.815 287.6L234.175 287.24H236.215C237.895 287.24 238.895 287.52 239.215 288.08C239.295 288.4 238.015 293.96 235.375 304.76C232.575 315.72 231.135 321.24 231.055 321.32C230.895 321.8 229.935 322.04 228.175 322.04H226.135L225.655 321.68C225.335 321.28 225.335 320.36 225.655 318.92C226.615 314.84 226.735 312.04 226.015 310.52C225.455 309.32 223.855 308.56 221.215 308.24C220.735 308.16 218.255 308.12 213.775 308.12L207.295 308L203.335 323.72C200.695 334.36 199.375 339.72 199.375 339.8C199.375 339.88 199.455 340 199.615 340.16H221.335C226.055 339.92 230.095 339.04 233.455 337.52C235.455 336.48 237.255 335.24 238.855 333.8C241.975 330.68 245.295 324.88 248.815 316.4C249.455 314.72 249.935 313.72 250.255 313.4L250.615 313.04H252.775H254.935L255.295 313.4C255.615 313.72 255.615 314.36 255.295 315.32C254.895 316.52 252.895 321.56 249.295 330.44C244.895 341 242.695 346.32 242.695 346.4C242.535 346.72 241.375 346.88 239.215 346.88C236.655 346.96 226.135 347 207.655 347C184.695 347 173.055 346.76 172.735 346.28C172.575 346.04 172.655 345.12 172.975 343.52C173.375 341.76 173.775 340.76 174.175 340.52C174.575 340.36 176.015 340.28 178.495 340.28C182.975 340.2 185.495 339.88 186.055 339.32C186.295 339.16 189.175 328.04 194.695 305.96C200.215 283.88 202.895 272.8 202.735 272.72C202.575 272.56 202.295 272.48 201.895 272.48C200.535 272.24 198.215 272.12 194.935 272.12C192.855 272.12 191.695 271.88 191.455 271.4C191.295 271.16 191.375 270.24 191.695 268.64C192.095 266.96 192.455 265.96 192.775 265.64ZM265.409 265.28L265.769 265.04H267.449C274.969 265.44 284.169 265.48 295.049 265.16C297.689 265.08 299.169 265.32 299.489 265.88C299.649 266.12 299.529 267.04 299.129 268.64C298.649 270.4 298.249 271.36 297.929 271.52C297.689 271.6 296.769 271.68 295.169 271.76C293.249 271.92 291.969 272 291.329 272C289.649 272.32 288.649 272.6 288.329 272.84C288.249 272.92 289.249 282.48 291.329 301.52C293.409 320.64 294.489 330.32 294.569 330.56C294.569 330.64 294.689 330.52 294.929 330.2C295.649 329.16 301.089 320.36 311.249 303.8C322.529 285.08 328.129 275.84 328.049 276.08C328.369 275.28 328.489 274.64 328.409 274.16C328.009 272.8 326.249 272 323.129 271.76C321.929 271.76 321.169 271.48 320.849 270.92C320.769 270.68 320.889 269.76 321.209 268.16C321.609 266.64 321.969 265.72 322.289 265.4L322.649 265.04H324.089C330.729 265.36 336.929 265.44 342.689 265.28L348.569 265.04H349.409L349.769 265.4C350.089 265.72 350.249 266.04 350.249 266.36C350.249 267.64 349.849 269.2 349.049 271.04C348.889 271.52 348.009 271.76 346.409 271.76C342.409 272 339.289 272.92 337.049 274.52C336.409 275.08 335.649 275.92 334.769 277.04C334.209 277.84 326.849 289.84 312.689 313.04C298.209 336.72 290.929 348.6 290.849 348.68C290.849 348.76 290.529 349 289.889 349.4C289.489 349.56 288.409 349.64 286.649 349.64C284.969 349.64 283.929 349.52 283.529 349.28C283.289 349.04 283.169 348.84 283.169 348.68C283.169 348.2 281.729 335.52 278.849 310.64C276.129 285.36 274.689 272.64 274.529 272.48C274.449 272.4 274.169 272.28 273.689 272.12C272.729 271.88 270.569 271.76 267.209 271.76C265.289 271.76 264.249 271.52 264.089 271.04C263.929 270.8 264.009 269.88 264.329 268.28C264.729 266.6 265.089 265.6 265.409 265.28ZM350.85 265.28C351.09 265.12 351.77 265.04 352.89 265.04C360.33 265.36 368.61 265.44 377.73 265.28L386.85 265.04H388.17L388.53 265.4C388.85 265.72 389.01 266.04 389.01 266.36C389.01 267.64 388.61 269.2 387.81 271.04C387.65 271.52 386.49 271.76 384.33 271.76C383.93 271.76 383.45 271.76 382.89 271.76C378.17 271.84 375.53 272.16 374.97 272.72L374.49 273.08L366.33 306.2C360.81 328.12 358.05 339.2 358.05 339.44C357.97 339.68 358.33 339.84 359.13 339.92C360.17 340.08 362.17 340.2 365.13 340.28C368.17 340.28 369.85 340.56 370.17 341.12C370.25 341.36 370.13 342.28 369.81 343.88C369.41 345.4 369.05 346.32 368.73 346.64L368.37 347H366.45C357.25 346.6 346.81 346.56 335.13 346.88C332.41 346.96 330.89 346.72 330.57 346.16C330.49 345.92 330.61 345 330.93 343.4C331.41 341.8 331.73 340.88 331.89 340.64L332.37 340.28H336.57C340.81 340.2 343.33 339.96 344.13 339.56C344.37 339.48 344.65 339.28 344.97 338.96L361.53 272.6C361.53 272.52 361.45 272.4 361.29 272.24C360.65 272 358.41 271.84 354.57 271.76C351.45 271.76 349.77 271.52 349.53 271.04C349.37 270.8 349.45 269.88 349.77 268.28C350.17 266.6 350.53 265.6 350.85 265.28ZM404.421 265.16C404.581 265.08 405.221 265.04 406.341 265.04C412.581 265.36 421.021 265.44 431.661 265.28C438.701 265.12 442.181 265.04 442.101 265.04H443.541L443.901 265.4C444.301 265.8 444.341 266.72 444.021 268.16C444.021 268.32 443.981 268.48 443.901 268.64C443.501 270.4 443.141 271.36 442.821 271.52C442.581 271.68 441.341 271.76 439.101 271.76C434.381 271.76 431.301 271.88 429.861 272.12C428.581 272.28 427.781 272.6 427.461 273.08L410.781 339.8C410.781 339.96 410.941 340.08 411.261 340.16H419.301C425.221 340.16 429.101 339.92 430.941 339.44C431.101 339.44 431.261 339.4 431.421 339.32C436.861 338.04 441.341 335.2 444.861 330.8C447.101 328 449.501 323.16 452.061 316.28C452.781 314.36 453.261 313.36 453.501 313.28C454.061 312.88 455.381 312.84 457.461 313.16C457.781 313.16 457.981 313.2 458.061 313.28C458.541 313.44 458.781 313.8 458.781 314.36L447.381 346.4C447.221 346.72 446.181 346.88 444.261 346.88C441.861 346.96 432.341 347 415.701 347C395.141 347 384.741 346.92 384.501 346.76C384.261 346.52 384.101 346.32 384.021 346.16C383.941 345.84 384.061 344.92 384.381 343.4C384.861 341.8 385.181 340.88 385.341 340.64L385.821 340.28H389.901C394.381 340.2 396.901 339.88 397.461 339.32C397.701 339.16 400.581 328.04 406.101 305.96C411.621 283.88 414.381 272.76 414.381 272.6C414.381 272.52 414.301 272.4 414.141 272.24C413.821 272.08 411.661 271.92 407.661 271.76H403.581L403.221 271.4C402.741 271.08 402.741 269.96 403.221 268.04C403.621 266.36 404.021 265.4 404.421 265.16Z" fill="#C40000"/>
<path d="M254.88 364.16C255.04 364.08 263.08 364.04 279 364.04C295.4 364.12 304.16 364.28 305.28 364.52C305.36 364.52 305.8 364.64 306.6 364.88C309.88 365.6 312.68 366.8 315 368.48C322.52 373.52 326.64 381.12 327.36 391.28C327.52 392.64 327.56 394.04 327.48 395.48C327.08 407.16 322.8 417.88 314.64 427.64C312.72 430.04 310.4 432.4 307.68 434.72C300.16 440.8 292.2 444.48 283.8 445.76C283 445.84 274.72 445.92 258.96 446C243.12 446 235 445.76 234.6 445.28C234.44 445.04 234.52 444.12 234.84 442.52C235.24 440.76 235.64 439.76 236.04 439.52C236.44 439.36 237.88 439.28 240.36 439.28C244.84 439.2 247.36 438.88 247.92 438.32C248.16 438.16 251.04 427.04 256.56 404.96C262.08 382.88 264.84 371.76 264.84 371.6C264.84 371.52 264.76 371.4 264.6 371.24C264.28 371.08 262.12 370.92 258.12 370.76H254.04L253.56 370.28C253.24 369.96 253.28 368.92 253.68 367.16C254.16 365.32 254.56 364.32 254.88 364.16ZM297 370.88H279.24C278.44 370.96 277.92 371.2 277.68 371.6L260.88 438.8C260.88 438.96 261.04 439.08 261.36 439.16L280.8 439.04C280.96 439.04 281.08 439.04 281.16 439.04C286.6 438.32 291.32 436.6 295.32 433.88C296.92 432.84 298.52 431.52 300.12 429.92C304.6 425.44 308.12 418.64 310.68 409.52C312.28 403.76 313.36 398.88 313.92 394.88C314.4 391.12 314.4 387.92 313.92 385.28C313.2 381.6 311.72 378.56 309.48 376.16C306.28 373.12 302.12 371.36 297 370.88ZM353.775 364.64L354.135 364.4H387.735H421.215L421.695 364.76C421.935 365.08 422.055 365.4 422.055 365.72L418.575 393.08C418.575 393.48 418.415 393.8 418.095 394.04L417.735 394.4H415.695C414.255 394.4 413.415 394.32 413.175 394.16C412.775 393.92 412.655 392.96 412.815 391.28C412.815 391.12 412.815 390.92 412.815 390.68C413.215 387.4 413.415 384.68 413.415 382.52C413.175 377.72 411.575 374.56 408.615 373.04C407.175 372.4 405.695 371.96 404.175 371.72C401.935 371.32 396.975 371.16 389.295 371.24C381.615 371.24 377.575 371.48 377.175 371.96L369.975 400.28H376.335C381.615 400.2 385.015 399.88 386.535 399.32C388.295 398.76 389.735 397.76 390.855 396.32C391.975 394.88 393.015 392.28 393.975 388.52C394.295 387.48 394.575 386.84 394.815 386.6L395.175 386.24H397.215C398.895 386.24 399.895 386.52 400.215 387.08C400.295 387.4 399.015 392.96 396.375 403.76C393.575 414.72 392.135 420.24 392.055 420.32C391.895 420.8 390.935 421.04 389.175 421.04H387.135L386.655 420.68C386.335 420.28 386.335 419.36 386.655 417.92C387.615 413.84 387.735 411.04 387.015 409.52C386.455 408.32 384.855 407.56 382.215 407.24C381.735 407.16 379.255 407.12 374.775 407.12L368.295 407L364.335 422.72C361.695 433.36 360.375 438.72 360.375 438.8C360.375 438.88 360.455 439 360.615 439.16H382.335C387.055 438.92 391.095 438.04 394.455 436.52C396.455 435.48 398.255 434.24 399.855 432.8C402.975 429.68 406.295 423.88 409.815 415.4C410.455 413.72 410.935 412.72 411.255 412.4L411.615 412.04H413.775H415.935L416.295 412.4C416.615 412.72 416.615 413.36 416.295 414.32C415.895 415.52 413.895 420.56 410.295 429.44C405.895 440 403.695 445.32 403.695 445.4C403.535 445.72 402.375 445.88 400.215 445.88C397.655 445.96 387.135 446 368.655 446C345.695 446 334.055 445.76 333.735 445.28C333.575 445.04 333.655 444.12 333.975 442.52C334.375 440.76 334.775 439.76 335.175 439.52C335.575 439.36 337.015 439.28 339.495 439.28C343.975 439.2 346.495 438.88 347.055 438.32C347.295 438.16 350.175 427.04 355.695 404.96C361.215 382.88 363.895 371.8 363.735 371.72C363.575 371.56 363.295 371.48 362.895 371.48C361.535 371.24 359.215 371.12 355.935 371.12C353.855 371.12 352.695 370.88 352.455 370.4C352.295 370.16 352.375 369.24 352.695 367.64C353.095 365.96 353.455 364.96 353.775 364.64ZM426.409 364.28L426.769 364.04H428.449C435.969 364.44 445.169 364.48 456.049 364.16C458.689 364.08 460.169 364.32 460.489 364.88C460.649 365.12 460.529 366.04 460.129 367.64C459.649 369.4 459.249 370.36 458.929 370.52C458.689 370.6 457.769 370.68 456.169 370.76C454.249 370.92 452.969 371 452.329 371C450.649 371.32 449.649 371.6 449.329 371.84C449.249 371.92 450.249 381.48 452.329 400.52C454.409 419.64 455.489 429.32 455.569 429.56C455.569 429.64 455.689 429.52 455.929 429.2C456.649 428.16 462.089 419.36 472.249 402.8C483.529 384.08 489.129 374.84 489.049 375.08C489.369 374.28 489.489 373.64 489.409 373.16C489.009 371.8 487.249 371 484.129 370.76C482.929 370.76 482.169 370.48 481.849 369.92C481.769 369.68 481.889 368.76 482.209 367.16C482.609 365.64 482.969 364.72 483.289 364.4L483.649 364.04H485.089C491.729 364.36 497.929 364.44 503.689 364.28L509.569 364.04H510.409L510.769 364.4C511.089 364.72 511.249 365.04 511.249 365.36C511.249 366.64 510.849 368.2 510.049 370.04C509.889 370.52 509.009 370.76 507.409 370.76C503.409 371 500.289 371.92 498.049 373.52C497.409 374.08 496.649 374.92 495.769 376.04C495.209 376.84 487.849 388.84 473.689 412.04C459.209 435.72 451.929 447.6 451.849 447.68C451.849 447.76 451.529 448 450.889 448.4C450.489 448.56 449.409 448.64 447.649 448.64C445.969 448.64 444.929 448.52 444.529 448.28C444.289 448.04 444.169 447.84 444.169 447.68C444.169 447.2 442.729 434.52 439.849 409.64C437.129 384.36 435.689 371.64 435.529 371.48C435.449 371.4 435.169 371.28 434.689 371.12C433.729 370.88 431.569 370.76 428.209 370.76C426.289 370.76 425.249 370.52 425.089 370.04C424.929 369.8 425.009 368.88 425.329 367.28C425.729 365.6 426.089 364.6 426.409 364.28ZM511.85 364.28C512.09 364.12 512.77 364.04 513.89 364.04C521.33 364.36 529.61 364.44 538.73 364.28L547.85 364.04H549.17L549.53 364.4C549.85 364.72 550.01 365.04 550.01 365.36C550.01 366.64 549.61 368.2 548.81 370.04C548.65 370.52 547.49 370.76 545.33 370.76C544.93 370.76 544.45 370.76 543.89 370.76C539.17 370.84 536.53 371.16 535.97 371.72L535.49 372.08L527.33 405.2C521.81 427.12 519.05 438.2 519.05 438.44C518.97 438.68 519.33 438.84 520.13 438.92C521.17 439.08 523.17 439.2 526.13 439.28C529.17 439.28 530.85 439.56 531.17 440.12C531.25 440.36 531.13 441.28 530.81 442.88C530.41 444.4 530.05 445.32 529.73 445.64L529.37 446H527.45C518.25 445.6 507.81 445.56 496.13 445.88C493.41 445.96 491.89 445.72 491.57 445.16C491.49 444.92 491.61 444 491.93 442.4C492.41 440.8 492.73 439.88 492.89 439.64L493.37 439.28H497.57C501.81 439.2 504.33 438.96 505.13 438.56C505.37 438.48 505.65 438.28 505.97 437.96L522.53 371.6C522.53 371.52 522.45 371.4 522.29 371.24C521.65 371 519.41 370.84 515.57 370.76C512.45 370.76 510.77 370.52 510.53 370.04C510.37 369.8 510.45 368.88 510.77 367.28C511.17 365.6 511.53 364.6 511.85 364.28ZM565.421 364.16C565.581 364.08 566.221 364.04 567.341 364.04C573.581 364.36 582.021 364.44 592.661 364.28C599.701 364.12 603.181 364.04 603.101 364.04H604.541L604.901 364.4C605.301 364.8 605.341 365.72 605.021 367.16C605.021 367.32 604.981 367.48 604.901 367.64C604.501 369.4 604.141 370.36 603.821 370.52C603.581 370.68 602.341 370.76 600.101 370.76C595.381 370.76 592.301 370.88 590.861 371.12C589.581 371.28 588.781 371.6 588.461 372.08L571.781 438.8C571.781 438.96 571.941 439.08 572.261 439.16H580.301C586.221 439.16 590.101 438.92 591.941 438.44C592.101 438.44 592.261 438.4 592.421 438.32C597.861 437.04 602.341 434.2 605.861 429.8C608.101 427 610.501 422.16 613.061 415.28C613.781 413.36 614.261 412.36 614.501 412.28C615.061 411.88 616.381 411.84 618.461 412.16C618.781 412.16 618.981 412.2 619.061 412.28C619.541 412.44 619.781 412.8 619.781 413.36L608.381 445.4C608.221 445.72 607.181 445.88 605.261 445.88C602.861 445.96 593.341 446 576.701 446C556.141 446 545.741 445.92 545.501 445.76C545.261 445.52 545.101 445.32 545.021 445.16C544.941 444.84 545.061 443.92 545.381 442.4C545.861 440.8 546.181 439.88 546.341 439.64L546.821 439.28H550.901C555.381 439.2 557.901 438.88 558.461 438.32C558.701 438.16 561.581 427.04 567.101 404.96C572.621 382.88 575.381 371.76 575.381 371.6C575.381 371.52 575.301 371.4 575.141 371.24C574.821 371.08 572.661 370.92 568.661 370.76H564.581L564.221 370.4C563.741 370.08 563.741 368.96 564.221 367.04C564.621 365.36 565.021 364.4 565.421 364.16Z" fill="#C40000"/>
</svg>
