<svg width="917" height="701" viewBox="0 0 917 701" fill="none" xmlns="http://www.w3.org/2000/svg">
<path d="M389.208 276.463C422.814 382.605 493.941 444.565 599 463.962C590.191 479.048 579.424 508.681 573.877 527C463.924 501.138 394.754 428.94 352.339 297.476L389.208 276.463ZM320.364 217.735H529.504V280.774H320.364V217.735ZM304.377 91.1201H583.992V155.236H304.377V91.1201ZM423.466 20H464.25V246.291H423.466V20ZM516.78 217.735H525.263L532.114 215.58L559.521 241.442C520.369 416.01 425.424 494.673 312.208 525.922C308.619 508.681 298.504 477.97 291 463.423C400.627 439.716 487.089 376.139 516.78 229.589V217.735Z" fill="white"/>
<path d="M0 132.674H261V203.754H0V132.674ZM102.342 1L139.791 14.4004C117.207 140.248 85.7612 296.392 62.6057 397.186L27.7295 371.551C50.5991 276.583 82.0449 120.439 102.342 1ZM182.386 167.631L220.12 185.11C197.251 427.483 144.365 511.964 20.5827 549.252C17.1522 527.695 9.43374 497.981 2.57284 479.92C117.207 453.119 163.518 382.621 182.386 167.631ZM46.5969 359.898L69.7525 305.131C130.643 346.498 214.117 422.822 256.14 485.163L229.84 551C191.533 488.076 110.346 406.508 46.5969 359.898Z" fill="#FF0000"/>
<path d="M12.5803 125.818H17.321L22.3281 138.034H22.5412L27.5483 125.818H32.2891V144H28.5604V132.166H28.4094L23.7042 143.911H21.1651L16.4599 132.121H16.3089V144H12.5803V125.818ZM39.3003 125.818V144H35.4562V125.818H39.3003ZM52.3263 131.047C52.2553 130.331 51.9505 129.775 51.4119 129.378C50.8733 128.982 50.1424 128.783 49.2191 128.783C48.5917 128.783 48.062 128.872 47.63 129.05C47.1979 129.221 46.8665 129.461 46.6357 129.769C46.4107 130.077 46.2983 130.426 46.2983 130.816C46.2865 131.142 46.3545 131.426 46.5025 131.669C46.6564 131.911 46.8665 132.121 47.1328 132.299C47.3991 132.471 47.7069 132.622 48.0561 132.752C48.4053 132.876 48.7782 132.983 49.1747 133.071L50.8082 133.462C51.6013 133.64 52.3293 133.876 52.9922 134.172C53.6551 134.468 54.2292 134.832 54.7145 135.264C55.1998 135.696 55.5756 136.205 55.842 136.791C56.1142 137.377 56.2533 138.049 56.2592 138.806C56.2533 139.919 55.9692 140.884 55.407 141.701C54.8506 142.511 54.0457 143.142 52.9922 143.592C51.9446 144.036 50.681 144.257 49.2013 144.257C47.7335 144.257 46.4551 144.033 45.3661 143.583C44.283 143.133 43.4367 142.467 42.8271 141.585C42.2234 140.697 41.9067 139.6 41.8771 138.292H45.5969C45.6384 138.901 45.813 139.41 46.1207 139.819C46.4344 140.221 46.8517 140.526 47.3725 140.733C47.8993 140.934 48.4941 141.035 49.157 141.035C49.808 141.035 50.3732 140.94 50.8526 140.751C51.3379 140.561 51.7138 140.298 51.9801 139.961C52.2464 139.623 52.3796 139.236 52.3796 138.798C52.3796 138.389 52.2583 138.046 52.0156 137.768C51.7789 137.49 51.4297 137.253 50.968 137.058C50.5123 136.862 49.953 136.685 49.2901 136.525L47.3104 136.028C45.7775 135.655 44.5671 135.072 43.6793 134.279C42.7915 133.486 42.3506 132.417 42.3565 131.074C42.3506 129.973 42.6436 129.011 43.2354 128.189C43.8332 127.366 44.6529 126.724 45.6946 126.262C46.7363 125.8 47.92 125.57 49.2457 125.57C50.5952 125.57 51.773 125.8 52.7791 126.262C53.7912 126.724 54.5784 127.366 55.1406 128.189C55.7029 129.011 55.9929 129.964 56.0107 131.047H52.3263ZM75.553 134.909C75.553 136.892 75.1772 138.579 74.4255 139.969C73.6798 141.36 72.6618 142.423 71.3715 143.157C70.0872 143.885 68.6431 144.249 67.0392 144.249C65.4234 144.249 63.9733 143.882 62.689 143.148C61.4047 142.414 60.3896 141.351 59.6439 139.961C58.8982 138.57 58.5253 136.886 58.5253 134.909C58.5253 132.926 58.8982 131.24 59.6439 129.849C60.3896 128.458 61.4047 127.398 62.689 126.67C63.9733 125.937 65.4234 125.57 67.0392 125.57C68.6431 125.57 70.0872 125.937 71.3715 126.67C72.6618 127.398 73.6798 128.458 74.4255 129.849C75.1772 131.24 75.553 132.926 75.553 134.909ZM71.6556 134.909C71.6556 133.625 71.4633 132.542 71.0786 131.66C70.6998 130.778 70.1642 130.109 69.4717 129.653C68.7792 129.198 67.9684 128.97 67.0392 128.97C66.1099 128.97 65.2991 129.198 64.6066 129.653C63.9142 130.109 63.3756 130.778 62.9909 131.66C62.6121 132.542 62.4227 133.625 62.4227 134.909C62.4227 136.193 62.6121 137.277 62.9909 138.158C63.3756 139.04 63.9142 139.709 64.6066 140.165C65.2991 140.621 66.1099 140.848 67.0392 140.848C67.9684 140.848 68.7792 140.621 69.4717 140.165C70.1642 139.709 70.6998 139.04 71.0786 138.158C71.4633 137.277 71.6556 136.193 71.6556 134.909ZM90.4567 131.695C90.3324 131.263 90.1578 130.882 89.9329 130.55C89.708 130.213 89.4328 129.929 89.1072 129.698C88.7876 129.461 88.4207 129.281 88.0064 129.156C87.598 129.032 87.1452 128.97 86.6481 128.97C85.7189 128.97 84.9021 129.201 84.1978 129.662C83.4994 130.124 82.9549 130.796 82.5643 131.678C82.1737 132.554 81.9783 133.625 81.9783 134.891C81.9783 136.158 82.1707 137.235 82.5554 138.123C82.9401 139.011 83.4846 139.688 84.1889 140.156C84.8932 140.618 85.7248 140.848 86.6836 140.848C87.5536 140.848 88.2964 140.694 88.9119 140.387C89.5334 140.073 90.0069 139.632 90.3324 139.064C90.6638 138.496 90.8295 137.824 90.8295 137.049L91.6108 137.164H86.9233V134.27H94.5316V136.56C94.5316 138.158 94.1942 139.531 93.5195 140.68C92.8448 141.822 91.9156 142.704 90.7319 143.325C89.5482 143.941 88.1928 144.249 86.6658 144.249C84.9613 144.249 83.4639 143.873 82.1737 143.121C80.8834 142.364 79.8772 141.289 79.1552 139.898C78.439 138.502 78.081 136.844 78.081 134.927C78.081 133.453 78.294 132.139 78.7202 130.985C79.1522 129.825 79.7559 128.843 80.5312 128.038C81.3066 127.233 82.2092 126.62 83.239 126.2C84.2688 125.78 85.3845 125.57 86.5859 125.57C87.6158 125.57 88.5746 125.721 89.4624 126.022C90.3501 126.318 91.1373 126.739 91.8239 127.283C92.5163 127.828 93.0816 128.476 93.5195 129.227C93.9575 129.973 94.2386 130.796 94.3629 131.695H90.4567ZM95.6214 125.818H99.9271L104.073 133.648H104.251L108.397 125.818H112.702L106.071 137.572V144H102.253V137.572L95.6214 125.818ZM130.01 125.818V144H126.689L118.779 132.556H118.646V144H114.802V125.818H118.176L126.024 137.253H126.183V125.818H130.01ZM132.12 125.818H136.426L140.572 133.648H140.75L144.896 125.818H149.201L142.57 137.572V144H138.752V137.572L132.12 125.818ZM160.931 125.818V144H157.087V125.818H160.931ZM179.302 125.818V144H175.981L168.071 132.556H167.938V144H164.094V125.818H167.468L175.316 137.253H175.475V125.818H179.302ZM28.6225 162.184H24.734C24.663 161.681 24.518 161.234 24.299 160.843C24.08 160.446 23.7989 160.109 23.4556 159.831C23.1123 159.553 22.7158 159.34 22.266 159.192C21.8221 159.044 21.3397 158.97 20.8189 158.97C19.8778 158.97 19.0581 159.204 18.3597 159.671C17.6613 160.133 17.1198 160.808 16.7351 161.695C16.3504 162.577 16.158 163.648 16.158 164.909C16.158 166.205 16.3504 167.294 16.7351 168.176C17.1257 169.058 17.6702 169.724 18.3686 170.174C19.067 170.623 19.8749 170.848 20.7923 170.848C21.3072 170.848 21.7836 170.78 22.2216 170.644C22.6655 170.508 23.0591 170.31 23.4023 170.049C23.7456 169.783 24.0297 169.46 24.2546 169.082C24.4854 168.703 24.6452 168.271 24.734 167.786L28.6225 167.803C28.5219 168.638 28.2704 169.443 27.8679 170.218C27.4714 170.987 26.9357 171.677 26.261 172.287C25.5922 172.89 24.7932 173.37 23.864 173.725C22.9407 174.074 21.8961 174.249 20.7301 174.249C19.1084 174.249 17.6584 173.882 16.38 173.148C15.1075 172.414 14.1013 171.351 13.3615 169.961C12.6276 168.57 12.2607 166.886 12.2607 164.909C12.2607 162.926 12.6335 161.24 13.3793 159.849C14.125 158.458 15.1371 157.398 16.4155 156.67C17.6939 155.937 19.1321 155.57 20.7301 155.57C21.7836 155.57 22.7602 155.718 23.6598 156.013C24.5653 156.309 25.3673 156.741 26.0657 157.31C26.7641 157.872 27.3323 158.561 27.7702 159.378C28.2141 160.195 28.4982 161.13 28.6225 162.184ZM31.3791 174V155.818H35.2232V163.32H43.0268V155.818H46.862V174H43.0268V166.489H35.2232V174H31.3791ZM53.8755 155.818V174H50.0314V155.818H53.8755ZM72.246 155.818V174H68.9257L61.0155 162.556H60.8824V174H57.0383V155.818H60.4118L68.2599 167.253H68.4197V155.818H72.246ZM75.4221 174V155.818H87.6735V158.988H79.2662V163.32H87.0431V166.489H79.2662V170.831H87.709V174H75.4221ZM100.593 161.047C100.522 160.331 100.217 159.775 99.6785 159.378C99.1399 158.982 98.409 158.783 97.4857 158.783C96.8583 158.783 96.3286 158.872 95.8966 159.05C95.4645 159.221 95.1331 159.461 94.9023 159.769C94.6773 160.077 94.5649 160.426 94.5649 160.816C94.5531 161.142 94.6211 161.426 94.7691 161.669C94.923 161.911 95.1331 162.121 95.3994 162.299C95.6657 162.471 95.9735 162.622 96.3227 162.752C96.6719 162.876 97.0448 162.983 97.4413 163.071L99.0748 163.462C99.8679 163.64 100.596 163.876 101.259 164.172C101.922 164.468 102.496 164.832 102.981 165.264C103.466 165.696 103.842 166.205 104.109 166.791C104.381 167.377 104.52 168.049 104.526 168.806C104.52 169.919 104.236 170.884 103.674 171.701C103.117 172.511 102.312 173.142 101.259 173.592C100.211 174.036 98.9476 174.257 97.468 174.257C96.0001 174.257 94.7217 174.033 93.6327 173.583C92.5496 173.133 91.7033 172.467 91.0937 171.585C90.49 170.697 90.1733 169.6 90.1437 168.292H93.8635C93.905 168.901 94.0796 169.41 94.3873 169.819C94.701 170.221 95.1183 170.526 95.6391 170.733C96.1659 170.934 96.7607 171.035 97.4236 171.035C98.0746 171.035 98.6398 170.94 99.1192 170.751C99.6046 170.561 99.9804 170.298 100.247 169.961C100.513 169.623 100.646 169.236 100.646 168.798C100.646 168.389 100.525 168.046 100.282 167.768C100.045 167.49 99.6963 167.253 99.2346 167.058C98.7789 166.862 98.2196 166.685 97.5567 166.525L95.577 166.028C94.0441 165.655 92.8337 165.072 91.9459 164.279C91.0581 163.486 90.6172 162.417 90.6231 161.074C90.6172 159.973 90.9102 159.011 91.502 158.189C92.0998 157.366 92.9195 156.724 93.9612 156.262C95.0029 155.8 96.1866 155.57 97.5123 155.57C98.8618 155.57 100.04 155.8 101.046 156.262C102.058 156.724 102.845 157.366 103.407 158.189C103.969 159.011 104.259 159.964 104.277 161.047H100.593ZM107.112 174V155.818H119.363V158.988H110.956V163.32H118.733V166.489H110.956V170.831H119.398V174H107.112ZM28.6225 192.184H24.734C24.663 191.681 24.518 191.234 24.299 190.843C24.08 190.446 23.7989 190.109 23.4556 189.831C23.1123 189.553 22.7158 189.34 22.266 189.192C21.8221 189.044 21.3397 188.97 20.8189 188.97C19.8778 188.97 19.0581 189.204 18.3597 189.671C17.6613 190.133 17.1198 190.808 16.7351 191.695C16.3504 192.577 16.158 193.648 16.158 194.909C16.158 196.205 16.3504 197.294 16.7351 198.176C17.1257 199.058 17.6702 199.724 18.3686 200.174C19.067 200.623 19.8749 200.848 20.7923 200.848C21.3072 200.848 21.7836 200.78 22.2216 200.644C22.6655 200.508 23.0591 200.31 23.4023 200.049C23.7456 199.783 24.0297 199.46 24.2546 199.082C24.4854 198.703 24.6452 198.271 24.734 197.786L28.6225 197.803C28.5219 198.638 28.2704 199.443 27.8679 200.218C27.4714 200.987 26.9357 201.677 26.261 202.287C25.5922 202.89 24.7932 203.37 23.864 203.725C22.9407 204.074 21.8961 204.249 20.7301 204.249C19.1084 204.249 17.6584 203.882 16.38 203.148C15.1075 202.414 14.1013 201.351 13.3615 199.961C12.6276 198.57 12.2607 196.886 12.2607 194.909C12.2607 192.926 12.6335 191.24 13.3793 189.849C14.125 188.458 15.1371 187.398 16.4155 186.67C17.6939 185.937 19.1321 185.57 20.7301 185.57C21.7836 185.57 22.7602 185.718 23.6598 186.013C24.5653 186.309 25.3673 186.741 26.0657 187.31C26.7641 187.872 27.3323 188.561 27.7702 189.378C28.2141 190.195 28.4982 191.13 28.6225 192.184ZM31.3791 204V185.818H35.2232V193.32H43.0268V185.818H46.862V204H43.0268V196.489H35.2232V204H31.3791ZM53.1653 204H49.046L55.3226 185.818H60.2765L66.5442 204H62.4249L57.8706 189.973H57.7285L53.1653 204ZM52.9078 196.853H62.638V199.854H52.9078V196.853ZM68.7326 204V185.818H75.9059C77.279 185.818 78.4509 186.064 79.4215 186.555C80.3981 187.04 81.1409 187.73 81.6499 188.624C82.1648 189.511 82.4222 190.556 82.4222 191.757C82.4222 192.965 82.1618 194.004 81.641 194.874C81.1201 195.738 80.3655 196.401 79.3771 196.862C78.3946 197.324 77.205 197.555 75.8082 197.555H71.0053V194.465H75.1868C75.9207 194.465 76.5303 194.365 77.0156 194.163C77.5009 193.962 77.862 193.66 78.0987 193.258C78.3414 192.855 78.4627 192.355 78.4627 191.757C78.4627 191.154 78.3414 190.645 78.0987 190.23C77.862 189.816 77.498 189.502 77.0067 189.289C76.5214 189.07 75.9089 188.961 75.169 188.961H72.5767V204H68.7326ZM78.5515 195.726L83.0703 204H78.8267L74.4055 195.726H78.5515ZM88.2727 204H84.1534L90.43 185.818H95.3839L101.652 204H97.5323L92.978 189.973H92.8359L88.2727 204ZM88.0153 196.853H97.7454V199.854H88.0153V196.853ZM119.028 192.184H115.139C115.068 191.681 114.923 191.234 114.704 190.843C114.485 190.446 114.204 190.109 113.861 189.831C113.518 189.553 113.121 189.34 112.671 189.192C112.227 189.044 111.745 188.97 111.224 188.97C110.283 188.97 109.463 189.204 108.765 189.671C108.067 190.133 107.525 190.808 107.14 191.695C106.756 192.577 106.563 193.648 106.563 194.909C106.563 196.205 106.756 197.294 107.14 198.176C107.531 199.058 108.075 199.724 108.774 200.174C109.472 200.623 110.28 200.848 111.198 200.848C111.712 200.848 112.189 200.78 112.627 200.644C113.071 200.508 113.464 200.31 113.808 200.049C114.151 199.783 114.435 199.46 114.66 199.082C114.891 198.703 115.051 198.271 115.139 197.786L119.028 197.803C118.927 198.638 118.676 199.443 118.273 200.218C117.877 200.987 117.341 201.677 116.666 202.287C115.997 202.89 115.198 203.37 114.269 203.725C113.346 204.074 112.301 204.249 111.135 204.249C109.514 204.249 108.064 203.882 106.785 203.148C105.513 202.414 104.507 201.351 103.767 199.961C103.033 198.57 102.666 196.886 102.666 194.909C102.666 192.926 103.039 191.24 103.785 189.849C104.53 188.458 105.542 187.398 106.821 186.67C108.099 185.937 109.537 185.57 111.135 185.57C112.189 185.57 113.165 185.718 114.065 186.013C114.971 186.309 115.773 186.741 116.471 187.31C117.169 187.872 117.738 188.561 118.176 189.378C118.619 190.195 118.903 191.13 119.028 192.184ZM121.092 188.988V185.818H136.024V188.988H130.458V204H126.658V188.988H121.092ZM138.484 204V185.818H150.735V188.988H142.328V193.32H150.105V196.489H142.328V200.831H150.771V204H138.484ZM153.791 204V185.818H160.964C162.338 185.818 163.509 186.064 164.48 186.555C165.457 187.04 166.199 187.73 166.708 188.624C167.223 189.511 167.481 190.556 167.481 191.757C167.481 192.965 167.22 194.004 166.7 194.874C166.179 195.738 165.424 196.401 164.436 196.862C163.453 197.324 162.264 197.555 160.867 197.555H156.064V194.465H160.245C160.979 194.465 161.589 194.365 162.074 194.163C162.56 193.962 162.921 193.66 163.157 193.258C163.4 192.855 163.521 192.355 163.521 191.757C163.521 191.154 163.4 190.645 163.157 190.23C162.921 189.816 162.557 189.502 162.065 189.289C161.58 189.07 160.967 188.961 160.228 188.961H157.635V204H153.791ZM163.61 195.726L168.129 204H163.885L159.464 195.726H163.61ZM180.061 191.047C179.99 190.331 179.685 189.775 179.146 189.378C178.608 188.982 177.877 188.783 176.953 188.783C176.326 188.783 175.796 188.872 175.364 189.05C174.932 189.221 174.601 189.461 174.37 189.769C174.145 190.077 174.033 190.426 174.033 190.816C174.021 191.142 174.089 191.426 174.237 191.669C174.391 191.911 174.601 192.121 174.867 192.299C175.134 192.471 175.441 192.622 175.79 192.752C176.14 192.876 176.513 192.983 176.909 193.071L178.543 193.462C179.336 193.64 180.064 193.876 180.727 194.172C181.389 194.468 181.964 194.832 182.449 195.264C182.934 195.696 183.31 196.205 183.576 196.791C183.849 197.377 183.988 198.049 183.994 198.806C183.988 199.919 183.704 200.884 183.141 201.701C182.585 202.511 181.78 203.142 180.727 203.592C179.679 204.036 178.415 204.257 176.936 204.257C175.468 204.257 174.19 204.033 173.1 203.583C172.017 203.133 171.171 202.467 170.561 201.585C169.958 200.697 169.641 199.6 169.612 198.292H173.331C173.373 198.901 173.547 199.41 173.855 199.819C174.169 200.221 174.586 200.526 175.107 200.733C175.634 200.934 176.228 201.035 176.891 201.035C177.542 201.035 178.108 200.94 178.587 200.751C179.072 200.561 179.448 200.298 179.714 199.961C179.981 199.623 180.114 199.236 180.114 198.798C180.114 198.389 179.993 198.046 179.75 197.768C179.513 197.49 179.164 197.253 178.702 197.058C178.247 196.862 177.687 196.685 177.025 196.525L175.045 196.028C173.512 195.655 172.301 195.072 171.414 194.279C170.526 193.486 170.085 192.417 170.091 191.074C170.085 189.973 170.378 189.011 170.97 188.189C171.568 187.366 172.387 186.724 173.429 186.262C174.471 185.8 175.654 185.57 176.98 185.57C178.33 185.57 179.507 185.8 180.513 186.262C181.526 186.724 182.313 187.366 182.875 188.189C183.437 189.011 183.727 189.964 183.745 191.047H180.061Z" fill="white"/>
<path d="M16.8075 549L10.5646 527.182H15.6037L19.2152 542.342H19.3963L23.3807 527.182H27.6953L31.669 542.374H31.8608L35.4723 527.182H40.5114L34.2685 549H29.7727L25.6179 534.735H25.4474L21.3033 549H16.8075ZM61.7995 538.091C61.7995 540.47 61.3485 542.494 60.4466 544.163C59.5517 545.832 58.3301 547.107 56.7818 547.988C55.2406 548.862 53.5076 549.298 51.5829 549.298C49.644 549.298 47.9039 548.858 46.3627 547.977C44.8216 547.097 43.6035 545.822 42.7086 544.153C41.8137 542.484 41.3663 540.463 41.3663 538.091C41.3663 535.712 41.8137 533.688 42.7086 532.018C43.6035 530.349 44.8216 529.078 46.3627 528.205C47.9039 527.324 49.644 526.884 51.5829 526.884C53.5076 526.884 55.2406 527.324 56.7818 528.205C58.3301 529.078 59.5517 530.349 60.4466 532.018C61.3485 533.688 61.7995 535.712 61.7995 538.091ZM57.1227 538.091C57.1227 536.55 56.8919 535.25 56.4302 534.192C55.9757 533.134 55.3329 532.331 54.502 531.784C53.671 531.237 52.698 530.964 51.5829 530.964C50.4679 530.964 49.4949 531.237 48.6639 531.784C47.8329 532.331 47.1866 533.134 46.725 534.192C46.2704 535.25 46.0431 536.55 46.0431 538.091C46.0431 539.632 46.2704 540.932 46.725 541.99C47.1866 543.048 47.8329 543.851 48.6639 544.398C49.4949 544.945 50.4679 545.218 51.5829 545.218C52.698 545.218 53.671 544.945 54.502 544.398C55.3329 543.851 55.9757 543.048 56.4302 541.99C56.8919 540.932 57.1227 539.632 57.1227 538.091ZM65.2166 527.182H70.9055L76.9141 541.841H77.1697L83.1783 527.182H88.8672V549H84.3928V534.799H84.2116L78.5653 548.893H75.5185L69.8722 534.746H69.6911V549H65.2166V527.182ZM92.6678 549V527.182H107.369V530.985H97.2807V536.184H106.613V539.987H97.2807V545.197H107.412V549H92.6678ZM129.286 527.182V549H125.302L115.81 535.268H115.65V549H111.037V527.182H115.085L124.503 540.903H124.695V527.182H129.286Z" fill="white"/>
<path fill-rule="evenodd" clip-rule="evenodd" d="M600.024 13.0238H289.976V533.976H600.024V13.0238ZM261 0V547H629V0H261Z" fill="#FF0000"/>
<path d="M438.023 132V108.727H447.341C449.053 108.727 450.481 108.981 451.625 109.489C452.769 109.996 453.629 110.701 454.205 111.602C454.78 112.496 455.068 113.527 455.068 114.693C455.068 115.602 454.886 116.402 454.523 117.091C454.159 117.773 453.659 118.333 453.023 118.773C452.394 119.205 451.674 119.511 450.864 119.693V119.92C451.75 119.958 452.58 120.208 453.352 120.67C454.133 121.133 454.765 121.78 455.25 122.614C455.735 123.439 455.977 124.424 455.977 125.568C455.977 126.803 455.67 127.905 455.057 128.875C454.451 129.837 453.553 130.598 452.364 131.159C451.174 131.72 449.708 132 447.966 132H438.023ZM442.943 127.977H446.955C448.326 127.977 449.326 127.716 449.955 127.193C450.583 126.663 450.898 125.958 450.898 125.08C450.898 124.436 450.742 123.867 450.432 123.375C450.121 122.883 449.678 122.496 449.102 122.216C448.534 121.936 447.856 121.795 447.068 121.795H442.943V127.977ZM442.943 118.466H446.591C447.265 118.466 447.864 118.348 448.386 118.114C448.917 117.871 449.333 117.53 449.636 117.091C449.947 116.652 450.102 116.125 450.102 115.511C450.102 114.67 449.803 113.992 449.205 113.477C448.614 112.962 447.773 112.705 446.682 112.705H442.943V118.466ZM459.179 132V108.727H468.361C470.118 108.727 471.618 109.042 472.861 109.67C474.111 110.292 475.062 111.174 475.713 112.318C476.372 113.455 476.702 114.792 476.702 116.33C476.702 117.875 476.368 119.205 475.702 120.318C475.035 121.424 474.069 122.273 472.804 122.864C471.546 123.455 470.024 123.75 468.236 123.75H462.088V119.795H467.44C468.38 119.795 469.16 119.667 469.781 119.409C470.402 119.152 470.865 118.765 471.168 118.25C471.478 117.735 471.634 117.095 471.634 116.33C471.634 115.557 471.478 114.905 471.168 114.375C470.865 113.845 470.399 113.443 469.77 113.17C469.149 112.89 468.365 112.75 467.418 112.75H464.099V132H459.179ZM471.747 121.409L477.531 132H472.099L466.44 121.409H471.747ZM484.19 132H478.918L486.952 108.727H493.293L501.315 132H496.043L490.213 114.045H490.031L484.19 132ZM483.861 122.852H496.315V126.693H483.861V122.852ZM523.582 108.727V132H519.332L509.207 117.352H509.037V132H504.116V108.727H508.435L518.48 123.364H518.685V108.727H523.582ZM548.182 116.875H543.205C543.114 116.231 542.928 115.659 542.648 115.159C542.367 114.652 542.008 114.22 541.568 113.864C541.129 113.508 540.621 113.235 540.045 113.045C539.477 112.856 538.86 112.761 538.193 112.761C536.989 112.761 535.939 113.061 535.045 113.659C534.152 114.25 533.458 115.114 532.966 116.25C532.473 117.379 532.227 118.75 532.227 120.364C532.227 122.023 532.473 123.417 532.966 124.545C533.466 125.674 534.163 126.527 535.057 127.102C535.951 127.678 536.985 127.966 538.159 127.966C538.818 127.966 539.428 127.879 539.989 127.705C540.557 127.53 541.061 127.277 541.5 126.943C541.939 126.602 542.303 126.189 542.591 125.705C542.886 125.22 543.091 124.667 543.205 124.045L548.182 124.068C548.053 125.136 547.731 126.167 547.216 127.159C546.708 128.144 546.023 129.027 545.159 129.807C544.303 130.58 543.28 131.193 542.091 131.648C540.909 132.095 539.572 132.318 538.08 132.318C536.004 132.318 534.148 131.848 532.511 130.909C530.883 129.97 529.595 128.61 528.648 126.83C527.708 125.049 527.239 122.894 527.239 120.364C527.239 117.826 527.716 115.667 528.67 113.886C529.625 112.106 530.92 110.75 532.557 109.818C534.193 108.879 536.034 108.409 538.08 108.409C539.428 108.409 540.678 108.598 541.83 108.977C542.989 109.356 544.015 109.909 544.909 110.636C545.803 111.356 546.53 112.239 547.091 113.284C547.659 114.33 548.023 115.527 548.182 116.875ZM551.71 132V108.727H556.631V118.33H566.619V108.727H571.528V132H566.619V122.386H556.631V132H551.71Z" fill="black"/>
<path d="M30.8 239.9C31 239.767 37.3 239.7 49.7 239.7C62.3 239.7 68.8333 239.733 69.3 239.8C74.5667 240.333 78.8333 242.2 82.1 245.4C83.9667 247.333 85.2 249.733 85.8 252.6C86.2 254 86.2667 255.6 86 257.4C85.3333 263.067 82.1667 268.067 76.5 272.4C73.1 275 69.3 276.833 65.1 277.9C62.7 278.567 59.6 278.9 55.8 278.9C54.8667 278.9 53.1333 278.9 50.6 278.9H41.9L39.1 290.3C37.1667 297.967 36.2667 301.833 36.4 301.9C36.5333 302.033 36.7667 302.1 37.1 302.1C38.1667 302.3 40.1 302.4 42.9 302.4C44.4333 302.4 45.2667 302.467 45.4 302.6C45.8 302.733 46 303.033 46 303.5L45 307.4C44.7333 307.8 44.0667 307.967 43 307.9C42.6667 307.9 41.9 307.9 40.7 307.9C35.1667 307.633 28.2 307.6 19.8 307.8C19 307.867 18.3667 307.9 17.9 307.9C15.5667 307.967 14.2667 307.8 14 307.4C13.8667 307.2 13.9333 306.433 14.2 305.1C14.5333 303.633 14.8667 302.8 15.2 302.6C15.5333 302.467 16.7333 302.4 18.8 302.4C22.5333 302.333 24.6333 302.067 25.1 301.6C25.3 301.467 27.7 292.2 32.3 273.8C36.9 255.4 39.2 246.133 39.2 246C39.2 245.933 39.1333 245.833 39 245.7C38.7333 245.567 36.9333 245.433 33.6 245.3H30.2L29.8 244.9C29.5333 244.633 29.5667 243.833 29.9 242.5C30.3 240.9 30.6 240.033 30.8 239.9ZM65.4 245.4H51.2C50.5333 245.467 50.1 245.667 49.9 246L46.4 259.8C44.0667 268.933 42.9 273.533 42.9 273.6C42.9 273.733 45.5 273.8 50.7 273.8C56.4333 273.733 60.0667 273.533 61.6 273.2C65.2 272.467 67.9 270.967 69.7 268.7C71.1667 266.767 72.4 263.667 73.4 259.4C74.1333 256.533 74.5 254.333 74.5 252.8C74.5 251.067 74.1333 249.7 73.4 248.7C71.8 246.767 69.1333 245.667 65.4 245.4ZM95.0602 239.8C95.1935 239.733 101.06 239.7 112.66 239.7C124.793 239.767 131.427 239.9 132.56 240.1C132.693 240.167 132.993 240.233 133.46 240.3C139.593 241.433 144.027 244.067 146.76 248.2C148.293 250.467 149.027 252.933 148.96 255.6C148.893 257.467 148.393 259.367 147.46 261.3C146.527 263.167 145.227 264.9 143.56 266.5C140.293 269.767 135.793 272.4 130.06 274.4C129.993 274.4 130.093 274.5 130.36 274.7C130.493 274.833 130.627 274.933 130.76 275C133.093 276.6 134.727 278.733 135.66 281.4C136.26 283.267 136.427 285.867 136.16 289.2C136.093 289.933 135.993 290.867 135.86 292C135.527 295.467 135.36 298 135.36 299.6C135.427 302.067 135.893 303.733 136.76 304.6C137.36 305.133 138.26 305.4 139.46 305.4C140.193 305.4 140.727 305.333 141.06 305.2C141.86 304.867 142.66 304.233 143.46 303.3C144.327 302.033 144.993 300.733 145.46 299.4C145.793 298.333 146.193 297.733 146.66 297.6C146.927 297.533 147.427 297.5 148.16 297.5C149.427 297.5 150.193 297.667 150.46 298C150.927 298.533 150.593 299.933 149.46 302.2C147.46 306.4 144.727 308.967 141.26 309.9C140.727 310.033 139.727 310.1 138.26 310.1C136.527 310.1 135.393 310.067 134.86 310C128.393 309.133 124.493 306.467 123.16 302C122.76 300.667 122.693 299.167 122.96 297.5C123.293 295.833 123.76 293.8 124.36 291.4C125.027 288.733 125.493 286.733 125.76 285.4C126.093 283.6 125.827 281.833 124.96 280.1C124.627 279.5 124.193 278.933 123.66 278.4C122.527 277.333 121.127 276.633 119.46 276.3C119.193 276.233 116.927 276.2 112.66 276.2H106.46L106.36 276.6C106.36 276.533 105.293 280.767 103.16 289.3C101.093 297.633 100.093 301.833 100.16 301.9C100.293 302.033 100.527 302.1 100.86 302.1C101.66 302.3 103.66 302.4 106.86 302.4C108.527 302.4 109.493 302.633 109.76 303.1C109.827 303.367 109.727 304.133 109.46 305.4C109.127 306.667 108.827 307.433 108.56 307.7L108.26 308H106.76C99.4935 307.667 91.1602 307.633 81.7602 307.9C79.5602 307.967 78.3268 307.767 78.0602 307.3C77.9935 307.1 78.0935 306.333 78.3602 305C78.7602 303.667 79.0268 302.9 79.1602 302.7L79.5602 302.4H82.9602C86.6935 302.333 88.7935 302.067 89.2602 301.6C89.4602 301.467 91.8602 292.2 96.4602 273.8C101.06 255.4 103.36 246.133 103.36 246C103.36 245.933 103.293 245.833 103.16 245.7C102.893 245.567 101.093 245.433 97.7602 245.3H94.3602L93.9602 244.9C93.7602 244.7 93.6602 244.5 93.6602 244.3L94.7602 240.2C94.7602 240.133 94.8602 240 95.0602 239.8ZM128.96 245.5C128.56 245.433 126.227 245.367 121.96 245.3L115.36 245.4C114.693 245.467 114.26 245.667 114.06 246L107.66 271.5H114.36C119.227 271.433 121.893 271.367 122.36 271.3C128.427 270.433 132.46 267.967 134.46 263.9C135.527 261.7 136.393 258.833 137.06 255.3C137.327 253.567 137.327 252.1 137.06 250.9C136.26 247.967 133.56 246.167 128.96 245.5ZM196.939 237.6C198.606 237.467 200.772 237.5 203.439 237.7C209.172 238.5 213.906 240.833 217.639 244.7C221.306 248.367 223.606 253.067 224.539 258.8C226.006 267.467 224.306 276.267 219.439 285.2C218.506 286.867 217.472 288.5 216.339 290.1C212.539 295.567 207.939 300 202.539 303.4C198.939 305.733 195.372 307.433 191.839 308.5C182.572 311.367 174.472 310.667 167.539 306.4C166.139 305.533 164.839 304.533 163.639 303.4C159.639 299.467 157.139 294.3 156.139 287.9C155.872 285.767 155.839 283.067 156.039 279.8C156.106 279.533 156.139 279.3 156.139 279.1C157.339 269.967 161.206 261.567 167.739 253.9C169.606 251.767 171.606 249.767 173.739 247.9C181.139 241.767 188.872 238.333 196.939 237.6ZM201.439 242.8C199.772 242.533 198.072 242.467 196.339 242.6C192.006 243.133 188.039 244.8 184.439 247.6C179.172 251.6 175.139 257.167 172.339 264.3C170.272 269.433 168.806 275.2 167.939 281.6C167.672 284.2 167.639 287 167.839 290C167.906 290.267 167.939 290.467 167.939 290.6C168.939 296.933 171.739 301.267 176.339 303.6C180.806 305.867 185.939 305.6 191.739 302.8C199.206 299.133 204.972 292.233 209.039 282.1C211.372 276.1 212.872 270.1 213.539 264.1C213.806 261.9 213.806 259.567 213.539 257.1C213.539 256.967 213.539 256.833 213.539 256.7C212.806 252.433 211.339 249.2 209.139 247C207.006 244.8 204.439 243.4 201.439 242.8ZM268.009 237.6L273.209 237.7C275.075 238.033 276.842 238.6 278.509 239.4C280.242 240.2 281.742 241.4 283.009 243C283.275 243.267 283.442 243.433 283.509 243.5L286.409 240.6C288.342 238.667 289.342 237.667 289.409 237.6C289.742 237.333 290.409 237.333 291.409 237.6C291.609 237.8 291.742 237.967 291.809 238.1C291.875 238.367 290.942 242.367 289.009 250.1C287.009 257.967 285.942 261.967 285.809 262.1L285.509 262.4H283.709C282.175 262.4 281.342 262.2 281.209 261.8C281.142 261.6 281.175 261.167 281.309 260.5C281.909 255.833 281.542 252 280.209 249C278.609 245.667 275.809 243.667 271.809 243C270.209 242.733 268.442 242.733 266.509 243C263.975 243.533 261.609 244.867 259.409 247C255.609 250.733 254.075 254.7 254.809 258.9C255.209 261.767 256.742 263.733 259.409 264.8L266.309 266.7C268.909 267.367 271.375 268.033 273.709 268.7C275.442 269.433 277.042 270.533 278.509 272C279.575 273.067 280.442 274.3 281.109 275.7C282.975 279.633 283.309 284 282.109 288.8C280.575 295.333 276.975 300.8 271.309 305.2C270.842 305.533 270.375 305.867 269.909 306.2C267.575 307.6 265.609 308.567 264.009 309.1C261.542 309.9 259.009 310.267 256.409 310.2C252.275 310 248.809 309.2 246.009 307.8C244.675 307.2 243.309 306.233 241.909 304.9L241.009 304C240.942 304 239.975 305 238.109 307L235.009 310.1L234.009 310.2H233.909C233.375 310.2 233.009 310.1 232.809 309.9C232.609 309.7 232.509 309.533 232.509 309.4C232.509 309.2 234.442 301.367 238.309 285.9C238.442 285.5 239.275 285.3 240.809 285.3H242.609L242.909 285.6C243.175 285.867 243.209 286.567 243.009 287.7C243.009 287.833 242.975 288 242.909 288.2C242.442 290.667 242.375 292.733 242.709 294.4C244.042 300.867 248.942 304.267 257.409 304.6C259.142 304.6 260.609 304.4 261.809 304C265.542 302.8 268.542 300.2 270.809 296.2C271.742 294.667 272.375 293.067 272.709 291.4C273.509 287.4 272.875 284.2 270.809 281.8C270.142 281.133 269.275 280.567 268.209 280.1L261.309 278.2C256.242 276.867 253.142 275.9 252.009 275.3C247.475 272.7 245.109 268.567 244.909 262.9C244.775 260.5 245.142 258.033 246.009 255.5C248.075 249.233 252.109 244.367 258.109 240.9C258.909 240.433 259.742 240 260.609 239.6C262.875 238.533 264.975 237.9 266.909 237.7C267.175 237.633 267.542 237.6 268.009 237.6ZM298.437 240.6L298.737 240.3H328.437C348.437 240.3 358.603 240.5 358.937 240.9C359.07 241.233 358.503 245.233 357.237 252.9C355.903 260.767 355.203 264.733 355.137 264.8C354.87 265.133 354.07 265.3 352.737 265.3C351.337 265.3 350.57 265.1 350.437 264.7C350.303 264.433 350.337 263.6 350.537 262.2C351.537 256.133 351.737 252.067 351.137 250C350.537 248 348.437 246.7 344.837 246.1C344.237 246.033 342.303 246 339.037 246C335.237 245.933 333.17 246.1 332.837 246.5C332.703 246.633 330.37 255.867 325.837 274.2L318.937 301.7L319.237 301.9C320.103 302.233 323.403 302.4 329.137 302.4H332.237L332.637 302.7C332.837 302.967 332.937 303.2 332.937 303.4L332.037 307.4C331.837 307.8 331.17 307.967 330.037 307.9C329.637 307.9 328.67 307.9 327.137 307.9C313.203 307.633 302.337 307.667 294.537 308H293.037L292.737 307.7C292.403 307.367 292.37 306.6 292.637 305.4C292.637 305.267 292.67 305.133 292.737 305C293.07 303.533 293.37 302.733 293.637 302.6C293.837 302.467 295.003 302.4 297.137 302.4C301.603 302.4 304.503 302.3 305.837 302.1C306.903 302.033 307.637 301.8 308.037 301.4C308.17 301.2 310.503 291.967 315.037 273.7C319.637 255.367 321.937 246.167 321.937 246.1C321.67 245.967 319.603 245.9 315.737 245.9C312.67 245.967 310.803 246.067 310.137 246.2C306.27 246.8 303.437 248.2 301.637 250.4C299.903 252.533 298.037 256.567 296.037 262.5C295.503 263.967 295.237 264.733 295.237 264.8C294.97 265.133 294.17 265.3 292.837 265.3C291.503 265.3 290.703 265.067 290.437 264.6L290.337 264.3L294.137 252.6C296.803 244.8 298.237 240.8 298.437 240.6ZM366.135 239.9C366.335 239.767 366.902 239.7 367.835 239.7C374.035 239.967 380.935 240.033 388.535 239.9L396.135 239.7H397.235L397.535 240C397.802 240.267 397.935 240.533 397.935 240.8C397.935 241.867 397.602 243.167 396.935 244.7C396.802 245.1 395.835 245.3 394.035 245.3C393.702 245.3 393.302 245.3 392.835 245.3C388.902 245.367 386.702 245.633 386.235 246.1L385.835 246.4L379.035 274C374.435 292.267 372.135 301.5 372.135 301.7C372.068 301.9 372.368 302.033 373.035 302.1C373.902 302.233 375.568 302.333 378.035 302.4C380.568 302.4 381.968 302.633 382.235 303.1C382.302 303.3 382.202 304.067 381.935 305.4C381.602 306.667 381.302 307.433 381.035 307.7L380.735 308H379.135C371.468 307.667 362.768 307.633 353.035 307.9C350.768 307.967 349.502 307.767 349.235 307.3C349.168 307.1 349.268 306.333 349.535 305C349.935 303.667 350.202 302.9 350.335 302.7L350.735 302.4H354.235C357.768 302.333 359.868 302.133 360.535 301.8C360.735 301.733 360.968 301.567 361.235 301.3L375.035 246C375.035 245.933 374.968 245.833 374.835 245.7C374.302 245.5 372.435 245.367 369.235 245.3C366.635 245.3 365.235 245.1 365.035 244.7C364.902 244.5 364.968 243.733 365.235 242.4C365.568 241 365.868 240.167 366.135 239.9ZM400.878 240.6L401.178 240.3H430.878C450.878 240.3 461.045 240.5 461.378 240.9C461.511 241.233 460.945 245.233 459.678 252.9C458.345 260.767 457.645 264.733 457.578 264.8C457.311 265.133 456.511 265.3 455.178 265.3C453.778 265.3 453.011 265.1 452.878 264.7C452.745 264.433 452.778 263.6 452.978 262.2C453.978 256.133 454.178 252.067 453.578 250C452.978 248 450.878 246.7 447.278 246.1C446.678 246.033 444.745 246 441.478 246C437.678 245.933 435.611 246.1 435.278 246.5C435.145 246.633 432.811 255.867 428.278 274.2L421.378 301.7L421.678 301.9C422.545 302.233 425.845 302.4 431.578 302.4H434.678L435.078 302.7C435.278 302.967 435.378 303.2 435.378 303.4L434.478 307.4C434.278 307.8 433.611 307.967 432.478 307.9C432.078 307.9 431.111 307.9 429.578 307.9C415.645 307.633 404.778 307.667 396.978 308H395.478L395.178 307.7C394.845 307.367 394.811 306.6 395.078 305.4C395.078 305.267 395.111 305.133 395.178 305C395.511 303.533 395.811 302.733 396.078 302.6C396.278 302.467 397.445 302.4 399.578 302.4C404.045 302.4 406.945 302.3 408.278 302.1C409.345 302.033 410.078 301.8 410.478 301.4C410.611 301.2 412.945 291.967 417.478 273.7C422.078 255.367 424.378 246.167 424.378 246.1C424.111 245.967 422.045 245.9 418.178 245.9C415.111 245.967 413.245 246.067 412.578 246.2C408.711 246.8 405.878 248.2 404.078 250.4C402.345 252.533 400.478 256.567 398.478 262.5C397.945 263.967 397.678 264.733 397.678 264.8C397.411 265.133 396.611 265.3 395.278 265.3C393.945 265.3 393.145 265.067 392.878 264.6L392.778 264.3L396.578 252.6C399.245 244.8 400.678 240.8 400.878 240.6ZM457.077 239.8C457.21 239.733 457.81 239.7 458.877 239.7C466.943 240.033 475.343 240.067 484.077 239.8C486.21 239.733 487.41 239.933 487.677 240.4C487.81 240.6 487.71 241.367 487.377 242.7C487.043 243.967 486.81 244.733 486.677 245L486.377 245.3H482.877C479.543 245.367 477.61 245.533 477.077 245.8C476.743 245.933 476.51 246.167 476.377 246.5C475.977 247.433 474.21 254.233 471.077 266.9C467.61 280.833 465.843 288 465.777 288.4C464.443 295.2 465.51 299.867 468.977 302.4C470.043 303.267 471.677 303.933 473.877 304.4C475.943 304.667 478.043 304.633 480.177 304.3C486.243 303.3 491.177 300.3 494.977 295.3C496.71 292.967 498.077 290.333 499.077 287.4L508.877 248.3C508.877 247.3 508.343 246.6 507.277 246.2C506.077 245.6 504.177 245.3 501.577 245.3H500.477L500.077 245C499.877 244.733 499.777 244.5 499.777 244.3L500.877 240.2C501.077 239.867 501.977 239.733 503.577 239.8C503.777 239.8 504.077 239.8 504.477 239.8C509.01 240.067 514.71 240.1 521.577 239.9C522.243 239.833 522.777 239.8 523.177 239.8C525.177 239.733 526.31 239.933 526.577 240.4C526.71 240.6 526.61 241.367 526.277 242.7C525.943 244.033 525.677 244.8 525.477 245L525.177 245.3H524.077C519.21 245.3 516.077 246.367 514.677 248.5C514.343 249.5 512.743 255.867 509.877 267.6C506.543 280.6 504.877 287.133 504.877 287.2C502.743 293.733 499.01 299.133 493.677 303.4C487.677 308.133 481.443 310.4 474.977 310.2C471.31 310 468.077 309.2 465.277 307.8C463.477 306.867 461.943 305.767 460.677 304.5C457.943 301.833 456.177 298.667 455.377 295C454.843 292.6 454.81 290 455.277 287.2C455.277 287.067 456.977 280.067 460.377 266.2C463.71 253.133 465.377 246.4 465.377 246C465.377 245.933 465.31 245.833 465.177 245.7C464.91 245.567 463.11 245.433 459.777 245.3H456.377L455.977 244.9C455.777 244.7 455.677 244.5 455.677 244.3L456.777 240.2C456.777 240.133 456.877 240 457.077 239.8ZM527.538 240.6L527.838 240.3H557.538C577.538 240.3 587.705 240.5 588.038 240.9C588.172 241.233 587.605 245.233 586.338 252.9C585.005 260.767 584.305 264.733 584.238 264.8C583.972 265.133 583.172 265.3 581.838 265.3C580.438 265.3 579.672 265.1 579.538 264.7C579.405 264.433 579.438 263.6 579.638 262.2C580.638 256.133 580.838 252.067 580.238 250C579.638 248 577.538 246.7 573.938 246.1C573.338 246.033 571.405 246 568.138 246C564.338 245.933 562.272 246.1 561.938 246.5C561.805 246.633 559.472 255.867 554.938 274.2L548.038 301.7L548.338 301.9C549.205 302.233 552.505 302.4 558.238 302.4H561.338L561.738 302.7C561.938 302.967 562.038 303.2 562.038 303.4L561.138 307.4C560.938 307.8 560.272 307.967 559.138 307.9C558.738 307.9 557.772 307.9 556.238 307.9C542.305 307.633 531.438 307.667 523.638 308H522.138L521.838 307.7C521.505 307.367 521.472 306.6 521.738 305.4C521.738 305.267 521.772 305.133 521.838 305C522.172 303.533 522.472 302.733 522.738 302.6C522.938 302.467 524.105 302.4 526.238 302.4C530.705 302.4 533.605 302.3 534.938 302.1C536.005 302.033 536.738 301.8 537.138 301.4C537.272 301.2 539.605 291.967 544.138 273.7C548.738 255.367 551.038 246.167 551.038 246.1C550.772 245.967 548.705 245.9 544.838 245.9C541.772 245.967 539.905 246.067 539.238 246.2C535.372 246.8 532.538 248.2 530.738 250.4C529.005 252.533 527.138 256.567 525.138 262.5C524.605 263.967 524.338 264.733 524.338 264.8C524.072 265.133 523.272 265.3 521.938 265.3C520.605 265.3 519.805 265.067 519.538 264.6L519.438 264.3L523.238 252.6C525.905 244.8 527.338 240.8 527.538 240.6ZM595.637 240.2L595.937 240H623.937H651.837L652.237 240.3C652.437 240.567 652.537 240.833 652.537 241.1L649.637 263.9C649.637 264.233 649.503 264.5 649.237 264.7L648.937 265H647.237C646.037 265 645.337 264.933 645.137 264.8C644.803 264.6 644.703 263.8 644.837 262.4C644.837 262.267 644.837 262.1 644.837 261.9C645.17 259.167 645.337 256.9 645.337 255.1C645.137 251.1 643.803 248.467 641.337 247.2C640.137 246.667 638.903 246.3 637.637 246.1C635.77 245.767 631.637 245.633 625.237 245.7C618.837 245.7 615.47 245.9 615.137 246.3L609.137 269.9H614.437C618.837 269.833 621.67 269.567 622.937 269.1C624.403 268.633 625.603 267.8 626.537 266.6C627.47 265.4 628.337 263.233 629.137 260.1C629.403 259.233 629.637 258.7 629.837 258.5L630.137 258.2H631.837C633.237 258.2 634.07 258.433 634.337 258.9C634.403 259.167 633.337 263.8 631.137 272.8C628.803 281.933 627.603 286.533 627.537 286.6C627.403 287 626.603 287.2 625.137 287.2H623.437L623.037 286.9C622.77 286.567 622.77 285.8 623.037 284.6C623.837 281.2 623.937 278.867 623.337 277.6C622.87 276.6 621.537 275.967 619.337 275.7C618.937 275.633 616.87 275.6 613.137 275.6L607.737 275.5L604.437 288.6C602.237 297.467 601.137 301.933 601.137 302C601.137 302.067 601.203 302.167 601.337 302.3H619.437C623.37 302.1 626.737 301.367 629.537 300.1C631.203 299.233 632.703 298.2 634.037 297C636.637 294.4 639.403 289.567 642.337 282.5C642.87 281.1 643.27 280.267 643.537 280L643.837 279.7H645.637H647.437L647.737 280C648.003 280.267 648.003 280.8 647.737 281.6C647.403 282.6 645.737 286.8 642.737 294.2C639.07 303 637.237 307.433 637.237 307.5C637.103 307.767 636.137 307.9 634.337 307.9C632.203 307.967 623.437 308 608.037 308C588.903 308 579.203 307.8 578.937 307.4C578.803 307.2 578.87 306.433 579.137 305.1C579.47 303.633 579.803 302.8 580.137 302.6C580.47 302.467 581.67 302.4 583.737 302.4C587.47 302.333 589.57 302.067 590.037 301.6C590.237 301.467 592.637 292.2 597.237 273.8C601.837 255.4 604.07 246.167 603.937 246.1C603.803 245.967 603.57 245.9 603.237 245.9C602.103 245.7 600.17 245.6 597.437 245.6C595.703 245.6 594.737 245.4 594.537 245C594.403 244.8 594.47 244.033 594.737 242.7C595.07 241.3 595.37 240.467 595.637 240.2Z" fill="#C40000"/>
<path d="M181.8 333.9C182 333.767 188.3 333.7 200.7 333.7C213.3 333.7 219.833 333.733 220.3 333.8C225.567 334.333 229.833 336.2 233.1 339.4C234.967 341.333 236.2 343.733 236.8 346.6C237.2 348 237.267 349.6 237 351.4C236.333 357.067 233.167 362.067 227.5 366.4C224.1 369 220.3 370.833 216.1 371.9C213.7 372.567 210.6 372.9 206.8 372.9C205.867 372.9 204.133 372.9 201.6 372.9H192.9L190.1 384.3C188.167 391.967 187.267 395.833 187.4 395.9C187.533 396.033 187.767 396.1 188.1 396.1C189.167 396.3 191.1 396.4 193.9 396.4C195.433 396.4 196.267 396.467 196.4 396.6C196.8 396.733 197 397.033 197 397.5L196 401.4C195.733 401.8 195.067 401.967 194 401.9C193.667 401.9 192.9 401.9 191.7 401.9C186.167 401.633 179.2 401.6 170.8 401.8C170 401.867 169.367 401.9 168.9 401.9C166.567 401.967 165.267 401.8 165 401.4C164.867 401.2 164.933 400.433 165.2 399.1C165.533 397.633 165.867 396.8 166.2 396.6C166.533 396.467 167.733 396.4 169.8 396.4C173.533 396.333 175.633 396.067 176.1 395.6C176.3 395.467 178.7 386.2 183.3 367.8C187.9 349.4 190.2 340.133 190.2 340C190.2 339.933 190.133 339.833 190 339.7C189.733 339.567 187.933 339.433 184.6 339.3H181.2L180.8 338.9C180.533 338.633 180.567 337.833 180.9 336.5C181.3 334.9 181.6 334.033 181.8 333.9ZM216.4 339.4H202.2C201.533 339.467 201.1 339.667 200.9 340L197.4 353.8C195.067 362.933 193.9 367.533 193.9 367.6C193.9 367.733 196.5 367.8 201.7 367.8C207.433 367.733 211.067 367.533 212.6 367.2C216.2 366.467 218.9 364.967 220.7 362.7C222.167 360.767 223.4 357.667 224.4 353.4C225.133 350.533 225.5 348.333 225.5 346.8C225.5 345.067 225.133 343.7 224.4 342.7C222.8 340.767 220.133 339.667 216.4 339.4ZM246.06 333.8C246.193 333.733 252.06 333.7 263.66 333.7C275.793 333.767 282.427 333.9 283.56 334.1C283.693 334.167 283.993 334.233 284.46 334.3C290.593 335.433 295.027 338.067 297.76 342.2C299.293 344.467 300.027 346.933 299.96 349.6C299.893 351.467 299.393 353.367 298.46 355.3C297.527 357.167 296.227 358.9 294.56 360.5C291.293 363.767 286.793 366.4 281.06 368.4C280.993 368.4 281.093 368.5 281.36 368.7C281.493 368.833 281.627 368.933 281.76 369C284.093 370.6 285.727 372.733 286.66 375.4C287.26 377.267 287.427 379.867 287.16 383.2C287.093 383.933 286.993 384.867 286.86 386C286.527 389.467 286.36 392 286.36 393.6C286.427 396.067 286.893 397.733 287.76 398.6C288.36 399.133 289.26 399.4 290.46 399.4C291.193 399.4 291.727 399.333 292.06 399.2C292.86 398.867 293.66 398.233 294.46 397.3C295.327 396.033 295.993 394.733 296.46 393.4C296.793 392.333 297.193 391.733 297.66 391.6C297.927 391.533 298.427 391.5 299.16 391.5C300.427 391.5 301.193 391.667 301.46 392C301.927 392.533 301.593 393.933 300.46 396.2C298.46 400.4 295.727 402.967 292.26 403.9C291.727 404.033 290.727 404.1 289.26 404.1C287.527 404.1 286.393 404.067 285.86 404C279.393 403.133 275.493 400.467 274.16 396C273.76 394.667 273.693 393.167 273.96 391.5C274.293 389.833 274.76 387.8 275.36 385.4C276.027 382.733 276.493 380.733 276.76 379.4C277.093 377.6 276.827 375.833 275.96 374.1C275.627 373.5 275.193 372.933 274.66 372.4C273.527 371.333 272.127 370.633 270.46 370.3C270.193 370.233 267.927 370.2 263.66 370.2H257.46L257.36 370.6C257.36 370.533 256.293 374.767 254.16 383.3C252.093 391.633 251.093 395.833 251.16 395.9C251.293 396.033 251.527 396.1 251.86 396.1C252.66 396.3 254.66 396.4 257.86 396.4C259.527 396.4 260.493 396.633 260.76 397.1C260.827 397.367 260.727 398.133 260.46 399.4C260.127 400.667 259.827 401.433 259.56 401.7L259.26 402H257.76C250.493 401.667 242.16 401.633 232.76 401.9C230.56 401.967 229.327 401.767 229.06 401.3C228.993 401.1 229.093 400.333 229.36 399C229.76 397.667 230.027 396.9 230.16 396.7L230.56 396.4H233.96C237.693 396.333 239.793 396.067 240.26 395.6C240.46 395.467 242.86 386.2 247.46 367.8C252.06 349.4 254.36 340.133 254.36 340C254.36 339.933 254.293 339.833 254.16 339.7C253.893 339.567 252.093 339.433 248.76 339.3H245.36L244.96 338.9C244.76 338.7 244.66 338.5 244.66 338.3L245.76 334.2C245.76 334.133 245.86 334 246.06 333.8ZM279.96 339.5C279.56 339.433 277.227 339.367 272.96 339.3L266.36 339.4C265.693 339.467 265.26 339.667 265.06 340L258.66 365.5H265.36C270.227 365.433 272.893 365.367 273.36 365.3C279.427 364.433 283.46 361.967 285.46 357.9C286.527 355.7 287.393 352.833 288.06 349.3C288.327 347.567 288.327 346.1 288.06 344.9C287.26 341.967 284.56 340.167 279.96 339.5ZM347.939 331.6C349.606 331.467 351.772 331.5 354.439 331.7C360.172 332.5 364.906 334.833 368.639 338.7C372.306 342.367 374.606 347.067 375.539 352.8C377.006 361.467 375.306 370.267 370.439 379.2C369.506 380.867 368.472 382.5 367.339 384.1C363.539 389.567 358.939 394 353.539 397.4C349.939 399.733 346.372 401.433 342.839 402.5C333.572 405.367 325.472 404.667 318.539 400.4C317.139 399.533 315.839 398.533 314.639 397.4C310.639 393.467 308.139 388.3 307.139 381.9C306.872 379.767 306.839 377.067 307.039 373.8C307.106 373.533 307.139 373.3 307.139 373.1C308.339 363.967 312.206 355.567 318.739 347.9C320.606 345.767 322.606 343.767 324.739 341.9C332.139 335.767 339.872 332.333 347.939 331.6ZM352.439 336.8C350.772 336.533 349.072 336.467 347.339 336.6C343.006 337.133 339.039 338.8 335.439 341.6C330.172 345.6 326.139 351.167 323.339 358.3C321.272 363.433 319.806 369.2 318.939 375.6C318.672 378.2 318.639 381 318.839 384C318.906 384.267 318.939 384.467 318.939 384.6C319.939 390.933 322.739 395.267 327.339 397.6C331.806 399.867 336.939 399.6 342.739 396.8C350.206 393.133 355.972 386.233 360.039 376.1C362.372 370.1 363.872 364.1 364.539 358.1C364.806 355.9 364.806 353.567 364.539 351.1C364.539 350.967 364.539 350.833 364.539 350.7C363.806 346.433 362.339 343.2 360.139 341C358.006 338.8 355.439 337.4 352.439 336.8ZM419.009 331.6L424.209 331.7C426.075 332.033 427.842 332.6 429.509 333.4C431.242 334.2 432.742 335.4 434.009 337C434.275 337.267 434.442 337.433 434.509 337.5L437.409 334.6C439.342 332.667 440.342 331.667 440.409 331.6C440.742 331.333 441.409 331.333 442.409 331.6C442.609 331.8 442.742 331.967 442.809 332.1C442.875 332.367 441.942 336.367 440.009 344.1C438.009 351.967 436.942 355.967 436.809 356.1L436.509 356.4H434.709C433.175 356.4 432.342 356.2 432.209 355.8C432.142 355.6 432.175 355.167 432.309 354.5C432.909 349.833 432.542 346 431.209 343C429.609 339.667 426.809 337.667 422.809 337C421.209 336.733 419.442 336.733 417.509 337C414.975 337.533 412.609 338.867 410.409 341C406.609 344.733 405.075 348.7 405.809 352.9C406.209 355.767 407.742 357.733 410.409 358.8L417.309 360.7C419.909 361.367 422.375 362.033 424.709 362.7C426.442 363.433 428.042 364.533 429.509 366C430.575 367.067 431.442 368.3 432.109 369.7C433.975 373.633 434.309 378 433.109 382.8C431.575 389.333 427.975 394.8 422.309 399.2C421.842 399.533 421.375 399.867 420.909 400.2C418.575 401.6 416.609 402.567 415.009 403.1C412.542 403.9 410.009 404.267 407.409 404.2C403.275 404 399.809 403.2 397.009 401.8C395.675 401.2 394.309 400.233 392.909 398.9L392.009 398C391.942 398 390.975 399 389.109 401L386.009 404.1L385.009 404.2H384.909C384.375 404.2 384.009 404.1 383.809 403.9C383.609 403.7 383.509 403.533 383.509 403.4C383.509 403.2 385.442 395.367 389.309 379.9C389.442 379.5 390.275 379.3 391.809 379.3H393.609L393.909 379.6C394.175 379.867 394.209 380.567 394.009 381.7C394.009 381.833 393.975 382 393.909 382.2C393.442 384.667 393.375 386.733 393.709 388.4C395.042 394.867 399.942 398.267 408.409 398.6C410.142 398.6 411.609 398.4 412.809 398C416.542 396.8 419.542 394.2 421.809 390.2C422.742 388.667 423.375 387.067 423.709 385.4C424.509 381.4 423.875 378.2 421.809 375.8C421.142 375.133 420.275 374.567 419.209 374.1L412.309 372.2C407.242 370.867 404.142 369.9 403.009 369.3C398.475 366.7 396.109 362.567 395.909 356.9C395.775 354.5 396.142 352.033 397.009 349.5C399.075 343.233 403.109 338.367 409.109 334.9C409.909 334.433 410.742 334 411.609 333.6C413.875 332.533 415.975 331.9 417.909 331.7C418.175 331.633 418.542 331.6 419.009 331.6ZM449.437 334.6L449.737 334.3H479.437C499.437 334.3 509.603 334.5 509.937 334.9C510.07 335.233 509.503 339.233 508.237 346.9C506.903 354.767 506.203 358.733 506.137 358.8C505.87 359.133 505.07 359.3 503.737 359.3C502.337 359.3 501.57 359.1 501.437 358.7C501.303 358.433 501.337 357.6 501.537 356.2C502.537 350.133 502.737 346.067 502.137 344C501.537 342 499.437 340.7 495.837 340.1C495.237 340.033 493.303 340 490.037 340C486.237 339.933 484.17 340.1 483.837 340.5C483.703 340.633 481.37 349.867 476.837 368.2L469.937 395.7L470.237 395.9C471.103 396.233 474.403 396.4 480.137 396.4H483.237L483.637 396.7C483.837 396.967 483.937 397.2 483.937 397.4L483.037 401.4C482.837 401.8 482.17 401.967 481.037 401.9C480.637 401.9 479.67 401.9 478.137 401.9C464.203 401.633 453.337 401.667 445.537 402H444.037L443.737 401.7C443.403 401.367 443.37 400.6 443.637 399.4C443.637 399.267 443.67 399.133 443.737 399C444.07 397.533 444.37 396.733 444.637 396.6C444.837 396.467 446.003 396.4 448.137 396.4C452.603 396.4 455.503 396.3 456.837 396.1C457.903 396.033 458.637 395.8 459.037 395.4C459.17 395.2 461.503 385.967 466.037 367.7C470.637 349.367 472.937 340.167 472.937 340.1C472.67 339.967 470.603 339.9 466.737 339.9C463.67 339.967 461.803 340.067 461.137 340.2C457.27 340.8 454.437 342.2 452.637 344.4C450.903 346.533 449.037 350.567 447.037 356.5C446.503 357.967 446.237 358.733 446.237 358.8C445.97 359.133 445.17 359.3 443.837 359.3C442.503 359.3 441.703 359.067 441.437 358.6L441.337 358.3L445.137 346.6C447.803 338.8 449.237 334.8 449.437 334.6ZM517.135 333.9C517.335 333.767 517.902 333.7 518.835 333.7C525.035 333.967 531.935 334.033 539.535 333.9L547.135 333.7H548.235L548.535 334C548.802 334.267 548.935 334.533 548.935 334.8C548.935 335.867 548.602 337.167 547.935 338.7C547.802 339.1 546.835 339.3 545.035 339.3C544.702 339.3 544.302 339.3 543.835 339.3C539.902 339.367 537.702 339.633 537.235 340.1L536.835 340.4L530.035 368C525.435 386.267 523.135 395.5 523.135 395.7C523.068 395.9 523.368 396.033 524.035 396.1C524.902 396.233 526.568 396.333 529.035 396.4C531.568 396.4 532.968 396.633 533.235 397.1C533.302 397.3 533.202 398.067 532.935 399.4C532.602 400.667 532.302 401.433 532.035 401.7L531.735 402H530.135C522.468 401.667 513.768 401.633 504.035 401.9C501.768 401.967 500.502 401.767 500.235 401.3C500.168 401.1 500.268 400.333 500.535 399C500.935 397.667 501.202 396.9 501.335 396.7L501.735 396.4H505.235C508.768 396.333 510.868 396.133 511.535 395.8C511.735 395.733 511.968 395.567 512.235 395.3L526.035 340C526.035 339.933 525.968 339.833 525.835 339.7C525.302 339.5 523.435 339.367 520.235 339.3C517.635 339.3 516.235 339.1 516.035 338.7C515.902 338.5 515.968 337.733 516.235 336.4C516.568 335 516.868 334.167 517.135 333.9ZM551.878 334.6L552.178 334.3H581.878C601.878 334.3 612.045 334.5 612.378 334.9C612.511 335.233 611.945 339.233 610.678 346.9C609.345 354.767 608.645 358.733 608.578 358.8C608.311 359.133 607.511 359.3 606.178 359.3C604.778 359.3 604.011 359.1 603.878 358.7C603.745 358.433 603.778 357.6 603.978 356.2C604.978 350.133 605.178 346.067 604.578 344C603.978 342 601.878 340.7 598.278 340.1C597.678 340.033 595.745 340 592.478 340C588.678 339.933 586.611 340.1 586.278 340.5C586.145 340.633 583.811 349.867 579.278 368.2L572.378 395.7L572.678 395.9C573.545 396.233 576.845 396.4 582.578 396.4H585.678L586.078 396.7C586.278 396.967 586.378 397.2 586.378 397.4L585.478 401.4C585.278 401.8 584.611 401.967 583.478 401.9C583.078 401.9 582.111 401.9 580.578 401.9C566.645 401.633 555.778 401.667 547.978 402H546.478L546.178 401.7C545.845 401.367 545.811 400.6 546.078 399.4C546.078 399.267 546.111 399.133 546.178 399C546.511 397.533 546.811 396.733 547.078 396.6C547.278 396.467 548.445 396.4 550.578 396.4C555.045 396.4 557.945 396.3 559.278 396.1C560.345 396.033 561.078 395.8 561.478 395.4C561.611 395.2 563.945 385.967 568.478 367.7C573.078 349.367 575.378 340.167 575.378 340.1C575.111 339.967 573.045 339.9 569.178 339.9C566.111 339.967 564.245 340.067 563.578 340.2C559.711 340.8 556.878 342.2 555.078 344.4C553.345 346.533 551.478 350.567 549.478 356.5C548.945 357.967 548.678 358.733 548.678 358.8C548.411 359.133 547.611 359.3 546.278 359.3C544.945 359.3 544.145 359.067 543.878 358.6L543.778 358.3L547.578 346.6C550.245 338.8 551.678 334.8 551.878 334.6ZM608.077 333.8C608.21 333.733 608.81 333.7 609.877 333.7C617.943 334.033 626.343 334.067 635.077 333.8C637.21 333.733 638.41 333.933 638.677 334.4C638.81 334.6 638.71 335.367 638.377 336.7C638.043 337.967 637.81 338.733 637.677 339L637.377 339.3H633.877C630.543 339.367 628.61 339.533 628.077 339.8C627.743 339.933 627.51 340.167 627.377 340.5C626.977 341.433 625.21 348.233 622.077 360.9C618.61 374.833 616.843 382 616.777 382.4C615.443 389.2 616.51 393.867 619.977 396.4C621.043 397.267 622.677 397.933 624.877 398.4C626.943 398.667 629.043 398.633 631.177 398.3C637.243 397.3 642.177 394.3 645.977 389.3C647.71 386.967 649.077 384.333 650.077 381.4L659.877 342.3C659.877 341.3 659.343 340.6 658.277 340.2C657.077 339.6 655.177 339.3 652.577 339.3H651.477L651.077 339C650.877 338.733 650.777 338.5 650.777 338.3L651.877 334.2C652.077 333.867 652.977 333.733 654.577 333.8C654.777 333.8 655.077 333.8 655.477 333.8C660.01 334.067 665.71 334.1 672.577 333.9C673.243 333.833 673.777 333.8 674.177 333.8C676.177 333.733 677.31 333.933 677.577 334.4C677.71 334.6 677.61 335.367 677.277 336.7C676.943 338.033 676.677 338.8 676.477 339L676.177 339.3H675.077C670.21 339.3 667.077 340.367 665.677 342.5C665.343 343.5 663.743 349.867 660.877 361.6C657.543 374.6 655.877 381.133 655.877 381.2C653.743 387.733 650.01 393.133 644.677 397.4C638.677 402.133 632.443 404.4 625.977 404.2C622.31 404 619.077 403.2 616.277 401.8C614.477 400.867 612.943 399.767 611.677 398.5C608.943 395.833 607.177 392.667 606.377 389C605.843 386.6 605.81 384 606.277 381.2C606.277 381.067 607.977 374.067 611.377 360.2C614.71 347.133 616.377 340.4 616.377 340C616.377 339.933 616.31 339.833 616.177 339.7C615.91 339.567 614.11 339.433 610.777 339.3H607.377L606.977 338.9C606.777 338.7 606.677 338.5 606.677 338.3L607.777 334.2C607.777 334.133 607.877 334 608.077 333.8ZM678.538 334.6L678.838 334.3H708.538C728.538 334.3 738.705 334.5 739.038 334.9C739.172 335.233 738.605 339.233 737.338 346.9C736.005 354.767 735.305 358.733 735.238 358.8C734.972 359.133 734.172 359.3 732.838 359.3C731.438 359.3 730.672 359.1 730.538 358.7C730.405 358.433 730.438 357.6 730.638 356.2C731.638 350.133 731.838 346.067 731.238 344C730.638 342 728.538 340.7 724.938 340.1C724.338 340.033 722.405 340 719.138 340C715.338 339.933 713.272 340.1 712.938 340.5C712.805 340.633 710.472 349.867 705.938 368.2L699.038 395.7L699.338 395.9C700.205 396.233 703.505 396.4 709.238 396.4H712.338L712.738 396.7C712.938 396.967 713.038 397.2 713.038 397.4L712.138 401.4C711.938 401.8 711.272 401.967 710.138 401.9C709.738 401.9 708.772 401.9 707.238 401.9C693.305 401.633 682.438 401.667 674.638 402H673.138L672.838 401.7C672.505 401.367 672.472 400.6 672.738 399.4C672.738 399.267 672.772 399.133 672.838 399C673.172 397.533 673.472 396.733 673.738 396.6C673.938 396.467 675.105 396.4 677.238 396.4C681.705 396.4 684.605 396.3 685.938 396.1C687.005 396.033 687.738 395.8 688.138 395.4C688.272 395.2 690.605 385.967 695.138 367.7C699.738 349.367 702.038 340.167 702.038 340.1C701.772 339.967 699.705 339.9 695.838 339.9C692.772 339.967 690.905 340.067 690.238 340.2C686.372 340.8 683.538 342.2 681.738 344.4C680.005 346.533 678.138 350.567 676.138 356.5C675.605 357.967 675.338 358.733 675.338 358.8C675.072 359.133 674.272 359.3 672.938 359.3C671.605 359.3 670.805 359.067 670.538 358.6L670.438 358.3L674.238 346.6C676.905 338.8 678.338 334.8 678.538 334.6ZM746.637 334.2L746.937 334H774.937H802.837L803.237 334.3C803.437 334.567 803.537 334.833 803.537 335.1L800.637 357.9C800.637 358.233 800.503 358.5 800.237 358.7L799.937 359H798.237C797.037 359 796.337 358.933 796.137 358.8C795.803 358.6 795.703 357.8 795.837 356.4C795.837 356.267 795.837 356.1 795.837 355.9C796.17 353.167 796.337 350.9 796.337 349.1C796.137 345.1 794.803 342.467 792.337 341.2C791.137 340.667 789.903 340.3 788.637 340.1C786.77 339.767 782.637 339.633 776.237 339.7C769.837 339.7 766.47 339.9 766.137 340.3L760.137 363.9H765.437C769.837 363.833 772.67 363.567 773.937 363.1C775.403 362.633 776.603 361.8 777.537 360.6C778.47 359.4 779.337 357.233 780.137 354.1C780.403 353.233 780.637 352.7 780.837 352.5L781.137 352.2H782.837C784.237 352.2 785.07 352.433 785.337 352.9C785.403 353.167 784.337 357.8 782.137 366.8C779.803 375.933 778.603 380.533 778.537 380.6C778.403 381 777.603 381.2 776.137 381.2H774.437L774.037 380.9C773.77 380.567 773.77 379.8 774.037 378.6C774.837 375.2 774.937 372.867 774.337 371.6C773.87 370.6 772.537 369.967 770.337 369.7C769.937 369.633 767.87 369.6 764.137 369.6L758.737 369.5L755.437 382.6C753.237 391.467 752.137 395.933 752.137 396C752.137 396.067 752.203 396.167 752.337 396.3H770.437C774.37 396.1 777.737 395.367 780.537 394.1C782.203 393.233 783.703 392.2 785.037 391C787.637 388.4 790.403 383.567 793.337 376.5C793.87 375.1 794.27 374.267 794.537 374L794.837 373.7H796.637H798.437L798.737 374C799.003 374.267 799.003 374.8 798.737 375.6C798.403 376.6 796.737 380.8 793.737 388.2C790.07 397 788.237 401.433 788.237 401.5C788.103 401.767 787.137 401.9 785.337 401.9C783.203 401.967 774.437 402 759.037 402C739.903 402 730.203 401.8 729.937 401.4C729.803 401.2 729.87 400.433 730.137 399.1C730.47 397.633 730.803 396.8 731.137 396.6C731.47 396.467 732.67 396.4 734.737 396.4C738.47 396.333 740.57 396.067 741.037 395.6C741.237 395.467 743.637 386.2 748.237 367.8C752.837 349.4 755.07 340.167 754.937 340.1C754.803 339.967 754.57 339.9 754.237 339.9C753.103 339.7 751.17 339.6 748.437 339.6C746.703 339.6 745.737 339.4 745.537 339C745.403 338.8 745.47 338.033 745.737 336.7C746.07 335.3 746.37 334.467 746.637 334.2Z" fill="#C40000"/>
</svg>
