<svg width="1112" height="621" viewBox="0 0 1112 621" fill="none" xmlns="http://www.w3.org/2000/svg">
<path d="M319.227 116.079H633V182.346H319.227V116.079ZM434.773 257.257H567.27V322.947H434.773V257.257ZM552.049 257.257H594.946C594.946 257.257 594.6 278.001 593.562 287.221C587.335 445.109 580.07 510.224 566.232 535.578C555.854 554.018 544.784 559.78 528.87 562.661C515.724 564.39 492.546 563.814 469.368 562.661C468.676 542.493 462.449 513.681 454.492 494.666C478.362 498.123 502.924 498.123 512.957 498.123C520.568 498.123 525.411 497.547 529.908 491.208C540.287 476.226 546.859 410.535 551.703 268.205L552.049 257.257ZM419.205 155.263H465.908C460.719 309.694 451.378 477.955 342.751 569C336.524 550.56 324.07 525.206 313 510.8C413.67 433.008 415.746 286.645 419.205 155.263ZM452.762 21H495.659V142.009H452.762V21Z" fill="white"/>
<path d="M0 141.011H280V217.131H0V141.011ZM109.792 0L149.967 14.3506C125.739 149.122 92.0044 316.338 67.1632 424.28L29.7481 396.826C54.2826 295.124 88.0175 127.908 109.792 0ZM195.663 178.447L236.145 197.165C211.61 456.725 154.874 547.196 22.0811 587.128C18.4009 564.042 10.1205 532.221 2.76013 512.879C125.739 484.178 175.422 408.681 195.663 178.447ZM49.989 384.347L74.8302 325.697C140.153 369.997 229.704 451.733 274.786 518.495L246.572 589C205.476 521.614 118.379 434.263 49.989 384.347Z" fill="#FF0000"/>
<path d="M13.5803 5.81818H18.321L23.3281 18.0341H23.5412L28.5483 5.81818H33.2891V24H29.5604V12.1658H29.4094L24.7042 23.9112H22.1651L17.4599 12.1214H17.3089V24H13.5803V5.81818ZM40.3003 5.81818V24H36.4562V5.81818H40.3003ZM53.3263 11.0472C53.2553 10.3311 52.9505 9.77474 52.4119 9.3782C51.8733 8.98165 51.1424 8.78338 50.2191 8.78338C49.5917 8.78338 49.062 8.87216 48.63 9.04972C48.1979 9.22135 47.8665 9.46106 47.6357 9.76882C47.4107 10.0766 47.2983 10.4258 47.2983 10.8164C47.2865 11.1419 47.3545 11.426 47.5025 11.6687C47.6564 11.9113 47.8665 12.1214 48.1328 12.299C48.3991 12.4706 48.7069 12.6216 49.0561 12.7518C49.4053 12.8761 49.7782 12.9826 50.1747 13.0714L51.8082 13.462C52.6013 13.6396 53.3293 13.8763 53.9922 14.1722C54.6551 14.4682 55.2292 14.8321 55.7145 15.2642C56.1998 15.6963 56.5756 16.2053 56.842 16.7912C57.1142 17.3771 57.2533 18.0489 57.2592 18.8065C57.2533 19.9192 56.9692 20.8839 56.407 21.7006C55.8506 22.5115 55.0457 23.1418 53.9922 23.5916C52.9446 24.0355 51.681 24.2575 50.2013 24.2575C48.7335 24.2575 47.4551 24.0326 46.3661 23.5827C45.283 23.1329 44.4367 22.4671 43.8271 21.5852C43.2234 20.6974 42.9067 19.5996 42.8771 18.2915H46.5969C46.6384 18.9012 46.813 19.4102 47.1207 19.8185C47.4344 20.221 47.8517 20.5258 48.3725 20.733C48.8993 20.9342 49.4941 21.0348 50.157 21.0348C50.808 21.0348 51.3732 20.9401 51.8526 20.7507C52.3379 20.5613 52.7138 20.2979 52.9801 19.9606C53.2464 19.6232 53.3796 19.2356 53.3796 18.7976C53.3796 18.3892 53.2583 18.0459 53.0156 17.7678C52.7789 17.4896 52.4297 17.2528 51.968 17.0575C51.5123 16.8622 50.953 16.6847 50.2901 16.5249L48.3104 16.0277C46.7775 15.6548 45.5671 15.0719 44.6793 14.2788C43.7915 13.4857 43.3506 12.4174 43.3565 11.0739C43.3506 9.97301 43.6436 9.01124 44.2354 8.18857C44.8332 7.36589 45.6529 6.72372 46.6946 6.26207C47.7363 5.80043 48.92 5.5696 50.2457 5.5696C51.5952 5.5696 52.773 5.80043 53.7791 6.26207C54.7912 6.72372 55.5784 7.36589 56.1406 8.18857C56.7029 9.01124 56.9929 9.96413 57.0107 11.0472H53.3263ZM76.553 14.9091C76.553 16.8918 76.1772 18.5786 75.4255 19.9695C74.6798 21.3603 73.6618 22.4227 72.3715 23.1566C71.0872 23.8846 69.6431 24.2486 68.0392 24.2486C66.4234 24.2486 64.9733 23.8816 63.689 23.1477C62.4047 22.4138 61.3896 21.3514 60.6439 19.9606C59.8982 18.5697 59.5253 16.8859 59.5253 14.9091C59.5253 12.9264 59.8982 11.2396 60.6439 9.84872C61.3896 8.45786 62.4047 7.39844 63.689 6.67045C64.9733 5.93655 66.4234 5.5696 68.0392 5.5696C69.6431 5.5696 71.0872 5.93655 72.3715 6.67045C73.6618 7.39844 74.6798 8.45786 75.4255 9.84872C76.1772 11.2396 76.553 12.9264 76.553 14.9091ZM72.6556 14.9091C72.6556 13.6248 72.4633 12.5417 72.0786 11.6598C71.6998 10.7779 71.1642 10.1091 70.4717 9.65341C69.7792 9.19768 68.9684 8.96982 68.0392 8.96982C67.1099 8.96982 66.2991 9.19768 65.6066 9.65341C64.9142 10.1091 64.3756 10.7779 63.9909 11.6598C63.6121 12.5417 63.4227 13.6248 63.4227 14.9091C63.4227 16.1934 63.6121 17.2765 63.9909 18.1584C64.3756 19.0402 64.9142 19.709 65.6066 20.1648C66.2991 20.6205 67.1099 20.8484 68.0392 20.8484C68.9684 20.8484 69.7792 20.6205 70.4717 20.1648C71.1642 19.709 71.6998 19.0402 72.0786 18.1584C72.4633 17.2765 72.6556 16.1934 72.6556 14.9091ZM91.4567 11.6953C91.3324 11.2633 91.1578 10.8815 90.9329 10.5501C90.708 10.2127 90.4328 9.92862 90.1072 9.6978C89.7876 9.46106 89.4207 9.28054 89.0064 9.15625C88.598 9.03196 88.1452 8.96982 87.6481 8.96982C86.7189 8.96982 85.9021 9.20064 85.1978 9.66229C84.4994 10.1239 83.9549 10.7957 83.5643 11.6776C83.1737 12.5535 82.9783 13.6248 82.9783 14.8913C82.9783 16.1579 83.1707 17.2351 83.5554 18.1229C83.9401 19.0107 84.4846 19.6883 85.1889 20.1559C85.8932 20.6175 86.7248 20.8484 87.6836 20.8484C88.5536 20.8484 89.2964 20.6945 89.9119 20.3867C90.5334 20.073 91.0069 19.6321 91.3324 19.0639C91.6638 18.4957 91.8295 17.824 91.8295 17.0487L92.6108 17.1641H87.9233V14.2699H95.5316V16.5604C95.5316 18.1584 95.1942 19.5315 94.5195 20.6797C93.8448 21.822 92.9156 22.7038 91.7319 23.3253C90.5482 23.9408 89.1928 24.2486 87.6658 24.2486C85.9613 24.2486 84.4639 23.8728 83.1737 23.1211C81.8834 22.3635 80.8772 21.2893 80.1552 19.8984C79.439 18.5017 79.081 16.8445 79.081 14.9268C79.081 13.4531 79.294 12.1392 79.7202 10.9851C80.1522 9.82505 80.7559 8.84257 81.5312 8.03764C82.3066 7.23272 83.2092 6.62015 84.239 6.19993C85.2688 5.77971 86.3845 5.5696 87.5859 5.5696C88.6158 5.5696 89.5746 5.72053 90.4624 6.02237C91.3501 6.3183 92.1373 6.73852 92.8239 7.28303C93.5163 7.82753 94.0816 8.47561 94.5195 9.22727C94.9575 9.97301 95.2386 10.7957 95.3629 11.6953H91.4567ZM96.6214 5.81818H100.927L105.073 13.6484H105.251L109.397 5.81818H113.702L107.071 17.5724V24H103.253V17.5724L96.6214 5.81818ZM131.01 5.81818V24H127.689L119.779 12.5565H119.646V24H115.802V5.81818H119.176L127.024 17.2528H127.183V5.81818H131.01ZM133.12 5.81818H137.426L141.572 13.6484H141.75L145.896 5.81818H150.201L143.57 17.5724V24H139.752V17.5724L133.12 5.81818ZM161.931 5.81818V24H158.087V5.81818H161.931ZM180.302 5.81818V24H176.981L169.071 12.5565H168.938V24H165.094V5.81818H168.468L176.316 17.2528H176.475V5.81818H180.302ZM29.6225 42.1836H25.734C25.663 41.6805 25.518 41.2337 25.299 40.843C25.08 40.4465 24.7989 40.1091 24.4556 39.831C24.1123 39.5528 23.7158 39.3397 23.266 39.1918C22.8221 39.0438 22.3397 38.9698 21.8189 38.9698C20.8778 38.9698 20.0581 39.2036 19.3597 39.6712C18.6613 40.1328 18.1198 40.8075 17.7351 41.6953C17.3504 42.5772 17.158 43.6484 17.158 44.9091C17.158 46.2053 17.3504 47.2943 17.7351 48.1761C18.1257 49.058 18.6702 49.7238 19.3686 50.1737C20.067 50.6235 20.8749 50.8484 21.7923 50.8484C22.3072 50.8484 22.7836 50.7803 23.2216 50.6442C23.6655 50.508 24.0591 50.3098 24.4023 50.0494C24.7456 49.783 25.0297 49.4605 25.2546 49.0817C25.4854 48.7029 25.6452 48.2708 25.734 47.7855L29.6225 47.8033C29.5219 48.6378 29.2704 49.4427 28.8679 50.218C28.4714 50.9875 27.9357 51.677 27.261 52.2866C26.5922 52.8903 25.7932 53.3697 24.864 53.7248C23.9407 54.074 22.8961 54.2486 21.7301 54.2486C20.1084 54.2486 18.6584 53.8816 17.38 53.1477C16.1075 52.4138 15.1013 51.3514 14.3615 49.9606C13.6276 48.5697 13.2607 46.8859 13.2607 44.9091C13.2607 42.9264 13.6335 41.2396 14.3793 39.8487C15.125 38.4579 16.1371 37.3984 17.4155 36.6705C18.6939 35.9366 20.1321 35.5696 21.7301 35.5696C22.7836 35.5696 23.7602 35.7176 24.6598 36.0135C25.5653 36.3094 26.3673 36.7415 27.0657 37.3097C27.7641 37.8719 28.3323 38.5614 28.7702 39.3782C29.2141 40.195 29.4982 41.1301 29.6225 42.1836ZM32.3791 54V35.8182H36.2232V43.32H44.0268V35.8182H47.862V54H44.0268V46.4893H36.2232V54H32.3791ZM54.8755 35.8182V54H51.0314V35.8182H54.8755ZM73.246 35.8182V54H69.9257L62.0155 42.5565H61.8824V54H58.0383V35.8182H61.4118L69.2599 47.2528H69.4197V35.8182H73.246ZM76.4221 54V35.8182H88.6735V38.9876H80.2662V43.32H88.0431V46.4893H80.2662V50.8306H88.709V54H76.4221ZM101.593 41.0472C101.522 40.3311 101.217 39.7747 100.679 39.3782C100.14 38.9817 99.409 38.7834 98.4857 38.7834C97.8583 38.7834 97.3286 38.8722 96.8966 39.0497C96.4645 39.2214 96.1331 39.4611 95.9023 39.7688C95.6773 40.0766 95.5649 40.4258 95.5649 40.8164C95.5531 41.1419 95.6211 41.426 95.7691 41.6687C95.923 41.9113 96.1331 42.1214 96.3994 42.299C96.6657 42.4706 96.9735 42.6216 97.3227 42.7518C97.6719 42.8761 98.0448 42.9826 98.4413 43.0714L100.075 43.462C100.868 43.6396 101.596 43.8763 102.259 44.1722C102.922 44.4682 103.496 44.8321 103.981 45.2642C104.466 45.6963 104.842 46.2053 105.109 46.7912C105.381 47.3771 105.52 48.0489 105.526 48.8065C105.52 49.9192 105.236 50.8839 104.674 51.7006C104.117 52.5115 103.312 53.1418 102.259 53.5916C101.211 54.0355 99.9476 54.2575 98.468 54.2575C97.0001 54.2575 95.7217 54.0326 94.6327 53.5827C93.5496 53.1329 92.7033 52.4671 92.0937 51.5852C91.49 50.6974 91.1733 49.5996 91.1437 48.2915H94.8635C94.905 48.9012 95.0796 49.4102 95.3873 49.8185C95.701 50.221 96.1183 50.5258 96.6391 50.733C97.1659 50.9342 97.7607 51.0348 98.4236 51.0348C99.0746 51.0348 99.6398 50.9401 100.119 50.7507C100.605 50.5613 100.98 50.2979 101.247 49.9606C101.513 49.6232 101.646 49.2356 101.646 48.7976C101.646 48.3892 101.525 48.0459 101.282 47.7678C101.045 47.4896 100.696 47.2528 100.235 47.0575C99.7789 46.8622 99.2196 46.6847 98.5567 46.5249L96.577 46.0277C95.0441 45.6548 93.8337 45.0719 92.9459 44.2788C92.0581 43.4857 91.6172 42.4174 91.6231 41.0739C91.6172 39.973 91.9102 39.0112 92.502 38.1886C93.0998 37.3659 93.9195 36.7237 94.9612 36.2621C96.0029 35.8004 97.1866 35.5696 98.5123 35.5696C99.8618 35.5696 101.04 35.8004 102.046 36.2621C103.058 36.7237 103.845 37.3659 104.407 38.1886C104.969 39.0112 105.259 39.9641 105.277 41.0472H101.593ZM108.112 54V35.8182H120.363V38.9876H111.956V43.32H119.733V46.4893H111.956V50.8306H120.398V54H108.112ZM29.6225 72.1836H25.734C25.663 71.6805 25.518 71.2337 25.299 70.843C25.08 70.4465 24.7989 70.1091 24.4556 69.831C24.1123 69.5528 23.7158 69.3397 23.266 69.1918C22.8221 69.0438 22.3397 68.9698 21.8189 68.9698C20.8778 68.9698 20.0581 69.2036 19.3597 69.6712C18.6613 70.1328 18.1198 70.8075 17.7351 71.6953C17.3504 72.5772 17.158 73.6484 17.158 74.9091C17.158 76.2053 17.3504 77.2943 17.7351 78.1761C18.1257 79.058 18.6702 79.7238 19.3686 80.1737C20.067 80.6235 20.8749 80.8484 21.7923 80.8484C22.3072 80.8484 22.7836 80.7803 23.2216 80.6442C23.6655 80.508 24.0591 80.3098 24.4023 80.0494C24.7456 79.783 25.0297 79.4605 25.2546 79.0817C25.4854 78.7029 25.6452 78.2708 25.734 77.7855L29.6225 77.8033C29.5219 78.6378 29.2704 79.4427 28.8679 80.218C28.4714 80.9875 27.9357 81.677 27.261 82.2866C26.5922 82.8903 25.7932 83.3697 24.864 83.7248C23.9407 84.074 22.8961 84.2486 21.7301 84.2486C20.1084 84.2486 18.6584 83.8816 17.38 83.1477C16.1075 82.4138 15.1013 81.3514 14.3615 79.9606C13.6276 78.5697 13.2607 76.8859 13.2607 74.9091C13.2607 72.9264 13.6335 71.2396 14.3793 69.8487C15.125 68.4579 16.1371 67.3984 17.4155 66.6705C18.6939 65.9366 20.1321 65.5696 21.7301 65.5696C22.7836 65.5696 23.7602 65.7176 24.6598 66.0135C25.5653 66.3094 26.3673 66.7415 27.0657 67.3097C27.7641 67.8719 28.3323 68.5614 28.7702 69.3782C29.2141 70.195 29.4982 71.1301 29.6225 72.1836ZM32.3791 84V65.8182H36.2232V73.32H44.0268V65.8182H47.862V84H44.0268V76.4893H36.2232V84H32.3791ZM54.1653 84H50.046L56.3226 65.8182H61.2765L67.5442 84H63.4249L58.8706 69.973H58.7285L54.1653 84ZM53.9078 76.8533H63.638V79.854H53.9078V76.8533ZM69.7326 84V65.8182H76.9059C78.279 65.8182 79.4509 66.0638 80.4215 66.555C81.3981 67.0404 82.1409 67.7299 82.6499 68.6236C83.1648 69.5114 83.4222 70.556 83.4222 71.7575C83.4222 72.9648 83.1618 74.0036 82.641 74.8736C82.1201 75.7377 81.3655 76.4006 80.3771 76.8622C79.3946 77.3239 78.205 77.5547 76.8082 77.5547H72.0053V74.4652H76.1868C76.9207 74.4652 77.5303 74.3646 78.0156 74.1634C78.5009 73.9621 78.862 73.6603 79.0987 73.2578C79.3414 72.8554 79.4627 72.3552 79.4627 71.7575C79.4627 71.1538 79.3414 70.6448 79.0987 70.2305C78.862 69.8162 78.498 69.5025 78.0067 69.2894C77.5214 69.0704 76.9089 68.9609 76.169 68.9609H73.5767V84H69.7326ZM79.5515 75.7259L84.0703 84H79.8267L75.4055 75.7259H79.5515ZM89.2727 84H85.1534L91.43 65.8182H96.3839L102.652 84H98.5323L93.978 69.973H93.8359L89.2727 84ZM89.0153 76.8533H98.7454V79.854H89.0153V76.8533ZM120.028 72.1836H116.139C116.068 71.6805 115.923 71.2337 115.704 70.843C115.485 70.4465 115.204 70.1091 114.861 69.831C114.518 69.5528 114.121 69.3397 113.671 69.1918C113.227 69.0438 112.745 68.9698 112.224 68.9698C111.283 68.9698 110.463 69.2036 109.765 69.6712C109.067 70.1328 108.525 70.8075 108.14 71.6953C107.756 72.5772 107.563 73.6484 107.563 74.9091C107.563 76.2053 107.756 77.2943 108.14 78.1761C108.531 79.058 109.075 79.7238 109.774 80.1737C110.472 80.6235 111.28 80.8484 112.198 80.8484C112.712 80.8484 113.189 80.7803 113.627 80.6442C114.071 80.508 114.464 80.3098 114.808 80.0494C115.151 79.783 115.435 79.4605 115.66 79.0817C115.891 78.7029 116.051 78.2708 116.139 77.7855L120.028 77.8033C119.927 78.6378 119.676 79.4427 119.273 80.218C118.877 80.9875 118.341 81.677 117.666 82.2866C116.997 82.8903 116.198 83.3697 115.269 83.7248C114.346 84.074 113.301 84.2486 112.135 84.2486C110.514 84.2486 109.064 83.8816 107.785 83.1477C106.513 82.4138 105.507 81.3514 104.767 79.9606C104.033 78.5697 103.666 76.8859 103.666 74.9091C103.666 72.9264 104.039 71.2396 104.785 69.8487C105.53 68.4579 106.542 67.3984 107.821 66.6705C109.099 65.9366 110.537 65.5696 112.135 65.5696C113.189 65.5696 114.165 65.7176 115.065 66.0135C115.971 66.3094 116.773 66.7415 117.471 67.3097C118.169 67.8719 118.738 68.5614 119.176 69.3782C119.619 70.195 119.903 71.1301 120.028 72.1836ZM122.092 68.9876V65.8182H137.024V68.9876H131.458V84H127.658V68.9876H122.092ZM139.484 84V65.8182H151.735V68.9876H143.328V73.32H151.105V76.4893H143.328V80.8306H151.771V84H139.484ZM154.791 84V65.8182H161.964C163.338 65.8182 164.509 66.0638 165.48 66.555C166.457 67.0404 167.199 67.7299 167.708 68.6236C168.223 69.5114 168.481 70.556 168.481 71.7575C168.481 72.9648 168.22 74.0036 167.7 74.8736C167.179 75.7377 166.424 76.4006 165.436 76.8622C164.453 77.3239 163.264 77.5547 161.867 77.5547H157.064V74.4652H161.245C161.979 74.4652 162.589 74.3646 163.074 74.1634C163.56 73.9621 163.921 73.6603 164.157 73.2578C164.4 72.8554 164.521 72.3552 164.521 71.7575C164.521 71.1538 164.4 70.6448 164.157 70.2305C163.921 69.8162 163.557 69.5025 163.065 69.2894C162.58 69.0704 161.967 68.9609 161.228 68.9609H158.635V84H154.791ZM164.61 75.7259L169.129 84H164.885L160.464 75.7259H164.61ZM181.061 71.0472C180.99 70.3311 180.685 69.7747 180.146 69.3782C179.608 68.9817 178.877 68.7834 177.953 68.7834C177.326 68.7834 176.796 68.8722 176.364 69.0497C175.932 69.2214 175.601 69.4611 175.37 69.7688C175.145 70.0766 175.033 70.4258 175.033 70.8164C175.021 71.1419 175.089 71.426 175.237 71.6687C175.391 71.9113 175.601 72.1214 175.867 72.299C176.134 72.4706 176.441 72.6216 176.79 72.7518C177.14 72.8761 177.513 72.9826 177.909 73.0714L179.543 73.462C180.336 73.6396 181.064 73.8763 181.727 74.1722C182.389 74.4682 182.964 74.8321 183.449 75.2642C183.934 75.6963 184.31 76.2053 184.576 76.7912C184.849 77.3771 184.988 78.0489 184.994 78.8065C184.988 79.9192 184.704 80.8839 184.141 81.7006C183.585 82.5115 182.78 83.1418 181.727 83.5916C180.679 84.0355 179.415 84.2575 177.936 84.2575C176.468 84.2575 175.19 84.0326 174.1 83.5827C173.017 83.1329 172.171 82.4671 171.561 81.5852C170.958 80.6974 170.641 79.5996 170.612 78.2915H174.331C174.373 78.9012 174.547 79.4102 174.855 79.8185C175.169 80.221 175.586 80.5258 176.107 80.733C176.634 80.9342 177.228 81.0348 177.891 81.0348C178.542 81.0348 179.108 80.9401 179.587 80.7507C180.072 80.5613 180.448 80.2979 180.714 79.9606C180.981 79.6232 181.114 79.2356 181.114 78.7976C181.114 78.3892 180.993 78.0459 180.75 77.7678C180.513 77.4896 180.164 77.2528 179.702 77.0575C179.247 76.8622 178.687 76.6847 178.025 76.5249L176.045 76.0277C174.512 75.6548 173.301 75.0719 172.414 74.2788C171.526 73.4857 171.085 72.4174 171.091 71.0739C171.085 69.973 171.378 69.0112 171.97 68.1886C172.568 67.3659 173.387 66.7237 174.429 66.2621C175.471 65.8004 176.654 65.5696 177.98 65.5696C179.33 65.5696 180.507 65.8004 181.513 66.2621C182.526 66.7237 183.313 67.3659 183.875 68.1886C184.437 69.0112 184.727 69.9641 184.745 71.0472H181.061Z" fill="white"/>
<path d="M16.8075 585L10.5646 563.182H15.6037L19.2152 578.342H19.3963L23.3807 563.182H27.6953L31.669 578.374H31.8608L35.4723 563.182H40.5114L34.2685 585H29.7727L25.6179 570.735H25.4474L21.3033 585H16.8075ZM61.7995 574.091C61.7995 576.47 61.3485 578.494 60.4466 580.163C59.5517 581.832 58.3301 583.107 56.7818 583.988C55.2406 584.862 53.5076 585.298 51.5829 585.298C49.644 585.298 47.9039 584.858 46.3627 583.977C44.8216 583.097 43.6035 581.822 42.7086 580.153C41.8137 578.484 41.3663 576.463 41.3663 574.091C41.3663 571.712 41.8137 569.688 42.7086 568.018C43.6035 566.349 44.8216 565.078 46.3627 564.205C47.9039 563.324 49.644 562.884 51.5829 562.884C53.5076 562.884 55.2406 563.324 56.7818 564.205C58.3301 565.078 59.5517 566.349 60.4466 568.018C61.3485 569.688 61.7995 571.712 61.7995 574.091ZM57.1227 574.091C57.1227 572.55 56.8919 571.25 56.4302 570.192C55.9757 569.134 55.3329 568.331 54.502 567.784C53.671 567.237 52.698 566.964 51.5829 566.964C50.4679 566.964 49.4949 567.237 48.6639 567.784C47.8329 568.331 47.1866 569.134 46.725 570.192C46.2704 571.25 46.0431 572.55 46.0431 574.091C46.0431 575.632 46.2704 576.932 46.725 577.99C47.1866 579.048 47.8329 579.851 48.6639 580.398C49.4949 580.945 50.4679 581.218 51.5829 581.218C52.698 581.218 53.671 580.945 54.502 580.398C55.3329 579.851 55.9757 579.048 56.4302 577.99C56.8919 576.932 57.1227 575.632 57.1227 574.091ZM65.2166 563.182H70.9055L76.9141 577.841H77.1697L83.1783 563.182H88.8672V585H84.3928V570.799H84.2116L78.5653 584.893H75.5185L69.8722 570.746H69.6911V585H65.2166V563.182ZM92.6678 585V563.182H107.369V566.985H97.2807V572.184H106.613V575.987H97.2807V581.197H107.412V585H92.6678ZM129.286 563.182V585H125.302L115.81 571.268H115.65V585H111.037V563.182H115.085L124.503 576.903H124.695V563.182H129.286Z" fill="white"/>
<path fill-rule="evenodd" clip-rule="evenodd" d="M641.134 13.9286H310.866V571.071H641.134V13.9286ZM280 0V585H672V0H280Z" fill="#FF0000"/>
<path d="M544.942 160L537.659 134.545H543.538L547.751 152.232H547.962L552.611 134.545H557.645L562.281 152.269H562.504L566.718 134.545H572.597L565.313 160H560.068L555.221 143.358H555.022L550.187 160H544.942ZM577.301 160H571.534L580.321 134.545H587.257L596.031 160H590.264L583.888 140.362H583.689L577.301 160ZM576.941 149.995H590.563V154.196H576.941V149.995ZM595.006 134.545H601.034L606.838 145.508H607.087L612.891 134.545H618.919L609.635 151.001V160H604.29V151.001L595.006 134.545Z" fill="black"/>
<path d="M99.565 255.11C99.7583 255.013 100.628 254.965 102.175 254.965C113.872 255.448 126.052 255.497 138.715 255.11C141.808 255.013 143.548 255.303 143.935 255.98C144.128 256.27 143.983 257.382 143.5 259.315C143.017 261.152 142.678 262.263 142.485 262.65L142.05 263.085H136.975C132.142 263.182 129.338 263.423 128.565 263.81C127.985 264.003 127.598 264.487 127.405 265.26C126.922 266.42 125.472 271.882 123.055 281.645L118.85 298.465H139.15L159.45 298.32L163.8 281.355C166.603 270.142 168.005 264.39 168.005 264.1C168.005 264.003 167.908 263.858 167.715 263.665C167.328 263.472 164.718 263.278 159.885 263.085H154.955L154.375 262.505C154.085 262.215 153.94 261.925 153.94 261.635L155.535 255.69C155.825 255.207 157.082 255.013 159.305 255.11C159.692 255.11 160.465 255.11 161.625 255.11C169.552 255.497 179.605 255.545 191.785 255.255C192.945 255.158 193.912 255.11 194.685 255.11C198.068 255.013 199.953 255.303 200.34 255.98C200.533 256.27 200.388 257.382 199.905 259.315C199.422 261.152 199.083 262.263 198.89 262.65L198.455 263.085H193.38C188.547 263.182 185.743 263.423 184.97 263.81C184.487 264.003 184.197 264.293 184.1 264.68C183.52 266.13 180.088 279.422 173.805 304.555C167.135 331.235 163.752 344.623 163.655 344.72C163.558 345.107 163.993 345.348 164.96 345.445C166.12 345.638 168.392 345.783 171.775 345.88C175.352 345.88 177.333 346.218 177.72 346.895C177.817 347.185 177.672 348.297 177.285 350.23C176.802 352.067 176.367 353.178 175.98 353.565L175.545 354H173.225C162.688 353.517 150.508 353.468 136.685 353.855C133.495 353.952 131.707 353.662 131.32 352.985C131.223 352.695 131.368 351.583 131.755 349.65C132.335 347.717 132.722 346.605 132.915 346.315L133.495 345.88H138.425C143.838 345.783 146.883 345.397 147.56 344.72C147.85 344.527 149.59 338.147 152.78 325.58L157.42 306.73C157.42 306.633 150.653 306.585 137.12 306.585H116.82L112.035 325.725C108.845 338.582 107.298 345.058 107.395 345.155C107.588 345.348 107.927 345.445 108.41 345.445C109.57 345.735 112.47 345.88 117.11 345.88C119.527 345.88 120.928 346.218 121.315 346.895C121.412 347.282 121.267 348.393 120.88 350.23C120.397 352.067 119.962 353.178 119.575 353.565L119.14 354H116.82C106.283 353.517 94.1033 353.468 80.28 353.855C77.09 353.952 75.3017 353.662 74.915 352.985C74.8183 352.695 74.9633 351.583 75.35 349.65C75.93 347.717 76.3167 346.605 76.51 346.315L77.09 345.88H82.02C87.4333 345.783 90.4783 345.397 91.155 344.72C91.445 344.527 94.925 331.09 101.595 304.41C108.265 277.73 111.6 264.293 111.6 264.1C111.6 264.003 111.503 263.858 111.31 263.665C110.923 263.472 108.313 263.278 103.48 263.085H98.55L97.97 262.505C97.68 262.215 97.535 261.925 97.535 261.635L99.13 255.69C99.13 255.593 99.275 255.4 99.565 255.11ZM268.208 250.325L271.543 250.18H271.688C274.298 250.18 275.7 250.47 275.893 251.05C275.99 251.437 277.295 267.097 279.808 298.03C282.225 329.157 283.53 344.817 283.723 345.01C283.82 345.107 284.158 345.252 284.738 345.445C285.898 345.735 288.701 345.88 293.148 345.88H296.048L296.628 346.315C296.918 346.798 297.063 347.137 297.063 347.33L295.758 353.13C295.468 353.71 294.405 353.952 292.568 353.855C292.181 353.855 291.456 353.855 290.393 353.855C276.376 353.468 264.921 353.517 256.028 354H254.288L253.853 353.565C253.466 353.178 253.273 352.792 253.273 352.405C253.273 350.858 253.756 348.973 254.723 346.75C254.916 346.17 256.318 345.88 258.928 345.88C261.248 345.687 262.795 345.59 263.568 345.59C265.791 345.203 267 344.817 267.193 344.43C267.29 344.333 267.096 341.143 266.613 334.86C266.13 329.253 265.888 326.063 265.888 325.29C265.888 325.097 260.378 325 249.358 325H232.683L228.333 332.685C225.24 337.905 223.645 340.757 223.548 341.24C223.161 342.207 223.306 343.028 223.983 343.705C224.95 344.865 227.028 345.59 230.218 345.88C231.571 345.88 232.441 346.218 232.828 346.895L232.973 347.33L232.248 350.23C231.861 352.067 231.475 353.178 231.088 353.565L230.653 354H228.913C220.89 353.613 213.301 353.517 206.148 353.71C201.218 353.903 198.705 354 198.608 354H197.593L197.158 353.565C196.771 353.178 196.578 352.84 196.578 352.55L197.883 346.75C198.27 346.17 199.381 345.88 201.218 345.88C207.985 345.59 212.673 343.657 215.283 340.08L241.528 295.13C258.348 266.033 266.951 251.292 267.338 250.905C267.435 250.808 267.725 250.615 268.208 250.325ZM263.568 296C262.505 282.177 261.973 275.168 261.973 274.975C261.973 274.588 259.846 278.117 255.593 285.56L243.413 306.585L237.468 316.735L251.243 316.88H265.163C265.163 316.977 264.631 310.017 263.568 296ZM329.108 255.11C329.301 255.013 337.808 254.965 354.628 254.965C372.221 255.062 381.84 255.255 383.483 255.545C383.676 255.642 384.111 255.738 384.788 255.835C393.681 257.478 400.11 261.297 404.073 267.29C406.296 270.577 407.36 274.153 407.263 278.02C407.166 280.727 406.441 283.482 405.088 286.285C403.735 288.992 401.85 291.505 399.433 293.825C394.696 298.562 388.171 302.38 379.858 305.28C379.761 305.28 379.906 305.425 380.293 305.715C380.486 305.908 380.68 306.053 380.873 306.15C384.256 308.47 386.625 311.563 387.978 315.43C388.848 318.137 389.09 321.907 388.703 326.74C388.606 327.803 388.461 329.157 388.268 330.8C387.785 335.827 387.543 339.5 387.543 341.82C387.64 345.397 388.316 347.813 389.573 349.07C390.443 349.843 391.748 350.23 393.488 350.23C394.551 350.23 395.325 350.133 395.808 349.94C396.968 349.457 398.128 348.538 399.288 347.185C400.545 345.348 401.511 343.463 402.188 341.53C402.671 339.983 403.251 339.113 403.928 338.92C404.315 338.823 405.04 338.775 406.103 338.775C407.94 338.775 409.051 339.017 409.438 339.5C410.115 340.273 409.631 342.303 407.988 345.59C405.088 351.68 401.125 355.402 396.098 356.755C395.325 356.948 393.875 357.045 391.748 357.045C389.235 357.045 387.591 356.997 386.818 356.9C377.441 355.643 371.786 351.777 369.853 345.3C369.273 343.367 369.176 341.192 369.563 338.775C370.046 336.358 370.723 333.41 371.593 329.93C372.56 326.063 373.236 323.163 373.623 321.23C374.106 318.62 373.72 316.058 372.463 313.545C371.98 312.675 371.351 311.853 370.578 311.08C368.935 309.533 366.905 308.518 364.488 308.035C364.101 307.938 360.815 307.89 354.628 307.89H345.638L345.493 308.47C345.493 308.373 343.946 314.512 340.853 326.885C337.856 338.968 336.406 345.058 336.503 345.155C336.696 345.348 337.035 345.445 337.518 345.445C338.678 345.735 341.578 345.88 346.218 345.88C348.635 345.88 350.036 346.218 350.423 346.895C350.52 347.282 350.375 348.393 349.988 350.23C349.505 352.067 349.07 353.178 348.683 353.565L348.248 354H346.073C335.536 353.517 323.453 353.468 309.823 353.855C306.633 353.952 304.845 353.662 304.458 352.985C304.361 352.695 304.506 351.583 304.893 349.65C305.473 347.717 305.86 346.605 306.053 346.315L306.633 345.88H311.563C316.976 345.783 320.021 345.397 320.698 344.72C320.988 344.527 324.468 331.09 331.138 304.41C337.808 277.73 341.143 264.293 341.143 264.1C341.143 264.003 341.046 263.858 340.853 263.665C340.466 263.472 337.856 263.278 333.023 263.085H328.093L327.513 262.505C327.223 262.215 327.078 261.925 327.078 261.635L328.673 255.69C328.673 255.593 328.818 255.4 329.108 255.11ZM378.263 263.375C377.683 263.278 374.3 263.182 368.113 263.085L358.543 263.23C357.576 263.327 356.948 263.617 356.658 264.1L347.378 301.075H357.093C364.15 300.978 368.016 300.882 368.693 300.785C377.49 299.528 383.338 295.952 386.238 290.055C387.785 286.865 389.041 282.708 390.008 277.585C390.395 275.072 390.395 272.945 390.008 271.205C388.848 266.952 384.933 264.342 378.263 263.375ZM439.277 255.255C439.567 255.062 444.884 254.965 455.227 254.965C465.474 254.965 470.742 255.062 471.032 255.255C471.322 255.448 471.564 255.69 471.757 255.98C471.951 256.367 473.594 269.562 476.687 295.565L481.472 334.715L505.977 295.565C521.927 269.562 530.144 256.318 530.627 255.835L531.497 255.255H531.642C532.029 255.062 537.249 254.965 547.302 254.965C557.356 254.965 562.527 255.062 562.817 255.255C563.011 255.352 563.204 255.593 563.397 255.98C563.494 256.463 563.301 257.575 562.817 259.315C562.334 261.152 561.996 262.263 561.802 262.65L561.367 263.085H556.292C551.459 263.182 548.656 263.423 547.882 263.81C547.399 264.003 547.109 264.293 547.012 264.68C546.432 266.13 543.001 279.422 536.717 304.555C530.047 331.235 526.664 344.623 526.567 344.72C526.471 345.01 526.906 345.252 527.872 345.445C528.936 345.638 531.256 345.783 534.832 345.88C537.829 345.88 539.521 345.977 539.907 346.17C540.487 346.363 540.777 346.798 540.777 347.475L539.327 353.13C538.941 353.71 537.926 353.952 536.282 353.855C535.799 353.855 534.784 353.855 533.237 353.855C525.504 353.468 515.692 353.42 503.802 353.71C502.642 353.807 501.724 353.855 501.047 353.855C497.761 353.952 495.924 353.71 495.537 353.13C495.344 352.84 495.441 351.728 495.827 349.795C496.311 347.668 496.794 346.46 497.277 346.17C497.761 345.977 499.501 345.88 502.497 345.88C507.911 345.783 510.956 345.397 511.632 344.72C511.922 344.527 515.402 331.09 522.072 304.41L531.932 264.68L504.672 308.47C486.596 337.76 477.412 352.55 477.122 352.84C476.736 353.227 476.397 353.468 476.107 353.565C475.624 353.855 474.609 354 473.062 354C471.032 354 469.921 353.662 469.727 352.985C469.631 352.695 467.842 338.195 464.362 309.485C460.786 280.678 458.997 266.227 458.997 266.13L441.452 336.31C440.582 339.693 440.147 341.482 440.147 341.675C440.147 344.188 443.289 345.59 449.572 345.88C451.119 345.88 452.086 345.977 452.472 346.17C453.052 346.363 453.342 346.798 453.342 347.475L451.892 353.13C451.506 353.71 450.539 353.952 448.992 353.855C448.606 353.855 447.784 353.855 446.527 353.855C439.954 353.468 431.786 353.42 422.022 353.71C421.056 353.807 420.282 353.855 419.702 353.855C416.899 353.952 415.304 353.71 414.917 353.13C414.724 352.84 414.821 351.728 415.207 349.795C415.691 347.765 416.126 346.557 416.512 346.17C416.802 345.977 417.479 345.88 418.542 345.88C422.699 345.88 426.179 345.252 428.982 343.995C430.819 342.932 431.882 341.917 432.172 340.95L451.457 264.1C451.457 264.003 451.361 263.858 451.167 263.665C450.781 263.472 448.171 263.278 443.337 263.085H438.407L437.827 262.505C437.441 262.118 437.489 260.958 437.972 259.025C438.552 256.705 438.987 255.448 439.277 255.255Z" fill="#C40000"/>
<path d="M334.565 370.11C334.758 370.013 335.628 369.965 337.175 369.965C348.872 370.448 361.052 370.497 373.715 370.11C376.808 370.013 378.548 370.303 378.935 370.98C379.128 371.27 378.983 372.382 378.5 374.315C378.017 376.152 377.678 377.263 377.485 377.65L377.05 378.085H371.975C367.142 378.182 364.338 378.423 363.565 378.81C362.985 379.003 362.598 379.487 362.405 380.26C361.922 381.42 360.472 386.882 358.055 396.645L353.85 413.465H374.15L394.45 413.32L398.8 396.355C401.603 385.142 403.005 379.39 403.005 379.1C403.005 379.003 402.908 378.858 402.715 378.665C402.328 378.472 399.718 378.278 394.885 378.085H389.955L389.375 377.505C389.085 377.215 388.94 376.925 388.94 376.635L390.535 370.69C390.825 370.207 392.082 370.013 394.305 370.11C394.692 370.11 395.465 370.11 396.625 370.11C404.552 370.497 414.605 370.545 426.785 370.255C427.945 370.158 428.912 370.11 429.685 370.11C433.068 370.013 434.953 370.303 435.34 370.98C435.533 371.27 435.388 372.382 434.905 374.315C434.422 376.152 434.083 377.263 433.89 377.65L433.455 378.085H428.38C423.547 378.182 420.743 378.423 419.97 378.81C419.487 379.003 419.197 379.293 419.1 379.68C418.52 381.13 415.088 394.422 408.805 419.555C402.135 446.235 398.752 459.623 398.655 459.72C398.558 460.107 398.993 460.348 399.96 460.445C401.12 460.638 403.392 460.783 406.775 460.88C410.352 460.88 412.333 461.218 412.72 461.895C412.817 462.185 412.672 463.297 412.285 465.23C411.802 467.067 411.367 468.178 410.98 468.565L410.545 469H408.225C397.688 468.517 385.508 468.468 371.685 468.855C368.495 468.952 366.707 468.662 366.32 467.985C366.223 467.695 366.368 466.583 366.755 464.65C367.335 462.717 367.722 461.605 367.915 461.315L368.495 460.88H373.425C378.838 460.783 381.883 460.397 382.56 459.72C382.85 459.527 384.59 453.147 387.78 440.58L392.42 421.73C392.42 421.633 385.653 421.585 372.12 421.585H351.82L347.035 440.725C343.845 453.582 342.298 460.058 342.395 460.155C342.588 460.348 342.927 460.445 343.41 460.445C344.57 460.735 347.47 460.88 352.11 460.88C354.527 460.88 355.928 461.218 356.315 461.895C356.412 462.282 356.267 463.393 355.88 465.23C355.397 467.067 354.962 468.178 354.575 468.565L354.14 469H351.82C341.283 468.517 329.103 468.468 315.28 468.855C312.09 468.952 310.302 468.662 309.915 467.985C309.818 467.695 309.963 466.583 310.35 464.65C310.93 462.717 311.317 461.605 311.51 461.315L312.09 460.88H317.02C322.433 460.783 325.478 460.397 326.155 459.72C326.445 459.527 329.925 446.09 336.595 419.41C343.265 392.73 346.6 379.293 346.6 379.1C346.6 379.003 346.503 378.858 346.31 378.665C345.923 378.472 343.313 378.278 338.48 378.085H333.55L332.97 377.505C332.68 377.215 332.535 376.925 332.535 376.635L334.13 370.69C334.13 370.593 334.275 370.4 334.565 370.11ZM503.208 365.325L506.543 365.18H506.688C509.298 365.18 510.7 365.47 510.893 366.05C510.99 366.437 512.295 382.097 514.808 413.03C517.225 444.157 518.53 459.817 518.723 460.01C518.82 460.107 519.158 460.252 519.738 460.445C520.898 460.735 523.701 460.88 528.148 460.88H531.048L531.628 461.315C531.918 461.798 532.063 462.137 532.063 462.33L530.758 468.13C530.468 468.71 529.405 468.952 527.568 468.855C527.181 468.855 526.456 468.855 525.393 468.855C511.376 468.468 499.921 468.517 491.028 469H489.288L488.853 468.565C488.466 468.178 488.273 467.792 488.273 467.405C488.273 465.858 488.756 463.973 489.723 461.75C489.916 461.17 491.318 460.88 493.928 460.88C496.248 460.687 497.795 460.59 498.568 460.59C500.791 460.203 502 459.817 502.193 459.43C502.29 459.333 502.096 456.143 501.613 449.86C501.13 444.253 500.888 441.063 500.888 440.29C500.888 440.097 495.378 440 484.358 440H467.683L463.333 447.685C460.24 452.905 458.645 455.757 458.548 456.24C458.161 457.207 458.306 458.028 458.983 458.705C459.95 459.865 462.028 460.59 465.218 460.88C466.571 460.88 467.441 461.218 467.828 461.895L467.973 462.33L467.248 465.23C466.861 467.067 466.475 468.178 466.088 468.565L465.653 469H463.913C455.89 468.613 448.301 468.517 441.148 468.71C436.218 468.903 433.705 469 433.608 469H432.593L432.158 468.565C431.771 468.178 431.578 467.84 431.578 467.55L432.883 461.75C433.27 461.17 434.381 460.88 436.218 460.88C442.985 460.59 447.673 458.657 450.283 455.08L476.528 410.13C493.348 381.033 501.951 366.292 502.338 365.905C502.435 365.808 502.725 365.615 503.208 365.325ZM498.568 411C497.505 397.177 496.973 390.168 496.973 389.975C496.973 389.588 494.846 393.117 490.593 400.56L478.413 421.585L472.468 431.735L486.243 431.88H500.163C500.163 431.977 499.631 425.017 498.568 411ZM564.108 370.11C564.301 370.013 572.808 369.965 589.628 369.965C607.221 370.062 616.84 370.255 618.483 370.545C618.676 370.642 619.111 370.738 619.788 370.835C628.681 372.478 635.11 376.297 639.073 382.29C641.296 385.577 642.36 389.153 642.263 393.02C642.166 395.727 641.441 398.482 640.088 401.285C638.735 403.992 636.85 406.505 634.433 408.825C629.696 413.562 623.171 417.38 614.858 420.28C614.761 420.28 614.906 420.425 615.293 420.715C615.486 420.908 615.68 421.053 615.873 421.15C619.256 423.47 621.625 426.563 622.978 430.43C623.848 433.137 624.09 436.907 623.703 441.74C623.606 442.803 623.461 444.157 623.268 445.8C622.785 450.827 622.543 454.5 622.543 456.82C622.64 460.397 623.316 462.813 624.573 464.07C625.443 464.843 626.748 465.23 628.488 465.23C629.551 465.23 630.325 465.133 630.808 464.94C631.968 464.457 633.128 463.538 634.288 462.185C635.545 460.348 636.511 458.463 637.188 456.53C637.671 454.983 638.251 454.113 638.928 453.92C639.315 453.823 640.04 453.775 641.103 453.775C642.94 453.775 644.051 454.017 644.438 454.5C645.115 455.273 644.631 457.303 642.988 460.59C640.088 466.68 636.125 470.402 631.098 471.755C630.325 471.948 628.875 472.045 626.748 472.045C624.235 472.045 622.591 471.997 621.818 471.9C612.441 470.643 606.786 466.777 604.853 460.3C604.273 458.367 604.176 456.192 604.563 453.775C605.046 451.358 605.723 448.41 606.593 444.93C607.56 441.063 608.236 438.163 608.623 436.23C609.106 433.62 608.72 431.058 607.463 428.545C606.98 427.675 606.351 426.853 605.578 426.08C603.935 424.533 601.905 423.518 599.488 423.035C599.101 422.938 595.815 422.89 589.628 422.89H580.638L580.493 423.47C580.493 423.373 578.946 429.512 575.853 441.885C572.856 453.968 571.406 460.058 571.503 460.155C571.696 460.348 572.035 460.445 572.518 460.445C573.678 460.735 576.578 460.88 581.218 460.88C583.635 460.88 585.036 461.218 585.423 461.895C585.52 462.282 585.375 463.393 584.988 465.23C584.505 467.067 584.07 468.178 583.683 468.565L583.248 469H581.073C570.536 468.517 558.453 468.468 544.823 468.855C541.633 468.952 539.845 468.662 539.458 467.985C539.361 467.695 539.506 466.583 539.893 464.65C540.473 462.717 540.86 461.605 541.053 461.315L541.633 460.88H546.563C551.976 460.783 555.021 460.397 555.698 459.72C555.988 459.527 559.468 446.09 566.138 419.41C572.808 392.73 576.143 379.293 576.143 379.1C576.143 379.003 576.046 378.858 575.853 378.665C575.466 378.472 572.856 378.278 568.023 378.085H563.093L562.513 377.505C562.223 377.215 562.078 376.925 562.078 376.635L563.673 370.69C563.673 370.593 563.818 370.4 564.108 370.11ZM613.263 378.375C612.683 378.278 609.3 378.182 603.113 378.085L593.543 378.23C592.576 378.327 591.948 378.617 591.658 379.1L582.378 416.075H592.093C599.15 415.978 603.016 415.882 603.693 415.785C612.49 414.528 618.338 410.952 621.238 405.055C622.785 401.865 624.041 397.708 625.008 392.585C625.395 390.072 625.395 387.945 625.008 386.205C623.848 381.952 619.933 379.342 613.263 378.375ZM674.277 370.255C674.567 370.062 679.884 369.965 690.227 369.965C700.474 369.965 705.742 370.062 706.032 370.255C706.322 370.448 706.564 370.69 706.757 370.98C706.951 371.367 708.594 384.562 711.687 410.565L716.472 449.715L740.977 410.565C756.927 384.562 765.144 371.318 765.627 370.835L766.497 370.255H766.642C767.029 370.062 772.249 369.965 782.302 369.965C792.356 369.965 797.527 370.062 797.817 370.255C798.011 370.352 798.204 370.593 798.397 370.98C798.494 371.463 798.301 372.575 797.817 374.315C797.334 376.152 796.996 377.263 796.802 377.65L796.367 378.085H791.292C786.459 378.182 783.656 378.423 782.882 378.81C782.399 379.003 782.109 379.293 782.012 379.68C781.432 381.13 778.001 394.422 771.717 419.555C765.047 446.235 761.664 459.623 761.567 459.72C761.471 460.01 761.906 460.252 762.872 460.445C763.936 460.638 766.256 460.783 769.832 460.88C772.829 460.88 774.521 460.977 774.907 461.17C775.487 461.363 775.777 461.798 775.777 462.475L774.327 468.13C773.941 468.71 772.926 468.952 771.282 468.855C770.799 468.855 769.784 468.855 768.237 468.855C760.504 468.468 750.692 468.42 738.802 468.71C737.642 468.807 736.724 468.855 736.047 468.855C732.761 468.952 730.924 468.71 730.537 468.13C730.344 467.84 730.441 466.728 730.827 464.795C731.311 462.668 731.794 461.46 732.277 461.17C732.761 460.977 734.501 460.88 737.497 460.88C742.911 460.783 745.956 460.397 746.632 459.72C746.922 459.527 750.402 446.09 757.072 419.41L766.932 379.68L739.672 423.47C721.596 452.76 712.412 467.55 712.122 467.84C711.736 468.227 711.397 468.468 711.107 468.565C710.624 468.855 709.609 469 708.062 469C706.032 469 704.921 468.662 704.727 467.985C704.631 467.695 702.842 453.195 699.362 424.485C695.786 395.678 693.997 381.227 693.997 381.13L676.452 451.31C675.582 454.693 675.147 456.482 675.147 456.675C675.147 459.188 678.289 460.59 684.572 460.88C686.119 460.88 687.086 460.977 687.472 461.17C688.052 461.363 688.342 461.798 688.342 462.475L686.892 468.13C686.506 468.71 685.539 468.952 683.992 468.855C683.606 468.855 682.784 468.855 681.527 468.855C674.954 468.468 666.786 468.42 657.022 468.71C656.056 468.807 655.282 468.855 654.702 468.855C651.899 468.952 650.304 468.71 649.917 468.13C649.724 467.84 649.821 466.728 650.207 464.795C650.691 462.765 651.126 461.557 651.512 461.17C651.802 460.977 652.479 460.88 653.542 460.88C657.699 460.88 661.179 460.252 663.982 458.995C665.819 457.932 666.882 456.917 667.172 455.95L686.457 379.1C686.457 379.003 686.361 378.858 686.167 378.665C685.781 378.472 683.171 378.278 678.337 378.085H673.407L672.827 377.505C672.441 377.118 672.489 375.958 672.972 374.025C673.552 371.705 673.987 370.448 674.277 370.255Z" fill="#C40000"/>
</svg>
